<svg xmlns="http://www.w3.org/2000/svg" xmlns:xlink="http://www.w3.org/1999/xlink" width="340" zoomAndPan="magnify" viewBox="0 0 255 249.749992" height="332" preserveAspectRatio="xMidYMid meet" version="1.0"><defs><clipPath id="ddfd089587"><path d="M 11 6 L 242 6 L 242 244.144531 L 11 244.144531 Z M 11 6 " clip-rule="nonzero"/></clipPath></defs><g clip-path="url(#ddfd089587)"><path fill="#f0a308" d="M 231.089844 217.714844 L 231.140625 217.714844 Z M 50.878906 17.546875 C 48.625 17.546875 46.496094 18.566406 44.191406 20.589844 C 43.929688 20.835938 40.660156 23.945312 38.484375 26.011719 L 36.503906 27.898438 C 25.421875 38.269531 20.398438 56.949219 23.707031 75.496094 C 24.773438 81.496094 26.496094 87.707031 28.824219 93.964844 C 40.5625 125.535156 62.859375 152.996094 79.492188 170.46875 C 96.050781 188.066406 122.246094 211.828125 153.097656 225.253906 C 159.210938 227.914062 165.320312 229.96875 171.242188 231.359375 C 189.570312 235.660156 208.464844 231.632812 219.398438 221.109375 L 221.863281 218.769531 C 223.945312 216.792969 226.699219 214.183594 227.136719 213.761719 C 233.882812 206.816406 230.472656 201.003906 216.855469 187.128906 L 213.4375 183.617188 C 204.773438 174.617188 190.261719 159.550781 178.003906 161.011719 C 174.691406 161.402344 171.210938 163.832031 167.527344 166.410156 C 163.855469 168.980469 160.054688 171.636719 155.480469 173.085938 C 143.222656 176.972656 130.789062 174.421875 120.460938 165.898438 C 114.308594 160.816406 108.039062 154.878906 102.339844 148.710938 C 96.597656 142.792969 91.007812 136.210938 86.265625 129.777344 C 78.316406 118.996094 76.441406 106.421875 80.972656 94.375 C 82.664062 89.878906 85.519531 86.222656 88.28125 82.679688 C 91.042969 79.132812 93.652344 75.785156 94.222656 72.5 C 96.324219 60.304688 82.085938 45 73.570312 35.859375 L 70.242188 32.246094 C 61.246094 22.386719 55.777344 17.546875 50.878906 17.546875 Z M 186.015625 244.226562 C 179.871094 244.226562 173.964844 243.480469 168.695312 242.25 C 162.117188 240.703125 155.375 238.433594 148.648438 235.507812 C 116.058594 221.324219 88.644531 196.5 71.390625 178.164062 C 54.050781 159.953125 30.757812 131.21875 18.359375 97.867188 C 15.796875 90.984375 13.894531 84.117188 12.714844 77.457031 C 9.5625 59.8125 12.160156 35.371094 28.878906 19.722656 L 30.796875 17.902344 C 33.125 15.6875 36.671875 12.316406 36.820312 12.195312 C 53.59375 -2.558594 68.574219 13.84375 78.492188 24.703125 L 81.742188 28.238281 C 91.664062 38.898438 108.273438 56.738281 105.222656 74.402344 C 104.179688 80.457031 100.410156 85.292969 97.082031 89.5625 C 94.734375 92.570312 92.515625 95.414062 91.425781 98.3125 C 88.226562 106.816406 89.546875 115.398438 95.25 123.136719 C 99.699219 129.171875 104.957031 135.355469 110.449219 141.023438 C 115.898438 146.917969 121.785156 152.503906 127.5625 157.269531 C 134.972656 163.382812 143.453125 165.164062 152.109375 162.429688 C 155.058594 161.492188 158.015625 159.425781 161.144531 157.238281 C 165.574219 154.140625 170.597656 150.628906 176.691406 149.902344 C 194.453125 147.757812 211.378906 165.359375 221.476562 175.859375 L 224.820312 179.289062 C 235.121094 189.78125 250.679688 205.640625 235.078125 221.628906 L 235.078125 221.625 C 234.851562 221.847656 231.820312 224.734375 229.535156 226.894531 L 227.140625 229.164062 C 215.628906 240.25 200.207031 244.226562 186.015625 244.226562 " fill-opacity="1" fill-rule="nonzero"/></g><path fill="#f0a308" d="M 195.484375 127.785156 C 192.550781 127.785156 190.09375 125.492188 189.917969 122.523438 C 189.023438 107.472656 182.839844 93.15625 172.496094 82.230469 C 162.144531 71.296875 148.199219 64.339844 133.238281 62.644531 C 130.171875 62.296875 127.96875 59.527344 128.320312 56.460938 C 128.664062 53.390625 131.441406 51.1875 134.492188 51.535156 C 152.0625 53.527344 168.441406 61.699219 180.59375 74.535156 C 192.75 87.375 200.019531 104.183594 201.066406 121.863281 C 201.246094 124.945312 198.898438 127.59375 195.820312 127.773438 C 195.707031 127.785156 195.597656 127.785156 195.484375 127.785156 " fill-opacity="1" fill-rule="nonzero"/><path fill="#f0a308" d="M 237.253906 134.109375 C 234.324219 134.109375 231.863281 131.820312 231.6875 128.847656 C 230.074219 101.617188 218.882812 75.730469 200.167969 55.960938 C 181.453125 36.1875 156.234375 23.609375 129.164062 20.542969 C 126.097656 20.199219 123.894531 17.429688 124.246094 14.359375 C 124.585938 11.292969 127.359375 9.074219 130.417969 9.429688 C 160.105469 12.792969 187.75 26.582031 208.269531 48.269531 C 228.796875 69.949219 241.070312 98.332031 242.835938 128.1875 C 243.015625 131.273438 240.667969 133.917969 237.589844 134.101562 C 237.480469 134.105469 237.367188 134.109375 237.253906 134.109375 " fill-opacity="1" fill-rule="nonzero"/></svg>