<svg xmlns="http://www.w3.org/2000/svg" xmlns:xlink="http://www.w3.org/1999/xlink" width="500" zoomAndPan="magnify" viewBox="0 0 375 374.999991" height="500" preserveAspectRatio="xMidYMid meet" version="1.0"><defs><g/><clipPath id="89a532f958"><path d="M 126 62.386719 L 360 62.386719 L 360 215 L 126 215 Z M 126 62.386719 " clip-rule="nonzero"/></clipPath><clipPath id="4e663f96f1"><path d="M 126 62.386719 L 360 62.386719 L 360 216 L 126 216 Z M 126 62.386719 " clip-rule="nonzero"/></clipPath><clipPath id="2c6aa1bf3b"><path d="M 113 283 L 161 283 L 161 312.886719 L 113 312.886719 Z M 113 283 " clip-rule="nonzero"/></clipPath><clipPath id="9728f0f17c"><path d="M 181.945312 117.136719 L 260.410156 117.136719 L 260.410156 157.210938 L 181.945312 157.210938 Z M 181.945312 117.136719 " clip-rule="nonzero"/></clipPath></defs><path fill="#ffffff" d="M 350.714844 230.027344 L 151.828125 230.027344 C 145.519531 230.027344 140.855469 224.910156 141.40625 218.597656 L 152.707031 89.296875 C 153.257812 82.984375 158.820312 77.863281 165.125 77.863281 L 364.011719 77.863281 C 370.316406 77.863281 374.980469 82.984375 374.429688 89.296875 L 363.128906 218.597656 C 362.578125 224.910156 357.019531 230.027344 350.714844 230.027344 " fill-opacity="1" fill-rule="nonzero"/><path fill="#000000" d="M 165.125 78.164062 C 158.980469 78.164062 153.546875 83.167969 153.007812 89.320312 L 141.707031 218.621094 C 141.449219 221.601562 142.363281 224.394531 144.28125 226.492188 C 146.191406 228.578125 148.871094 229.726562 151.828125 229.726562 L 350.714844 229.726562 C 356.859375 229.726562 362.292969 224.722656 362.832031 218.570312 L 374.132812 89.269531 C 374.390625 86.292969 373.476562 83.5 371.558594 81.398438 C 369.648438 79.3125 366.96875 78.164062 364.011719 78.164062 Z M 350.714844 230.328125 L 151.828125 230.328125 C 148.699219 230.328125 145.863281 229.109375 143.839844 226.898438 C 141.800781 224.675781 140.832031 221.71875 141.109375 218.570312 L 152.410156 89.269531 C 152.972656 82.816406 158.675781 77.5625 165.125 77.5625 L 364.011719 77.5625 C 367.140625 77.5625 369.976562 78.78125 372 80.992188 C 374.035156 83.214844 375.003906 86.175781 374.730469 89.320312 L 363.429688 218.621094 C 362.867188 225.078125 357.160156 230.328125 350.714844 230.328125 " fill-opacity="1" fill-rule="nonzero"/><path fill="#000000" d="M 373.59375 99.1875 L 151.871094 99.1875 C 151.703125 99.1875 151.570312 99.050781 151.570312 98.886719 C 151.570312 98.71875 151.703125 98.585938 151.871094 98.585938 L 373.59375 98.585938 C 373.757812 98.585938 373.894531 98.71875 373.894531 98.886719 C 373.894531 99.050781 373.757812 99.1875 373.59375 99.1875 " fill-opacity="1" fill-rule="nonzero"/><path fill="#745ff6" d="M 171.539062 88.9375 C 171.289062 91.765625 168.800781 94.058594 165.976562 94.058594 C 163.152344 94.058594 161.0625 91.765625 161.3125 88.9375 C 161.558594 86.105469 164.046875 83.8125 166.871094 83.8125 C 169.695312 83.8125 171.785156 86.105469 171.539062 88.9375 " fill-opacity="1" fill-rule="nonzero"/><path fill="#5236ff" d="M 186.460938 88.9375 C 186.210938 91.765625 183.722656 94.058594 180.898438 94.058594 C 178.074219 94.058594 175.988281 91.765625 176.234375 88.9375 C 176.480469 86.105469 178.972656 83.8125 181.792969 83.8125 C 184.617188 83.8125 186.707031 86.105469 186.460938 88.9375 " fill-opacity="1" fill-rule="nonzero"/><path fill="#5236ff" d="M 201.382812 88.9375 C 201.136719 91.765625 198.648438 94.058594 195.824219 94.058594 C 192.996094 94.058594 190.910156 91.765625 191.15625 88.9375 C 191.40625 86.105469 193.894531 83.8125 196.71875 83.8125 C 199.542969 83.8125 201.632812 86.105469 201.382812 88.9375 " fill-opacity="1" fill-rule="nonzero"/><g clip-path="url(#89a532f958)"><path fill="#ffffff" d="M 335.65625 214.953125 L 136.769531 214.953125 C 130.464844 214.953125 125.796875 209.835938 126.347656 203.523438 L 137.648438 74.21875 C 138.203125 67.90625 143.761719 62.789062 150.066406 62.789062 L 348.953125 62.789062 C 355.257812 62.789062 359.925781 67.90625 359.371094 74.21875 L 348.070312 203.523438 C 347.519531 209.835938 341.960938 214.953125 335.65625 214.953125 " fill-opacity="1" fill-rule="nonzero"/></g><g clip-path="url(#4e663f96f1)"><path fill="#000000" d="M 150.066406 63.089844 C 143.921875 63.089844 138.488281 68.09375 137.949219 74.246094 L 126.648438 203.546875 C 126.390625 206.523438 127.304688 209.316406 129.222656 211.417969 C 131.132812 213.5 133.8125 214.652344 136.769531 214.652344 L 335.65625 214.652344 C 341.796875 214.652344 347.234375 209.648438 347.769531 203.496094 L 359.070312 74.191406 C 359.332031 71.21875 358.417969 68.421875 356.496094 66.324219 C 354.589844 64.238281 351.90625 63.089844 348.953125 63.089844 Z M 335.65625 215.253906 L 136.769531 215.253906 C 133.640625 215.253906 130.804688 214.035156 128.78125 211.824219 C 126.746094 209.597656 125.773438 206.640625 126.050781 203.496094 L 137.347656 74.191406 C 137.914062 67.738281 143.617188 62.488281 150.066406 62.488281 L 348.953125 62.488281 C 352.078125 62.488281 354.917969 63.707031 356.941406 65.917969 C 358.976562 68.140625 359.945312 71.097656 359.671875 74.246094 L 348.371094 203.546875 C 347.808594 210 342.101562 215.253906 335.65625 215.253906 " fill-opacity="1" fill-rule="nonzero"/></g><path fill="#000000" d="M 358.53125 84.109375 L 136.8125 84.109375 C 136.644531 84.109375 136.507812 83.976562 136.507812 83.808594 C 136.507812 83.644531 136.644531 83.507812 136.8125 83.507812 L 358.53125 83.507812 C 358.699219 83.507812 358.835938 83.644531 358.835938 83.808594 C 358.835938 83.976562 358.699219 84.109375 358.53125 84.109375 " fill-opacity="1" fill-rule="nonzero"/><path fill="#745ff6" d="M 156.476562 73.859375 C 156.230469 76.691406 153.742188 78.984375 150.917969 78.984375 C 148.09375 78.984375 146.003906 76.691406 146.25 73.859375 C 146.5 71.03125 148.988281 68.734375 151.8125 68.734375 C 154.636719 68.734375 156.726562 71.03125 156.476562 73.859375 " fill-opacity="1" fill-rule="nonzero"/><path fill="#5236ff" d="M 171.402344 73.859375 C 171.15625 76.691406 168.664062 78.984375 165.839844 78.984375 C 163.015625 78.984375 160.925781 76.691406 161.175781 73.859375 C 161.421875 71.03125 163.910156 68.734375 166.734375 68.734375 C 169.558594 68.734375 171.648438 71.03125 171.402344 73.859375 " fill-opacity="1" fill-rule="nonzero"/><path fill="#5236ff" d="M 186.324219 73.859375 C 186.078125 76.691406 183.585938 78.984375 180.761719 78.984375 C 177.9375 78.984375 175.851562 76.691406 176.097656 73.859375 C 176.34375 71.03125 178.835938 68.734375 181.660156 68.734375 C 184.484375 68.734375 186.574219 71.03125 186.324219 73.859375 " fill-opacity="1" fill-rule="nonzero"/><path fill="#5236ff" d="M 345.550781 132.914062 C 346.859375 118.164062 335.976562 106.207031 321.246094 106.207031 C 306.515625 106.207031 293.511719 118.164062 292.203125 132.914062 C 290.890625 147.660156 301.773438 159.617188 316.507812 159.617188 C 331.238281 159.617188 344.242188 147.660156 345.550781 132.914062 " fill-opacity="1" fill-rule="nonzero"/><path fill="#745ff6" d="M 314.183594 120.335938 L 313.238281 131 C 312.9375 134.378906 315.429688 137.121094 318.808594 137.121094 C 322.183594 137.121094 325.160156 134.378906 325.460938 131 L 326.40625 120.335938 C 326.707031 116.957031 324.214844 114.21875 320.839844 114.21875 C 317.464844 114.21875 314.484375 116.957031 314.183594 120.335938 " fill-opacity="1" fill-rule="nonzero"/><path fill="#745ff6" d="M 318.558594 140.210938 C 316.105469 140.210938 313.875 139.253906 312.289062 137.515625 C 310.691406 135.769531 309.929688 133.445312 310.152344 130.972656 L 310.933594 122.15625 C 310.949219 121.988281 311.09375 121.867188 311.261719 121.882812 C 311.425781 121.894531 311.546875 122.042969 311.53125 122.210938 L 310.75 131.027344 C 310.546875 133.328125 311.25 135.488281 312.730469 137.109375 C 314.203125 138.722656 316.273438 139.609375 318.558594 139.609375 C 323.316406 139.609375 327.527344 135.734375 327.949219 130.972656 L 328.730469 122.15625 C 328.746094 121.988281 328.894531 121.867188 329.058594 121.882812 C 329.222656 121.894531 329.347656 122.042969 329.332031 122.210938 L 328.550781 131.027344 C 328.101562 136.09375 323.617188 140.210938 318.558594 140.210938 " fill-opacity="1" fill-rule="nonzero"/><path fill="#745ff6" d="M 316.320312 150.285156 L 318.957031 150.285156 L 319.878906 139.910156 L 317.242188 139.910156 L 316.320312 150.285156 " fill-opacity="1" fill-rule="nonzero"/><path fill="#745ff6" d="M 325.957031 150.285156 C 326.019531 149.558594 325.484375 148.96875 324.753906 148.96875 L 310.757812 148.96875 C 310.027344 148.96875 309.386719 149.558594 309.320312 150.285156 C 309.257812 151.015625 309.792969 151.609375 310.523438 151.609375 L 324.519531 151.609375 C 325.246094 151.609375 325.890625 151.015625 325.957031 150.285156 " fill-opacity="1" fill-rule="nonzero"/><path fill="#5236ff" d="M 280.636719 167.960938 L 142.328125 167.960938 L 148.453125 97.863281 L 286.761719 97.863281 L 280.636719 167.960938 " fill-opacity="1" fill-rule="nonzero"/><path fill="#5236ff" d="M 241.808594 192.324219 L 139.527344 192.324219 L 140.578125 180.292969 L 242.859375 180.292969 L 241.808594 192.324219 " fill-opacity="1" fill-rule="nonzero"/><path fill="#745ff6" d="M 316.113281 163.617188 C 314.988281 163.617188 313.871094 163.539062 312.761719 163.386719 C 300.976562 161.769531 294.453125 151.871094 294.386719 151.769531 C 294.296875 151.632812 294.335938 151.445312 294.476562 151.355469 C 294.617188 151.265625 294.800781 151.304688 294.890625 151.445312 C 294.957031 151.542969 301.34375 161.214844 312.851562 162.792969 C 321.765625 164.015625 331.332031 160.175781 341.28125 151.382812 C 341.410156 151.273438 341.597656 151.285156 341.707031 151.410156 C 341.816406 151.53125 341.804688 151.722656 341.683594 151.832031 C 332.820312 159.664062 324.238281 163.617188 316.113281 163.617188 " fill-opacity="1" fill-rule="nonzero"/><path fill="#745ff6" d="M 316.078125 169.011719 C 309.527344 169.011719 304.328125 166.421875 300.578125 163.554688 C 300.445312 163.453125 300.417969 163.261719 300.519531 163.128906 C 300.621094 163 300.808594 162.972656 300.941406 163.074219 C 307.238281 167.890625 317.722656 171.898438 331.929688 163.636719 C 332.070312 163.550781 332.257812 163.601562 332.339844 163.746094 C 332.421875 163.886719 332.375 164.074219 332.230469 164.15625 C 326.175781 167.679688 320.777344 169.011719 316.078125 169.011719 " fill-opacity="1" fill-rule="nonzero"/><path fill="#745ff6" d="M 316.082031 174.140625 C 312.632812 174.140625 309.292969 173.425781 306.089844 171.992188 C 305.9375 171.925781 305.871094 171.746094 305.9375 171.59375 C 306.003906 171.445312 306.183594 171.375 306.335938 171.445312 C 311.925781 173.941406 317.953125 174.207031 324.242188 172.230469 C 324.402344 172.179688 324.570312 172.269531 324.621094 172.425781 C 324.671875 172.585938 324.582031 172.753906 324.425781 172.804688 C 321.585938 173.695312 318.800781 174.140625 316.082031 174.140625 " fill-opacity="1" fill-rule="nonzero"/><path fill="#ffffff" d="M 199.789062 132.441406 C 199.707031 132.683594 199.386719 132.835938 198.992188 132.835938 C 197.765625 136.402344 195.871094 140.332031 193.859375 142.804688 C 193.207031 142.253906 191.9375 141.429688 191.15625 141.003906 C 193.050781 138.808594 194.789062 134.96875 195.859375 131.402344 Z M 212.695312 124.058594 C 212.683594 124.210938 211.976562 127.777344 210.703125 131.527344 L 208.488281 131.128906 C 209.941406 134.359375 211.066406 138.535156 211.367188 141.371094 L 207.753906 142.648438 C 207.578125 139.816406 206.464844 135.457031 205.101562 132.226562 L 208.367188 131.097656 L 207.648438 130.976562 C 207.882812 130.03125 208.148438 128.722656 208.449219 127.382812 L 204.703125 127.382812 L 203.328125 143.167969 C 203.082031 145.972656 202.359375 147.285156 197.0625 147.285156 C 196.972656 146.214844 196.566406 144.570312 196.132812 143.59375 C 197.410156 143.625 198.71875 143.625 199.144531 143.625 C 199.542969 143.625 199.675781 143.503906 199.707031 143.109375 L 201.082031 127.382812 L 197.824219 127.382812 C 196.664062 129.515625 195.402344 131.433594 194.050781 132.957031 C 193.46875 132.289062 192.253906 131.191406 191.480469 130.640625 C 193.96875 127.960938 196.242188 123.207031 197.652344 118.574219 L 201.816406 119.699219 C 201.703125 119.945312 201.410156 120.128906 200.957031 120.097656 C 200.507812 121.40625 200 122.71875 199.429688 123.996094 L 210.722656 123.996094 Z M 195.230469 119.792969 C 195.113281 120.066406 194.796875 120.21875 194.34375 120.1875 C 193.351562 122.503906 192.203125 124.851562 190.972656 127.078125 L 192.105469 127.351562 C 192.019531 127.65625 191.753906 127.867188 191.234375 127.929688 L 189.542969 147.25 L 185.921875 147.25 L 187.164062 133.050781 C 186.402344 134.085938 185.617188 135.0625 184.839844 135.914062 C 184.425781 135.089844 183.503906 133.476562 182.933594 132.683594 C 185.917969 129.515625 189.089844 123.875 191.144531 118.480469 L 195.230469 119.792969 " fill-opacity="1" fill-rule="nonzero"/><path fill="#ffffff" d="M 245.472656 131.859375 L 245.167969 135.335938 L 238.472656 135.335938 L 237.785156 143.199219 C 237.519531 146.214844 236.390625 147.3125 230.703125 147.25 C 230.605469 146.246094 230.136719 144.660156 229.738281 143.65625 C 230.859375 143.6875 232.046875 143.714844 232.777344 143.714844 C 233.8125 143.714844 234.054688 143.714844 234.101562 143.167969 L 234.789062 135.335938 L 228.304688 135.335938 L 228.605469 131.859375 L 235.089844 131.859375 L 235.5 127.167969 L 236.621094 127.226562 C 237.75 126.164062 238.90625 124.757812 239.90625 123.417969 L 230.441406 123.417969 L 230.738281 120.035156 L 242.851562 120.035156 L 243.476562 119.851562 L 246.160156 121.558594 C 246.019531 121.773438 245.699219 121.925781 245.390625 121.988281 C 243.773438 124.121094 241.304688 126.953125 239.027344 128.964844 L 238.773438 131.859375 Z M 223.039062 127.988281 C 222.351562 130.277344 221.632812 132.59375 220.957031 134.726562 C 221.648438 135.183594 222.394531 135.703125 223.140625 136.25 C 224.195312 133.902344 225.046875 131.128906 225.6875 127.988281 Z M 227.847656 124.515625 L 229.753906 124.972656 L 229.519531 125.582031 C 228.703125 130.765625 227.539062 135.03125 225.839844 138.445312 C 227.109375 139.570312 228.230469 140.699219 228.90625 141.675781 L 226.453125 144.632812 C 225.863281 143.746094 224.976562 142.742188 223.941406 141.707031 C 222.304688 144.082031 220.285156 145.910156 217.875 147.34375 C 217.46875 146.429688 216.640625 145.117188 215.9375 144.449219 C 218.074219 143.351562 219.898438 141.644531 221.402344 139.390625 C 220.894531 138.933594 220.351562 138.535156 219.839844 138.109375 L 219.511719 139.082031 L 216.664062 137.53125 C 217.585938 135 218.648438 131.554688 219.691406 127.988281 L 217.285156 127.988281 L 217.578125 124.605469 L 220.625 124.605469 C 221.207031 122.472656 221.753906 120.402344 222.222656 118.511719 L 226.328125 118.9375 C 226.273438 119.210938 226.011719 119.394531 225.492188 119.425781 C 225.050781 121.011719 224.558594 122.777344 224.035156 124.605469 L 227.230469 124.605469 L 227.847656 124.515625 " fill-opacity="1" fill-rule="nonzero"/><path fill="#ffffff" d="M 169.707031 104.34375 L 170.039062 102.460938 L 176.457031 106.226562 L 176.464844 106.179688 L 168.730469 109.949219 L 169.058594 108.066406 L 152.535156 108.066406 L 153.1875 104.34375 L 169.707031 104.34375 " fill-opacity="1" fill-rule="nonzero"/><path fill="#ffffff" d="M 159.347656 115.554688 L 159.019531 117.4375 L 152.601562 113.667969 L 152.589844 113.714844 L 160.328125 109.949219 L 160 111.832031 L 176.523438 111.832031 L 175.871094 115.554688 L 159.347656 115.554688 " fill-opacity="1" fill-rule="nonzero"/><path fill="#5236ff" d="M 141.367188 262.617188 L 0.00390625 262.617188 L 0.00390625 229.3125 L 141.367188 229.3125 L 141.367188 262.617188 " fill-opacity="1" fill-rule="nonzero"/><path fill="#000000" d="M 61.96875 158.976562 C 62.585938 161.128906 60.929688 162.667969 60.746094 164.285156 C 60.566406 165.921875 61.882812 166.800781 61.117188 169.464844 C 60.367188 172.074219 58.347656 171.765625 57.433594 173.117188 C 56.546875 174.429688 56.214844 176.34375 55.046875 177.457031 C 53.917969 178.535156 52.101562 178.675781 50.746094 179.523438 C 49.445312 180.335938 48.449219 181.964844 46.96875 182.527344 C 45.546875 183.066406 43.675781 182.164062 42.121094 182.433594 C 40.566406 182.707031 39.886719 184.324219 38.382812 184.324219 C 35.359375 184.324219 35.535156 182.808594 34.054688 182.480469 C 32.519531 182.140625 30.277344 183.246094 28.34375 182.390625 C 26.121094 181.40625 26.800781 179.597656 25.570312 178.65625 C 24.300781 177.6875 22.503906 178.429688 20.96875 176.214844 C 19.535156 174.148438 20.308594 172.636719 19.648438 171.144531 C 19 169.675781 16.992188 168.804688 16.972656 167.128906 C 16.949219 164.546875 18.355469 163.882812 18.535156 162.265625 C 18.714844 160.628906 17.613281 158.730469 18.0625 157.152344 C 18.660156 155.070312 20.863281 154.984375 21.777344 153.628906 C 22.667969 152.316406 22.25 150.652344 23.53125 149.003906 C 24.691406 147.511719 27.078125 148.058594 28.433594 147.210938 C 29.738281 146.398438 29.574219 144.664062 31.609375 143.933594 C 33.347656 143.3125 35.027344 144.453125 36.582031 144.183594 C 38.136719 143.910156 38.769531 142.324219 40.84375 142.324219 C 43.171875 142.324219 43.644531 144.035156 45.121094 144.363281 C 46.65625 144.707031 47.9375 143.582031 50.007812 144.378906 C 52.269531 145.246094 51.886719 147.199219 53.117188 148.140625 C 54.386719 149.113281 56.621094 149.011719 57.609375 150.246094 C 58.617188 151.503906 58.167969 153.707031 58.914062 155.152344 C 59.878906 157.019531 61.308594 156.652344 61.96875 158.976562 " fill-opacity="1" fill-rule="nonzero"/><path fill="#ffffff" d="M 43.164062 171.71875 L 47.949219 185.648438 L 56.5 202.929688 L 56.640625 181.3125 L 54.753906 181.289062 L 52.328125 173.222656 L 43.164062 171.71875 " fill-opacity="1" fill-rule="nonzero"/><path fill="#ffffff" d="M 54.894531 167.214844 C 55.398438 168.960938 55.628906 170.933594 54.738281 172.644531 C 53.101562 175.796875 47.113281 174.246094 46.101562 172.964844 C 43.917969 173.902344 41.679688 172.160156 42.222656 170.007812 C 42.511719 168.871094 43.929688 168.203125 45.058594 168.304688 C 44.304688 167.125 43.59375 163.539062 46.011719 162.390625 C 48.710938 161.113281 48.582031 159.273438 49.746094 158.910156 C 50.511719 158.675781 50.480469 158.714844 50.945312 159.328125 C 51.300781 159.796875 51.640625 160.277344 51.960938 160.769531 C 53.242188 162.746094 54.234375 164.921875 54.894531 167.214844 " fill-opacity="1" fill-rule="nonzero"/><path fill="#000000" d="M 46.101562 172.660156 C 46.191406 172.660156 46.277344 172.703125 46.335938 172.777344 C 46.882812 173.464844 49.371094 174.375 51.5625 174.164062 C 52.542969 174.070312 53.847656 173.707031 54.472656 172.503906 C 55.179688 171.144531 55.222656 169.441406 54.605469 167.300781 C 53.953125 165.035156 52.980469 162.890625 51.707031 160.933594 C 51.398438 160.460938 51.0625 159.980469 50.707031 159.507812 L 50.625 159.40625 C 50.511719 159.253906 50.394531 159.09375 50.347656 159.082031 C 50.28125 159.066406 50.023438 159.140625 49.835938 159.199219 C 49.457031 159.316406 49.234375 159.660156 48.925781 160.140625 C 48.449219 160.875 47.800781 161.878906 46.140625 162.664062 C 45.472656 162.984375 45.019531 163.535156 44.796875 164.304688 C 44.40625 165.671875 44.84375 167.410156 45.3125 168.140625 C 45.375 168.238281 45.375 168.363281 45.316406 168.460938 C 45.257812 168.558594 45.144531 168.617188 45.03125 168.605469 C 44.039062 168.511719 42.765625 169.101562 42.515625 170.082031 C 42.300781 170.925781 42.566406 171.765625 43.226562 172.328125 C 43.96875 172.960938 45.023438 173.097656 45.980469 172.6875 C 46.019531 172.667969 46.0625 172.660156 46.101562 172.660156 Z M 50.90625 174.796875 C 48.925781 174.796875 46.824219 174.078125 46.019531 173.320312 C 44.90625 173.722656 43.703125 173.523438 42.835938 172.785156 C 42 172.070312 41.660156 171.003906 41.933594 169.933594 C 42.214844 168.816406 43.425781 168.105469 44.5625 168.003906 C 44.148438 167.066406 43.832031 165.492188 44.21875 164.140625 C 44.488281 163.195312 45.050781 162.515625 45.882812 162.121094 C 47.386719 161.40625 47.960938 160.523438 48.417969 159.8125 C 48.769531 159.273438 49.070312 158.804688 49.660156 158.625 C 50.484375 158.371094 50.632812 158.410156 51.105469 159.042969 L 51.183594 159.144531 C 51.550781 159.625 51.894531 160.117188 52.210938 160.605469 C 53.515625 162.613281 54.515625 164.808594 55.183594 167.132812 C 55.84375 169.429688 55.785156 171.277344 55.007812 172.78125 C 54.414062 173.925781 53.242188 174.609375 51.617188 174.765625 C 51.382812 174.789062 51.144531 174.796875 50.90625 174.796875 " fill-opacity="1" fill-rule="nonzero"/><path fill="#000000" d="M 45.695312 171.71875 C 45.632812 171.71875 45.574219 171.699219 45.519531 171.664062 C 45.023438 171.304688 44.398438 171.101562 43.753906 171.089844 C 43.589844 171.089844 43.457031 170.949219 43.457031 170.785156 C 43.460938 170.617188 43.597656 170.488281 43.761719 170.488281 C 43.761719 170.488281 43.761719 170.488281 43.765625 170.488281 C 44.53125 170.5 45.277344 170.742188 45.871094 171.175781 C 46.007812 171.269531 46.039062 171.460938 45.941406 171.59375 C 45.882812 171.675781 45.789062 171.71875 45.695312 171.71875 " fill-opacity="1" fill-rule="nonzero"/><path fill="#ffffff" d="M 40.597656 215.191406 L 44.285156 226.996094 L 70.027344 224.988281 L 71.1875 210.898438 L 40.597656 215.191406 " fill-opacity="1" fill-rule="nonzero"/><path fill="#000000" d="M 40.988281 215.441406 L 44.5 226.675781 L 69.75 224.707031 L 70.855469 211.25 Z M 44.28125 227.296875 C 44.152344 227.296875 44.035156 227.210938 43.996094 227.085938 L 40.308594 215.28125 C 40.28125 215.195312 40.296875 215.105469 40.34375 215.03125 C 40.390625 214.953125 40.46875 214.902344 40.554688 214.890625 L 71.144531 210.601562 C 71.234375 210.589844 71.324219 210.617188 71.390625 210.679688 C 71.457031 210.742188 71.492188 210.832031 71.484375 210.925781 L 70.328125 225.011719 C 70.316406 225.160156 70.199219 225.277344 70.050781 225.289062 L 44.304688 227.296875 C 44.300781 227.296875 44.289062 227.296875 44.28125 227.296875 " fill-opacity="1" fill-rule="nonzero"/><path fill="#ffffff" d="M 32.925781 184.59375 C 32.925781 184.59375 27.601562 184.6875 26.210938 190.363281 C 24.113281 198.902344 19.738281 238.476562 18.109375 250.609375 C 17.898438 252.152344 16.84375 253.433594 15.289062 253.441406 C 11.820312 253.464844 6.375 254.171875 6.542969 258.398438 L 28.378906 258.398438 C 30.507812 258.398438 32.234375 256.667969 32.234375 254.535156 L 38.75 205.824219 L 32.925781 184.59375 " fill-opacity="1" fill-rule="nonzero"/><path fill="#000000" d="M 6.839844 258.097656 L 28.378906 258.097656 C 30.339844 258.097656 31.933594 256.5 31.933594 254.535156 C 31.933594 254.523438 31.9375 254.511719 31.9375 254.496094 L 38.445312 205.847656 L 32.703125 184.910156 C 31.679688 185 27.675781 185.660156 26.5 190.433594 C 25 196.554688 22.296875 218.875 20.324219 235.175781 C 19.542969 241.644531 18.867188 247.230469 18.40625 250.648438 C 18.160156 252.460938 16.882812 253.734375 15.292969 253.742188 C 12.75 253.761719 9.378906 254.136719 7.761719 255.832031 C 7.175781 256.449219 6.863281 257.210938 6.839844 258.097656 Z M 28.378906 258.699219 L 6.542969 258.699219 C 6.378906 258.699219 6.246094 258.570312 6.238281 258.410156 C 6.195312 257.230469 6.558594 256.222656 7.324219 255.417969 C 9.089844 253.570312 12.628906 253.160156 15.289062 253.140625 C 16.792969 253.132812 17.636719 251.84375 17.808594 250.570312 C 18.269531 247.15625 18.945312 241.570312 19.726562 235.105469 C 21.703125 218.789062 24.40625 196.445312 25.917969 190.289062 C 27.347656 184.460938 32.867188 184.292969 32.921875 184.292969 C 33.054688 184.300781 33.179688 184.382812 33.21875 184.515625 L 39.042969 205.746094 C 39.050781 205.785156 39.054688 205.824219 39.050781 205.867188 L 32.539062 254.554688 C 32.527344 256.84375 30.664062 258.699219 28.378906 258.699219 " fill-opacity="1" fill-rule="nonzero"/><path fill="#000000" d="M 15.386719 258.617188 C 15.273438 258.617188 15.164062 258.554688 15.113281 258.445312 C 14.792969 257.738281 15.164062 256.933594 15.699219 256.503906 C 16.226562 256.082031 16.878906 255.925781 17.457031 255.789062 L 20.429688 255.078125 C 21.328125 254.863281 22.195312 254.570312 22.476562 253.875 C 22.539062 253.722656 22.714844 253.644531 22.867188 253.707031 C 23.023438 253.773438 23.097656 253.945312 23.035156 254.101562 C 22.652344 255.046875 21.625 255.410156 20.570312 255.664062 L 17.597656 256.375 C 17.082031 256.496094 16.496094 256.636719 16.078125 256.972656 C 15.730469 257.25 15.46875 257.773438 15.660156 258.191406 C 15.730469 258.34375 15.664062 258.523438 15.511719 258.589844 C 15.472656 258.609375 15.429688 258.617188 15.386719 258.617188 " fill-opacity="1" fill-rule="nonzero"/><path fill="#000000" d="M 84.921875 178.667969 L 68.585938 164.4375 L 74.472656 160.035156 L 90.398438 175.40625 L 84.921875 178.667969 " fill-opacity="1" fill-rule="nonzero"/><path fill="#ffffff" d="M 76.84375 163.261719 L 70.050781 165.710938 C 68.167969 166.390625 66.09375 165.410156 65.417969 163.527344 L 63.617188 158.523438 C 62.9375 156.636719 63.914062 154.558594 65.796875 153.882812 L 72.59375 151.429688 L 76.84375 163.261719 " fill-opacity="1" fill-rule="nonzero"/><path fill="#000000" d="M 72.410156 151.816406 L 65.898438 154.164062 C 64.175781 154.785156 63.277344 156.695312 63.898438 158.417969 L 65.699219 163.425781 C 66 164.261719 66.609375 164.929688 67.410156 165.308594 C 68.214844 165.683594 69.117188 165.726562 69.949219 165.429688 L 76.460938 163.078125 Z M 68.824219 166.226562 C 68.253906 166.226562 67.683594 166.101562 67.15625 165.851562 C 66.207031 165.40625 65.488281 164.617188 65.132812 163.628906 L 63.332031 158.625 C 62.601562 156.585938 63.660156 154.332031 65.695312 153.597656 L 72.488281 151.148438 C 72.566406 151.121094 72.648438 151.125 72.71875 151.160156 C 72.792969 151.191406 72.847656 151.253906 72.875 151.328125 L 77.128906 163.160156 C 77.183594 163.316406 77.105469 163.488281 76.949219 163.542969 L 70.15625 165.996094 C 69.722656 166.148438 69.269531 166.226562 68.824219 166.226562 " fill-opacity="1" fill-rule="nonzero"/><path fill="#ffffff" d="M 106.765625 130.582031 C 106.765625 130.582031 104.039062 125.832031 100.367188 127.621094 C 97.6875 128.925781 82.128906 141.449219 73.925781 148.113281 C 70.890625 150.582031 69.746094 154.699219 71.070312 158.382812 C 72.660156 162.808594 77.328125 165.320312 81.890625 164.207031 L 111.355469 157.03125 C 111.355469 157.03125 114.226562 155.570312 114.003906 150.433594 C 113.777344 145.292969 106.765625 130.582031 106.765625 130.582031 " fill-opacity="1" fill-rule="nonzero"/><path fill="#000000" d="M 102.046875 127.519531 C 101.554688 127.519531 101.039062 127.628906 100.5 127.890625 C 97.78125 129.214844 81.140625 142.640625 74.117188 148.347656 C 71.183594 150.730469 70.074219 154.722656 71.355469 158.28125 C 72.898438 162.570312 77.398438 164.992188 81.820312 163.914062 L 111.246094 156.746094 C 111.546875 156.578125 113.90625 155.097656 113.703125 150.445312 C 113.484375 145.484375 106.722656 131.191406 106.5 130.722656 C 106.355469 130.480469 104.578125 127.519531 102.046875 127.519531 Z M 79.703125 164.773438 C 75.78125 164.773438 72.171875 162.332031 70.789062 158.484375 C 69.421875 154.6875 70.605469 150.425781 73.734375 147.882812 C 82.484375 140.773438 97.558594 128.648438 100.234375 127.347656 C 104.117188 125.460938 106.996094 130.382812 107.027344 130.429688 C 107.03125 130.4375 107.03125 130.445312 107.035156 130.453125 C 107.324219 131.054688 114.078125 145.277344 114.304688 150.417969 C 114.535156 155.691406 111.617188 157.234375 111.492188 157.300781 C 111.46875 157.308594 111.449219 157.316406 111.425781 157.324219 L 81.960938 164.5 C 81.207031 164.683594 80.449219 164.773438 79.703125 164.773438 " fill-opacity="1" fill-rule="nonzero"/><path fill="#ffffff" d="M 114.207031 139.332031 C 117.140625 147.496094 115.996094 155.382812 111.648438 156.949219 C 107.304688 158.519531 101.398438 153.171875 98.464844 145.007812 C 95.527344 136.847656 96.671875 128.957031 101.019531 127.390625 C 105.367188 125.820312 111.273438 131.167969 114.207031 139.332031 " fill-opacity="1" fill-rule="nonzero"/><path fill="#000000" d="M 102.621094 127.417969 C 102.101562 127.417969 101.597656 127.5 101.125 127.675781 C 96.9375 129.183594 95.875 136.914062 98.746094 144.90625 C 100.152344 148.808594 102.273438 152.183594 104.730469 154.40625 C 107.132812 156.582031 109.554688 157.386719 111.546875 156.667969 C 115.734375 155.15625 116.796875 147.425781 113.925781 139.433594 C 112.523438 135.53125 110.398438 132.15625 107.941406 129.933594 C 106.113281 128.277344 104.273438 127.417969 102.621094 127.417969 Z M 110.054688 157.527344 C 108.25 157.527344 106.269531 156.613281 104.324219 154.851562 C 101.796875 152.5625 99.617188 149.105469 98.179688 145.113281 C 95.195312 136.804688 96.421875 128.726562 100.917969 127.105469 C 103.132812 126.308594 105.769531 127.15625 108.347656 129.488281 C 110.871094 131.777344 113.054688 135.238281 114.492188 139.226562 C 117.476562 147.535156 116.25 155.613281 111.753906 157.234375 C 111.210938 157.429688 110.640625 157.527344 110.054688 157.527344 " fill-opacity="1" fill-rule="nonzero"/><path fill="#000000" d="M 103.363281 150.3125 C 103.246094 150.3125 103.136719 150.246094 103.085938 150.132812 C 103.019531 149.976562 103.089844 149.800781 103.242188 149.734375 C 105.21875 148.878906 106.648438 146.863281 106.808594 144.71875 C 106.96875 142.570312 105.851562 140.363281 104.023438 139.226562 C 102.59375 138.335938 100.746094 138.105469 99.085938 138.617188 C 98.925781 138.667969 98.757812 138.574219 98.710938 138.417969 C 98.660156 138.257812 98.75 138.089844 98.910156 138.042969 C 100.734375 137.480469 102.765625 137.730469 104.34375 138.714844 C 106.355469 139.96875 107.585938 142.398438 107.410156 144.761719 C 107.234375 147.125 105.65625 149.347656 103.484375 150.289062 C 103.445312 150.304688 103.402344 150.3125 103.363281 150.3125 " fill-opacity="1" fill-rule="nonzero"/><path fill="#000000" d="M 112.820312 152.980469 C 112.796875 152.980469 112.777344 152.980469 112.753906 152.972656 C 112.589844 152.9375 112.488281 152.777344 112.527344 152.613281 C 113.234375 149.417969 113.246094 146.054688 112.558594 142.890625 C 111.632812 138.621094 109.402344 134.585938 106.285156 131.53125 C 105.84375 131.097656 105.40625 130.71875 104.984375 130.40625 C 104.851562 130.308594 104.828125 130.117188 104.925781 129.984375 C 105.023438 129.851562 105.214844 129.824219 105.347656 129.925781 C 105.789062 130.253906 106.246094 130.648438 106.703125 131.101562 C 109.90625 134.238281 112.195312 138.378906 113.144531 142.761719 C 113.851562 146.015625 113.839844 149.464844 113.113281 152.746094 C 113.082031 152.886719 112.957031 152.980469 112.820312 152.980469 " fill-opacity="1" fill-rule="nonzero"/><path fill="#ffffff" d="M 72.230469 200.941406 C 72.230469 200.941406 90.71875 209.585938 99.800781 205.894531 C 111.277344 201.230469 107.070312 187.175781 100.664062 180.839844 L 95.320312 175.386719 C 95.320312 175.386719 83.402344 172.242188 79.28125 179.308594 L 89.058594 190.648438 L 72.703125 183.300781 L 72.230469 200.941406 " fill-opacity="1" fill-rule="nonzero"/><path fill="#000000" d="M 72.539062 200.75 C 74.460938 201.621094 91.304688 209.023438 99.6875 205.617188 C 103.453125 204.085938 105.730469 201.464844 106.457031 197.824219 C 107.640625 191.882812 104.332031 184.890625 100.453125 181.054688 L 95.164062 175.660156 C 94.140625 175.410156 83.53125 173.015625 79.648438 179.273438 L 89.289062 190.449219 C 89.378906 190.558594 89.386719 190.714844 89.300781 190.828125 C 89.21875 190.941406 89.066406 190.980469 88.9375 190.921875 L 72.988281 183.761719 Z M 94.242188 207.121094 C 84.867188 207.121094 72.726562 201.507812 72.105469 201.214844 C 71.996094 201.164062 71.929688 201.054688 71.929688 200.933594 L 72.398438 183.292969 C 72.402344 183.191406 72.457031 183.097656 72.542969 183.046875 C 72.625 182.992188 72.734375 182.984375 72.824219 183.027344 L 87.945312 189.816406 L 79.050781 179.503906 C 78.96875 179.40625 78.953125 179.265625 79.019531 179.15625 C 83.207031 171.972656 94.898438 174.96875 95.394531 175.097656 C 95.449219 175.109375 95.496094 175.140625 95.535156 175.175781 L 100.878906 180.628906 C 104.871094 184.574219 108.273438 191.789062 107.046875 197.941406 C 106.292969 201.738281 103.824219 204.585938 99.914062 206.175781 C 98.261719 206.84375 96.320312 207.121094 94.242188 207.121094 " fill-opacity="1" fill-rule="nonzero"/><path fill="#ffffff" d="M 83.867188 184.632812 C 83.867188 184.632812 92.878906 183.621094 97.171875 177.261719 L 95.320312 175.386719 C 95.320312 175.386719 96.859375 172.398438 95.101562 172.402344 C 95.101562 172.402344 95.511719 168.988281 92.933594 169.722656 C 92.933594 169.722656 93.25 165.347656 89.640625 167.460938 C 89.640625 167.460938 90.183594 162.019531 86.472656 164.957031 C 83.796875 167.070312 83.019531 168.382812 83.019531 168.382812 C 83.019531 168.382812 82.851562 162.160156 80.628906 163.515625 C 79.933594 163.941406 79.003906 165.445312 78.242188 166.8125 C 75.855469 171.089844 76.160156 175.53125 79.28125 179.308594 L 83.867188 184.632812 " fill-opacity="1" fill-rule="nonzero"/><path fill="#000000" d="M 89.9375 191.964844 C 89.855469 191.964844 89.769531 191.933594 89.710938 191.863281 L 79.210938 179.699219 C 75.910156 175.703125 75.46875 170.261719 78.105469 166.152344 C 79.050781 164.679688 79.789062 163.675781 80.550781 163.210938 C 81.117188 162.863281 81.554688 162.964844 81.820312 163.109375 C 82.890625 163.703125 83.199219 166.210938 83.285156 167.558594 C 83.792969 166.972656 84.722656 166.007812 86.28125 164.722656 C 87.363281 163.832031 88.246094 163.554688 88.90625 163.902344 C 89.867188 164.40625 89.976562 166.0625 89.964844 166.945312 C 90.886719 166.507812 91.640625 166.464844 92.210938 166.820312 C 93.082031 167.363281 93.226562 168.679688 93.242188 169.347656 C 93.820312 169.257812 94.296875 169.371094 94.667969 169.6875 C 95.398438 170.3125 95.445312 171.554688 95.421875 172.132812 C 95.773438 172.207031 95.96875 172.40625 96.074219 172.574219 C 96.535156 173.335938 95.945312 174.773438 95.691406 175.320312 L 97.386719 177.050781 C 97.503906 177.167969 97.503906 177.359375 97.382812 177.476562 C 97.265625 177.589844 97.074219 177.589844 96.957031 177.472656 L 95.113281 175.589844 C 95.023438 175.496094 95 175.355469 95.058594 175.242188 C 95.402344 174.574219 95.839844 173.347656 95.558594 172.890625 C 95.507812 172.808594 95.410156 172.703125 95.105469 172.703125 C 95.105469 172.703125 95.101562 172.703125 95.101562 172.703125 C 95.015625 172.703125 94.933594 172.667969 94.878906 172.601562 C 94.820312 172.539062 94.792969 172.453125 94.804688 172.367188 C 94.855469 171.917969 94.863281 170.644531 94.277344 170.148438 C 93.988281 169.902344 93.5625 169.855469 93.015625 170.011719 C 92.917969 170.039062 92.820312 170.019531 92.742188 169.957031 C 92.667969 169.894531 92.625 169.800781 92.632812 169.703125 C 92.667969 169.195312 92.605469 167.777344 91.890625 167.332031 C 91.429688 167.042969 90.722656 167.175781 89.792969 167.71875 C 89.695312 167.773438 89.574219 167.773438 89.480469 167.714844 C 89.382812 167.652344 89.332031 167.542969 89.339844 167.433594 C 89.398438 166.78125 89.386719 164.835938 88.625 164.433594 C 88.097656 164.15625 87.265625 164.691406 86.660156 165.1875 C 84.097656 167.300781 83.28125 168.535156 83.273438 168.546875 C 83.203125 168.65625 83.066406 168.710938 82.9375 168.671875 C 82.8125 168.636719 82.722656 168.519531 82.71875 168.386719 C 82.695312 166.792969 82.351562 164.09375 81.527344 163.636719 C 81.410156 163.574219 81.214844 163.511719 80.863281 163.726562 C 80.203125 164.128906 79.488281 165.117188 78.613281 166.476562 C 76.117188 170.367188 76.542969 175.523438 79.671875 179.308594 L 90.167969 191.46875 C 90.277344 191.59375 90.261719 191.785156 90.136719 191.894531 C 90.078125 191.941406 90.007812 191.964844 89.9375 191.964844 " fill-opacity="1" fill-rule="nonzero"/><path fill="#000000" d="M 82.496094 176.589844 L 89.710938 183.304688 C 90.941406 184.449219 92.847656 184.460938 94.089844 183.324219 C 95.429688 182.097656 95.5 180.007812 94.246094 178.695312 L 93.742188 178.167969 C 93.742188 178.167969 90.808594 179.867188 91.28125 177.316406 C 91.28125 177.316406 87.882812 179.023438 88.636719 175.609375 C 88.636719 175.609375 87.871094 176.214844 86.972656 176.140625 C 85.65625 176.035156 84.226562 174.925781 85.839844 172.058594 C 84.214844 173.660156 82.5 173.796875 82.5 173.796875 C 82.5 173.796875 82.617188 175.550781 82.496094 176.589844 " fill-opacity="1" fill-rule="nonzero"/><path fill="#000000" d="M 84.6875 173.667969 C 84.617188 173.667969 84.546875 173.644531 84.488281 173.59375 C 84.363281 173.480469 84.351562 173.292969 84.464844 173.167969 C 85.945312 171.5 87.414062 169.769531 88.828125 168.03125 C 88.933594 167.902344 89.121094 167.882812 89.25 167.988281 C 89.378906 168.09375 89.398438 168.28125 89.292969 168.414062 C 87.875 170.15625 86.402344 171.890625 84.914062 173.566406 C 84.855469 173.632812 84.773438 173.667969 84.6875 173.667969 " fill-opacity="1" fill-rule="nonzero"/><path fill="#000000" d="M 87.332031 177.5625 C 87.257812 177.5625 87.1875 177.535156 87.128906 177.484375 C 87.003906 177.371094 86.996094 177.179688 87.109375 177.058594 C 89.085938 174.886719 90.960938 172.578125 92.683594 170.199219 C 92.78125 170.0625 92.96875 170.035156 93.105469 170.132812 C 93.238281 170.230469 93.269531 170.417969 93.171875 170.550781 C 91.4375 172.949219 89.546875 175.277344 87.554688 177.464844 C 87.492188 177.527344 87.414062 177.5625 87.332031 177.5625 " fill-opacity="1" fill-rule="nonzero"/><path fill="#000000" d="M 90.222656 178.769531 C 90.152344 178.769531 90.082031 178.742188 90.023438 178.691406 C 89.898438 178.582031 89.886719 178.394531 89.996094 178.265625 L 94.261719 173.410156 C 94.371094 173.285156 94.5625 173.273438 94.6875 173.382812 C 94.8125 173.492188 94.824219 173.683594 94.714844 173.808594 L 90.449219 178.664062 C 90.390625 178.734375 90.308594 178.769531 90.222656 178.769531 " fill-opacity="1" fill-rule="nonzero"/><path fill="#000000" d="M 82.777344 174.222656 C 82.058594 174.222656 81.410156 173.835938 81.140625 173.230469 C 80.515625 171.820312 81.074219 170.121094 82.796875 168.183594 C 82.90625 168.058594 83.097656 168.046875 83.222656 168.15625 C 83.34375 168.269531 83.355469 168.457031 83.246094 168.582031 C 81.695312 170.328125 81.171875 171.808594 81.691406 172.988281 C 81.902344 173.464844 82.441406 173.644531 82.882812 173.617188 C 82.90625 173.617188 84.125 173.566406 85.03125 172.523438 C 85.140625 172.398438 85.332031 172.382812 85.457031 172.492188 C 85.582031 172.601562 85.59375 172.792969 85.488281 172.917969 C 84.402344 174.167969 82.972656 174.21875 82.910156 174.21875 C 82.867188 174.222656 82.820312 174.222656 82.777344 174.222656 " fill-opacity="1" fill-rule="nonzero"/><path fill="#745ff6" d="M 73.949219 182.820312 C 71.890625 181.808594 69.636719 181.257812 67.34375 181.207031 C 64.945312 181.15625 59.632812 181.148438 56.472656 181.246094 C 56.40625 181.246094 55.769531 179.28125 55.480469 178.382812 C 55.398438 178.125 55.144531 177.960938 54.878906 177.988281 L 52.207031 178.265625 L 51.566406 181.882812 L 51.566406 181.871094 L 48.738281 178.710938 L 44.742188 179.097656 C 44.507812 179.125 44.355469 179.363281 44.425781 179.589844 L 45.203125 182.054688 L 34.628906 183.277344 C 29.671875 183.847656 25.65625 187.566406 24.699219 192.46875 L 22.753906 202.402344 L 38.242188 209.621094 L 40.90625 217.113281 L 56.082031 215.359375 L 71.371094 213.710938 L 72.097656 201.695312 L 82.289062 186.921875 L 73.949219 182.820312 " fill-opacity="1" fill-rule="nonzero"/><path fill="#000000" d="M 48.644531 205.789062 C 47.550781 205.789062 46.457031 205.5625 45.453125 205.109375 C 43.652344 204.300781 42.183594 202.785156 41.433594 200.953125 C 41.371094 200.800781 41.445312 200.625 41.597656 200.558594 C 41.753906 200.496094 41.929688 200.570312 41.992188 200.726562 C 42.683594 202.417969 44.035156 203.8125 45.699219 204.5625 C 47.367188 205.308594 49.308594 205.386719 51.027344 204.78125 C 51.1875 204.726562 51.355469 204.808594 51.414062 204.964844 C 51.46875 205.121094 51.386719 205.292969 51.230469 205.347656 C 50.398438 205.640625 49.523438 205.789062 48.644531 205.789062 " fill-opacity="1" fill-rule="nonzero"/><path fill="#000000" d="M 63.773438 204.640625 C 63.609375 204.640625 63.476562 204.511719 63.472656 204.347656 C 63.46875 204.179688 63.597656 204.042969 63.765625 204.039062 C 66.367188 203.972656 68.851562 202.027344 69.542969 199.515625 C 69.980469 197.933594 69.71875 196.164062 68.824219 194.667969 C 68.738281 194.523438 68.785156 194.339844 68.929688 194.253906 C 69.070312 194.171875 69.253906 194.214844 69.339844 194.359375 C 70.316406 195.996094 70.601562 197.9375 70.121094 199.675781 C 69.363281 202.433594 66.636719 204.566406 63.78125 204.640625 C 63.777344 204.640625 63.773438 204.640625 63.773438 204.640625 " fill-opacity="1" fill-rule="nonzero"/><path fill="#ffffff" d="M 53.171875 188.402344 C 52.96875 188.402344 52.785156 188.265625 52.734375 188.0625 C 52.496094 187.105469 52.351562 186.628906 52.351562 186.628906 C 52.277344 186.386719 52.414062 186.136719 52.652344 186.0625 C 52.890625 185.988281 53.140625 186.125 53.214844 186.363281 C 53.21875 186.382812 53.363281 186.859375 53.609375 187.839844 C 53.671875 188.082031 53.523438 188.328125 53.28125 188.386719 C 53.246094 188.398438 53.207031 188.402344 53.171875 188.402344 Z M 53.847656 191.335938 C 53.640625 191.335938 53.453125 191.191406 53.410156 190.980469 C 53.292969 190.441406 53.183594 189.953125 53.082031 189.515625 C 53.027344 189.273438 53.179688 189.03125 53.421875 188.972656 C 53.667969 188.917969 53.910156 189.070312 53.964844 189.3125 C 54.066406 189.753906 54.175781 190.246094 54.289062 190.792969 C 54.34375 191.035156 54.1875 191.277344 53.945312 191.328125 C 53.914062 191.335938 53.878906 191.335938 53.847656 191.335938 Z M 54.445312 194.292969 C 54.230469 194.292969 54.042969 194.140625 54 193.921875 C 53.902344 193.40625 53.804688 192.914062 53.714844 192.449219 C 53.664062 192.207031 53.820312 191.96875 54.066406 191.917969 C 54.308594 191.871094 54.550781 192.027344 54.597656 192.273438 C 54.691406 192.738281 54.789062 193.230469 54.886719 193.753906 C 54.933594 194 54.773438 194.238281 54.527344 194.285156 C 54.5 194.289062 54.472656 194.292969 54.445312 194.292969 " fill-opacity="1" fill-rule="nonzero"/><path fill="#ffffff" d="M 51.648438 182.824219 L 51.652344 182.824219 Z M 51.921875 183.226562 L 51.945312 185.371094 L 52.96875 185.140625 L 52.007812 183.207031 Z M 51.726562 186.328125 C 51.574219 186.328125 51.425781 186.277344 51.304688 186.179688 C 51.144531 186.054688 51.050781 185.859375 51.046875 185.65625 L 51.015625 183.058594 C 51.015625 182.734375 51.238281 182.449219 51.554688 182.382812 L 51.984375 182.289062 C 52.289062 182.222656 52.597656 182.371094 52.738281 182.652344 L 53.902344 184.992188 C 53.996094 185.179688 53.996094 185.398438 53.90625 185.589844 C 53.816406 185.78125 53.644531 185.917969 53.441406 185.960938 L 51.875 186.3125 C 51.828125 186.324219 51.777344 186.328125 51.726562 186.328125 " fill-opacity="1" fill-rule="nonzero"/><path fill="#ffffff" d="M 51.625 182.039062 Z M 51.871094 182.109375 Z M 51.488281 183.105469 C 51.363281 183.105469 51.238281 183.070312 51.125 183 C 50.96875 182.902344 50.863281 182.75 50.820312 182.570312 L 50.746094 182.242188 C 50.660156 181.871094 50.890625 181.5 51.261719 181.414062 L 51.6875 181.316406 C 52.058594 181.230469 52.429688 181.464844 52.511719 181.835938 L 52.589844 182.164062 C 52.628906 182.34375 52.597656 182.527344 52.503906 182.683594 C 52.402344 182.839844 52.25 182.949219 52.070312 182.992188 L 51.644531 183.089844 C 51.59375 183.101562 51.542969 183.105469 51.488281 183.105469 " fill-opacity="1" fill-rule="nonzero"/><path fill="#ffffff" d="M 98.625 253.667969 L 89.613281 264.996094 C 87.878906 267.175781 87.632812 270.191406 89.007812 272.609375 C 92.804688 279.28125 100.84375 289.953125 104.964844 295.304688 C 105.984375 296.628906 108.082031 296.171875 108.464844 294.542969 L 110.632812 285.285156 L 118.125 272.609375 L 98.625 253.667969 " fill-opacity="1" fill-rule="nonzero"/><path fill="#000000" d="M 98.652344 254.117188 L 89.847656 265.183594 C 88.175781 267.285156 87.949219 270.140625 89.269531 272.460938 C 93.011719 279.039062 100.859375 289.480469 105.203125 295.121094 C 105.609375 295.648438 106.238281 295.878906 106.890625 295.738281 C 107.539062 295.597656 108.019531 295.125 108.171875 294.472656 L 110.339844 285.214844 C 110.34375 285.1875 110.355469 285.15625 110.371094 285.132812 L 117.746094 272.660156 Z M 106.523438 296.378906 C 105.824219 296.378906 105.167969 296.058594 104.726562 295.488281 C 100.371094 289.835938 92.507812 279.371094 88.746094 272.761719 C 87.304688 270.222656 87.550781 267.101562 89.378906 264.808594 L 98.390625 253.480469 C 98.441406 253.414062 98.519531 253.375 98.605469 253.367188 C 98.6875 253.363281 98.773438 253.394531 98.835938 253.453125 L 118.332031 272.394531 C 118.433594 272.492188 118.453125 272.644531 118.382812 272.765625 L 110.914062 285.398438 L 108.757812 294.613281 C 108.554688 295.480469 107.886719 296.136719 107.015625 296.328125 C 106.851562 296.363281 106.6875 296.378906 106.523438 296.378906 " fill-opacity="1" fill-rule="nonzero"/><path fill="#000000" d="M 108.65625 285.003906 C 108.574219 285.003906 108.492188 284.96875 108.433594 284.902344 C 102.25 277.976562 97.367188 270.089844 93.925781 261.460938 C 93.863281 261.308594 93.9375 261.132812 94.09375 261.070312 C 94.246094 261.007812 94.421875 261.082031 94.484375 261.238281 C 97.902344 269.800781 102.746094 277.625 108.882812 284.5 C 108.992188 284.625 108.980469 284.816406 108.859375 284.925781 C 108.800781 284.976562 108.726562 285.003906 108.65625 285.003906 " fill-opacity="1" fill-rule="nonzero"/><g clip-path="url(#2c6aa1bf3b)"><path fill="#ffffff" d="M 144.222656 283.949219 C 148.261719 291.382812 156.453125 305.164062 159.878906 309.375 C 160.964844 310.710938 159.863281 312.691406 158.15625 312.46875 L 132.027344 309.035156 C 127.808594 308.480469 124.09375 305.96875 122.003906 302.257812 L 113.875 287.832031 L 144.222656 283.949219 " fill-opacity="1" fill-rule="nonzero"/><path fill="#000000" d="M 114.355469 288.074219 L 122.265625 302.109375 C 124.296875 305.71875 127.960938 308.195312 132.066406 308.734375 L 158.195312 312.167969 C 158.988281 312.269531 159.546875 311.820312 159.800781 311.359375 C 160.058594 310.902344 160.152344 310.1875 159.644531 309.566406 C 156.277344 305.421875 148.214844 291.90625 144.058594 284.277344 Z M 158.421875 312.785156 C 158.320312 312.785156 158.21875 312.777344 158.117188 312.765625 L 131.988281 309.332031 C 127.699219 308.769531 123.867188 306.179688 121.738281 302.40625 L 113.613281 287.980469 C 113.5625 287.894531 113.558594 287.785156 113.605469 287.695312 C 113.648438 287.605469 113.738281 287.546875 113.835938 287.535156 L 144.1875 283.652344 C 144.308594 283.640625 144.429688 283.699219 144.488281 283.808594 C 148.605469 291.382812 156.738281 305.035156 160.109375 309.183594 C 160.695312 309.902344 160.777344 310.847656 160.328125 311.65625 C 159.929688 312.371094 159.214844 312.785156 158.421875 312.785156 " fill-opacity="1" fill-rule="nonzero"/></g><path fill="#000000" d="M 152.980469 303.609375 C 152.964844 303.609375 152.945312 303.609375 152.929688 303.605469 L 121.410156 298.167969 C 121.246094 298.140625 121.136719 297.984375 121.164062 297.820312 C 121.191406 297.65625 121.347656 297.546875 121.511719 297.574219 L 153.03125 303.011719 C 153.195312 303.039062 153.304688 303.195312 153.277344 303.359375 C 153.25 303.507812 153.125 303.609375 152.980469 303.609375 " fill-opacity="1" fill-rule="nonzero"/><path fill="#745ff6" d="M 107.511719 241.601562 L 98.460938 252.980469 L 117.960938 271.921875 L 135.734375 241.859375 C 142.398438 230.582031 133.105469 216.589844 120.148438 218.390625 L 70.394531 223.78125 L 68.058594 241.417969 L 107.511719 241.601562 " fill-opacity="1" fill-rule="nonzero"/><path fill="#745ff6" d="M 71.957031 232.066406 L 100.132812 232 C 112.726562 231.679688 122.671875 239.855469 129.371094 250.542969 C 137.261719 263.125 138.507812 272.070312 145.371094 284.703125 L 113.917969 288.5625 L 98.140625 258.871094 C 98.140625 258.871094 75.984375 258.734375 62.21875 258.734375 C 50.09375 258.734375 34.105469 252.039062 43.789062 226.382812 L 43.332031 225.070312 L 70.914062 221.574219 L 71.957031 232.066406 " fill-opacity="1" fill-rule="nonzero"/><path fill="#000000" d="M 107.746094 259.230469 L 98.886719 259.230469 C 98.71875 259.230469 98.585938 259.09375 98.585938 258.929688 C 98.585938 258.761719 98.71875 258.628906 98.886719 258.628906 L 107.746094 258.628906 C 107.914062 258.628906 108.046875 258.761719 108.046875 258.929688 C 108.046875 259.09375 107.914062 259.230469 107.746094 259.230469 " fill-opacity="1" fill-rule="nonzero"/><path fill="#000000" d="M 129.988281 252.84375 C 129.890625 252.84375 129.789062 252.792969 129.734375 252.703125 L 128.949219 251.449219 C 121.332031 239.304688 111.039062 232.769531 99.972656 233.046875 L 73.390625 233.980469 C 73.285156 233.992188 73.175781 233.925781 73.121094 233.828125 L 71.480469 230.960938 C 71.398438 230.816406 71.449219 230.632812 71.59375 230.550781 C 71.738281 230.46875 71.921875 230.519531 72.003906 230.664062 L 73.550781 233.371094 L 99.953125 232.445312 C 111.238281 232.164062 121.726562 238.796875 129.457031 251.128906 L 130.246094 252.382812 C 130.332031 252.523438 130.289062 252.707031 130.148438 252.796875 C 130.101562 252.828125 130.042969 252.84375 129.988281 252.84375 " fill-opacity="1" fill-rule="nonzero"/><path fill="#745ff6" d="M 121.324219 151.59375 C 121.316406 151.59375 121.308594 151.59375 121.300781 151.59375 C 121.132812 151.582031 121.011719 151.4375 121.023438 151.269531 C 121.148438 149.605469 121.152344 147.925781 121.035156 146.269531 C 121.019531 146.105469 121.148438 145.960938 121.3125 145.949219 C 121.484375 145.933594 121.621094 146.0625 121.632812 146.226562 C 121.753906 147.910156 121.75 149.625 121.621094 151.316406 C 121.613281 151.472656 121.480469 151.59375 121.324219 151.59375 " fill-opacity="1" fill-rule="nonzero"/><path fill="#745ff6" d="M 121.332031 146.550781 C 121.175781 146.550781 121.042969 146.429688 121.035156 146.269531 C 120.882812 144.148438 120.53125 142.03125 119.984375 139.984375 C 118.457031 134.234375 115.769531 130.292969 114.6875 128.863281 C 114.585938 128.730469 114.609375 128.542969 114.742188 128.441406 C 114.878906 128.339844 115.066406 128.363281 115.164062 128.5 C 116.273438 129.957031 119.011719 133.976562 120.566406 139.832031 C 121.121094 141.914062 121.480469 144.066406 121.632812 146.226562 C 121.644531 146.394531 121.519531 146.539062 121.355469 146.550781 C 121.347656 146.550781 121.339844 146.550781 121.332031 146.550781 " fill-opacity="1" fill-rule="nonzero"/><path fill="#745ff6" d="M 114.925781 128.980469 C 114.835938 128.980469 114.746094 128.941406 114.6875 128.863281 C 113.644531 127.492188 112.472656 126.199219 111.207031 125.023438 C 111.082031 124.914062 111.078125 124.722656 111.191406 124.597656 C 111.300781 124.476562 111.492188 124.46875 111.613281 124.582031 C 112.910156 125.78125 114.105469 127.097656 115.164062 128.496094 C 115.265625 128.628906 115.242188 128.820312 115.109375 128.921875 C 115.054688 128.960938 114.988281 128.980469 114.925781 128.980469 " fill-opacity="1" fill-rule="nonzero"/><path fill="#745ff6" d="M 124.625 144.613281 C 124.464844 144.613281 124.335938 144.492188 124.324219 144.332031 C 124.171875 142.210938 123.820312 140.09375 123.277344 138.046875 C 121.75 132.292969 119.058594 128.351562 117.976562 126.925781 C 117.875 126.792969 117.902344 126.601562 118.035156 126.503906 C 118.164062 126.402344 118.355469 126.425781 118.457031 126.558594 C 119.5625 128.015625 122.300781 132.035156 123.859375 137.890625 C 124.414062 139.976562 124.769531 142.128906 124.925781 144.289062 C 124.933594 144.453125 124.8125 144.597656 124.644531 144.609375 C 124.636719 144.609375 124.628906 144.613281 124.625 144.613281 " fill-opacity="1" fill-rule="nonzero"/><path fill="#ffffff" d="M 91.238281 114.628906 L 64.8125 134.398438 L 59.449219 138.359375 L 59.957031 132.382812 L 47.570312 115.9375 C 46.886719 115.023438 47.074219 113.722656 47.988281 113.039062 L 74.925781 92.882812 C 75.84375 92.199219 77.144531 92.382812 77.828125 93.296875 L 91.65625 111.730469 C 92.339844 112.648438 92.15625 113.941406 91.238281 114.628906 " fill-opacity="1" fill-rule="nonzero"/><path fill="#000000" d="M 76.167969 92.773438 C 75.800781 92.773438 75.425781 92.886719 75.105469 93.125 L 48.171875 113.28125 C 47.789062 113.5625 47.542969 113.976562 47.476562 114.445312 C 47.410156 114.914062 47.527344 115.378906 47.8125 115.753906 L 60.199219 132.203125 C 60.242188 132.261719 60.265625 132.335938 60.257812 132.410156 L 59.804688 137.722656 L 64.636719 134.15625 L 91.058594 114.386719 C 91.4375 114.105469 91.683594 113.691406 91.75 113.222656 C 91.816406 112.753906 91.699219 112.289062 91.417969 111.910156 L 77.585938 93.480469 C 77.242188 93.015625 76.707031 92.773438 76.167969 92.773438 Z M 59.449219 138.660156 C 59.398438 138.660156 59.347656 138.648438 59.300781 138.621094 C 59.199219 138.566406 59.136719 138.453125 59.148438 138.335938 L 59.648438 132.472656 L 47.332031 116.117188 C 46.949219 115.613281 46.792969 114.988281 46.882812 114.363281 C 46.972656 113.734375 47.300781 113.175781 47.808594 112.796875 L 74.746094 92.644531 C 75.796875 91.859375 77.285156 92.070312 78.070312 93.117188 L 91.898438 111.550781 C 92.277344 112.058594 92.4375 112.679688 92.347656 113.308594 C 92.253906 113.933594 91.925781 114.492188 91.417969 114.871094 L 64.992188 134.636719 L 59.625 138.601562 C 59.574219 138.640625 59.511719 138.660156 59.449219 138.660156 " fill-opacity="1" fill-rule="nonzero"/><path fill="#745ff6" d="M 63.535156 118.375 C 62.363281 119.25 62.125 120.910156 63 122.085938 C 63.875 123.257812 65.53125 123.5 66.703125 122.625 C 67.875 121.746094 68.117188 120.085938 67.242188 118.914062 C 66.367188 117.738281 64.707031 117.5 63.535156 118.375 " fill-opacity="1" fill-rule="nonzero"/><path fill="#745ff6" d="M 75.242188 112.917969 C 76.109375 114.078125 77.75 114.316406 78.910156 113.449219 C 80.070312 112.582031 80.308594 110.941406 79.441406 109.78125 C 78.578125 108.621094 76.9375 108.382812 75.777344 109.246094 C 74.617188 110.113281 74.378906 111.757812 75.242188 112.917969 " fill-opacity="1" fill-rule="nonzero"/><path fill="#745ff6" d="M 69.117188 117.496094 C 69.980469 118.65625 71.625 118.894531 72.78125 118.027344 C 73.941406 117.164062 74.179688 115.519531 73.316406 114.359375 C 72.449219 113.199219 70.808594 112.960938 69.648438 113.828125 C 68.488281 114.695312 68.25 116.335938 69.117188 117.496094 " fill-opacity="1" fill-rule="nonzero"/><path fill="#000000" d="M 373.578125 265.484375 L 246.265625 265.484375 C 246.097656 265.484375 245.964844 265.351562 245.964844 265.183594 C 245.964844 265.019531 246.097656 264.882812 246.265625 264.882812 L 373.578125 264.882812 C 373.742188 264.882812 373.878906 265.019531 373.878906 265.183594 C 373.878906 265.351562 373.742188 265.484375 373.578125 265.484375 " fill-opacity="1" fill-rule="nonzero"/><path fill="#000000" d="M 195.640625 265.484375 L 155.175781 265.484375 C 155.09375 265.484375 155.011719 265.449219 154.953125 265.386719 C 154.898438 265.328125 154.871094 265.242188 154.875 265.15625 L 157.03125 240.484375 C 157.046875 240.320312 157.199219 240.195312 157.359375 240.210938 C 157.523438 240.226562 157.648438 240.371094 157.632812 240.535156 L 155.503906 264.882812 L 195.640625 264.882812 C 195.808594 264.882812 195.945312 265.019531 195.945312 265.183594 C 195.945312 265.351562 195.808594 265.484375 195.640625 265.484375 " fill-opacity="1" fill-rule="nonzero"/><path fill="#ffffff" d="M 210.277344 265.667969 C 210.46875 263.507812 208.871094 261.753906 206.707031 261.753906 C 204.546875 261.753906 202.644531 263.507812 202.453125 265.667969 C 202.265625 267.832031 203.863281 269.582031 206.023438 269.582031 C 208.183594 269.582031 210.089844 267.832031 210.277344 265.667969 " fill-opacity="1" fill-rule="nonzero"/><path fill="#000000" d="M 210.277344 265.667969 L 210.28125 265.667969 Z M 206.707031 262.054688 C 204.703125 262.054688 202.929688 263.6875 202.753906 265.695312 C 202.671875 266.65625 202.964844 267.5625 203.585938 268.238281 C 204.199219 268.910156 205.066406 269.28125 206.023438 269.28125 C 208.027344 269.28125 209.800781 267.648438 209.976562 265.640625 C 210.0625 264.679688 209.765625 263.777344 209.148438 263.097656 C 208.53125 262.425781 207.664062 262.054688 206.707031 262.054688 Z M 206.023438 269.886719 C 204.894531 269.886719 203.871094 269.445312 203.140625 268.644531 C 202.40625 267.839844 202.054688 266.777344 202.152344 265.640625 C 202.355469 263.332031 204.398438 261.453125 206.707031 261.453125 C 207.835938 261.453125 208.859375 261.894531 209.589844 262.691406 C 210.328125 263.496094 210.675781 264.5625 210.578125 265.695312 C 210.375 268.003906 208.332031 269.886719 206.023438 269.886719 " fill-opacity="1" fill-rule="nonzero"/><path fill="#ffffff" d="M 224.398438 265.652344 C 224.589844 263.488281 222.992188 261.738281 220.832031 261.738281 C 218.671875 261.738281 216.765625 263.488281 216.578125 265.652344 C 216.390625 267.8125 217.984375 269.566406 220.148438 269.566406 C 222.308594 269.566406 224.210938 267.8125 224.398438 265.652344 " fill-opacity="1" fill-rule="nonzero"/><path fill="#000000" d="M 224.398438 265.652344 L 224.40625 265.652344 Z M 220.832031 262.039062 C 218.824219 262.039062 217.050781 263.671875 216.875 265.675781 C 216.792969 266.640625 217.089844 267.542969 217.707031 268.21875 C 218.324219 268.894531 219.1875 269.265625 220.148438 269.265625 C 222.152344 269.265625 223.925781 267.632812 224.101562 265.625 C 224.183594 264.664062 223.890625 263.757812 223.269531 263.082031 C 222.652344 262.410156 221.789062 262.039062 220.832031 262.039062 Z M 220.148438 269.867188 C 219.019531 269.867188 217.996094 269.425781 217.261719 268.628906 C 216.527344 267.824219 216.179688 266.757812 216.277344 265.625 C 216.480469 263.316406 218.523438 261.433594 220.832031 261.433594 C 221.957031 261.433594 222.980469 261.875 223.714844 262.675781 C 224.449219 263.476562 224.800781 264.542969 224.699219 265.675781 C 224.5 267.988281 222.457031 269.867188 220.148438 269.867188 " fill-opacity="1" fill-rule="nonzero"/><path fill="#ffffff" d="M 234.574219 269.625 C 236.757812 269.625 238.679688 267.855469 238.871094 265.667969 C 239.0625 263.484375 237.449219 261.710938 235.265625 261.710938 C 233.082031 261.710938 231.160156 263.484375 230.96875 265.667969 C 230.777344 267.855469 232.390625 269.625 234.574219 269.625 " fill-opacity="1" fill-rule="nonzero"/><path fill="#000000" d="M 235.265625 262.011719 C 233.238281 262.011719 231.445312 263.664062 231.269531 265.695312 C 231.183594 266.667969 231.480469 267.585938 232.109375 268.269531 C 232.730469 268.949219 233.605469 269.324219 234.574219 269.324219 C 236.601562 269.324219 238.394531 267.671875 238.570312 265.640625 C 238.65625 264.667969 238.359375 263.753906 237.730469 263.066406 C 237.109375 262.386719 236.234375 262.011719 235.265625 262.011719 Z M 234.574219 269.925781 C 233.4375 269.925781 232.402344 269.484375 231.664062 268.675781 C 230.921875 267.867188 230.566406 266.789062 230.667969 265.640625 C 230.871094 263.308594 232.933594 261.410156 235.265625 261.410156 C 236.402344 261.410156 237.4375 261.855469 238.175781 262.660156 C 238.917969 263.472656 239.269531 264.550781 239.171875 265.695312 C 238.96875 268.027344 236.90625 269.925781 234.574219 269.925781 " fill-opacity="1" fill-rule="nonzero"/><path fill="#000000" d="M 365.570312 261.117188 C 365.40625 261.117188 365.269531 260.984375 365.269531 260.816406 C 365.269531 260.648438 365.40625 260.515625 365.570312 260.515625 L 373.519531 260.515625 C 373.683594 260.515625 373.820312 260.648438 373.820312 260.816406 C 373.820312 260.980469 373.683594 261.117188 373.519531 261.117188 L 365.570312 261.117188 " fill-opacity="1" fill-rule="nonzero"/><path fill="#000000" d="M 334.75 261.117188 C 334.582031 261.117188 334.449219 260.984375 334.449219 260.816406 C 334.449219 260.652344 334.582031 260.515625 334.75 260.515625 L 356.34375 260.515625 C 356.507812 260.515625 356.644531 260.652344 356.644531 260.816406 C 356.644531 260.984375 356.507812 261.117188 356.34375 261.117188 L 334.75 261.117188 " fill-opacity="1" fill-rule="nonzero"/><path fill="#000000" d="M 357.582031 255.636719 C 357.417969 255.636719 357.28125 255.503906 357.28125 255.335938 C 357.28125 255.167969 357.417969 255.035156 357.582031 255.035156 L 374 255.035156 C 374.164062 255.035156 374.300781 255.167969 374.300781 255.335938 C 374.300781 255.5 374.164062 255.636719 374 255.636719 L 357.582031 255.636719 " fill-opacity="1" fill-rule="nonzero"/><path fill="#000000" d="M 335.226562 255.636719 C 335.0625 255.636719 334.925781 255.503906 334.925781 255.335938 C 334.925781 255.171875 335.0625 255.035156 335.226562 255.035156 L 350.464844 255.035156 C 350.632812 255.035156 350.765625 255.167969 350.765625 255.335938 C 350.765625 255.503906 350.632812 255.636719 350.464844 255.636719 L 335.226562 255.636719 " fill-opacity="1" fill-rule="nonzero"/><path fill="#000000" d="M 363.253906 250.15625 C 363.089844 250.15625 362.953125 250.019531 362.953125 249.855469 C 362.953125 249.6875 363.089844 249.554688 363.253906 249.554688 L 374.476562 249.554688 C 374.644531 249.554688 374.777344 249.6875 374.777344 249.855469 C 374.777344 250.019531 374.644531 250.15625 374.476562 250.15625 L 363.253906 250.15625 " fill-opacity="1" fill-rule="nonzero"/><path fill="#000000" d="M 335.707031 250.15625 C 335.539062 250.15625 335.40625 250.023438 335.40625 249.855469 C 335.40625 249.691406 335.539062 249.554688 335.707031 249.554688 L 355.089844 249.554688 C 355.257812 249.554688 355.394531 249.6875 355.394531 249.855469 C 355.394531 250.019531 355.257812 250.15625 355.089844 250.15625 L 335.707031 250.15625 " fill-opacity="1" fill-rule="nonzero"/><g clip-path="url(#9728f0f17c)"><path fill="#5236ff" d="M 181.945312 117.136719 L 260.410156 117.136719 L 260.410156 157.210938 L 181.945312 157.210938 Z M 181.945312 117.136719 " fill-opacity="1" fill-rule="nonzero"/></g><g fill="#ffffff" fill-opacity="1"><g transform="translate(180.775027, 137.797681)"><g><path d="M 2.078125 -8.484375 C 2.316406 -8.484375 2.515625 -8.398438 2.671875 -8.234375 C 2.828125 -8.078125 2.90625 -7.878906 2.90625 -7.640625 C 2.90625 -7.421875 2.828125 -7.226562 2.671875 -7.0625 C 2.515625 -6.90625 2.316406 -6.828125 2.078125 -6.828125 C 1.847656 -6.828125 1.648438 -6.90625 1.484375 -7.0625 C 1.316406 -7.226562 1.234375 -7.421875 1.234375 -7.640625 C 1.234375 -7.878906 1.316406 -8.078125 1.484375 -8.234375 C 1.648438 -8.398438 1.847656 -8.484375 2.078125 -8.484375 Z M 2.75 2.46875 L 1.40625 2.46875 L 1.625 -5.046875 L 2.515625 -5.046875 Z M 2.75 2.46875 "/></g></g></g><g fill="#ffffff" fill-opacity="1"><g transform="translate(184.934027, 137.797681)"><g><path d="M 11.1875 -11.203125 L 11.1875 0 L 10.015625 0 L 10.015625 -5.171875 L 3.015625 -5.171875 L 3.015625 0 L 1.828125 0 L 1.828125 -11.203125 L 3.015625 -11.203125 L 3.015625 -6.203125 L 10.015625 -6.203125 L 10.015625 -11.203125 Z M 11.1875 -11.203125 "/></g></g></g><g fill="#ffffff" fill-opacity="1"><g transform="translate(197.938897, 137.797681)"><g><path d="M 9.75 -1.03125 L 9.75 0 L 1.828125 0 L 1.828125 -11.203125 L 9.5 -11.203125 L 9.5 -10.171875 L 3.015625 -10.171875 L 3.015625 -6.1875 L 8.796875 -6.1875 L 8.796875 -5.1875 L 3.015625 -5.1875 L 3.015625 -1.03125 Z M 9.75 -1.03125 "/></g></g></g><g fill="#ffffff" fill-opacity="1"><g transform="translate(208.640324, 137.797681)"><g><path d="M 5.65625 -3.875 L 5.65625 0 L 4.5 0 L 4.5 -3.875 L 0.015625 -11.203125 L 1.28125 -11.203125 L 5.125 -4.90625 L 8.953125 -11.203125 L 10.140625 -11.203125 Z M 5.65625 -3.875 "/></g></g></g><g fill="#ffffff" fill-opacity="1"><g transform="translate(218.797882, 137.797681)"><g/></g></g><g fill="#ffffff" fill-opacity="1"><g transform="translate(222.98888, 137.797681)"><g><path d="M 11.140625 -11.203125 L 6.171875 0 L 5.015625 0 L 0.046875 -11.203125 L 1.328125 -11.203125 L 5.609375 -1.46875 L 9.9375 -11.203125 Z M 11.140625 -11.203125 "/></g></g></g><g fill="#ffffff" fill-opacity="1"><g transform="translate(234.154193, 137.797681)"><g><path d="M 6.71875 0.09375 C 5.613281 0.09375 4.609375 -0.148438 3.703125 -0.640625 C 2.804688 -1.140625 2.101562 -1.820312 1.59375 -2.6875 C 1.082031 -3.550781 0.828125 -4.519531 0.828125 -5.59375 C 0.828125 -6.675781 1.082031 -7.648438 1.59375 -8.515625 C 2.101562 -9.378906 2.804688 -10.054688 3.703125 -10.546875 C 4.609375 -11.046875 5.613281 -11.296875 6.71875 -11.296875 C 7.832031 -11.296875 8.832031 -11.050781 9.71875 -10.5625 C 10.613281 -10.070312 11.316406 -9.390625 11.828125 -8.515625 C 12.335938 -7.648438 12.59375 -6.675781 12.59375 -5.59375 C 12.59375 -4.519531 12.335938 -3.546875 11.828125 -2.671875 C 11.316406 -1.804688 10.613281 -1.128906 9.71875 -0.640625 C 8.832031 -0.148438 7.832031 0.09375 6.71875 0.09375 Z M 6.71875 -0.953125 C 7.601562 -0.953125 8.398438 -1.148438 9.109375 -1.546875 C 9.828125 -1.953125 10.390625 -2.507812 10.796875 -3.21875 C 11.203125 -3.925781 11.40625 -4.71875 11.40625 -5.59375 C 11.40625 -6.46875 11.203125 -7.257812 10.796875 -7.96875 C 10.390625 -8.6875 9.828125 -9.242188 9.109375 -9.640625 C 8.398438 -10.035156 7.601562 -10.234375 6.71875 -10.234375 C 5.832031 -10.234375 5.03125 -10.035156 4.3125 -9.640625 C 3.59375 -9.242188 3.023438 -8.6875 2.609375 -7.96875 C 2.203125 -7.257812 2 -6.46875 2 -5.59375 C 2 -4.71875 2.203125 -3.925781 2.609375 -3.21875 C 3.023438 -2.507812 3.59375 -1.953125 4.3125 -1.546875 C 5.03125 -1.148438 5.832031 -0.953125 6.71875 -0.953125 Z M 6.71875 -0.953125 "/></g></g></g><g fill="#ffffff" fill-opacity="1"><g transform="translate(247.574964, 137.797681)"><g><path d="M 4.90625 0.09375 C 4.070312 0.09375 3.273438 -0.0351562 2.515625 -0.296875 C 1.753906 -0.566406 1.164062 -0.921875 0.75 -1.359375 L 1.21875 -2.265625 C 1.625 -1.859375 2.160156 -1.53125 2.828125 -1.28125 C 3.503906 -1.03125 4.195312 -0.90625 4.90625 -0.90625 C 5.914062 -0.90625 6.671875 -1.085938 7.171875 -1.453125 C 7.671875 -1.828125 7.921875 -2.304688 7.921875 -2.890625 C 7.921875 -3.335938 7.785156 -3.695312 7.515625 -3.96875 C 7.242188 -4.238281 6.910156 -4.441406 6.515625 -4.578125 C 6.117188 -4.722656 5.566406 -4.882812 4.859375 -5.0625 C 4.015625 -5.269531 3.34375 -5.472656 2.84375 -5.671875 C 2.34375 -5.867188 1.914062 -6.171875 1.5625 -6.578125 C 1.207031 -6.984375 1.03125 -7.53125 1.03125 -8.21875 C 1.03125 -8.789062 1.175781 -9.304688 1.46875 -9.765625 C 1.769531 -10.234375 2.226562 -10.601562 2.84375 -10.875 C 3.46875 -11.15625 4.238281 -11.296875 5.15625 -11.296875 C 5.789062 -11.296875 6.414062 -11.207031 7.03125 -11.03125 C 7.644531 -10.851562 8.175781 -10.609375 8.625 -10.296875 L 8.21875 -9.359375 C 7.75 -9.671875 7.25 -9.898438 6.71875 -10.046875 C 6.1875 -10.203125 5.664062 -10.28125 5.15625 -10.28125 C 4.175781 -10.28125 3.4375 -10.09375 2.9375 -9.71875 C 2.4375 -9.34375 2.1875 -8.851562 2.1875 -8.25 C 2.1875 -7.800781 2.320312 -7.441406 2.59375 -7.171875 C 2.875 -6.898438 3.21875 -6.691406 3.625 -6.546875 C 4.03125 -6.410156 4.582031 -6.253906 5.28125 -6.078125 C 6.101562 -5.878906 6.765625 -5.679688 7.265625 -5.484375 C 7.773438 -5.285156 8.207031 -4.984375 8.5625 -4.578125 C 8.914062 -4.179688 9.09375 -3.640625 9.09375 -2.953125 C 9.09375 -2.390625 8.9375 -1.875 8.625 -1.40625 C 8.320312 -0.945312 7.851562 -0.582031 7.21875 -0.3125 C 6.59375 -0.0390625 5.820312 0.09375 4.90625 0.09375 Z M 4.90625 0.09375 "/></g></g></g><g fill="#ffffff" fill-opacity="1"><g transform="translate(257.412602, 137.797681)"><g><path d="M 1.40625 -11.203125 L 2.75 -11.203125 L 2.515625 -3.359375 L 1.625 -3.359375 Z M 2.078125 0.078125 C 1.847656 0.078125 1.648438 -0.00390625 1.484375 -0.171875 C 1.316406 -0.335938 1.234375 -0.53125 1.234375 -0.75 C 1.234375 -0.988281 1.3125 -1.179688 1.46875 -1.328125 C 1.632812 -1.484375 1.835938 -1.5625 2.078125 -1.5625 C 2.316406 -1.5625 2.515625 -1.484375 2.671875 -1.328125 C 2.828125 -1.179688 2.90625 -0.988281 2.90625 -0.75 C 2.90625 -0.53125 2.828125 -0.335938 2.671875 -0.171875 C 2.515625 -0.00390625 2.316406 0.078125 2.078125 0.078125 Z M 2.078125 0.078125 "/></g></g></g></svg>