<svg xmlns="http://www.w3.org/2000/svg" xmlns:xlink="http://www.w3.org/1999/xlink" width="500" zoomAndPan="magnify" viewBox="0 0 375 374.999991" height="500" preserveAspectRatio="xMidYMid meet" version="1.0"><defs><g/><clipPath id="dd29821de6"><path d="M 20 76 L 80 76 L 80 123 L 20 123 Z M 20 76 " clip-rule="nonzero"/></clipPath><clipPath id="bc3c67a261"><path d="M 17.769531 82.75 L 75.683594 74.398438 L 81.738281 116.375 L 23.824219 124.726562 Z M 17.769531 82.75 " clip-rule="nonzero"/></clipPath><clipPath id="c759bb9d56"><path d="M 34.84375 80.289062 L 58.613281 76.859375 C 63.140625 76.207031 67.742188 77.378906 71.40625 80.121094 C 75.070312 82.859375 77.496094 86.941406 78.148438 91.472656 L 79.277344 99.300781 C 79.929688 103.828125 78.757812 108.429688 76.019531 112.09375 C 73.277344 115.757812 69.195312 118.183594 64.667969 118.835938 L 40.898438 122.265625 C 36.371094 122.917969 31.765625 121.746094 28.105469 119.003906 C 24.441406 116.265625 22.015625 112.183594 21.363281 107.65625 L 20.230469 99.824219 C 19.578125 95.296875 20.75 90.695312 23.492188 87.03125 C 26.230469 83.367188 30.316406 80.941406 34.84375 80.289062 Z M 34.84375 80.289062 " clip-rule="nonzero"/></clipPath></defs><path fill="#d2ccf6" d="M 12.671875 296.144531 C 23.035156 321.246094 47.214844 333.136719 62.667969 340.734375 C 123.585938 370.683594 216.09375 367.25 282.648438 312.753906 C 298.226562 300 374.988281 233.1875 357.039062 142.625 C 341.171875 62.5625 261.617188 16.066406 194.640625 9.84375 C 139.15625 4.6875 56.25 11.921875 26.675781 71.015625 C 11.164062 102 44.414062 114.109375 31.296875 183.679688 C 19.941406 243.894531 0 265.441406 12.671875 296.144531 " fill-opacity="1" fill-rule="nonzero"/><path fill="#5236ff" d="M 123.933594 297.691406 C 114.476562 300.28125 104.710938 294.710938 102.121094 285.246094 C 99.53125 275.78125 105.101562 266.003906 114.554688 263.414062 C 124.011719 260.820312 133.777344 266.394531 136.367188 275.859375 C 138.953125 285.328125 133.386719 295.101562 123.933594 297.691406 Z M 154.5625 274.453125 L 152.738281 267.792969 L 145.214844 268.136719 C 144.519531 266.667969 143.710938 265.277344 142.796875 263.980469 L 146.78125 257.59375 L 141.878906 252.738281 L 135.53125 256.800781 C 134.210938 255.894531 132.816406 255.097656 131.363281 254.421875 L 131.625 246.886719 L 124.953125 245.136719 L 121.492188 251.820312 C 119.910156 251.695312 118.304688 251.710938 116.6875 251.855469 L 113.148438 245.199219 L 106.496094 247.023438 L 106.839844 254.554688 C 105.375 255.25 103.984375 256.058594 102.6875 256.972656 L 96.304688 252.988281 L 91.457031 257.894531 L 95.515625 264.246094 C 94.609375 265.570312 93.816406 266.964844 93.140625 268.421875 L 85.609375 268.160156 L 83.863281 274.839844 L 90.539062 278.300781 C 90.417969 279.890625 90.429688 281.496094 90.574219 283.113281 L 83.925781 286.65625 L 85.75 293.3125 L 93.269531 292.972656 C 93.96875 294.4375 94.777344 295.828125 95.691406 297.125 L 91.707031 303.511719 L 96.609375 308.367188 L 102.953125 304.304688 C 104.277344 305.210938 105.671875 306.007812 107.125 306.683594 L 106.863281 314.21875 L 113.535156 315.972656 L 116.996094 309.285156 C 118.578125 309.410156 120.183594 309.398438 121.800781 309.25 L 125.339844 315.90625 L 131.988281 314.085938 L 131.648438 306.550781 C 133.113281 305.855469 134.5 305.046875 135.800781 304.132812 L 142.179688 308.121094 L 147.03125 303.210938 L 142.972656 296.859375 C 143.878906 295.535156 144.671875 294.140625 145.347656 292.683594 L 152.875 292.945312 L 154.625 286.265625 L 147.945312 282.804688 C 148.070312 281.21875 148.058594 279.613281 147.914062 277.992188 L 154.5625 274.453125 " fill-opacity="1" fill-rule="nonzero"/><path fill="#ffffff" d="M 312.441406 215.589844 C 302.980469 218.179688 293.21875 212.609375 290.628906 203.144531 C 288.039062 193.675781 293.605469 183.902344 303.0625 181.3125 C 312.519531 178.71875 322.28125 184.292969 324.871094 193.757812 C 327.460938 203.222656 321.894531 212.996094 312.441406 215.589844 Z M 343.066406 192.347656 L 341.246094 185.691406 L 333.722656 186.035156 C 333.023438 184.566406 332.21875 183.175781 331.304688 181.875 L 335.285156 175.488281 L 330.386719 170.636719 L 324.039062 174.695312 C 322.71875 173.792969 321.324219 172.996094 319.871094 172.320312 L 320.128906 164.78125 L 313.460938 163.03125 L 309.996094 169.71875 C 308.414062 169.59375 306.808594 169.605469 305.195312 169.75 L 301.652344 163.09375 L 295.003906 164.921875 L 295.34375 172.449219 C 293.878906 173.152344 292.492188 173.957031 291.195312 174.871094 L 284.8125 170.882812 L 279.964844 175.792969 L 284.023438 182.144531 C 283.117188 183.46875 282.324219 184.863281 281.644531 186.316406 L 274.117188 186.058594 L 272.367188 192.734375 L 279.046875 196.199219 C 278.921875 197.785156 278.9375 199.394531 279.082031 201.007812 L 272.433594 204.550781 L 274.253906 211.210938 L 281.78125 210.867188 C 282.472656 212.332031 283.285156 213.722656 284.195312 215.023438 L 280.210938 221.410156 L 285.113281 226.265625 L 291.460938 222.203125 C 292.78125 223.109375 294.175781 223.90625 295.632812 224.582031 L 295.371094 232.117188 L 302.042969 233.867188 L 305.5 227.183594 C 307.085938 227.308594 308.691406 227.292969 310.304688 227.148438 L 313.84375 233.804688 L 320.496094 231.980469 L 320.15625 224.449219 C 321.621094 223.75 323.007812 222.941406 324.308594 222.027344 L 330.6875 226.015625 L 335.535156 221.109375 L 331.476562 214.757812 C 332.382812 213.433594 333.179688 212.039062 333.855469 210.582031 L 341.382812 210.84375 L 343.132812 204.164062 L 336.453125 200.699219 C 336.578125 199.117188 336.566406 197.507812 336.417969 195.890625 L 343.066406 192.347656 " fill-opacity="1" fill-rule="nonzero"/><path fill="#5236ff" d="M 330.855469 151.519531 C 325.785156 153.640625 319.960938 151.242188 317.84375 146.167969 C 315.726562 141.097656 318.121094 135.265625 323.191406 133.144531 C 328.257812 131.027344 334.082031 133.425781 336.199219 138.496094 C 338.316406 143.570312 335.921875 149.402344 330.855469 151.519531 Z M 346.207031 136.410156 L 344.71875 132.839844 L 340.566406 133.570312 C 340.070312 132.808594 339.527344 132.09375 338.921875 131.4375 L 340.679688 127.601562 L 337.605469 125.253906 L 334.371094 127.96875 C 333.574219 127.558594 332.742188 127.214844 331.886719 126.945312 L 331.492188 122.738281 L 327.660156 122.246094 L 326.214844 126.207031 C 325.324219 126.253906 324.4375 126.375 323.546875 126.574219 L 321.105469 123.128906 L 317.539062 124.617188 L 318.269531 128.777344 C 317.503906 129.269531 316.792969 129.820312 316.136719 130.417969 L 312.304688 128.664062 L 309.960938 131.738281 L 312.671875 134.976562 C 312.261719 135.773438 311.921875 136.609375 311.648438 137.464844 L 307.449219 137.859375 L 306.953125 141.699219 L 310.914062 143.144531 C 310.957031 144.03125 311.078125 144.925781 311.277344 145.8125 L 307.835938 148.257812 L 309.324219 151.824219 L 313.480469 151.097656 C 313.972656 151.859375 314.519531 152.574219 315.125 153.230469 L 313.367188 157.066406 L 316.4375 159.410156 L 319.671875 156.699219 C 320.46875 157.109375 321.304688 157.449219 322.160156 157.722656 L 322.554688 161.929688 L 326.386719 162.421875 L 327.832031 158.460938 C 328.71875 158.414062 329.609375 158.292969 330.496094 158.09375 L 332.9375 161.539062 L 336.507812 160.050781 L 335.777344 155.890625 C 336.539062 155.394531 337.253906 154.847656 337.90625 154.246094 L 341.742188 156.003906 L 344.082031 152.929688 L 341.375 149.691406 C 341.78125 148.890625 342.125 148.058594 342.394531 147.199219 L 346.597656 146.804688 L 347.089844 142.972656 L 343.128906 141.523438 C 343.085938 140.636719 342.964844 139.746094 342.765625 138.855469 L 346.207031 136.410156 " fill-opacity="1" fill-rule="nonzero"/><path fill="#745ff6" d="M 286.296875 342.757812 L 142.085938 342.757812 C 135.949219 342.757812 130.976562 337.46875 130.976562 330.949219 L 145.035156 20.160156 C 145.035156 13.640625 150.011719 8.351562 156.144531 8.351562 L 300.355469 8.351562 C 306.492188 8.351562 311.464844 13.640625 311.464844 20.160156 L 297.40625 330.949219 C 297.40625 337.46875 292.433594 342.757812 286.296875 342.757812 " fill-opacity="1" fill-rule="nonzero"/><path fill="#5236ff" d="M 277.757812 342.863281 L 133.550781 342.863281 C 127.414062 342.863281 122.441406 337.585938 122.441406 331.074219 L 136.5 20.863281 C 136.5 14.355469 141.472656 9.078125 147.609375 9.078125 L 291.820312 9.078125 C 297.953125 9.078125 302.929688 14.355469 302.929688 20.863281 L 288.871094 331.074219 C 288.871094 337.585938 283.894531 342.863281 277.757812 342.863281 " fill-opacity="1" fill-rule="nonzero"/><path fill="#ffffff" d="M 271.226562 335.976562 L 139.78125 335.976562 C 134.1875 335.976562 129.65625 331.167969 129.65625 325.234375 L 143.226562 27.476562 C 143.226562 21.542969 147.757812 16.730469 153.351562 16.730469 L 284.796875 16.730469 C 290.386719 16.730469 294.921875 21.542969 294.921875 27.476562 L 281.351562 325.234375 C 281.351562 331.167969 276.820312 335.976562 271.226562 335.976562 " fill-opacity="1" fill-rule="nonzero"/><path fill="#5236ff" d="M 188.46875 16.222656 L 191.945312 21.664062 C 194.058594 24.96875 197.597656 26.949219 201.386719 26.949219 L 236.503906 26.949219 C 240.210938 26.949219 243.6875 25.050781 245.816406 21.863281 L 249.582031 16.222656 L 188.46875 16.222656 " fill-opacity="1" fill-rule="nonzero"/><path fill="#000000" d="M 132.78125 97.960938 C 132.765625 97.960938 132.753906 97.960938 132.742188 97.960938 C 132.390625 97.9375 132.125 97.636719 132.144531 97.285156 L 135.535156 39.601562 C 135.554688 39.25 135.859375 38.980469 136.207031 39.003906 C 136.554688 39.023438 136.824219 39.324219 136.804688 39.671875 L 133.414062 97.359375 C 133.394531 97.699219 133.113281 97.960938 132.78125 97.960938 " fill-opacity="1" fill-rule="nonzero"/><path fill="#000000" d="M 214.984375 343.503906 L 133.550781 343.503906 C 127.074219 343.503906 121.804688 337.929688 121.804688 331.078125 L 127.90625 196.550781 C 127.921875 196.199219 128.21875 195.925781 128.570312 195.945312 C 128.921875 195.960938 129.191406 196.257812 129.175781 196.609375 L 123.074219 331.105469 C 123.074219 337.226562 127.773438 342.230469 133.550781 342.230469 L 214.984375 342.230469 C 215.335938 342.230469 215.621094 342.511719 215.621094 342.863281 C 215.621094 343.214844 215.335938 343.503906 214.984375 343.503906 " fill-opacity="1" fill-rule="nonzero"/><path fill="#000000" d="M 273.460938 343.554688 C 273.109375 343.554688 272.828125 343.277344 272.820312 342.925781 C 272.816406 342.574219 273.101562 342.289062 273.449219 342.285156 L 277.75 342.230469 C 283.53125 342.230469 288.234375 337.226562 288.234375 331.078125 L 294.296875 197.238281 C 294.3125 196.886719 294.605469 196.609375 294.960938 196.632812 C 295.3125 196.648438 295.582031 196.945312 295.566406 197.296875 L 289.503906 331.105469 C 289.503906 337.929688 284.234375 343.503906 277.757812 343.503906 L 273.464844 343.554688 C 273.460938 343.554688 273.460938 343.554688 273.460938 343.554688 " fill-opacity="1" fill-rule="nonzero"/><path fill="#000000" d="M 294.933594 197.902344 C 294.921875 197.902344 294.914062 197.902344 294.90625 197.902344 C 294.554688 197.886719 294.285156 197.585938 294.296875 197.238281 L 302.292969 20.839844 C 302.292969 14.71875 297.59375 9.714844 291.820312 9.714844 L 147.609375 9.714844 C 141.832031 9.714844 137.136719 14.71875 137.136719 20.867188 L 136.855469 27.066406 C 136.835938 27.417969 136.53125 27.695312 136.191406 27.671875 C 135.839844 27.65625 135.566406 27.359375 135.585938 27.011719 L 135.863281 20.839844 C 135.863281 14.019531 141.132812 8.441406 147.609375 8.441406 L 291.820312 8.441406 C 298.292969 8.441406 303.5625 14.019531 303.5625 20.867188 L 295.566406 197.292969 C 295.550781 197.632812 295.269531 197.902344 294.933594 197.902344 " fill-opacity="1" fill-rule="nonzero"/><path fill="#d2ccf6" d="M 268.738281 229.15625 L 150.042969 229.15625 L 150.445312 221.964844 L 269.140625 221.964844 L 268.738281 229.15625 " fill-opacity="1" fill-rule="nonzero"/><path fill="#d2ccf6" d="M 236.941406 243.3125 L 149.25 243.3125 L 149.652344 236.121094 L 237.34375 236.121094 L 236.941406 243.3125 " fill-opacity="1" fill-rule="nonzero"/><path fill="#d2ccf6" d="M 270.910156 190.613281 L 210.097656 190.613281 L 210.5 183.425781 L 271.3125 183.425781 L 270.910156 190.613281 " fill-opacity="1" fill-rule="nonzero"/><path fill="#d2ccf6" d="M 270.308594 204.773438 L 209.304688 204.773438 L 209.707031 197.582031 L 270.710938 197.582031 L 270.308594 204.773438 " fill-opacity="1" fill-rule="nonzero"/><path fill="#d2ccf6" d="M 266.585938 267.460938 L 147.894531 267.460938 L 148.296875 260.269531 L 266.992188 260.269531 L 266.585938 267.460938 " fill-opacity="1" fill-rule="nonzero"/><path fill="#d2ccf6" d="M 234.792969 281.621094 L 147.101562 281.621094 L 147.503906 274.429688 L 235.195312 274.429688 L 234.792969 281.621094 " fill-opacity="1" fill-rule="nonzero"/><path fill="#d2ccf6" d="M 264.441406 305.769531 L 145.75 305.769531 L 146.152344 298.574219 L 264.847656 298.574219 L 264.441406 305.769531 " fill-opacity="1" fill-rule="nonzero"/><path fill="#d2ccf6" d="M 232.648438 319.925781 L 144.953125 319.925781 L 145.355469 312.734375 L 233.050781 312.734375 L 232.648438 319.925781 " fill-opacity="1" fill-rule="nonzero"/><path fill="#d2ccf6" d="M 199.964844 192.597656 C 199.265625 205.050781 189.097656 215.152344 177.25 215.152344 C 165.402344 215.152344 156.367188 205.050781 157.0625 192.597656 C 157.761719 180.140625 167.933594 170.039062 179.777344 170.039062 C 191.625 170.039062 200.664062 180.140625 199.964844 192.597656 " fill-opacity="1" fill-rule="nonzero"/><path fill="#d2ccf6" d="M 266.875 112.683594 C 266.171875 140.113281 243.578125 162.355469 216.410156 162.355469 C 189.242188 162.355469 167.785156 140.113281 168.484375 112.683594 C 169.1875 85.253906 191.78125 63.015625 218.953125 63.015625 C 246.121094 63.015625 267.578125 85.253906 266.875 112.683594 " fill-opacity="1" fill-rule="nonzero"/><path fill="#745ff6" d="M 217.542969 130.128906 L 216.925781 130.128906 C 211.34375 130.128906 206.941406 125.5625 207.085938 119.929688 L 207.855469 89.886719 C 207.996094 84.25 212.640625 79.683594 218.21875 79.683594 L 218.832031 79.683594 C 224.410156 79.683594 228.820312 84.25 228.675781 89.886719 L 227.90625 119.929688 C 227.761719 125.5625 223.121094 130.128906 217.542969 130.128906 " fill-opacity="1" fill-rule="nonzero"/><path fill="#745ff6" d="M 217.03125 138.027344 C 207.699219 138.027344 200.300781 130.359375 200.542969 120.933594 C 200.570312 119.804688 201.503906 118.886719 202.625 118.886719 C 203.746094 118.886719 204.628906 119.804688 204.601562 120.933594 C 204.417969 128.101562 210.042969 133.929688 217.136719 133.929688 C 224.234375 133.929688 230.15625 128.101562 230.335938 120.933594 C 230.367188 119.804688 231.296875 118.886719 232.421875 118.886719 C 233.539062 118.886719 234.425781 119.804688 234.398438 120.933594 C 234.15625 130.359375 226.367188 138.027344 217.03125 138.027344 " fill-opacity="1" fill-rule="nonzero"/><path fill="#745ff6" d="M 216.714844 150.484375 C 215.589844 150.484375 214.707031 149.570312 214.734375 148.4375 L 215.042969 136.402344 C 215.074219 135.269531 216.003906 134.351562 217.125 134.351562 C 218.246094 134.351562 219.132812 135.269531 219.101562 136.402344 L 218.792969 148.4375 C 218.765625 149.570312 217.835938 150.484375 216.714844 150.484375 " fill-opacity="1" fill-rule="nonzero"/><path fill="#5236ff" d="M 253.363281 95.511719 C 254.546875 95.542969 255.464844 96.460938 255.417969 97.554688 L 254.132812 127.5625 C 254.085938 128.660156 253.089844 129.515625 251.910156 129.484375 C 250.726562 129.449219 249.808594 128.53125 249.855469 127.4375 L 251.140625 97.429688 C 251.1875 96.335938 252.183594 95.476562 253.363281 95.511719 " fill-opacity="1" fill-rule="nonzero"/><path fill="#5236ff" d="M 244.109375 85.921875 C 245.289062 85.953125 246.214844 86.753906 246.171875 87.707031 L 244.191406 131.867188 C 244.144531 132.820312 243.152344 133.566406 241.972656 133.53125 C 240.789062 133.496094 239.867188 132.695312 239.910156 131.746094 L 241.890625 87.578125 C 241.933594 86.628906 242.925781 85.886719 244.109375 85.921875 " fill-opacity="1" fill-rule="nonzero"/><path fill="#5236ff" d="M 263.140625 91.523438 C 264.320312 91.558594 265.238281 92.628906 265.183594 93.917969 L 263.878906 125.9375 C 263.828125 127.226562 262.824219 128.242188 261.644531 128.207031 C 260.464844 128.171875 259.546875 127.097656 259.597656 125.8125 L 260.90625 93.789062 C 260.957031 92.503906 261.960938 91.488281 263.140625 91.523438 " fill-opacity="1" fill-rule="nonzero"/><path fill="#5236ff" d="M 272.4375 103.261719 C 273.621094 103.292969 274.546875 103.890625 274.515625 104.59375 L 273.816406 118.429688 C 273.78125 119.132812 272.796875 119.675781 271.613281 119.640625 C 270.433594 119.605469 269.5 119.007812 269.535156 118.304688 L 270.234375 104.46875 C 270.269531 103.765625 271.253906 103.226562 272.4375 103.261719 " fill-opacity="1" fill-rule="nonzero"/><path fill="#5236ff" d="M 283.535156 118.894531 C 283.484375 120.121094 282.484375 121.085938 281.304688 121.050781 C 280.121094 121.015625 279.203125 119.992188 279.257812 118.769531 L 279.878906 103.703125 C 279.929688 102.476562 280.929688 101.511719 282.109375 101.546875 C 283.292969 101.578125 284.207031 102.605469 284.15625 103.828125 L 283.535156 118.894531 " fill-opacity="1" fill-rule="nonzero"/><path fill="#5236ff" d="M 185.371094 96.03125 C 184.1875 96.066406 183.199219 96.761719 183.160156 97.585938 L 182.082031 120.125 C 182.039062 120.949219 182.96875 121.589844 184.148438 121.550781 C 185.332031 121.515625 186.320312 120.824219 186.359375 120 L 187.4375 97.460938 C 187.480469 96.636719 186.550781 96 185.371094 96.03125 " fill-opacity="1" fill-rule="nonzero"/><path fill="#5236ff" d="M 195.203125 84.957031 C 194.019531 84.988281 193.039062 85.808594 193.011719 86.789062 L 191.84375 132.117188 C 191.816406 133.09375 192.753906 133.859375 193.9375 133.824219 C 195.117188 133.789062 196.097656 132.96875 196.121094 131.992188 L 197.292969 86.664062 C 197.316406 85.683594 196.382812 84.921875 195.203125 84.957031 " fill-opacity="1" fill-rule="nonzero"/><path fill="#5236ff" d="M 175.503906 92.226562 C 174.320312 92.261719 173.339844 93.3125 173.316406 94.574219 L 172.65625 125.992188 C 172.628906 127.253906 173.5625 128.253906 174.746094 128.21875 C 175.925781 128.183594 176.90625 127.132812 176.933594 125.867188 L 177.59375 94.453125 C 177.617188 93.1875 176.683594 92.191406 175.503906 92.226562 " fill-opacity="1" fill-rule="nonzero"/><path fill="#5236ff" d="M 165.898438 100.566406 C 164.71875 100.601562 163.726562 101.242188 163.6875 101.996094 L 162.875 116.871094 C 162.832031 117.628906 163.753906 118.214844 164.9375 118.175781 C 166.117188 118.144531 167.113281 117.503906 167.152344 116.746094 L 167.964844 101.871094 C 168.007812 101.117188 167.082031 100.53125 165.898438 100.566406 " fill-opacity="1" fill-rule="nonzero"/><path fill="#5236ff" d="M 153.480469 118.609375 C 153.453125 119.871094 154.390625 120.867188 155.570312 120.832031 C 156.75 120.796875 157.730469 119.746094 157.757812 118.484375 L 158.085938 102.972656 C 158.109375 101.707031 157.171875 100.710938 155.992188 100.746094 C 154.808594 100.78125 153.832031 101.832031 153.804688 103.097656 L 153.480469 118.609375 " fill-opacity="1" fill-rule="nonzero"/><path fill="#745ff6" d="M 238.113281 331.929688 C 238.113281 331.929688 220.507812 293.300781 230.605469 243.222656 C 230.605469 243.222656 257.890625 266.113281 248.054688 331.929688 L 238.113281 331.929688 " fill-opacity="1" fill-rule="nonzero"/><path fill="#d2ccf6" d="M 242.421875 328.539062 C 242.40625 328.539062 242.394531 328.539062 242.382812 328.539062 C 242.03125 328.519531 241.765625 328.21875 241.785156 327.871094 C 243.132812 303.183594 232.011719 250.488281 231.898438 249.957031 C 231.824219 249.613281 232.042969 249.277344 232.386719 249.203125 C 232.730469 249.128906 233.070312 249.347656 233.140625 249.691406 C 233.253906 250.222656 244.410156 303.089844 243.054688 327.9375 C 243.035156 328.277344 242.753906 328.539062 242.421875 328.539062 " fill-opacity="1" fill-rule="nonzero"/><path fill="#5236ff" d="M 255.824219 269.128906 C 255.824219 269.128906 233.144531 310.152344 246.789062 327.902344 L 254.085938 327.902344 C 254.085938 327.902344 268.671875 295.832031 255.824219 269.128906 " fill-opacity="1" fill-rule="nonzero"/><path fill="#d2ccf6" d="M 250.195312 329.628906 C 249.855469 329.628906 249.574219 329.359375 249.5625 329.015625 C 249.097656 317.046875 252.035156 292.511719 253.828125 278.949219 C 253.871094 278.605469 254.1875 278.359375 254.539062 278.402344 C 254.890625 278.449219 255.132812 278.769531 255.085938 279.117188 C 253.300781 292.640625 250.371094 317.089844 250.828125 328.964844 C 250.84375 329.316406 250.570312 329.613281 250.21875 329.628906 C 250.210938 329.628906 250.203125 329.628906 250.195312 329.628906 " fill-opacity="1" fill-rule="nonzero"/><path fill="#5236ff" d="M 212.519531 284.421875 C 212.519531 284.421875 231.839844 291.019531 238.839844 330.089844 L 231.238281 330.089844 C 231.238281 330.089844 215.375 308.632812 212.519531 284.421875 " fill-opacity="1" fill-rule="nonzero"/><path fill="#d2ccf6" d="M 234.683594 329.628906 C 234.378906 329.628906 234.109375 329.40625 234.058594 329.09375 C 231.183594 311.722656 218.757812 294.222656 218.632812 294.046875 C 218.425781 293.765625 218.492188 293.367188 218.777344 293.160156 C 219.0625 292.957031 219.457031 293.023438 219.664062 293.308594 C 219.789062 293.484375 232.390625 311.226562 235.3125 328.886719 C 235.367188 329.234375 235.132812 329.5625 234.789062 329.617188 C 234.753906 329.625 234.71875 329.628906 234.683594 329.628906 " fill-opacity="1" fill-rule="nonzero"/><path fill="#745ff6" d="M 219.972656 326.992188 L 267.644531 326.992188 L 268.714844 349.5625 C 268.976562 355.097656 264.5625 359.726562 259.03125 359.726562 L 231.800781 359.726562 C 225.253906 359.726562 219.949219 354.410156 219.953125 347.855469 L 219.972656 326.992188 " fill-opacity="1" fill-rule="nonzero"/><path fill="#000000" d="M 220.605469 327.625 L 220.589844 347.855469 C 220.585938 350.855469 221.75 353.675781 223.871094 355.800781 C 225.988281 357.921875 228.808594 359.089844 231.804688 359.089844 L 259.03125 359.089844 C 261.53125 359.089844 263.863281 358.09375 265.589844 356.28125 C 267.3125 354.46875 268.199219 352.09375 268.078125 349.59375 L 267.042969 327.625 Z M 259.03125 360.363281 L 231.804688 360.363281 C 228.46875 360.363281 225.328125 359.0625 222.972656 356.699219 C 220.609375 354.335938 219.316406 351.195312 219.316406 347.855469 L 219.339844 326.992188 C 219.339844 326.636719 219.621094 326.355469 219.972656 326.355469 L 267.648438 326.355469 C 267.984375 326.355469 268.265625 326.621094 268.28125 326.960938 L 269.351562 349.53125 C 269.484375 352.386719 268.476562 355.09375 266.507812 357.160156 C 264.539062 359.226562 261.882812 360.363281 259.03125 360.363281 " fill-opacity="1" fill-rule="nonzero"/><path fill="#ffffff" d="M 36.808594 333.539062 L 34.996094 346.265625 L 30.363281 346.28125 L 30.144531 333.765625 L 36.808594 333.539062 " fill-opacity="1" fill-rule="nonzero"/><path fill="#000000" d="M 30.792969 334.382812 L 30.988281 345.644531 L 34.445312 345.632812 L 36.074219 334.199219 Z M 30.363281 346.921875 C 30.015625 346.921875 29.734375 346.640625 29.726562 346.292969 L 29.511719 333.777344 C 29.503906 333.429688 29.777344 333.144531 30.125 333.132812 L 36.785156 332.902344 C 36.972656 332.894531 37.15625 332.972656 37.28125 333.113281 C 37.40625 333.253906 37.464844 333.441406 37.4375 333.628906 L 35.628906 346.355469 C 35.582031 346.667969 35.316406 346.902344 35 346.902344 L 30.367188 346.921875 C 30.367188 346.921875 30.367188 346.921875 30.363281 346.921875 " fill-opacity="1" fill-rule="nonzero"/><path fill="#ffffff" d="M 35.152344 358.433594 C 33.335938 358.628906 30.628906 358.707031 27.011719 358.386719 C 25.714844 358.273438 24.804688 357.074219 25.011719 355.789062 C 25.574219 352.335938 27.140625 346.242188 29.613281 343.445312 L 30.835938 345.1875 L 31.558594 343.390625 C 31.675781 343.195312 34.746094 343.066406 34.8125 343.433594 L 34.996094 345.1875 L 36.742188 343.234375 L 36.644531 349.65625 C 36.636719 350.363281 36.703125 351.074219 36.84375 351.765625 L 37.304688 353.984375 C 37.578125 355.320312 37.238281 356.738281 36.304688 357.730469 C 35.941406 358.121094 35.535156 358.390625 35.152344 358.433594 " fill-opacity="1" fill-rule="nonzero"/><path fill="#000000" d="M 29.582031 344.507812 C 27.460938 347.464844 26.121094 352.941406 25.640625 355.890625 C 25.566406 356.34375 25.679688 356.789062 25.960938 357.148438 C 26.230469 357.5 26.625 357.714844 27.066406 357.753906 C 30.910156 358.089844 33.550781 357.964844 35.085938 357.800781 C 35.28125 357.78125 35.566406 357.589844 35.839844 357.296875 C 36.609375 356.476562 36.921875 355.289062 36.679688 354.117188 L 36.222656 351.894531 C 36.070312 351.15625 36 350.398438 36.011719 349.644531 L 36.082031 344.929688 L 35.472656 345.613281 C 35.304688 345.800781 35.042969 345.871094 34.804688 345.792969 C 34.5625 345.714844 34.390625 345.503906 34.363281 345.257812 L 34.21875 343.871094 C 33.679688 343.804688 32.550781 343.832031 32.035156 343.90625 L 31.425781 345.425781 C 31.335938 345.640625 31.136719 345.792969 30.90625 345.820312 C 30.675781 345.847656 30.449219 345.746094 30.3125 345.554688 Z M 35.152344 358.433594 L 35.15625 358.433594 Z M 31.636719 359.238281 C 30.328125 359.238281 28.769531 359.179688 26.953125 359.019531 C 26.15625 358.949219 25.449219 358.5625 24.957031 357.929688 C 24.464844 357.296875 24.257812 356.480469 24.386719 355.6875 C 24.535156 354.773438 25.929688 346.65625 29.136719 343.023438 C 29.265625 342.878906 29.453125 342.804688 29.648438 342.8125 C 29.84375 342.824219 30.023438 342.921875 30.132812 343.082031 L 30.683594 343.863281 L 30.96875 343.152344 C 30.980469 343.121094 30.996094 343.089844 31.015625 343.058594 C 31.460938 342.316406 34.558594 342.640625 34.585938 342.644531 C 35.089844 342.738281 35.375 342.964844 35.4375 343.320312 C 35.441406 343.335938 35.441406 343.347656 35.445312 343.363281 L 35.476562 343.695312 L 36.265625 342.808594 C 36.445312 342.609375 36.722656 342.542969 36.972656 342.640625 C 37.21875 342.738281 37.378906 342.976562 37.375 343.242188 L 37.28125 349.664062 C 37.269531 350.324219 37.335938 350.988281 37.46875 351.636719 L 37.925781 353.855469 C 38.25 355.433594 37.820312 357.046875 36.769531 358.167969 C 36.269531 358.699219 35.734375 359.011719 35.222656 359.066406 C 34.363281 359.160156 33.171875 359.238281 31.636719 359.238281 " fill-opacity="1" fill-rule="nonzero"/><path fill="#000000" d="M 31.839844 356.96875 C 30.554688 356.96875 28.960938 356.867188 27.160156 356.550781 C 26.816406 356.492188 26.582031 356.160156 26.644531 355.816406 C 26.707031 355.46875 27.035156 355.238281 27.378906 355.296875 C 31.792969 356.078125 34.953125 355.460938 34.984375 355.453125 C 35.328125 355.386719 35.664062 355.609375 35.730469 355.953125 C 35.800781 356.296875 35.578125 356.632812 35.234375 356.699219 C 35.152344 356.71875 33.886719 356.96875 31.839844 356.96875 " fill-opacity="1" fill-rule="nonzero"/><path fill="#000000" d="M 33.324219 352.089844 L 29.117188 352.089844 C 28.769531 352.089844 28.484375 351.804688 28.484375 351.453125 C 28.484375 351.101562 28.769531 350.816406 29.117188 350.816406 L 33.324219 350.816406 C 33.671875 350.816406 33.957031 351.101562 33.957031 351.453125 C 33.957031 351.804688 33.671875 352.089844 33.324219 352.089844 " fill-opacity="1" fill-rule="nonzero"/><path fill="#ffffff" d="M 70.066406 334.675781 L 71.695312 349.507812 L 77.929688 350.816406 L 77.550781 333.421875 L 70.066406 334.675781 " fill-opacity="1" fill-rule="nonzero"/><path fill="#000000" d="M 72.277344 348.980469 L 77.277344 350.03125 L 76.929688 334.171875 L 70.765625 335.203125 Z M 77.929688 351.453125 C 77.886719 351.453125 77.84375 351.445312 77.800781 351.4375 L 71.566406 350.132812 C 71.296875 350.074219 71.09375 349.851562 71.0625 349.578125 L 69.433594 334.742188 C 69.398438 334.40625 69.628906 334.101562 69.960938 334.046875 L 77.445312 332.796875 C 77.628906 332.765625 77.8125 332.8125 77.957031 332.929688 C 78.097656 333.050781 78.179688 333.222656 78.183594 333.40625 L 78.566406 350.800781 C 78.570312 350.996094 78.484375 351.183594 78.335938 351.304688 C 78.21875 351.402344 78.078125 351.453125 77.929688 351.453125 " fill-opacity="1" fill-rule="nonzero"/><path fill="#ffffff" d="M 69.0625 356.582031 C 68.921875 353.984375 68.917969 349.195312 70.5 346.886719 L 75.488281 348.664062 L 75.488281 347.601562 C 75.488281 347.257812 75.734375 346.972656 76.046875 346.953125 L 78.824219 346.796875 C 79.863281 346.734375 80.898438 346.953125 81.84375 347.417969 C 84.640625 348.792969 93.144531 352.320312 94.324219 356.289062 C 94.671875 357.460938 93.757812 358.632812 92.539062 358.667969 C 89.742188 358.746094 83.011719 358.832031 70.933594 358.421875 C 69.925781 358.386719 69.113281 357.589844 69.0625 356.582031 " fill-opacity="1" fill-rule="nonzero"/><path fill="#000000" d="M 70.777344 347.660156 C 69.878906 349.367188 69.484375 352.558594 69.695312 356.546875 C 69.730469 357.230469 70.273438 357.761719 70.953125 357.785156 C 82.886719 358.195312 89.589844 358.113281 92.523438 358.03125 C 92.921875 358.019531 93.300781 357.816406 93.535156 357.492188 C 93.757812 357.1875 93.820312 356.824219 93.714844 356.472656 C 92.757812 353.253906 86.035156 350.09375 82.804688 348.578125 C 82.324219 348.351562 81.902344 348.15625 81.566406 347.988281 C 80.714844 347.570312 79.78125 347.382812 78.863281 347.429688 L 76.128906 347.589844 L 76.125 348.664062 C 76.125 348.875 76.023438 349.066406 75.855469 349.1875 C 75.683594 349.304688 75.46875 349.335938 75.273438 349.265625 Z M 86.960938 359.371094 C 83.246094 359.371094 77.996094 359.296875 70.910156 359.054688 C 69.566406 359.011719 68.496094 357.960938 68.425781 356.617188 C 68.28125 353.902344 68.292969 348.984375 69.976562 346.527344 C 70.140625 346.289062 70.441406 346.191406 70.714844 346.289062 L 74.851562 347.761719 L 74.851562 347.601562 C 74.851562 346.917969 75.359375 346.359375 76.007812 346.320312 L 78.789062 346.160156 C 79.929688 346.09375 81.082031 346.332031 82.125 346.84375 C 82.457031 347.007812 82.871094 347.203125 83.34375 347.425781 C 87.003906 349.144531 93.816406 352.34375 94.933594 356.109375 C 95.152344 356.835938 95.015625 357.613281 94.5625 358.238281 C 94.097656 358.882812 93.347656 359.277344 92.558594 359.300781 C 91.355469 359.335938 89.523438 359.371094 86.960938 359.371094 " fill-opacity="1" fill-rule="nonzero"/><path fill="#000000" d="M 85.03125 356.90625 C 81.484375 356.90625 76.695312 356.75 71.464844 356.140625 C 71.113281 356.101562 70.863281 355.785156 70.90625 355.4375 C 70.945312 355.085938 71.261719 354.835938 71.609375 354.878906 C 82.203125 356.109375 90.960938 355.46875 91.050781 355.460938 C 91.398438 355.433594 91.703125 355.699219 91.730469 356.046875 C 91.757812 356.398438 91.496094 356.703125 91.144531 356.730469 C 91.097656 356.734375 88.75 356.90625 85.03125 356.90625 " fill-opacity="1" fill-rule="nonzero"/><path fill="#000000" d="M 83.484375 352.660156 C 83.355469 352.660156 83.226562 352.621094 83.113281 352.539062 L 78.3125 349.085938 C 78.027344 348.878906 77.964844 348.480469 78.167969 348.195312 C 78.375 347.910156 78.769531 347.847656 79.054688 348.050781 L 83.855469 351.503906 C 84.140625 351.710938 84.207031 352.109375 84 352.394531 C 83.878906 352.566406 83.679688 352.660156 83.484375 352.660156 " fill-opacity="1" fill-rule="nonzero"/><path fill="#000000" d="M 70.925781 232.203125 C 70.925781 232.203125 80.945312 299.785156 79.042969 340.734375 L 76.253906 341.015625 C 74.753906 341.164062 73.246094 341.203125 71.742188 341.125 L 69.097656 340.992188 C 57.21875 271.644531 54.207031 268.367188 51.894531 260.726562 C 51.894531 260.726562 38.65625 323.777344 38.097656 338.761719 C 38.097656 338.761719 31.664062 339.410156 29.101562 338.488281 C 27.726562 324.019531 27.328125 309.050781 27.257812 299.652344 C 27.0625 272.75 29.628906 260.53125 31.039062 254.734375 C 32.328125 249.414062 33.71875 245.085938 34.730469 242.160156 L 38.113281 232.5 L 70.925781 232.203125 " fill-opacity="1" fill-rule="nonzero"/><path fill="#d2ccf6" d="M 51.910156 263.519531 C 51.871094 263.519531 51.828125 263.515625 51.789062 263.507812 C 51.445312 263.441406 51.21875 263.109375 51.285156 262.761719 L 52.757812 255.191406 C 52.761719 255.175781 52.765625 255.160156 52.769531 255.144531 C 53.234375 253.449219 54.59375 252.171875 56.316406 251.820312 L 57.707031 251.53125 C 58.046875 251.457031 58.386719 251.679688 58.457031 252.023438 C 58.527344 252.367188 58.304688 252.707031 57.960938 252.777344 L 56.570312 253.0625 C 55.328125 253.320312 54.347656 254.238281 54.003906 255.457031 L 52.535156 263.003906 C 52.476562 263.308594 52.207031 263.519531 51.910156 263.519531 " fill-opacity="1" fill-rule="nonzero"/><path fill="#d2ccf6" d="M 34.253906 251.277344 C 33.949219 251.277344 33.679688 251.054688 33.628906 250.746094 C 33.570312 250.398438 33.804688 250.070312 34.148438 250.011719 C 40.15625 249.011719 42.359375 245.117188 43.027344 243.492188 C 43.160156 243.167969 43.53125 243.015625 43.855469 243.148438 C 44.179688 243.277344 44.335938 243.652344 44.203125 243.976562 C 43.453125 245.800781 40.992188 250.160156 34.359375 251.265625 C 34.324219 251.273438 34.289062 251.277344 34.253906 251.277344 " fill-opacity="1" fill-rule="nonzero"/><path fill="#d2ccf6" d="M 70.828125 247.246094 C 70.742188 247.246094 70.65625 247.226562 70.574219 247.191406 C 65.648438 245.050781 65.074219 240.675781 65.050781 240.492188 C 65.011719 240.140625 65.261719 239.824219 65.609375 239.785156 C 65.957031 239.742188 66.273438 239.988281 66.3125 240.339844 C 66.335938 240.496094 66.84375 244.183594 71.082031 246.023438 C 71.402344 246.164062 71.550781 246.539062 71.410156 246.863281 C 71.304688 247.101562 71.074219 247.246094 70.828125 247.246094 " fill-opacity="1" fill-rule="nonzero"/><path fill="#745ff6" d="M 27.964844 184.269531 C 29.703125 182.296875 33.234375 180.199219 35.796875 179.605469 C 40.664062 178.480469 46.902344 177.832031 52.460938 177.453125 L 55.617188 177.117188 C 57.230469 177 58.757812 176.988281 60.203125 177.0625 C 61.199219 177.027344 62.109375 177.003906 62.894531 176.984375 C 65.347656 176.929688 69.296875 177.722656 71.390625 179.003906 C 73.4375 180.253906 75.34375 181.785156 77.113281 183.492188 C 83.964844 189.007812 87.425781 196.109375 91.699219 196.53125 C 93.441406 196.703125 96.929688 186.160156 98.269531 181.886719 C 99.140625 179.105469 102.398438 177.867188 104.875 179.394531 C 104.996094 179.472656 105.109375 179.546875 105.214844 179.621094 C 108.386719 181.886719 107.410156 186.984375 107.410156 186.984375 C 107.410156 186.984375 105.683594 215.40625 97.746094 216.550781 C 88.878906 217.828125 75.433594 207.027344 72.65625 206.289062 L 74.730469 218.476562 L 78.191406 235.535156 C 78.699219 238.84375 74.429688 239.894531 72.027344 239.871094 C 71.953125 239.871094 71.1875 233.898438 71.117188 233.882812 C 63.425781 232.300781 53.511719 236.875 45.753906 240.988281 C 35.808594 246.257812 26.800781 242.71875 26.097656 240.011719 C 25.398438 237.300781 27.265625 220.8125 27.265625 220.8125 L 16.828125 219.949219 C 14.863281 219.785156 13.347656 218.140625 13.347656 216.167969 C 13.375 202.644531 22.835938 190.085938 27.964844 184.269531 " fill-opacity="1" fill-rule="nonzero"/><path fill="#ffffff" d="M 37.425781 198.496094 C 36.523438 199.714844 35.457031 200.800781 34.25 201.722656 C 30.1875 204.835938 20.492188 212.351562 18.175781 214.953125 C 15.230469 218.261719 13.78125 219.539062 17.460938 226.515625 C 23.460938 237.882812 39.652344 204.386719 39.652344 204.386719 C 39.652344 204.386719 45.785156 204.652344 46.414062 199.21875 C 46.414062 199.21875 49.613281 199.378906 50.835938 198.640625 C 51.773438 198.070312 51.5 196.382812 50.144531 196.375 L 41.316406 195.945312 C 40.101562 195.894531 38.941406 196.453125 38.21875 197.429688 L 37.425781 198.496094 " fill-opacity="1" fill-rule="nonzero"/><path fill="#000000" d="M 37.9375 198.875 C 37 200.140625 35.886719 201.269531 34.636719 202.226562 C 30.589844 205.328125 20.929688 212.816406 18.652344 215.375 L 18.390625 215.664062 C 15.675781 218.707031 14.65625 219.84375 18.023438 226.21875 C 18.738281 227.574219 19.59375 228.230469 20.636719 228.230469 C 20.648438 228.230469 20.664062 228.230469 20.679688 228.230469 C 26.257812 228.132812 35.851562 210.785156 39.082031 204.109375 C 39.191406 203.882812 39.429688 203.738281 39.679688 203.75 C 39.90625 203.761719 45.230469 203.917969 45.78125 199.144531 C 45.820312 198.8125 46.105469 198.566406 46.445312 198.585938 C 47.609375 198.640625 49.738281 198.558594 50.507812 198.09375 C 50.746094 197.949219 50.789062 197.648438 50.726562 197.425781 C 50.675781 197.242188 50.53125 197.015625 50.140625 197.015625 L 41.285156 196.582031 C 40.28125 196.542969 39.328125 197 38.726562 197.808594 Z M 20.632812 229.503906 C 19.097656 229.503906 17.839844 228.597656 16.898438 226.8125 C 13.265625 219.929688 14.367188 218.261719 17.441406 214.820312 L 17.703125 214.527344 C 20.054688 211.886719 29.789062 204.339844 33.863281 201.21875 C 35.023438 200.332031 36.046875 199.289062 36.917969 198.117188 L 37.707031 197.046875 C 38.558594 195.898438 39.914062 195.246094 41.34375 195.3125 L 50.175781 195.742188 C 51.019531 195.746094 51.726562 196.273438 51.953125 197.085938 C 52.179688 197.902344 51.855469 198.765625 51.164062 199.183594 C 50.109375 199.820312 47.996094 199.882812 46.957031 199.871094 C 46.167969 203.886719 42.351562 204.992188 40.046875 205.027344 C 38.480469 208.207031 27.785156 229.378906 20.703125 229.503906 C 20.679688 229.503906 20.65625 229.503906 20.632812 229.503906 " fill-opacity="1" fill-rule="nonzero"/><path fill="#5236ff" d="M 72.027344 239.871094 C 79.492188 239.378906 80.75 235.542969 71.117188 233.882812 L 72.027344 239.871094 " fill-opacity="1" fill-rule="nonzero"/><path fill="#745ff6" d="M 97.136719 161.765625 L 102.65625 188.339844 C 103.058594 190.285156 104.363281 191.640625 105.5625 191.363281 L 107.542969 190.90625 C 108.742188 190.628906 109.390625 188.824219 108.984375 186.882812 L 103.464844 160.304688 L 97.136719 161.765625 " fill-opacity="1" fill-rule="nonzero"/><path fill="#000000" d="M 97.882812 162.242188 L 103.277344 188.210938 C 103.496094 189.257812 104.019531 190.160156 104.652344 190.5625 C 104.921875 190.738281 105.183594 190.796875 105.421875 190.742188 L 107.398438 190.285156 C 108.140625 190.113281 108.71875 188.726562 108.363281 187.011719 L 102.972656 161.070312 Z M 105.246094 192.035156 C 104.8125 192.035156 104.378906 191.898438 103.964844 191.632812 C 103.042969 191.042969 102.324219 189.859375 102.035156 188.46875 L 96.511719 161.894531 C 96.441406 161.554688 96.65625 161.222656 96.992188 161.144531 L 103.320312 159.6875 C 103.488281 159.648438 103.664062 159.675781 103.808594 159.769531 C 103.953125 159.859375 104.050781 160.007812 104.085938 160.175781 L 109.609375 186.75 C 110.089844 189.066406 109.246094 191.167969 107.683594 191.527344 L 105.707031 191.980469 C 105.554688 192.019531 105.398438 192.035156 105.246094 192.035156 " fill-opacity="1" fill-rule="nonzero"/><path fill="#ffffff" d="M 98.925781 188.457031 C 97.941406 188.046875 97.4375 186.945312 97.769531 185.933594 C 98.765625 182.886719 99.464844 180.011719 98.324219 178.355469 C 97.332031 176.917969 96.398438 175.492188 96.632812 173.796875 L 96.964844 171.25 C 97.023438 170.855469 96.902344 169.390625 97.996094 169.652344 C 98.828125 169.847656 99.175781 170.574219 99.652344 173.773438 C 99.894531 175.378906 100.527344 176.121094 101.609375 176.785156 C 101.566406 176.550781 101.546875 176.273438 101.5625 175.972656 C 101.625 174.597656 102.371094 173.339844 103.515625 172.578125 C 104.941406 171.625 107.339844 170.355469 108.757812 171.949219 C 109.742188 173.058594 110.125 175.558594 108.398438 177.996094 C 107.992188 178.566406 105.730469 181.042969 105.730469 181.042969 C 105.292969 181.628906 104.347656 187.582031 104.347656 187.582031 C 103.777344 190.707031 101.410156 189.484375 98.925781 188.457031 " fill-opacity="1" fill-rule="nonzero"/><path fill="#000000" d="M 97.753906 170.257812 C 97.742188 170.257812 97.738281 170.257812 97.738281 170.257812 C 97.65625 170.355469 97.628906 170.871094 97.617188 171.039062 C 97.609375 171.164062 97.605469 171.269531 97.59375 171.34375 L 97.265625 173.882812 C 97.070312 175.285156 97.796875 176.472656 98.847656 177.992188 C 100.214844 179.976562 99.320312 183.234375 98.375 186.128906 C 98.148438 186.824219 98.496094 187.589844 99.167969 187.867188 L 99.648438 188.066406 C 100.96875 188.621094 102.335938 189.199219 103.019531 188.824219 C 103.355469 188.644531 103.589844 188.1875 103.722656 187.46875 C 104.082031 185.199219 104.761719 181.277344 105.222656 180.660156 C 105.234375 180.644531 105.246094 180.628906 105.261719 180.613281 C 105.882812 179.929688 107.566406 178.070312 107.878906 177.628906 C 109.519531 175.316406 108.996094 173.175781 108.28125 172.371094 C 107.464844 171.453125 105.980469 171.699219 103.871094 173.105469 C 102.875 173.773438 102.246094 174.851562 102.195312 176 C 102.183594 176.242188 102.199219 176.476562 102.234375 176.671875 C 102.277344 176.917969 102.171875 177.167969 101.964844 177.308594 C 101.757812 177.449219 101.488281 177.457031 101.273438 177.324219 C 100.128906 176.621094 99.308594 175.765625 99.027344 173.867188 C 98.546875 170.679688 98.222656 170.359375 97.851562 170.269531 C 97.800781 170.257812 97.773438 170.257812 97.753906 170.257812 Z M 102.476562 190.21875 C 101.480469 190.21875 100.339844 189.738281 99.15625 189.242188 L 98.683594 189.042969 C 97.402344 188.511719 96.734375 187.058594 97.167969 185.734375 C 98.078125 182.9375 98.789062 180.148438 97.800781 178.714844 C 96.878906 177.375 95.730469 175.707031 96.003906 173.710938 L 96.332031 171.167969 C 96.34375 171.113281 96.34375 171.046875 96.347656 170.96875 C 96.375 170.480469 96.417969 169.660156 97 169.226562 C 97.214844 169.066406 97.589844 168.902344 98.144531 169.03125 C 99.421875 169.335938 99.800781 170.457031 100.28125 173.675781 C 100.40625 174.496094 100.632812 175.03125 100.972656 175.449219 C 101.179688 174.085938 101.976562 172.839844 103.164062 172.046875 C 106.554688 169.789062 108.332031 170.515625 109.230469 171.527344 C 110.457031 172.902344 110.761719 175.765625 108.914062 178.363281 C 108.515625 178.925781 106.589844 181.046875 106.234375 181.433594 C 106 181.890625 105.40625 184.964844 104.976562 187.6875 C 104.765625 188.832031 104.324219 189.566406 103.625 189.945312 C 103.269531 190.136719 102.886719 190.21875 102.476562 190.21875 " fill-opacity="1" fill-rule="nonzero"/><path fill="#745ff6" d="M 103.953125 162.65625 L 108.984375 186.882812 C 109.390625 188.824219 108.742188 190.628906 107.542969 190.90625 L 105.5625 191.363281 C 104.363281 191.640625 103.058594 190.285156 102.65625 188.339844 L 97.476562 163.441406 L 103.953125 162.65625 " fill-opacity="1" fill-rule="nonzero"/><path fill="#000000" d="M 98.238281 163.988281 L 103.277344 188.210938 C 103.496094 189.257812 104.019531 190.160156 104.652344 190.5625 C 104.921875 190.738281 105.183594 190.796875 105.421875 190.742188 L 107.398438 190.285156 C 108.140625 190.113281 108.71875 188.726562 108.363281 187.011719 L 103.449219 163.359375 Z M 105.246094 192.035156 C 104.8125 192.035156 104.378906 191.898438 103.964844 191.632812 C 103.042969 191.042969 102.324219 189.859375 102.035156 188.46875 L 96.855469 163.570312 C 96.816406 163.394531 96.855469 163.214844 96.960938 163.070312 C 97.0625 162.921875 97.222656 162.828125 97.398438 162.808594 L 103.878906 162.023438 C 104.203125 161.988281 104.507812 162.203125 104.578125 162.527344 L 109.609375 186.75 C 110.089844 189.066406 109.246094 191.167969 107.683594 191.527344 L 105.707031 191.980469 C 105.554688 192.019531 105.398438 192.035156 105.246094 192.035156 " fill-opacity="1" fill-rule="nonzero"/><path fill="#ffffff" d="M 103.789062 178.492188 C 104.773438 178.59375 106.332031 178.371094 108.007812 177.234375 C 109.765625 176.039062 109.742188 173.058594 108.757812 171.949219 C 107.34375 170.363281 104.964844 171.613281 103.539062 172.5625 C 102.382812 173.332031 101.289062 174.855469 101.3125 175.921875 C 101.355469 177.546875 101.9375 178.304688 103.789062 178.492188 " fill-opacity="1" fill-rule="nonzero"/><path fill="#000000" d="M 107.03125 171.824219 C 106.050781 171.824219 104.847656 172.457031 103.890625 173.09375 C 102.855469 173.78125 101.929688 175.121094 101.949219 175.90625 C 101.980469 177.152344 102.25 177.695312 103.851562 177.859375 C 104.167969 177.890625 105.316406 177.9375 106.808594 177.191406 C 107.121094 177.035156 107.503906 177.164062 107.660156 177.476562 C 107.71875 177.589844 107.738281 177.710938 107.726562 177.828125 C 107.84375 177.675781 107.878906 177.628906 107.878906 177.628906 C 109.515625 175.308594 108.992188 173.171875 108.28125 172.371094 C 108.21875 172.300781 108.058594 172.160156 108.054688 172.15625 C 107.769531 171.921875 107.417969 171.824219 107.03125 171.824219 Z M 107.410156 179.847656 C 107.265625 179.847656 107.121094 179.800781 107.003906 179.699219 C 106.734375 179.472656 106.699219 179.074219 106.925781 178.800781 C 107.058594 178.640625 107.175781 178.5 107.277344 178.378906 C 106.074219 178.960938 104.785156 179.230469 103.722656 179.125 C 101.640625 178.914062 100.730469 177.960938 100.679688 175.9375 C 100.644531 174.558594 101.925781 172.871094 103.1875 172.035156 C 105.648438 170.398438 107.5625 170.117188 108.882812 171.191406 C 108.90625 171.210938 109.140625 171.421875 109.230469 171.527344 C 110.449219 172.894531 110.753906 175.757812 108.917969 178.363281 C 108.878906 178.417969 108.6875 178.675781 107.898438 179.617188 C 107.773438 179.769531 107.59375 179.847656 107.410156 179.847656 " fill-opacity="1" fill-rule="nonzero"/><path fill="#5236ff" d="M 106.753906 135.039062 L 83.277344 143.667969 L 73.449219 149.511719 L 68.992188 154 L 68.960938 154.039062 C 68.121094 154.796875 67.875 157.011719 68.398438 159.472656 C 68.917969 161.90625 70.050781 163.808594 71.121094 164.195312 L 71.082031 164.199219 L 76.683594 166.410156 L 87.949219 167.648438 L 113.117188 165.742188 L 140.253906 178.457031 L 140.453125 178.519531 C 133.636719 175.234375 126.609375 163.007812 123.3125 147.53125 C 120.019531 132.074219 121.457031 118.085938 126.339844 112.335938 L 126.332031 112.332031 L 107 134.753906 L 106.753906 135.039062 " fill-opacity="1" fill-rule="nonzero"/><path fill="#000000" d="M 113.117188 165.105469 C 113.207031 165.105469 113.300781 165.125 113.386719 165.167969 L 135.460938 175.507812 C 130.054688 169.898438 125.234375 159.597656 122.691406 147.664062 C 120.164062 135.804688 120.359375 124.511719 122.96875 117.203125 L 107.480469 135.167969 C 107.4375 135.21875 107.390625 135.261719 107.335938 135.292969 C 107.269531 135.449219 107.140625 135.574219 106.972656 135.636719 L 83.550781 144.246094 L 73.84375 150.015625 L 69.4375 154.457031 C 69.421875 154.476562 69.40625 154.492188 69.386719 154.511719 C 68.820312 155.019531 68.496094 156.886719 69.019531 159.339844 C 69.53125 161.746094 70.59375 163.328125 71.335938 163.59375 C 71.394531 163.617188 71.445312 163.644531 71.496094 163.679688 L 76.835938 165.785156 L 87.960938 167.011719 L 113.066406 165.109375 C 113.082031 165.105469 113.097656 165.105469 113.117188 165.105469 Z M 140.453125 179.15625 C 140.390625 179.15625 140.328125 179.144531 140.265625 179.128906 L 140.066406 179.066406 C 140.039062 179.054688 140.011719 179.046875 139.984375 179.03125 L 112.996094 166.390625 L 88 168.285156 C 87.960938 168.289062 87.921875 168.289062 87.878906 168.28125 L 76.613281 167.039062 C 76.558594 167.035156 76.503906 167.019531 76.449219 167 L 70.847656 164.792969 C 70.789062 164.769531 70.734375 164.738281 70.683594 164.699219 C 69.457031 164.085938 68.304688 162.089844 67.777344 159.605469 C 67.199219 156.898438 67.488281 154.546875 68.507812 153.589844 L 68.515625 153.582031 L 73 149.0625 C 73.039062 149.023438 73.078125 148.992188 73.125 148.964844 L 82.949219 143.121094 C 82.984375 143.101562 83.019531 143.085938 83.054688 143.070312 L 106.425781 134.484375 C 106.449219 134.429688 106.480469 134.382812 106.519531 134.335938 L 125.851562 111.914062 C 125.960938 111.785156 126.121094 111.707031 126.289062 111.695312 C 126.457031 111.683594 126.625 111.738281 126.753906 111.851562 C 127.011719 112.082031 127.046875 112.484375 126.820312 112.746094 C 121.914062 118.53125 120.753906 132.457031 123.933594 147.398438 C 127.121094 162.363281 133.871094 174.640625 140.726562 177.945312 C 141.027344 178.089844 141.164062 178.441406 141.046875 178.75 C 140.945312 179 140.710938 179.15625 140.453125 179.15625 " fill-opacity="1" fill-rule="nonzero"/><path fill="#d2ccf6" d="M 152.332031 141.445312 C 156.410156 160.582031 153.207031 177.460938 145.183594 179.140625 C 137.160156 180.824219 127.355469 166.671875 123.277344 147.53125 C 119.203125 128.398438 122.402344 111.519531 130.425781 109.839844 C 138.449219 108.160156 148.257812 122.308594 152.332031 141.445312 " fill-opacity="1" fill-rule="nonzero"/><path fill="#000000" d="M 131.78125 110.335938 C 131.367188 110.335938 130.960938 110.378906 130.554688 110.460938 C 128.78125 110.835938 127.21875 112.039062 125.917969 114.042969 C 121.742188 120.460938 120.949219 133.554688 123.898438 147.398438 C 127.6875 165.175781 136.402344 178.644531 143.828125 178.644531 C 144.242188 178.644531 144.652344 178.601562 145.054688 178.515625 C 146.828125 178.144531 148.390625 176.941406 149.695312 174.9375 C 153.871094 168.519531 154.660156 155.425781 151.710938 141.582031 C 147.925781 123.804688 139.207031 110.335938 131.78125 110.335938 Z M 143.863281 179.914062 C 140.101562 179.914062 136.027344 176.988281 132.230469 171.507812 C 128.042969 165.46875 124.644531 157 122.65625 147.664062 C 119.640625 133.503906 120.503906 120.035156 124.851562 113.351562 C 126.347656 111.050781 128.179688 109.660156 130.296875 109.21875 C 134.441406 108.347656 139.089844 111.28125 143.378906 117.472656 C 147.566406 123.511719 150.964844 131.976562 152.953125 141.316406 C 155.96875 155.476562 155.109375 168.945312 150.757812 175.632812 C 149.261719 177.929688 147.429688 179.320312 145.316406 179.765625 C 144.835938 179.863281 144.351562 179.914062 143.863281 179.914062 " fill-opacity="1" fill-rule="nonzero"/><path fill="#000000" d="M 142.9375 174.183594 C 136.085938 174.183594 128.457031 162.785156 125.128906 147.152344 C 122.601562 135.292969 123.328125 124.007812 126.976562 118.398438 C 128.238281 116.457031 129.789062 115.277344 131.585938 114.902344 C 136.355469 113.90625 141.769531 118.765625 146.058594 127.902344 C 146.207031 128.21875 146.074219 128.597656 145.757812 128.746094 C 145.4375 128.898438 145.058594 128.761719 144.910156 128.445312 C 140.945312 120.003906 135.941406 115.292969 131.847656 116.148438 C 130.394531 116.453125 129.113281 117.441406 128.039062 119.09375 C 124.566406 124.429688 123.914062 135.339844 126.371094 146.886719 C 129.640625 162.242188 137.679688 174.109375 143.917969 172.808594 C 149.652344 171.609375 152.304688 160.015625 150.089844 145.847656 C 150.035156 145.5 150.273438 145.175781 150.621094 145.121094 C 150.96875 145.070312 151.292969 145.304688 151.347656 145.652344 C 153.707031 160.746094 150.691406 172.6875 144.175781 174.054688 C 143.769531 174.140625 143.355469 174.183594 142.9375 174.183594 " fill-opacity="1" fill-rule="nonzero"/><path fill="#5236ff" d="M 136.929688 144.699219 C 137.820312 148.886719 137.121094 152.582031 135.367188 152.949219 C 133.609375 153.316406 131.464844 150.21875 130.574219 146.03125 C 129.679688 141.839844 130.378906 138.148438 132.136719 137.78125 C 133.890625 137.410156 136.039062 140.507812 136.929688 144.699219 " fill-opacity="1" fill-rule="nonzero"/><path fill="#000000" d="M 132.425781 138.386719 C 132.371094 138.386719 132.316406 138.390625 132.265625 138.402344 C 132.011719 138.453125 131.777344 138.644531 131.566406 138.972656 C 130.871094 140.035156 130.488281 142.589844 131.195312 145.898438 C 132.042969 149.882812 134.027344 152.574219 135.234375 152.328125 C 135.488281 152.273438 135.726562 152.082031 135.9375 151.757812 C 136.628906 150.695312 137.011719 148.140625 136.308594 144.832031 C 135.496094 141.019531 133.644531 138.386719 132.425781 138.386719 Z M 135.082031 153.613281 C 133.035156 153.613281 130.882812 150.542969 129.949219 146.160156 C 129.253906 142.890625 129.464844 139.867188 130.5 138.273438 C 130.894531 137.667969 131.417969 137.277344 132.003906 137.15625 C 134.171875 136.695312 136.554688 139.890625 137.550781 144.566406 C 138.246094 147.839844 138.039062 150.859375 137 152.453125 C 136.605469 153.0625 136.085938 153.449219 135.496094 153.570312 C 135.359375 153.601562 135.21875 153.613281 135.082031 153.613281 " fill-opacity="1" fill-rule="nonzero"/><path fill="#000000" d="M 113.117188 165.105469 C 113.207031 165.105469 113.300781 165.125 113.386719 165.167969 L 135.460938 175.507812 C 130.054688 169.898438 125.234375 159.597656 122.691406 147.664062 C 120.164062 135.804688 120.359375 124.511719 122.96875 117.203125 L 107.234375 135.457031 C 107.164062 135.539062 107.074219 135.601562 106.972656 135.636719 L 83.550781 144.246094 L 73.84375 150.015625 L 69.4375 154.457031 C 69.421875 154.476562 69.40625 154.492188 69.386719 154.511719 C 68.820312 155.019531 68.496094 156.886719 69.019531 159.339844 C 69.53125 161.746094 70.59375 163.328125 71.335938 163.59375 C 71.394531 163.617188 71.445312 163.644531 71.496094 163.679688 L 76.835938 165.785156 L 87.960938 167.011719 L 113.066406 165.109375 C 113.082031 165.105469 113.097656 165.105469 113.117188 165.105469 Z M 140.453125 179.15625 C 140.390625 179.15625 140.328125 179.144531 140.265625 179.128906 L 140.066406 179.066406 C 140.039062 179.054688 140.011719 179.046875 139.984375 179.03125 L 112.996094 166.390625 L 88 168.285156 C 87.960938 168.289062 87.921875 168.289062 87.878906 168.28125 L 76.613281 167.039062 C 76.558594 167.035156 76.503906 167.019531 76.449219 167 L 70.847656 164.792969 C 70.789062 164.769531 70.734375 164.738281 70.683594 164.699219 C 69.457031 164.085938 68.304688 162.089844 67.777344 159.605469 C 67.199219 156.898438 67.488281 154.546875 68.507812 153.589844 L 68.515625 153.582031 L 73 149.0625 C 73.039062 149.023438 73.078125 148.992188 73.125 148.964844 L 82.949219 143.121094 C 82.984375 143.101562 83.019531 143.085938 83.054688 143.070312 L 106.378906 134.5 L 125.851562 111.914062 C 125.960938 111.785156 126.121094 111.707031 126.289062 111.695312 C 126.457031 111.683594 126.625 111.738281 126.753906 111.851562 C 127.011719 112.082031 127.046875 112.484375 126.820312 112.746094 C 121.914062 118.53125 120.753906 132.457031 123.933594 147.398438 C 127.121094 162.363281 133.871094 174.640625 140.726562 177.945312 C 141.027344 178.089844 141.164062 178.441406 141.046875 178.75 C 140.945312 179 140.710938 179.15625 140.453125 179.15625 " fill-opacity="1" fill-rule="nonzero"/><path fill="#745ff6" d="M 106.8125 134.972656 L 126.332031 112.332031 L 126.339844 112.335938 C 121.457031 118.085938 120.019531 132.074219 123.3125 147.53125 C 126.609375 163.007812 133.636719 175.234375 140.453125 178.519531 L 140.253906 178.457031 L 113.160156 165.765625 L 112.53125 165.472656 C 109.386719 163.980469 106.152344 158.460938 104.679688 151.457031 C 103.164062 144.269531 104.316406 137.835938 106.566406 135.246094 L 106.8125 134.972656 " fill-opacity="1" fill-rule="nonzero"/><path fill="#000000" d="M 106.8125 134.972656 L 106.816406 134.972656 Z M 122.96875 117.203125 L 107.292969 135.386719 C 107.289062 135.390625 107.289062 135.394531 107.285156 135.394531 L 107.042969 135.667969 C 105.027344 137.984375 103.78125 144.109375 105.300781 151.328125 C 106.679688 157.875 109.765625 163.457031 112.804688 164.898438 L 113.425781 165.1875 L 135.460938 175.507812 C 130.054688 169.898438 125.234375 159.597656 122.691406 147.664062 C 120.164062 135.804688 120.359375 124.511719 122.96875 117.203125 Z M 140.453125 179.15625 C 140.390625 179.15625 140.328125 179.144531 140.265625 179.128906 L 140.066406 179.066406 C 140.039062 179.054688 140.011719 179.046875 139.984375 179.03125 L 112.265625 166.050781 C 108.832031 164.421875 105.535156 158.609375 104.054688 151.589844 C 102.617188 144.75 103.453125 137.859375 106.089844 134.828125 L 106.332031 134.554688 L 125.851562 111.914062 C 125.960938 111.785156 126.121094 111.707031 126.289062 111.695312 C 126.457031 111.683594 126.625 111.738281 126.753906 111.851562 C 127.011719 112.082031 127.046875 112.484375 126.820312 112.746094 C 121.914062 118.53125 120.753906 132.457031 123.933594 147.398438 C 127.121094 162.363281 133.871094 174.640625 140.726562 177.945312 C 141.027344 178.089844 141.164062 178.441406 141.046875 178.75 C 140.945312 179 140.710938 179.15625 140.453125 179.15625 " fill-opacity="1" fill-rule="nonzero"/><path fill="#000000" d="M 76.378906 166.925781 C 76.304688 166.925781 76.222656 166.914062 76.148438 166.882812 L 70.847656 164.792969 C 70.789062 164.769531 70.734375 164.738281 70.683594 164.699219 C 69.457031 164.085938 68.304688 162.089844 67.777344 159.605469 C 67.199219 156.898438 67.488281 154.546875 68.507812 153.589844 L 68.515625 153.582031 L 73 149.0625 C 73.246094 148.8125 73.648438 148.8125 73.898438 149.058594 C 74.148438 149.308594 74.148438 149.710938 73.902344 149.960938 L 69.4375 154.457031 C 69.421875 154.476562 69.40625 154.492188 69.386719 154.511719 C 68.820312 155.019531 68.496094 156.886719 69.019531 159.339844 C 69.53125 161.746094 70.59375 163.328125 71.335938 163.59375 C 71.394531 163.617188 71.445312 163.644531 71.496094 163.679688 L 76.613281 165.699219 C 76.941406 165.828125 77.101562 166.195312 76.972656 166.523438 C 76.875 166.773438 76.632812 166.925781 76.378906 166.925781 " fill-opacity="1" fill-rule="nonzero"/><path fill="#745ff6" d="M 76.742188 166.390625 C 75 165.777344 73.210938 162.578125 72.363281 158.605469 C 71.46875 154.398438 72.066406 150.460938 73.605469 149.425781 L 68.992188 154 L 68.960938 154.039062 C 68.121094 154.796875 67.875 157.011719 68.398438 159.472656 C 68.917969 161.90625 70.050781 163.808594 71.121094 164.195312 L 71.082031 164.199219 L 76.742188 166.390625 " fill-opacity="1" fill-rule="nonzero"/><path fill="#000000" d="M 71.492188 163.675781 L 74.023438 164.65625 C 73.0625 163.164062 72.246094 161.09375 71.742188 158.738281 C 71.25 156.429688 71.183594 154.203125 71.484375 152.425781 L 69.4375 154.457031 C 69.421875 154.476562 69.40625 154.492188 69.386719 154.511719 C 68.820312 155.019531 68.496094 156.886719 69.019531 159.339844 C 69.53125 161.746094 70.59375 163.328125 71.335938 163.59375 C 71.390625 163.613281 71.445312 163.644531 71.492188 163.675781 Z M 76.742188 167.027344 C 76.671875 167.027344 76.601562 167.015625 76.53125 166.992188 C 76.484375 166.976562 76.4375 166.957031 76.390625 166.9375 L 70.851562 164.792969 C 70.789062 164.769531 70.734375 164.738281 70.683594 164.699219 C 69.457031 164.085938 68.304688 162.089844 67.777344 159.605469 C 67.199219 156.898438 67.488281 154.546875 68.507812 153.589844 L 68.515625 153.582031 C 68.527344 153.570312 68.535156 153.5625 68.546875 153.550781 L 72.574219 149.554688 C 72.777344 149.285156 73.003906 149.066406 73.25 148.898438 C 73.523438 148.714844 73.890625 148.769531 74.097656 149.023438 C 74.304688 149.277344 74.285156 149.648438 74.054688 149.878906 L 73.523438 150.40625 C 72.628906 151.679688 72.203125 154.789062 72.988281 158.472656 C 73.859375 162.574219 75.574219 165.207031 76.859375 165.753906 L 76.96875 165.796875 C 77.292969 165.921875 77.457031 166.285156 77.335938 166.613281 C 77.242188 166.867188 77 167.027344 76.742188 167.027344 " fill-opacity="1" fill-rule="nonzero"/><path fill="#d2ccf6" d="M 87.539062 167.601562 L 88.023438 167.636719 C 85.394531 167.472656 82.503906 162.644531 81.203125 156.539062 C 79.878906 150.316406 80.835938 144.726562 83.277344 143.667969 L 82.945312 143.863281 L 73.632812 149.410156 C 72.074219 150.417969 71.464844 154.375 72.363281 158.605469 C 73.234375 162.691406 75.152344 165.953125 76.9375 166.433594 L 87.539062 167.601562 " fill-opacity="1" fill-rule="nonzero"/><path fill="#000000" d="M 77.058594 165.804688 L 85.105469 166.695312 C 83.210938 164.742188 81.53125 161.128906 80.582031 156.671875 C 79.679688 152.433594 79.804688 148.484375 80.761719 145.90625 L 73.957031 149.953125 C 72.785156 150.710938 72.105469 154.324219 72.988281 158.472656 C 73.890625 162.722656 75.75 165.40625 77.058594 165.804688 Z M 88.023438 168.277344 C 88.007812 168.277344 87.996094 168.273438 87.980469 168.273438 C 87.964844 168.273438 87.953125 168.273438 87.9375 168.269531 L 87.492188 168.238281 C 87.484375 168.238281 87.476562 168.238281 87.46875 168.238281 L 76.867188 167.0625 C 76.835938 167.058594 76.800781 167.054688 76.769531 167.046875 C 74.734375 166.496094 72.667969 163.082031 71.742188 158.738281 C 70.78125 154.222656 71.429688 150.074219 73.289062 148.875 L 82.417969 143.4375 C 82.609375 143.296875 82.8125 143.175781 83.023438 143.085938 C 83.332031 142.953125 83.691406 143.082031 83.84375 143.378906 C 83.992188 143.679688 83.886719 144.046875 83.601562 144.21875 L 83.117188 144.503906 C 81.476562 145.808594 80.554688 150.433594 81.828125 156.410156 C 83.199219 162.851562 86.050781 166.839844 88.03125 167.003906 L 88.066406 167.003906 C 88.414062 167.03125 88.679688 167.332031 88.65625 167.683594 C 88.632812 168.015625 88.355469 168.277344 88.023438 168.277344 " fill-opacity="1" fill-rule="nonzero"/><path fill="#000000" d="M 132.136719 137.78125 C 130.378906 138.148438 129.605469 141.855469 130.574219 146.03125 C 132.195312 153.027344 135.007812 153.023438 135.347656 153 C 135.351562 153 135.355469 153.007812 135.347656 153.007812 L 128.445312 156.011719 C 127.429688 153.222656 126.554688 150.191406 125.875 146.992188 C 125.21875 143.929688 124.792969 140.933594 124.578125 138.085938 L 132.136719 137.78125 " fill-opacity="1" fill-rule="nonzero"/><path fill="#000000" d="M 125.265625 138.695312 C 125.496094 141.367188 125.910156 144.113281 126.496094 146.859375 C 127.105469 149.734375 127.886719 152.519531 128.816406 155.15625 L 133.59375 153.078125 C 132.417969 152.296875 130.945312 150.457031 129.953125 146.175781 C 129.25 143.132812 129.410156 140.148438 130.359375 138.488281 Z M 128.082031 156.863281 L 127.847656 156.230469 C 126.800781 153.347656 125.925781 150.289062 125.253906 147.125 C 124.605469 144.097656 124.167969 141.070312 123.945312 138.132812 L 123.894531 137.476562 L 132.109375 137.144531 L 132.265625 138.402344 C 132 138.457031 131.753906 138.660156 131.53125 139.011719 C 130.824219 140.117188 130.445312 142.671875 131.191406 145.886719 C 132.722656 152.488281 135.273438 152.367188 135.296875 152.363281 L 135.835938 152.324219 L 136.097656 153.367188 L 135.605469 153.589844 L 128.082031 156.863281 " fill-opacity="1" fill-rule="nonzero"/><path fill="#ffffff" d="M 44.9375 177.890625 L 43.398438 165.566406 L 54.109375 168.882812 L 55.195312 176.097656 C 55.453125 178.039062 54.015625 179.398438 54.015625 179.398438 C 52.261719 181.242188 49.394531 181.464844 47.097656 180.390625 L 46.566406 180.140625 C 45.675781 179.71875 45.058594 178.871094 44.9375 177.890625 " fill-opacity="1" fill-rule="nonzero"/><path fill="#000000" d="M 45.566406 177.8125 C 45.664062 178.582031 46.136719 179.238281 46.835938 179.5625 L 47.367188 179.8125 C 49.554688 180.839844 52.101562 180.488281 53.554688 178.960938 C 53.589844 178.925781 54.777344 177.761719 54.5625 176.183594 L 53.542969 169.371094 L 44.152344 166.464844 Z M 49.988281 181.683594 C 48.945312 181.683594 47.859375 181.449219 46.828125 180.964844 L 46.296875 180.714844 C 45.199219 180.203125 44.457031 179.175781 44.304688 177.96875 L 42.769531 165.644531 C 42.742188 165.433594 42.824219 165.21875 42.988281 165.078125 C 43.15625 164.941406 43.378906 164.894531 43.585938 164.960938 L 54.300781 168.273438 C 54.53125 168.347656 54.703125 168.542969 54.738281 168.785156 L 55.820312 176.003906 C 56.121094 178.25 54.519531 179.796875 54.453125 179.859375 C 53.316406 181.054688 51.699219 181.683594 49.988281 181.683594 " fill-opacity="1" fill-rule="nonzero"/><path fill="#000000" d="M 53.050781 147.273438 C 50.445312 147.851562 54.410156 149.585938 44.140625 149.492188 C 40.050781 149.457031 43.203125 153.339844 42.140625 153.332031 C 38.222656 153.308594 38.355469 153.304688 36.714844 154.269531 C 35.628906 154.910156 35.472656 157.292969 36.148438 158.847656 C 37.035156 160.902344 38.949219 160.957031 41.765625 165.03125 C 43.746094 167.890625 44.015625 169.894531 45.414062 169.996094 C 46.824219 170.105469 47.289062 168.113281 48.839844 168.109375 C 50.84375 168.109375 51.382812 171.441406 53.566406 172.269531 C 54.945312 172.792969 57.710938 172.433594 61.386719 169.152344 C 61.984375 168.617188 62.117188 167.734375 61.707031 167.042969 C 61.175781 166.164062 60.503906 165.054688 59.773438 164.050781 C 56.285156 159.257812 54.042969 158.585938 54.347656 157 C 54.808594 154.578125 59.15625 154.664062 59.332031 152.730469 C 59.515625 150.722656 56.625 146.484375 53.050781 147.273438 " fill-opacity="1" fill-rule="nonzero"/><path fill="#ffffff" d="M 46.671875 159.027344 L 47.792969 160.195312 C 48.320312 160.746094 48.808594 161.332031 49.253906 161.949219 C 50.09375 163.109375 51.546875 165.089844 52.449219 166.136719 C 53.769531 167.675781 58.800781 163.917969 58.800781 163.917969 L 58.832031 162.726562 L 59.414062 162.273438 C 59.527344 162.1875 59.621094 162.074219 59.675781 161.941406 C 59.808594 161.609375 59.710938 161.25 59.457031 161.035156 C 58.070312 159.859375 55.117188 157.183594 53.566406 154.464844 C 53.566406 154.464844 49.082031 154.566406 46.671875 159.027344 " fill-opacity="1" fill-rule="nonzero"/><path fill="#000000" d="M 47.460938 158.929688 L 48.25 159.753906 C 48.796875 160.324219 49.308594 160.9375 49.769531 161.574219 C 50.566406 162.679688 52.039062 164.683594 52.929688 165.722656 C 53.460938 166.339844 56.058594 165.117188 58.175781 163.589844 L 58.199219 162.710938 C 58.203125 162.519531 58.292969 162.34375 58.445312 162.226562 L 59.023438 161.769531 C 59.0625 161.742188 59.082031 161.714844 59.085938 161.703125 C 59.121094 161.621094 59.085938 161.554688 59.046875 161.523438 C 57.535156 160.238281 54.824219 157.75 53.222656 155.132812 C 52.210938 155.253906 49.316406 155.871094 47.460938 158.929688 Z M 53.402344 167.140625 C 52.828125 167.140625 52.324219 166.96875 51.96875 166.550781 C 51.046875 165.476562 49.550781 163.441406 48.738281 162.324219 C 48.3125 161.730469 47.839844 161.164062 47.332031 160.636719 L 46.214844 159.46875 C 46.023438 159.269531 45.980469 158.96875 46.113281 158.726562 C 48.667969 153.992188 53.355469 153.832031 53.550781 153.828125 C 53.796875 153.835938 54.003906 153.945312 54.117188 154.152344 C 55.644531 156.820312 58.648438 159.515625 59.867188 160.550781 C 60.339844 160.949219 60.496094 161.605469 60.265625 162.179688 C 60.171875 162.40625 60.015625 162.609375 59.804688 162.777344 L 59.460938 163.046875 L 59.4375 163.9375 C 59.429688 164.128906 59.335938 164.308594 59.179688 164.425781 C 58.183594 165.171875 55.363281 167.140625 53.402344 167.140625 " fill-opacity="1" fill-rule="nonzero"/><path fill="#ffffff" d="M 49.054688 163.535156 C 49.054688 163.535156 46.367188 160.726562 45.355469 162.226562 C 44.347656 163.726562 47.382812 166.746094 49.054688 163.535156 " fill-opacity="1" fill-rule="nonzero"/><path fill="#745ff6" d="M 84.703125 120.417969 L 64.554688 123.199219 C 62.074219 123.539062 60.015625 125.300781 59.289062 127.703125 L 55.601562 139.910156 L 47.425781 128.921875 C 46.03125 127.042969 43.722656 126.074219 41.40625 126.394531 L 22.878906 128.953125 C 19.367188 129.4375 16.132812 126.980469 15.648438 123.464844 L 10.226562 84.066406 C 9.742188 80.546875 12.195312 77.304688 15.707031 76.820312 L 77.527344 68.28125 C 81.039062 67.796875 84.277344 70.253906 84.761719 73.769531 L 90.179688 113.171875 C 90.664062 116.6875 88.210938 119.929688 84.703125 120.417969 " fill-opacity="1" fill-rule="nonzero"/><path fill="#ffffff" d="M 49.984375 97.34375 C 49.945312 97.660156 49.617188 97.933594 49.160156 98.050781 C 48.582031 102.671875 47.308594 107.941406 45.558594 111.503906 C 44.675781 111.042969 43.011719 110.4375 42 110.164062 C 43.6875 106.957031 44.804688 101.835938 45.210938 97.242188 Z M 62.753906 83.71875 C 62.773438 83.902344 62.792969 88.320312 62.21875 93.125 L 59.617188 93.285156 C 62.003906 96.703125 64.238281 101.324219 65.226562 104.59375 L 61.4375 107.171875 C 60.582031 103.859375 58.316406 99.003906 56.023438 95.554688 L 59.472656 93.28125 L 58.628906 93.34375 C 58.679688 92.152344 58.679688 90.519531 58.710938 88.84375 L 54.445312 89.898438 L 56.523438 109.101562 C 56.894531 112.511719 56.371094 114.289062 50.300781 115.898438 C 49.949219 114.648438 49.101562 112.804688 48.375 111.769531 C 49.851562 111.417969 51.355469 111.027344 51.847656 110.898438 C 52.300781 110.777344 52.425781 110.59375 52.371094 110.109375 L 50.296875 90.925781 L 46.542969 91.855469 C 45.699219 94.746094 44.6875 97.414062 43.476562 99.636719 C 42.648438 99 40.980469 98.035156 39.949219 97.605469 C 42.214844 93.65625 43.738281 87.296875 44.289062 81.34375 L 49.351562 81.539062 C 49.28125 81.863281 48.988281 82.160156 48.460938 82.253906 C 48.246094 83.945312 47.964844 85.65625 47.605469 87.347656 L 60.511719 84.191406 Z M 41.765625 83.480469 C 41.695312 83.84375 41.363281 84.117188 40.828125 84.207031 C 40.214844 87.273438 39.425781 90.425781 38.515625 93.457031 L 39.902344 93.460938 C 39.871094 93.851562 39.613281 94.1875 39.019531 94.410156 L 41.589844 118.167969 L 37.359375 119.289062 L 35.464844 101.777344 C 34.816406 103.253906 34.121094 104.664062 33.414062 105.929688 C 32.730469 105.058594 31.257812 103.378906 30.394531 102.589844 C 33.167969 97.871094 35.558594 90.140625 36.695312 83.050781 L 41.765625 83.480469 " fill-opacity="1" fill-rule="nonzero"/><path fill="#000000" d="M 333.203125 67.894531 C 331.464844 67.894531 330.050781 69.3125 330.050781 71.050781 C 330.050781 72.792969 331.464844 74.207031 333.203125 74.207031 C 334.941406 74.207031 336.355469 72.792969 336.355469 71.050781 C 336.355469 69.3125 334.941406 67.894531 333.203125 67.894531 Z M 333.203125 75.480469 C 330.765625 75.480469 328.777344 73.492188 328.777344 71.050781 C 328.777344 68.609375 330.765625 66.625 333.203125 66.625 C 335.640625 66.625 337.628906 68.609375 337.628906 71.050781 C 337.628906 73.492188 335.640625 75.480469 333.203125 75.480469 " fill-opacity="1" fill-rule="nonzero"/><path fill="#000000" d="M 52.074219 54.730469 C 52.046875 54.730469 52.015625 54.730469 51.988281 54.726562 C 51.640625 54.675781 51.398438 54.355469 51.445312 54.007812 L 51.902344 50.75 C 51.953125 50.402344 52.273438 50.160156 52.621094 50.207031 C 52.96875 50.253906 53.210938 50.578125 53.160156 50.925781 L 52.703125 54.183594 C 52.660156 54.503906 52.386719 54.730469 52.074219 54.730469 " fill-opacity="1" fill-rule="nonzero"/><path fill="#000000" d="M 51.007812 62.324219 C 50.980469 62.324219 50.949219 62.320312 50.917969 62.316406 C 50.570312 62.269531 50.328125 61.945312 50.378906 61.597656 L 50.835938 58.339844 C 50.886719 57.992188 51.207031 57.75 51.554688 57.800781 C 51.902344 57.847656 52.144531 58.171875 52.09375 58.515625 L 51.636719 61.777344 C 51.59375 62.09375 51.320312 62.324219 51.007812 62.324219 " fill-opacity="1" fill-rule="nonzero"/><path fill="#000000" d="M 49.605469 56.59375 C 49.578125 56.59375 49.546875 56.589844 49.519531 56.585938 L 46.261719 56.128906 C 45.914062 56.078125 45.671875 55.757812 45.722656 55.410156 C 45.769531 55.0625 46.09375 54.820312 46.441406 54.871094 L 49.695312 55.328125 C 50.042969 55.378906 50.285156 55.699219 50.234375 56.046875 C 50.191406 56.363281 49.917969 56.59375 49.605469 56.59375 " fill-opacity="1" fill-rule="nonzero"/><path fill="#000000" d="M 57.191406 57.664062 C 57.160156 57.664062 57.128906 57.660156 57.101562 57.65625 L 53.84375 57.195312 C 53.496094 57.148438 53.253906 56.828125 53.304688 56.480469 C 53.351562 56.132812 53.675781 55.886719 54.023438 55.9375 L 57.277344 56.394531 C 57.625 56.445312 57.867188 56.765625 57.820312 57.113281 C 57.773438 57.433594 57.503906 57.664062 57.191406 57.664062 " fill-opacity="1" fill-rule="nonzero"/><path fill="#000000" d="M 322.40625 56.011719 C 322.378906 56.011719 322.347656 56.011719 322.316406 56.003906 C 321.96875 55.957031 321.726562 55.636719 321.777344 55.285156 L 322.234375 52.027344 C 322.285156 51.683594 322.601562 51.441406 322.953125 51.488281 C 323.300781 51.535156 323.542969 51.859375 323.492188 52.207031 L 323.035156 55.464844 C 322.988281 55.78125 322.71875 56.011719 322.40625 56.011719 " fill-opacity="1" fill-rule="nonzero"/><path fill="#000000" d="M 321.339844 63.601562 C 321.3125 63.601562 321.28125 63.601562 321.25 63.59375 C 320.902344 63.546875 320.660156 63.226562 320.710938 62.878906 L 321.167969 59.617188 C 321.21875 59.273438 321.535156 59.03125 321.886719 59.078125 C 322.234375 59.128906 322.476562 59.449219 322.425781 59.796875 L 321.96875 63.054688 C 321.925781 63.371094 321.652344 63.601562 321.339844 63.601562 " fill-opacity="1" fill-rule="nonzero"/><path fill="#000000" d="M 319.9375 57.875 C 319.910156 57.875 319.878906 57.871094 319.851562 57.867188 L 316.597656 57.410156 C 316.246094 57.359375 316.003906 57.039062 316.054688 56.6875 C 316.101562 56.34375 316.421875 56.101562 316.769531 56.148438 L 320.027344 56.609375 C 320.375 56.65625 320.617188 56.976562 320.566406 57.328125 C 320.523438 57.644531 320.25 57.875 319.9375 57.875 " fill-opacity="1" fill-rule="nonzero"/><path fill="#000000" d="M 327.519531 58.941406 C 327.492188 58.941406 327.460938 58.9375 327.433594 58.933594 L 324.175781 58.476562 C 323.828125 58.429688 323.585938 58.105469 323.636719 57.757812 C 323.683594 57.410156 324.003906 57.171875 324.355469 57.21875 L 327.609375 57.675781 C 327.957031 57.722656 328.199219 58.046875 328.152344 58.394531 C 328.105469 58.710938 327.832031 58.941406 327.519531 58.941406 " fill-opacity="1" fill-rule="nonzero"/><path fill="#000000" d="M 59.835938 47.242188 C 59.644531 47.242188 59.453125 47.152344 59.328125 46.988281 C 59.117188 46.707031 59.175781 46.304688 59.453125 46.09375 C 72.445312 36.308594 87.167969 28.910156 103.214844 24.105469 C 103.550781 24.003906 103.90625 24.195312 104.007812 24.53125 C 104.109375 24.867188 103.917969 25.222656 103.578125 25.324219 C 87.675781 30.085938 73.085938 37.417969 60.21875 47.113281 C 60.105469 47.199219 59.96875 47.242188 59.835938 47.242188 " fill-opacity="1" fill-rule="nonzero"/><path fill="#000000" d="M 73.515625 46.78125 C 73.300781 46.78125 73.09375 46.679688 72.972656 46.484375 C 72.789062 46.1875 72.878906 45.792969 73.175781 45.609375 C 86.667969 37.203125 101.703125 31.40625 117.855469 28.378906 C 118.203125 28.316406 118.535156 28.542969 118.597656 28.886719 C 118.664062 29.234375 118.4375 29.566406 118.089844 29.632812 C 102.089844 32.628906 87.207031 38.367188 73.847656 46.6875 C 73.746094 46.753906 73.628906 46.78125 73.515625 46.78125 " fill-opacity="1" fill-rule="nonzero"/><path fill="#000000" d="M 329.746094 287.855469 C 329.601562 287.855469 329.457031 287.808594 329.339844 287.707031 C 329.070312 287.484375 329.035156 287.082031 329.257812 286.8125 C 342.191406 271.363281 352.078125 254.191406 358.644531 235.769531 C 358.761719 235.4375 359.125 235.265625 359.457031 235.386719 C 359.789062 235.503906 359.960938 235.867188 359.839844 236.199219 C 353.222656 254.761719 343.261719 272.0625 330.234375 287.628906 C 330.109375 287.777344 329.929688 287.855469 329.746094 287.855469 " fill-opacity="1" fill-rule="nonzero"/><path fill="#000000" d="M 318.007812 300.578125 C 317.84375 300.578125 317.679688 300.515625 317.554688 300.390625 C 317.308594 300.140625 317.3125 299.734375 317.5625 299.492188 C 319.488281 297.59375 321.386719 295.636719 323.214844 293.671875 C 323.453125 293.414062 323.855469 293.398438 324.109375 293.640625 C 324.367188 293.878906 324.382812 294.28125 324.144531 294.539062 C 322.304688 296.519531 320.390625 298.488281 318.453125 300.394531 C 318.328125 300.519531 318.167969 300.578125 318.007812 300.578125 " fill-opacity="1" fill-rule="nonzero"/><path fill="#000000" d="M 300.550781 301.484375 C 300.367188 301.484375 300.183594 301.402344 300.058594 301.246094 C 299.835938 300.976562 299.878906 300.574219 300.152344 300.351562 C 319.484375 284.613281 334.332031 265.660156 344.28125 244.023438 C 344.425781 243.703125 344.804688 243.5625 345.125 243.710938 C 345.441406 243.855469 345.582031 244.234375 345.4375 244.554688 C 335.40625 266.371094 320.4375 285.476562 300.953125 301.339844 C 300.832031 301.4375 300.691406 301.484375 300.550781 301.484375 " fill-opacity="1" fill-rule="nonzero"/><g clip-path="url(#dd29821de6)"><g clip-path="url(#bc3c67a261)"><g clip-path="url(#c759bb9d56)"><path fill="#745ff6" d="M 17.769531 82.75 L 75.683594 74.398438 L 81.738281 116.375 L 23.824219 124.726562 Z M 17.769531 82.75 " fill-opacity="1" fill-rule="nonzero"/></g></g></g><g fill="#ffffff" fill-opacity="1"><g transform="translate(18.30739, 107.54605)"><g><path d="M 3.0625 -6 C 2.875 -5.976562 2.707031 -6.023438 2.5625 -6.140625 C 2.414062 -6.253906 2.328125 -6.398438 2.296875 -6.578125 C 2.273438 -6.765625 2.320312 -6.929688 2.4375 -7.078125 C 2.550781 -7.222656 2.703125 -7.304688 2.890625 -7.328125 C 3.085938 -7.359375 3.253906 -7.316406 3.390625 -7.203125 C 3.535156 -7.085938 3.617188 -6.9375 3.640625 -6.75 C 3.671875 -6.570312 3.628906 -6.410156 3.515625 -6.265625 C 3.410156 -6.117188 3.257812 -6.03125 3.0625 -6 Z M 4.21875 1.53125 C 3.613281 1.613281 3.078125 1.59375 2.609375 1.46875 C 2.140625 1.34375 1.757812 1.132812 1.46875 0.84375 C 1.175781 0.5625 1 0.203125 0.9375 -0.234375 C 0.894531 -0.578125 0.914062 -0.882812 1 -1.15625 C 1.082031 -1.425781 1.191406 -1.660156 1.328125 -1.859375 C 1.472656 -2.066406 1.675781 -2.304688 1.9375 -2.578125 C 2.25 -2.941406 2.476562 -3.257812 2.625 -3.53125 C 2.78125 -3.800781 2.832031 -4.125 2.78125 -4.5 L 3.734375 -4.640625 C 3.785156 -4.304688 3.769531 -4.003906 3.6875 -3.734375 C 3.601562 -3.460938 3.488281 -3.222656 3.34375 -3.015625 C 3.195312 -2.816406 3 -2.582031 2.75 -2.3125 C 2.425781 -1.9375 2.191406 -1.617188 2.046875 -1.359375 C 1.898438 -1.109375 1.847656 -0.804688 1.890625 -0.453125 C 1.953125 -0.0351562 2.1875 0.28125 2.59375 0.5 C 3 0.726562 3.523438 0.800781 4.171875 0.71875 C 5.234375 0.570312 6.003906 0.113281 6.484375 -0.65625 L 7.234375 -0.21875 C 6.628906 0.757812 5.625 1.34375 4.21875 1.53125 Z M 4.21875 1.53125 "/></g></g></g><g fill="#ffffff" fill-opacity="1"><g transform="translate(25.61128, 106.570536)"><g><path d="M 7.765625 -10.21875 L 4.96875 -0.65625 L 4.03125 -0.53125 L -1.171875 -9.015625 L -0.140625 -9.15625 L 4.359375 -1.796875 L 6.796875 -10.078125 Z M 7.765625 -10.21875 "/></g></g></g><g fill="#ffffff" fill-opacity="1"><g transform="translate(34.602654, 105.36964)"><g><path d="M 6.796875 -3.375 L 1.78125 -2.703125 L 1.015625 -0.140625 L 0.03125 0 L 2.953125 -9.5625 L 3.890625 -9.703125 L 9.21875 -1.234375 L 8.203125 -1.09375 Z M 6.359375 -4.09375 L 3.53125 -8.625 L 2.03125 -3.515625 Z M 6.359375 -4.09375 "/></g></g></g><g fill="#ffffff" fill-opacity="1"><g transform="translate(43.838784, 104.136055)"><g><path d="M 9.640625 -10.46875 L 10.84375 -1.453125 L 9.921875 -1.328125 L 8.953125 -8.546875 L 6.21875 -2 L 5.78125 -1.9375 L 1.4375 -7.484375 L 2.390625 -0.3125 L 1.46875 -0.203125 L 0.265625 -9.21875 L 1.0625 -9.3125 L 5.859375 -3.171875 L 8.84375 -10.359375 Z M 9.640625 -10.46875 "/></g></g></g><g fill="#ffffff" fill-opacity="1"><g transform="translate(56.140741, 102.492995)"><g><path d="M 5.421875 -0.640625 C 4.535156 -0.523438 3.695312 -0.613281 2.90625 -0.90625 C 2.125 -1.207031 1.484375 -1.679688 0.984375 -2.328125 C 0.492188 -2.972656 0.1875 -3.726562 0.0625 -4.59375 C -0.0507812 -5.46875 0.046875 -6.28125 0.359375 -7.03125 C 0.671875 -7.78125 1.164062 -8.398438 1.84375 -8.890625 C 2.519531 -9.390625 3.300781 -9.695312 4.1875 -9.8125 C 5.082031 -9.9375 5.914062 -9.847656 6.6875 -9.546875 C 7.457031 -9.253906 8.09375 -8.785156 8.59375 -8.140625 C 9.101562 -7.492188 9.414062 -6.734375 9.53125 -5.859375 C 9.65625 -4.992188 9.554688 -4.179688 9.234375 -3.421875 C 8.910156 -2.671875 8.414062 -2.050781 7.75 -1.5625 C 7.09375 -1.070312 6.316406 -0.765625 5.421875 -0.640625 Z M 5.296875 -1.5 C 6.003906 -1.59375 6.625 -1.835938 7.15625 -2.234375 C 7.695312 -2.628906 8.09375 -3.132812 8.34375 -3.75 C 8.59375 -4.375 8.671875 -5.035156 8.578125 -5.734375 C 8.484375 -6.441406 8.234375 -7.054688 7.828125 -7.578125 C 7.429688 -8.109375 6.921875 -8.492188 6.296875 -8.734375 C 5.679688 -8.972656 5.019531 -9.046875 4.3125 -8.953125 C 3.601562 -8.859375 2.976562 -8.613281 2.4375 -8.21875 C 1.90625 -7.820312 1.507812 -7.316406 1.25 -6.703125 C 0.988281 -6.085938 0.90625 -5.425781 1 -4.71875 C 1.09375 -4.019531 1.34375 -3.40625 1.75 -2.875 C 2.164062 -2.34375 2.679688 -1.957031 3.296875 -1.71875 C 3.921875 -1.476562 4.585938 -1.40625 5.296875 -1.5 Z M 5.296875 -1.5 "/></g></g></g><g fill="#ffffff" fill-opacity="1"><g transform="translate(66.948426, 101.049511)"><g><path d="M 3.96875 -0.453125 C 3.300781 -0.359375 2.644531 -0.378906 2 -0.515625 C 1.351562 -0.660156 0.84375 -0.878906 0.46875 -1.171875 L 0.71875 -1.953125 C 1.09375 -1.679688 1.566406 -1.476562 2.140625 -1.34375 C 2.710938 -1.207031 3.285156 -1.179688 3.859375 -1.265625 C 4.671875 -1.367188 5.253906 -1.597656 5.609375 -1.953125 C 5.972656 -2.304688 6.125 -2.722656 6.0625 -3.203125 C 6.007812 -3.554688 5.859375 -3.820312 5.609375 -4 C 5.367188 -4.1875 5.082031 -4.316406 4.75 -4.390625 C 4.414062 -4.472656 3.957031 -4.539062 3.375 -4.59375 C 2.664062 -4.6875 2.097656 -4.78125 1.671875 -4.875 C 1.253906 -4.96875 0.878906 -5.160156 0.546875 -5.453125 C 0.210938 -5.753906 0.0078125 -6.179688 -0.0625 -6.734375 C -0.113281 -7.191406 -0.046875 -7.617188 0.140625 -8.015625 C 0.328125 -8.421875 0.648438 -8.769531 1.109375 -9.0625 C 1.578125 -9.351562 2.1875 -9.546875 2.9375 -9.640625 C 3.445312 -9.710938 3.957031 -9.710938 4.46875 -9.640625 C 4.988281 -9.566406 5.441406 -9.425781 5.828125 -9.21875 L 5.625 -8.4375 C 5.207031 -8.632812 4.773438 -8.765625 4.328125 -8.828125 C 3.878906 -8.890625 3.453125 -8.890625 3.046875 -8.828125 C 2.242188 -8.722656 1.664062 -8.492188 1.3125 -8.140625 C 0.957031 -7.785156 0.8125 -7.363281 0.875 -6.875 C 0.925781 -6.519531 1.070312 -6.25 1.3125 -6.0625 C 1.5625 -5.875 1.859375 -5.738281 2.203125 -5.65625 C 2.546875 -5.582031 3.015625 -5.515625 3.609375 -5.453125 C 4.285156 -5.378906 4.835938 -5.289062 5.265625 -5.1875 C 5.691406 -5.09375 6.070312 -4.898438 6.40625 -4.609375 C 6.738281 -4.328125 6.941406 -3.914062 7.015625 -3.375 C 7.066406 -2.914062 6.992188 -2.476562 6.796875 -2.0625 C 6.597656 -1.65625 6.257812 -1.304688 5.78125 -1.015625 C 5.3125 -0.734375 4.707031 -0.546875 3.96875 -0.453125 Z M 3.96875 -0.453125 "/></g></g></g><g fill="#ffffff" fill-opacity="1"><g transform="translate(74.870632, 99.991414)"><g><path d="M 2.671875 -3.109375 C 2.617188 -3.460938 2.632812 -3.78125 2.71875 -4.0625 C 2.800781 -4.34375 2.914062 -4.585938 3.0625 -4.796875 C 3.207031 -5.003906 3.40625 -5.25 3.65625 -5.53125 C 3.96875 -5.914062 4.195312 -6.238281 4.34375 -6.5 C 4.488281 -6.757812 4.539062 -7.066406 4.5 -7.421875 C 4.4375 -7.898438 4.195312 -8.257812 3.78125 -8.5 C 3.375 -8.738281 2.847656 -8.8125 2.203125 -8.71875 C 1.140625 -8.582031 0.367188 -8.128906 -0.109375 -7.359375 L -0.859375 -7.78125 C -0.253906 -8.769531 0.75 -9.359375 2.15625 -9.546875 C 3.050781 -9.660156 3.796875 -9.550781 4.390625 -9.21875 C 4.984375 -8.894531 5.320312 -8.390625 5.40625 -7.703125 C 5.457031 -7.347656 5.445312 -7.023438 5.375 -6.734375 C 5.300781 -6.453125 5.191406 -6.203125 5.046875 -5.984375 C 4.898438 -5.773438 4.707031 -5.523438 4.46875 -5.234375 C 4.132812 -4.867188 3.894531 -4.539062 3.75 -4.25 C 3.613281 -3.957031 3.570312 -3.617188 3.625 -3.234375 Z M 3.515625 -0.40625 C 3.328125 -0.382812 3.15625 -0.429688 3 -0.546875 C 2.851562 -0.660156 2.769531 -0.804688 2.75 -0.984375 C 2.71875 -1.160156 2.757812 -1.320312 2.875 -1.46875 C 2.988281 -1.625 3.140625 -1.710938 3.328125 -1.734375 C 3.523438 -1.753906 3.695312 -1.707031 3.84375 -1.59375 C 3.988281 -1.488281 4.078125 -1.347656 4.109375 -1.171875 C 4.128906 -0.992188 4.082031 -0.828125 3.96875 -0.671875 C 3.863281 -0.515625 3.710938 -0.425781 3.515625 -0.40625 Z M 3.515625 -0.40625 "/></g></g></g></svg>