<svg xmlns="http://www.w3.org/2000/svg" xmlns:xlink="http://www.w3.org/1999/xlink" width="500" zoomAndPan="magnify" viewBox="0 0 375 374.999991" height="500" preserveAspectRatio="xMidYMid meet" version="1.0"><path fill="#d2ccf6" d="M 285.917969 102.414062 C 248.925781 65.191406 259.515625 41.859375 234.203125 24.621094 C 195.257812 -1.898438 122.570312 20.917969 79.683594 57.398438 C 27.160156 102.078125 0.0625 183.65625 30.933594 257.457031 C 63.808594 336.050781 150.308594 376.851562 227.488281 364.558594 C 296.417969 353.578125 364.171875 299.261719 370.960938 234.113281 C 371.699219 227.054688 374.945312 188.882812 352.164062 155.972656 C 333.332031 128.773438 315.242188 131.925781 285.917969 102.414062 " fill-opacity="1" fill-rule="nonzero"/><path fill="#5236ff" d="M 175.898438 19.683594 L 176.285156 22.976562 L 175.898438 19.683594 " fill-opacity="1" fill-rule="nonzero"/><path fill="#000000" d="M 176.285156 23.617188 C 175.964844 23.617188 175.6875 23.378906 175.648438 23.050781 L 175.257812 19.757812 C 175.214844 19.40625 175.46875 19.085938 175.820312 19.046875 C 176.167969 19.007812 176.492188 19.253906 176.53125 19.605469 L 176.921875 22.902344 C 176.964844 23.253906 176.714844 23.574219 176.363281 23.613281 C 176.335938 23.617188 176.3125 23.617188 176.285156 23.617188 " fill-opacity="1" fill-rule="nonzero"/><path fill="#5236ff" d="M 176.808594 27.355469 L 177.195312 30.648438 L 176.808594 27.355469 " fill-opacity="1" fill-rule="nonzero"/><path fill="#000000" d="M 177.199219 31.289062 C 176.878906 31.289062 176.597656 31.050781 176.5625 30.722656 L 176.171875 27.429688 C 176.128906 27.078125 176.382812 26.757812 176.730469 26.71875 C 177.078125 26.675781 177.402344 26.925781 177.445312 27.277344 L 177.835938 30.570312 C 177.878906 30.925781 177.625 31.242188 177.273438 31.285156 C 177.25 31.285156 177.222656 31.289062 177.199219 31.289062 " fill-opacity="1" fill-rule="nonzero"/><path fill="#5236ff" d="M 171.0625 25.816406 L 174.359375 25.425781 L 171.0625 25.816406 " fill-opacity="1" fill-rule="nonzero"/><path fill="#000000" d="M 171.0625 26.457031 C 170.742188 26.457031 170.464844 26.214844 170.425781 25.890625 C 170.386719 25.539062 170.636719 25.21875 170.988281 25.175781 L 174.28125 24.785156 C 174.632812 24.746094 174.953125 24.996094 174.996094 25.347656 C 175.035156 25.699219 174.785156 26.019531 174.433594 26.058594 L 171.140625 26.453125 C 171.113281 26.453125 171.085938 26.457031 171.0625 26.457031 " fill-opacity="1" fill-rule="nonzero"/><path fill="#5236ff" d="M 178.734375 24.90625 L 182.03125 24.515625 L 178.734375 24.90625 " fill-opacity="1" fill-rule="nonzero"/><path fill="#000000" d="M 178.734375 25.546875 C 178.417969 25.546875 178.136719 25.304688 178.101562 24.980469 C 178.058594 24.628906 178.308594 24.308594 178.664062 24.269531 L 181.957031 23.875 C 182.304688 23.835938 182.628906 24.085938 182.667969 24.4375 C 182.710938 24.789062 182.460938 25.109375 182.105469 25.152344 L 178.8125 25.542969 C 178.785156 25.542969 178.761719 25.546875 178.734375 25.546875 " fill-opacity="1" fill-rule="nonzero"/><path fill="#000000" d="M 153.113281 27.835938 C 151.734375 28.660156 151.28125 30.480469 152.101562 31.886719 C 152.496094 32.574219 153.132812 33.058594 153.886719 33.253906 C 154.625 33.449219 155.394531 33.335938 156.050781 32.941406 C 157.425781 32.117188 157.878906 30.300781 157.0625 28.890625 C 156.660156 28.203125 156.027344 27.71875 155.269531 27.523438 C 154.53125 27.335938 153.765625 27.445312 153.113281 27.835938 Z M 154.605469 34.628906 C 154.257812 34.628906 153.914062 34.585938 153.570312 34.496094 C 152.476562 34.214844 151.5625 33.519531 150.988281 32.53125 C 149.820312 30.519531 150.476562 27.921875 152.449219 26.734375 C 153.402344 26.164062 154.519531 26.003906 155.59375 26.28125 C 156.683594 26.5625 157.597656 27.261719 158.171875 28.246094 C 159.335938 30.261719 158.683594 32.859375 156.710938 34.042969 C 156.0625 34.433594 155.339844 34.628906 154.605469 34.628906 " fill-opacity="1" fill-rule="nonzero"/><path fill="#000000" d="M 186.882812 355.953125 C 186.871094 355.953125 186.859375 355.953125 186.847656 355.953125 C 169.90625 355.085938 153.644531 351.347656 138.515625 344.847656 C 138.191406 344.710938 138.039062 344.332031 138.179688 344.003906 C 138.320312 343.679688 138.695312 343.53125 139.019531 343.671875 C 154.011719 350.109375 170.125 353.8125 186.914062 354.671875 C 187.269531 354.691406 187.539062 354.992188 187.523438 355.347656 C 187.503906 355.6875 187.222656 355.953125 186.882812 355.953125 " fill-opacity="1" fill-rule="nonzero"/><path fill="#000000" d="M 194.546875 356.148438 C 194.191406 356.148438 193.902344 355.863281 193.902344 355.507812 C 193.902344 355.152344 194.191406 354.867188 194.546875 354.867188 C 196.785156 354.863281 199.0625 354.8125 201.3125 354.710938 C 201.664062 354.695312 201.964844 354.96875 201.980469 355.324219 C 201.996094 355.679688 201.722656 355.980469 201.371094 355.996094 C 199.101562 356.097656 196.804688 356.148438 194.546875 356.148438 " fill-opacity="1" fill-rule="nonzero"/><path fill="#000000" d="M 192.332031 347.203125 C 178.410156 347.203125 164.855469 345.058594 151.828125 340.78125 C 151.492188 340.671875 151.308594 340.308594 151.417969 339.972656 C 151.53125 339.636719 151.894531 339.453125 152.230469 339.5625 C 171.105469 345.757812 191.125 347.4375 211.734375 344.546875 C 212.082031 344.496094 212.40625 344.742188 212.457031 345.089844 C 212.507812 345.441406 212.261719 345.765625 211.910156 345.816406 C 205.320312 346.742188 198.785156 347.203125 192.332031 347.203125 " fill-opacity="1" fill-rule="nonzero"/><path fill="#5236ff" d="M 95.269531 51.859375 L 298.882812 51.269531 C 302.980469 51.269531 306.191406 54.757812 305.832031 58.804688 L 291.578125 218.253906 C 291.257812 221.824219 288.246094 224.5625 284.632812 224.5625 L 33.820312 224.527344 C 29.726562 224.527344 26.46875 220.679688 26.832031 216.628906 L 41.085938 58.167969 C 41.40625 54.597656 44.304688 51.46875 47.917969 51.46875 L 95.269531 51.859375 " fill-opacity="1" fill-rule="nonzero"/><path fill="#ffffff" d="M 85.558594 51.863281 L 289.140625 51.863281 C 293.238281 51.863281 296.449219 55.375 296.085938 59.453125 L 281.902344 218.882812 C 281.578125 222.480469 278.566406 225.238281 274.953125 225.238281 L 24.136719 225.238281 C 20.042969 225.238281 16.828125 221.726562 17.191406 217.648438 L 31.378906 58.21875 C 31.699219 54.621094 34.710938 51.863281 38.324219 51.863281 L 85.558594 51.863281 " fill-opacity="1" fill-rule="nonzero"/><path fill="#000000" d="M 24.140625 225.878906 C 22.003906 225.878906 19.957031 224.976562 18.519531 223.40625 C 17.082031 221.832031 16.363281 219.714844 16.550781 217.589844 L 30.738281 58.160156 C 31.089844 54.207031 34.351562 51.222656 38.324219 51.222656 L 85.558594 51.222656 C 85.914062 51.222656 86.199219 51.507812 86.199219 51.863281 C 86.199219 52.21875 85.914062 52.503906 85.558594 52.503906 L 38.324219 52.503906 C 35.019531 52.503906 32.308594 54.984375 32.019531 58.273438 L 17.832031 217.707031 C 17.671875 219.46875 18.269531 221.230469 19.464844 222.539062 C 20.660156 223.847656 22.363281 224.59375 24.136719 224.59375 L 32.195312 224.550781 C 32.195312 224.550781 32.199219 224.550781 32.199219 224.550781 C 32.550781 224.550781 32.839844 224.832031 32.839844 225.1875 C 32.84375 225.539062 32.558594 225.828125 32.203125 225.832031 L 24.140625 225.878906 " fill-opacity="1" fill-rule="nonzero"/><path fill="#000000" d="M 295.53125 69.890625 C 295.519531 69.890625 295.503906 69.890625 295.492188 69.890625 C 295.140625 69.867188 294.867188 69.566406 294.890625 69.210938 L 295.445312 59.417969 C 295.605469 57.632812 295.011719 55.871094 293.8125 54.5625 C 292.617188 53.253906 290.914062 52.503906 289.140625 52.503906 L 85.558594 52.503906 C 85.203125 52.503906 84.917969 52.21875 84.917969 51.863281 C 84.917969 51.507812 85.203125 51.222656 85.558594 51.222656 L 289.140625 51.222656 C 291.273438 51.222656 293.320312 52.125 294.757812 53.695312 C 296.199219 55.269531 296.917969 57.386719 296.726562 59.511719 L 296.171875 69.285156 C 296.152344 69.625 295.867188 69.890625 295.53125 69.890625 " fill-opacity="1" fill-rule="nonzero"/><path fill="#5236ff" d="M 90.378906 59.695312 L 281.253906 59.695312 C 285.09375 59.695312 288.105469 62.894531 287.765625 66.617188 L 274.464844 211.96875 C 274.164062 215.246094 271.339844 217.761719 267.953125 217.761719 L 32.789062 217.761719 C 28.949219 217.761719 25.9375 214.558594 26.277344 210.839844 L 39.582031 65.488281 C 39.878906 62.207031 42.707031 59.695312 46.089844 59.695312 L 90.378906 59.695312 " fill-opacity="1" fill-rule="nonzero"/><path fill="#ffffff" d="M 219.902344 114.566406 C 182.195312 75.132812 143.253906 74.789062 103.027344 115.082031 C 131.394531 149.917969 185.859375 155.117188 219.902344 114.566406 " fill-opacity="1" fill-rule="nonzero"/><path fill="#5236ff" d="M 103.890625 115.128906 C 118.136719 132.355469 138.839844 142.316406 160.789062 142.480469 C 160.972656 142.480469 161.152344 142.480469 161.335938 142.480469 C 183.28125 142.480469 203.730469 132.597656 219.042969 114.59375 C 200.6875 95.539062 181.859375 85.773438 163.085938 85.570312 C 162.882812 85.570312 162.6875 85.570312 162.488281 85.570312 C 143.320312 85.570312 123.609375 95.511719 103.890625 115.128906 Z M 161.335938 143.765625 C 161.152344 143.765625 160.964844 143.761719 160.78125 143.761719 C 138.257812 143.59375 117.027344 133.289062 102.53125 115.488281 C 102.324219 115.234375 102.339844 114.863281 102.574219 114.632812 C 122.679688 94.496094 142.835938 84.285156 162.488281 84.285156 C 162.691406 84.285156 162.894531 84.289062 163.097656 84.289062 C 182.367188 84.496094 201.636719 94.535156 220.367188 114.121094 C 220.59375 114.355469 220.605469 114.726562 220.394531 114.976562 C 204.800781 133.554688 183.84375 143.765625 161.335938 143.765625 " fill-opacity="1" fill-rule="nonzero"/><path fill="#5236ff" d="M 182.902344 114.761719 C 182.902344 126.203125 173.628906 135.480469 162.1875 135.480469 C 150.746094 135.480469 141.46875 126.203125 141.46875 114.761719 C 141.46875 103.324219 150.746094 94.046875 162.1875 94.046875 C 173.628906 94.046875 182.902344 103.324219 182.902344 114.761719 " fill-opacity="1" fill-rule="nonzero"/><path fill="#ffffff" d="M 143.132812 148.71875 L 149.136719 151.777344 L 185.027344 81.367188 L 179.023438 78.308594 L 143.132812 148.71875 " fill-opacity="1" fill-rule="nonzero"/><path fill="#5236ff" d="M 143.996094 148.4375 L 148.855469 150.914062 L 184.164062 81.648438 L 179.304688 79.171875 Z M 149.136719 152.417969 C 149.039062 152.417969 148.9375 152.394531 148.84375 152.347656 L 142.84375 149.289062 C 142.691406 149.210938 142.574219 149.078125 142.523438 148.914062 C 142.472656 148.753906 142.484375 148.578125 142.5625 148.425781 L 178.457031 78.019531 C 178.613281 77.699219 179 77.578125 179.316406 77.734375 L 185.320312 80.796875 C 185.46875 80.871094 185.585938 81.007812 185.636719 81.167969 C 185.6875 81.332031 185.675781 81.507812 185.597656 81.65625 L 149.707031 152.066406 C 149.59375 152.289062 149.371094 152.417969 149.136719 152.417969 " fill-opacity="1" fill-rule="nonzero"/><path fill="#745ff6" d="M 236.574219 311.195312 C 231.390625 307.175781 225.980469 303.429688 220.460938 299.855469 C 209.257812 292.597656 197.535156 286.113281 185.703125 279.828125 C 179.480469 276.519531 173.050781 273.527344 166.695312 270.453125 C 160.300781 267.355469 153.890625 264.289062 147.480469 261.226562 C 141.625 258.421875 135.765625 255.621094 129.917969 252.804688 C 113.957031 209.191406 96.472656 159.753906 99.238281 159.753906 L 309.261719 153.78125 C 314.214844 153.78125 317.828125 157.832031 317.316406 162.8125 L 302.292969 308.960938 C 301.78125 313.941406 297.332031 317.988281 292.378906 317.988281 L 245.542969 317.988281 C 242.617188 315.652344 239.53125 313.492188 236.574219 311.195312 " fill-opacity="1" fill-rule="nonzero"/><path fill="#ffffff" d="M 92.84375 154.289062 L 304.9375 154.289062 C 309.621094 154.289062 313.023438 158.105469 312.539062 162.808594 L 297.511719 308.960938 C 297.027344 313.664062 292.839844 317.476562 288.160156 317.476562 L 76.0625 317.476562 C 71.382812 317.476562 67.980469 313.664062 68.464844 308.960938 L 83.492188 162.808594 C 83.976562 158.105469 88.160156 154.289062 92.84375 154.289062 " fill-opacity="1" fill-rule="nonzero"/><path fill="#000000" d="M 235.300781 318.121094 L 138.628906 318.03125 C 138.273438 318.03125 137.984375 317.742188 137.984375 317.390625 C 137.988281 317.035156 138.273438 316.75 138.628906 316.75 L 235.300781 316.835938 C 235.65625 316.835938 235.941406 317.125 235.941406 317.480469 C 235.941406 317.832031 235.65625 318.121094 235.300781 318.121094 " fill-opacity="1" fill-rule="nonzero"/><path fill="#000000" d="M 81.09375 186.757812 C 81.074219 186.757812 81.050781 186.757812 81.027344 186.753906 C 80.675781 186.714844 80.421875 186.402344 80.457031 186.050781 L 82.851562 162.742188 C 83.367188 157.730469 87.851562 153.652344 92.84375 153.652344 L 304.9375 153.652344 C 308.230469 153.652344 311.113281 155.445312 312.449219 158.335938 C 312.488281 158.421875 312.507812 158.511719 312.507812 158.605469 L 312.59375 183.34375 C 312.597656 183.699219 312.308594 183.988281 311.957031 183.988281 L 311.953125 183.988281 C 311.597656 183.988281 311.3125 183.703125 311.3125 183.351562 L 311.226562 158.75 C 310.078125 156.394531 307.679688 154.933594 304.9375 154.933594 L 92.84375 154.933594 C 88.488281 154.933594 84.578125 158.496094 84.128906 162.878906 L 81.734375 186.179688 C 81.699219 186.511719 81.421875 186.757812 81.09375 186.757812 " fill-opacity="1" fill-rule="nonzero"/><path fill="#d2ccf6" d="M 98.472656 159.925781 L 298.921875 159.925781 C 303.34375 159.925781 306.558594 163.476562 306.097656 167.855469 L 291.746094 303.914062 C 291.285156 308.292969 287.324219 311.84375 282.898438 311.84375 L 82.453125 311.84375 C 78.027344 311.84375 74.816406 308.292969 75.277344 303.914062 L 89.628906 167.855469 C 90.089844 163.476562 94.050781 159.925781 98.472656 159.925781 " fill-opacity="1" fill-rule="nonzero"/><path fill="#745ff6" d="M 209.449219 253.789062 L 199.074219 252.414062 L 199.5 211.445312 L 210.347656 212.324219 L 210.242188 253.105469 C 210.242188 253.535156 209.878906 253.847656 209.449219 253.789062 " fill-opacity="1" fill-rule="nonzero"/><path fill="#745ff6" d="M 209.441406 246.8125 L 171.976562 246.742188 C 171.171875 246.742188 170.476562 247.21875 170.207031 247.964844 L 157.953125 281.773438 L 164.53125 284.550781 L 176.910156 255.078125 C 177.234375 254.308594 177.976562 253.824219 178.832031 253.824219 L 209.398438 253.824219 C 209.699219 253.824219 209.925781 253.578125 209.90625 253.277344 L 209.441406 246.8125 " fill-opacity="1" fill-rule="nonzero"/><path fill="#745ff6" d="M 164.8125 284.164062 C 164.414062 285.148438 163.273438 285.566406 162.253906 285.101562 L 151.007812 279.941406 C 149.949219 279.457031 149.421875 278.234375 149.828125 277.207031 L 150.421875 275.707031 C 150.871094 274.570312 152.183594 274.082031 153.355469 274.617188 L 166.359375 280.101562 L 164.8125 284.164062 " fill-opacity="1" fill-rule="nonzero"/><path fill="#745ff6" d="M 201.78125 236.15625 L 175.1875 236.15625 C 174.710938 236.15625 174.292969 235.765625 174.257812 235.285156 L 174.007812 231.769531 C 173.972656 231.289062 174.332031 230.902344 174.8125 230.902344 L 201.40625 230.902344 C 201.886719 230.902344 202.300781 231.289062 202.335938 231.769531 L 202.585938 235.285156 C 202.621094 235.765625 202.261719 236.15625 201.78125 236.15625 " fill-opacity="1" fill-rule="nonzero"/><path fill="#745ff6" d="M 212.410156 201.074219 C 213.296875 205.328125 210.621094 209.25 206.433594 209.839844 C 202.242188 210.425781 198.125 207.453125 197.234375 203.199219 C 196.347656 198.945312 199.023438 195.023438 203.214844 194.4375 C 207.40625 193.851562 211.523438 196.824219 212.410156 201.074219 " fill-opacity="1" fill-rule="nonzero"/><path fill="#745ff6" d="M 222.828125 244.039062 C 221.503906 241.984375 219.511719 239.367188 216.800781 237.03125 C 216.207031 236.519531 215.222656 235.59375 213.648438 234.550781 L 213.671875 243.019531 C 217.753906 246.949219 220.097656 252.589844 220.480469 257.976562 C 221.320312 269.691406 212.632812 279.21875 200.980469 279.21875 C 193.84375 279.21875 186.78125 275.40625 182.300781 269.570312 C 181.304688 268.273438 180.496094 266.898438 179.800781 265.4375 C 179.800781 265.4375 178.269531 262.785156 177.976562 259.183594 L 174.285156 267.34375 C 175.144531 269.191406 176.03125 270.828125 176.976562 271.945312 C 182.464844 280.183594 191.609375 285.140625 201.148438 285.140625 C 207.339844 285.140625 213.480469 283.210938 218.019531 279.300781 C 222.492188 275.441406 225.863281 269.667969 226.777344 263.675781 C 227.828125 256.742188 226.757812 250.160156 222.828125 244.039062 " fill-opacity="1" fill-rule="nonzero"/><path fill="#000000" d="M 117.269531 344.128906 L 48.242188 344.128906 C 45.265625 344.128906 43.0625 341.710938 43.320312 338.730469 L 54.996094 203.703125 C 55.253906 200.722656 57.871094 198.304688 60.847656 198.304688 L 126.382812 197.535156 C 133.90625 197.535156 135.054688 200.722656 134.796875 203.703125 L 123.125 338.730469 C 122.863281 341.710938 120.246094 344.128906 117.269531 344.128906 " fill-opacity="1" fill-rule="nonzero"/><path fill="#ffffff" d="M 113.117188 344.128906 L 44.085938 344.128906 C 41.113281 344.128906 38.910156 341.703125 39.167969 338.714844 L 50.824219 203.257812 C 51.082031 200.265625 53.699219 197.839844 56.675781 197.839844 L 125.703125 197.839844 C 128.679688 197.839844 130.882812 200.265625 130.625 203.257812 L 118.96875 338.714844 C 118.710938 341.703125 116.089844 344.128906 113.117188 344.128906 " fill-opacity="1" fill-rule="nonzero"/><path fill="#000000" d="M 56.675781 198.484375 C 54.03125 198.484375 51.691406 200.648438 51.460938 203.3125 L 39.804688 338.769531 C 39.695312 340.042969 40.085938 341.238281 40.902344 342.128906 C 41.707031 343.003906 42.839844 343.488281 44.085938 343.488281 L 113.117188 343.488281 C 115.761719 343.488281 118.101562 341.320312 118.328125 338.65625 L 129.988281 203.203125 C 130.09375 201.925781 129.707031 200.734375 128.886719 199.84375 C 128.082031 198.964844 126.953125 198.484375 125.703125 198.484375 Z M 113.117188 344.769531 L 44.085938 344.769531 C 42.476562 344.769531 41.011719 344.140625 39.960938 342.996094 C 38.894531 341.835938 38.386719 340.296875 38.527344 338.65625 L 50.183594 203.203125 C 50.46875 199.894531 53.382812 197.199219 56.675781 197.199219 L 125.703125 197.199219 C 127.316406 197.199219 128.78125 197.832031 129.832031 198.976562 C 130.898438 200.136719 131.40625 201.675781 131.265625 203.3125 L 119.609375 338.769531 C 119.324219 342.078125 116.410156 344.769531 113.117188 344.769531 " fill-opacity="1" fill-rule="nonzero"/><path fill="#d2ccf6" d="M 90.597656 204.730469 C 89.484375 204.730469 88.65625 203.824219 88.753906 202.703125 C 88.851562 201.582031 89.832031 200.671875 90.945312 200.671875 C 92.0625 200.671875 92.886719 201.582031 92.789062 202.703125 C 92.691406 203.824219 91.710938 204.730469 90.597656 204.730469 " fill-opacity="1" fill-rule="nonzero"/><path fill="#745ff6" d="M 43.109375 338.898438 L 54.238281 209.5625 C 54.296875 208.871094 54.902344 208.3125 55.589844 208.3125 L 124.988281 208.3125 C 125.675781 208.3125 126.183594 208.871094 126.125 209.5625 L 114.996094 338.898438 C 114.9375 339.589844 114.332031 340.148438 113.644531 340.148438 L 44.242188 340.148438 C 43.558594 340.148438 43.046875 339.589844 43.109375 338.898438 " fill-opacity="1" fill-rule="nonzero"/><path fill="#ffffff" d="M 59.378906 283.375 L 69.160156 283.375 L 87.433594 292.285156 C 88.308594 292.699219 89.277344 292.035156 89.289062 291.046875 L 89.570312 261.230469 C 89.582031 260.210938 88.691406 259.503906 87.75 259.855469 L 69.546875 267.320312 L 59.28125 267.320312 C 58.414062 267.320312 57.707031 267.546875 57.695312 268.4375 L 57.554688 281.726562 C 57.542969 282.769531 58.359375 283.375 59.378906 283.375 " fill-opacity="1" fill-rule="nonzero"/><path fill="#ffffff" d="M 94.199219 287.640625 C 94.238281 287.183594 94.410156 286.734375 94.722656 286.375 C 97.605469 283.066406 99.230469 279.421875 99.550781 275.539062 C 99.871094 271.65625 98.863281 267.8125 96.554688 264.113281 C 95.996094 263.214844 96.195312 261.953125 97 261.292969 C 97.800781 260.632812 98.90625 260.824219 99.46875 261.71875 C 102.226562 266.144531 103.476562 271.015625 103.082031 275.804688 C 102.6875 280.597656 100.65625 285.21875 97.207031 289.175781 C 96.507812 289.976562 95.382812 290 94.699219 289.226562 C 94.316406 288.796875 94.152344 288.210938 94.199219 287.640625 " fill-opacity="1" fill-rule="nonzero"/><path fill="#ffffff" d="M 100.183594 292.785156 C 100.21875 292.316406 100.398438 291.863281 100.714844 291.503906 C 104.863281 286.832031 107.195312 281.667969 107.648438 276.152344 C 108.101562 270.632812 106.644531 265.183594 103.3125 259.945312 C 102.75 259.054688 102.9375 257.792969 103.734375 257.125 C 104.535156 256.453125 105.640625 256.632812 106.207031 257.523438 C 108.0625 260.441406 109.429688 263.496094 110.269531 266.597656 C 111.144531 269.832031 111.449219 273.136719 111.179688 276.417969 C 110.910156 279.695312 110.066406 282.914062 108.671875 285.976562 C 107.335938 288.917969 105.488281 291.730469 103.179688 294.332031 C 102.472656 295.125 101.351562 295.136719 100.671875 294.355469 C 100.296875 293.925781 100.136719 293.347656 100.183594 292.785156 " fill-opacity="1" fill-rule="nonzero"/><path fill="#ffffff" d="M 82.511719 252.230469 L 78.570312 250.804688 L 62.421875 296.265625 L 66.363281 297.691406 L 82.511719 252.230469 " fill-opacity="1" fill-rule="nonzero"/><path fill="#745ff6" d="M 63.242188 295.878906 L 65.976562 296.871094 L 81.691406 252.617188 L 78.957031 251.625 Z M 66.363281 298.332031 C 66.289062 298.332031 66.214844 298.320312 66.144531 298.296875 L 62.203125 296.867188 C 61.875 296.75 61.699219 296.382812 61.820312 296.050781 L 77.964844 250.589844 C 78.023438 250.425781 78.140625 250.296875 78.296875 250.222656 C 78.449219 250.152344 78.628906 250.140625 78.789062 250.199219 L 82.726562 251.628906 C 83.058594 251.746094 83.230469 252.113281 83.113281 252.445312 L 66.96875 297.90625 C 66.910156 298.070312 66.792969 298.199219 66.636719 298.273438 C 66.550781 298.316406 66.457031 298.332031 66.363281 298.332031 " fill-opacity="1" fill-rule="nonzero"/><path fill="#5236ff" d="M 299.984375 257.785156 L 268.253906 257.785156 C 266.003906 257.785156 264.179688 259.527344 264.179688 261.671875 L 264.179688 275.824219 L 269.59375 276.238281 L 270.007812 267.3125 C 270.007812 265.550781 269.757812 263.058594 271.605469 263.058594 L 299.984375 263.058594 L 299.984375 257.785156 " fill-opacity="1" fill-rule="nonzero"/><path fill="#000000" d="M 264.824219 275.230469 L 268.984375 275.546875 L 269.371094 267.28125 C 269.367188 267.128906 269.367188 266.9375 269.363281 266.742188 C 269.34375 265.378906 269.320312 263.832031 270.15625 262.984375 C 270.527344 262.605469 271.015625 262.414062 271.605469 262.414062 L 299.34375 262.414062 L 299.34375 258.425781 L 268.253906 258.425781 C 266.363281 258.425781 264.824219 259.882812 264.824219 261.671875 Z M 270.203125 276.929688 L 263.539062 276.417969 L 263.539062 261.671875 C 263.539062 259.175781 265.65625 257.140625 268.253906 257.140625 L 300.625 257.140625 L 300.625 263.699219 L 271.605469 263.699219 C 271.289062 263.699219 271.148438 263.804688 271.070312 263.882812 C 270.613281 264.351562 270.632812 265.664062 270.644531 266.722656 C 270.648438 266.925781 270.652344 267.121094 270.652344 267.3125 L 270.203125 276.929688 " fill-opacity="1" fill-rule="nonzero"/><path fill="#5236ff" d="M 256.050781 313.539062 C 256.050781 291.242188 266.996094 273.167969 280.496094 273.167969 C 293.996094 273.167969 304.941406 291.242188 304.941406 313.539062 C 304.941406 335.835938 293.996094 353.910156 280.496094 353.910156 C 266.996094 353.910156 256.050781 335.835938 256.050781 313.539062 Z M 253.347656 313.539062 C 253.347656 338.300781 265.503906 358.375 280.496094 358.375 C 295.488281 358.375 307.640625 338.300781 307.640625 313.539062 C 307.640625 288.777344 295.488281 268.707031 280.496094 268.707031 C 265.503906 268.707031 253.347656 288.777344 253.347656 313.539062 " fill-opacity="1" fill-rule="nonzero"/><path fill="#5236ff" d="M 299.429688 301.9375 L 344.113281 301.9375 L 343.558594 229.058594 C 335.511719 212.269531 301.785156 218.738281 299.429688 229.199219 L 299.429688 301.9375 " fill-opacity="1" fill-rule="nonzero"/><path fill="#745ff6" d="M 289.175781 302.332031 L 344.300781 302.332031 L 344.300781 297.785156 C 344.300781 296.785156 343.492188 295.972656 342.492188 295.972656 L 290.984375 295.972656 C 289.984375 295.972656 289.175781 296.785156 289.175781 297.785156 L 289.175781 302.332031 " fill-opacity="1" fill-rule="nonzero"/><path fill="#000000" d="M 289.816406 301.691406 L 343.660156 301.691406 L 343.660156 299.945312 C 343.660156 298.109375 342.167969 296.617188 340.332031 296.617188 L 293.144531 296.617188 C 291.308594 296.617188 289.816406 298.109375 289.816406 299.945312 Z M 344.300781 302.972656 L 289.175781 302.972656 C 288.820312 302.972656 288.535156 302.6875 288.535156 302.332031 L 288.535156 299.945312 C 288.535156 297.402344 290.601562 295.332031 293.144531 295.332031 L 340.332031 295.332031 C 342.875 295.332031 344.941406 297.402344 344.941406 299.945312 L 344.941406 302.332031 C 344.941406 302.6875 344.65625 302.972656 344.300781 302.972656 " fill-opacity="1" fill-rule="nonzero"/><path fill="#5236ff" d="M 350.539062 215.761719 C 353.835938 214.875 359.097656 215.582031 363.433594 216.59375 C 365.417969 216.59375 367.03125 214.984375 367.03125 212.996094 C 367.03125 211.011719 365.417969 209.402344 363.433594 209.402344 L 350.15625 209.402344 C 349.335938 209.402344 348.671875 210.066406 348.671875 210.882812 L 348.671875 214.332031 C 348.671875 215.304688 349.59375 216.011719 350.539062 215.761719 " fill-opacity="1" fill-rule="nonzero"/><path fill="#000000" d="M 350.539062 215.757812 L 350.542969 215.757812 Z M 354.210938 214.714844 C 357.53125 214.714844 361.195312 215.414062 363.503906 215.949219 C 365.101562 215.914062 366.390625 214.601562 366.390625 212.996094 C 366.390625 211.367188 365.0625 210.042969 363.4375 210.042969 L 350.15625 210.042969 C 349.691406 210.042969 349.3125 210.417969 349.3125 210.882812 L 349.3125 214.328125 C 349.3125 214.59375 349.433594 214.835938 349.640625 214.996094 C 349.851562 215.15625 350.117188 215.207031 350.375 215.140625 C 351.511719 214.835938 352.832031 214.714844 354.210938 214.714844 Z M 363.4375 217.234375 C 363.382812 217.234375 363.335938 217.230469 363.289062 217.21875 C 357.949219 215.972656 353.359375 215.664062 350.707031 216.378906 C 350.0625 216.550781 349.390625 216.417969 348.863281 216.011719 C 348.332031 215.609375 348.03125 214.992188 348.03125 214.328125 L 348.03125 210.882812 C 348.03125 209.710938 348.984375 208.757812 350.15625 208.757812 L 363.4375 208.757812 C 365.769531 208.757812 367.671875 210.660156 367.671875 212.996094 C 367.671875 215.335938 365.769531 217.234375 363.4375 217.234375 " fill-opacity="1" fill-rule="nonzero"/><path fill="#000000" d="M 344.390625 303.105469 L 290.128906 303.105469 C 289.777344 303.105469 289.488281 302.820312 289.488281 302.464844 C 289.488281 302.109375 289.777344 301.824219 290.128906 301.824219 L 343.738281 301.824219 L 342.683594 218.097656 C 342.683594 214.445312 345.648438 211.484375 349.289062 211.484375 C 349.644531 211.484375 349.929688 211.769531 349.929688 212.125 C 349.929688 212.480469 349.644531 212.765625 349.289062 212.765625 C 346.355469 212.765625 343.964844 215.15625 343.964844 218.089844 L 345.03125 302.457031 C 345.03125 302.628906 344.964844 302.792969 344.847656 302.917969 C 344.726562 303.039062 344.5625 303.105469 344.390625 303.105469 " fill-opacity="1" fill-rule="nonzero"/><path fill="#745ff6" d="M 230.222656 357.257812 L 285.347656 357.257812 L 285.347656 352.710938 C 285.347656 351.710938 284.535156 350.902344 283.535156 350.902344 L 232.03125 350.902344 C 231.03125 350.902344 230.222656 351.710938 230.222656 352.710938 L 230.222656 357.257812 " fill-opacity="1" fill-rule="nonzero"/><path fill="#000000" d="M 230.863281 356.617188 L 284.703125 356.617188 L 284.703125 354.871094 C 284.703125 353.039062 283.210938 351.542969 281.375 351.542969 L 234.191406 351.542969 C 232.355469 351.542969 230.863281 353.039062 230.863281 354.871094 Z M 285.347656 357.898438 L 230.222656 357.898438 C 229.867188 357.898438 229.578125 357.613281 229.578125 357.257812 L 229.578125 354.871094 C 229.578125 352.328125 231.648438 350.261719 234.191406 350.261719 L 281.375 350.261719 C 283.917969 350.261719 285.988281 352.328125 285.988281 354.871094 L 285.988281 357.257812 C 285.988281 357.613281 285.703125 357.898438 285.347656 357.898438 " fill-opacity="1" fill-rule="nonzero"/><path fill="#000000" d="M 250.003906 333.84375 C 250.003906 333.84375 237.488281 312.617188 246.710938 284.785156 C 255.9375 256.953125 302.679688 267.605469 302.679688 267.605469 L 250.003906 333.84375 " fill-opacity="1" fill-rule="nonzero"/><path fill="#ffffff" d="M 260.046875 341.476562 C 260.046875 341.476562 261.679688 346.292969 261.648438 349.957031 C 261.636719 351.433594 260.441406 352.625 258.960938 352.667969 C 253.8125 352.8125 240.96875 353.113281 234.535156 352.742188 C 233.609375 352.6875 233.074219 351.773438 233.546875 351.054688 C 235.328125 348.34375 240.164062 342.773438 250.914062 340.238281 L 260.046875 341.476562 " fill-opacity="1" fill-rule="nonzero"/><path fill="#000000" d="M 250.945312 340.890625 C 240.679688 343.339844 235.976562 348.527344 234.082031 351.410156 C 233.976562 351.566406 234.011719 351.707031 234.058594 351.796875 C 234.144531 351.976562 234.339844 352.089844 234.574219 352.101562 C 240.964844 352.46875 253.746094 352.171875 258.945312 352.027344 C 260.09375 351.996094 261 351.082031 261.007812 349.949219 C 261.035156 347.011719 259.933594 343.246094 259.5625 342.058594 Z M 243.113281 353.558594 C 239.855469 353.558594 236.777344 353.511719 234.5 353.382812 C 233.8125 353.34375 233.203125 352.957031 232.910156 352.375 C 232.640625 351.835938 232.675781 351.210938 233.011719 350.703125 C 235.015625 347.652344 239.984375 342.15625 250.765625 339.617188 C 250.84375 339.597656 250.921875 339.59375 251 339.605469 L 260.132812 340.839844 C 260.375 340.871094 260.578125 341.039062 260.65625 341.269531 C 260.722656 341.472656 262.320312 346.234375 262.292969 349.960938 C 262.277344 351.785156 260.820312 353.257812 258.980469 353.308594 C 255.613281 353.402344 249.0625 353.558594 243.113281 353.558594 " fill-opacity="1" fill-rule="nonzero"/><path fill="#000000" d="M 333.570312 257.347656 C 333.570312 257.347656 348.917969 292.945312 323.441406 295.675781 C 297.960938 298.402344 286.300781 295.957031 286.300781 295.957031 L 264.777344 343.109375 C 264.777344 343.109375 255.261719 343.972656 247.265625 338.867188 C 247.265625 338.867188 252.742188 301.738281 260.726562 282.816406 C 268.710938 263.890625 310.328125 264.429688 310.328125 264.429688 L 333.570312 257.347656 " fill-opacity="1" fill-rule="nonzero"/><path fill="#d2ccf6" d="M 246.894531 340.296875 C 246.859375 340.296875 246.828125 340.292969 246.789062 340.289062 C 246.441406 340.230469 246.207031 339.902344 246.261719 339.550781 C 246.527344 337.933594 252.878906 299.765625 260.136719 282.566406 C 262.875 276.070312 269.6875 271.128906 280.375 267.871094 C 280.714844 267.769531 281.074219 267.960938 281.171875 268.296875 C 281.28125 268.636719 281.085938 268.996094 280.75 269.097656 C 270.441406 272.238281 263.902344 276.9375 261.316406 283.066406 C 254.121094 300.121094 247.792969 338.148438 247.527344 339.761719 C 247.476562 340.074219 247.203125 340.296875 246.894531 340.296875 " fill-opacity="1" fill-rule="nonzero"/><path fill="#000000" d="M 247.96875 347.175781 C 247.777344 347.175781 247.59375 347.082031 247.476562 346.917969 L 244.457031 342.5 C 244.273438 342.226562 244.34375 341.855469 244.613281 341.671875 C 244.886719 341.484375 245.257812 341.554688 245.441406 341.828125 L 248.460938 346.242188 C 248.644531 346.515625 248.574219 346.886719 248.304688 347.070312 C 248.203125 347.140625 248.085938 347.175781 247.96875 347.175781 " fill-opacity="1" fill-rule="nonzero"/><path fill="#000000" d="M 259.527344 350.683594 L 237.558594 350.683594 C 237.230469 350.683594 236.964844 350.417969 236.964844 350.089844 C 236.964844 349.761719 237.230469 349.492188 237.558594 349.492188 L 259.527344 349.492188 C 259.855469 349.492188 260.121094 349.761719 260.121094 350.089844 C 260.121094 350.417969 259.855469 350.683594 259.527344 350.683594 " fill-opacity="1" fill-rule="nonzero"/><path fill="#000000" d="M 244.152344 348.03125 C 243.953125 348.03125 243.757812 347.929688 243.644531 347.75 L 241.296875 344.007812 C 241.125 343.730469 241.207031 343.363281 241.488281 343.1875 C 241.765625 343.011719 242.132812 343.097656 242.308594 343.375 L 244.652344 347.117188 C 244.828125 347.398438 244.746094 347.765625 244.46875 347.9375 C 244.367188 348 244.257812 348.03125 244.152344 348.03125 " fill-opacity="1" fill-rule="nonzero"/><path fill="#5236ff" d="M 321.078125 313.539062 C 321.078125 291.242188 332.023438 273.167969 345.523438 273.167969 C 359.027344 273.167969 369.96875 291.242188 369.96875 313.539062 C 369.96875 335.835938 359.027344 353.910156 345.523438 353.910156 C 332.023438 353.910156 321.078125 335.835938 321.078125 313.539062 Z M 318.375 313.539062 C 318.375 338.300781 330.53125 358.375 345.523438 358.375 C 360.515625 358.375 372.671875 338.300781 372.671875 313.539062 C 372.671875 288.777344 360.515625 268.707031 345.523438 268.707031 C 330.53125 268.707031 318.375 288.777344 318.375 313.539062 " fill-opacity="1" fill-rule="nonzero"/><path fill="#000000" d="M 345.523438 273.808594 C 332.398438 273.808594 321.71875 291.632812 321.71875 313.539062 C 321.71875 335.449219 332.398438 353.269531 345.523438 353.269531 C 358.648438 353.269531 369.328125 335.449219 369.328125 313.539062 C 369.328125 291.632812 358.648438 273.808594 345.523438 273.808594 Z M 345.523438 354.554688 C 331.691406 354.554688 320.433594 336.15625 320.433594 313.539062 C 320.433594 290.925781 331.691406 272.527344 345.523438 272.527344 C 359.355469 272.527344 370.609375 290.925781 370.609375 313.539062 C 370.609375 336.15625 359.355469 354.554688 345.523438 354.554688 Z M 345.523438 269.347656 C 330.910156 269.347656 319.019531 289.171875 319.019531 313.539062 C 319.019531 337.90625 330.910156 357.730469 345.523438 357.730469 C 360.136719 357.730469 372.027344 337.90625 372.027344 313.539062 C 372.027344 289.171875 360.136719 269.347656 345.523438 269.347656 Z M 345.523438 359.015625 C 330.199219 359.015625 317.734375 338.613281 317.734375 313.539062 C 317.734375 288.464844 330.199219 268.066406 345.523438 268.066406 C 360.84375 268.066406 373.3125 288.464844 373.3125 313.539062 C 373.3125 338.613281 360.84375 359.015625 345.523438 359.015625 " fill-opacity="1" fill-rule="nonzero"/><path fill="#5236ff" d="M 341.632812 313.539062 C 341.632812 317.089844 343.375 319.96875 345.523438 319.96875 C 347.671875 319.96875 349.414062 317.089844 349.414062 313.539062 C 349.414062 309.988281 347.671875 307.113281 345.523438 307.113281 C 343.375 307.113281 341.632812 309.988281 341.632812 313.539062 " fill-opacity="1" fill-rule="nonzero"/><path fill="#000000" d="M 345.523438 307.753906 C 343.765625 307.753906 342.273438 310.402344 342.273438 313.539062 C 342.273438 316.675781 343.765625 319.324219 345.523438 319.324219 C 347.285156 319.324219 348.773438 316.675781 348.773438 313.539062 C 348.773438 310.402344 347.285156 307.753906 345.523438 307.753906 Z M 345.523438 320.605469 C 342.984375 320.605469 340.992188 317.503906 340.992188 313.539062 C 340.992188 309.578125 342.984375 306.472656 345.523438 306.472656 C 348.066406 306.472656 350.058594 309.578125 350.058594 313.539062 C 350.058594 317.503906 348.066406 320.605469 345.523438 320.605469 " fill-opacity="1" fill-rule="nonzero"/><path fill="#ffffff" d="M 283.375 244.488281 C 283.375 244.488281 300.777344 214.15625 303.171875 212.699219 C 305.566406 211.242188 303.171875 226.597656 303.171875 226.597656 L 290.175781 248.289062 L 283.375 244.488281 " fill-opacity="1" fill-rule="nonzero"/><path fill="#000000" d="M 284.253906 244.246094 L 289.945312 247.425781 L 302.554688 226.375 C 303.402344 220.917969 303.921875 214.65625 303.386719 213.347656 C 301.335938 215.160156 290.808594 232.839844 284.253906 244.246094 Z M 290.175781 248.933594 C 290.070312 248.933594 289.960938 248.90625 289.863281 248.851562 L 283.058594 245.050781 C 282.910156 244.96875 282.800781 244.828125 282.753906 244.660156 C 282.707031 244.496094 282.730469 244.320312 282.816406 244.171875 C 284.605469 241.050781 300.371094 213.652344 302.835938 212.152344 C 303.242188 211.90625 303.679688 211.898438 304.027344 212.132812 C 304.683594 212.570312 305.210938 213.839844 304.628906 220.070312 C 304.316406 223.410156 303.808594 226.664062 303.804688 226.695312 C 303.792969 226.777344 303.765625 226.855469 303.722656 226.925781 L 290.726562 248.621094 C 290.605469 248.820312 290.390625 248.933594 290.175781 248.933594 " fill-opacity="1" fill-rule="nonzero"/><path fill="#745ff6" d="M 328.867188 212.085938 C 328.867188 212.085938 316.929688 206.230469 303.171875 212.699219 C 303.171875 212.699219 297.773438 225.019531 298.597656 235.859375 C 299.984375 254.175781 297.957031 263.496094 297.488281 265.832031 C 296.65625 269.964844 326.628906 265 333.289062 263.890625 C 339.445312 262.863281 331.703125 250.179688 331.085938 245.269531 C 330.46875 240.363281 328.867188 212.085938 328.867188 212.085938 " fill-opacity="1" fill-rule="nonzero"/><path fill="#ffffff" d="M 327.875 243.996094 L 310.835938 233.835938 L 301.578125 236.933594 C 301.578125 236.933594 302.390625 237.828125 303.707031 237.394531 C 305.023438 236.960938 306.878906 237.078125 308.195312 238.15625 C 309.511719 239.234375 311.304688 238.15625 311.304688 238.15625 C 311.304688 238.15625 322.136719 254.203125 331.683594 254.53125 C 339.449219 254.800781 335.207031 227.535156 333.347656 217.324219 C 332.917969 214.976562 331.292969 213.027344 329.0625 212.175781 L 326.207031 211.085938 L 327.875 243.996094 " fill-opacity="1" fill-rule="nonzero"/><path fill="#000000" d="M 311.304688 237.515625 C 311.507812 237.515625 311.710938 237.613281 311.832031 237.796875 C 311.941406 237.957031 322.597656 253.574219 331.707031 253.890625 C 332.429688 253.917969 333.03125 253.640625 333.546875 253.050781 C 336.46875 249.664062 336.160156 236.351562 332.714844 217.441406 C 332.332031 215.328125 330.84375 213.539062 328.835938 212.773438 L 326.898438 212.035156 L 328.519531 243.964844 C 328.53125 244.199219 328.410156 244.421875 328.207031 244.542969 C 328.007812 244.667969 327.753906 244.667969 327.550781 244.546875 L 310.757812 234.539062 L 304.78125 236.539062 C 306.03125 236.445312 307.476562 236.738281 308.601562 237.660156 C 309.546875 238.433594 310.960938 237.613281 310.976562 237.605469 C 311.078125 237.542969 311.191406 237.515625 311.304688 237.515625 Z M 331.800781 255.175781 C 331.753906 255.175781 331.710938 255.175781 331.664062 255.171875 C 322.707031 254.863281 312.976562 241.660156 311.085938 238.96875 C 310.332031 239.269531 308.949219 239.601562 307.792969 238.652344 C 306.628906 237.703125 305.003906 237.640625 303.90625 238.003906 C 302.21875 238.558594 301.148438 237.414062 301.105469 237.367188 C 300.957031 237.207031 300.90625 236.984375 300.957031 236.773438 C 301.011719 236.5625 301.167969 236.398438 301.375 236.328125 L 310.632812 233.230469 C 310.804688 233.167969 311 233.191406 311.164062 233.285156 L 327.175781 242.828125 L 325.566406 211.117188 C 325.554688 210.902344 325.652344 210.695312 325.828125 210.566406 C 326.003906 210.4375 326.234375 210.410156 326.433594 210.484375 L 329.292969 211.578125 C 331.71875 212.503906 333.515625 214.660156 333.976562 217.210938 C 336.074219 228.714844 338.929688 248.777344 334.515625 253.886719 C 333.777344 254.742188 332.863281 255.175781 331.800781 255.175781 " fill-opacity="1" fill-rule="nonzero"/><path fill="#000000" d="M 283.941406 247.730469 L 311.574219 248.84375 C 312.507812 248.84375 313.082031 247.820312 312.59375 247.023438 L 298.652344 224.335938 C 298.3125 223.777344 297.707031 223.4375 297.050781 223.4375 L 269.121094 224.074219 L 283.941406 247.730469 " fill-opacity="1" fill-rule="nonzero"/><path fill="#ffffff" d="M 281.953125 248.847656 L 311.777344 248.847656 L 296.167969 223.4375 L 266.34375 223.4375 L 281.953125 248.847656 " fill-opacity="1" fill-rule="nonzero"/><path fill="#000000" d="M 282.3125 248.203125 L 310.628906 248.203125 L 295.8125 224.078125 L 267.492188 224.078125 Z M 312.921875 249.484375 L 281.59375 249.484375 L 265.199219 222.796875 L 296.527344 222.796875 L 312.921875 249.484375 " fill-opacity="1" fill-rule="nonzero"/><path fill="#ffffff" d="M 279.777344 247.839844 C 279.777344 247.839844 280.285156 245.195312 279.777344 243.433594 C 279.277344 241.667969 276.148438 236.425781 275.253906 235.324219 C 274.355469 234.226562 273.601562 245.949219 279.777344 247.839844 " fill-opacity="1" fill-rule="nonzero"/><path fill="#000000" d="M 275.355469 236.578125 C 275.210938 238.003906 275.289062 240.832031 276.28125 243.339844 C 276.984375 245.109375 277.984375 246.320312 279.261719 246.949219 C 279.363281 246.078125 279.460938 244.652344 279.164062 243.609375 C 278.769531 242.234375 276.589844 238.4375 275.355469 236.578125 Z M 279.777344 248.480469 C 279.714844 248.480469 279.65625 248.472656 279.59375 248.453125 C 275.671875 247.253906 274.144531 242.425781 274.019531 238.304688 C 273.957031 236.121094 274.242188 234.894531 274.875 234.660156 C 275.1875 234.542969 275.523438 234.640625 275.75 234.921875 C 276.734375 236.128906 279.867188 241.410156 280.394531 243.257812 C 280.9375 245.144531 280.429688 247.847656 280.410156 247.960938 C 280.375 248.140625 280.265625 248.296875 280.109375 248.390625 C 280.011719 248.449219 279.894531 248.480469 279.777344 248.480469 " fill-opacity="1" fill-rule="nonzero"/><path fill="#000000" d="M 308.773438 198.308594 C 310.765625 201.4375 315.191406 203.128906 318.777344 202.8125 C 323.847656 202.367188 324.480469 198.15625 328.5 198.320312 C 332.839844 198.5 333.871094 203.476562 338.046875 204.035156 C 340.429688 204.351562 343.914062 203.246094 348.765625 196.972656 C 349.128906 197.585938 351.796875 201.90625 356.859375 202.566406 C 362.25 203.269531 366.800781 199.359375 368.574219 195.34375 C 370.308594 191.429688 370.113281 185.824219 367.507812 184.253906 C 365.191406 182.863281 362.574219 185.617188 358.796875 184.292969 C 355.816406 183.25 356.261719 180.652344 354.117188 180.074219 C 349.570312 178.839844 345.371094 189.035156 340.230469 188.101562 C 337.183594 187.550781 337.632812 183.785156 333.871094 182.414062 C 328.953125 180.625 325.773438 186.191406 320.132812 184.746094 C 316.050781 183.699219 316.308594 180.417969 311.996094 179.359375 C 307.945312 178.367188 303.273438 180.164062 300.453125 183.277344 C 296.375 187.78125 296.140625 195.070312 298.207031 196.203125 C 300.242188 197.320312 304.007812 192.214844 306.597656 193.625 C 307.976562 194.378906 307.347656 196.074219 308.773438 198.308594 " fill-opacity="1" fill-rule="nonzero"/><path fill="#000000" d="M 308.773438 181.410156 C 307.042969 180.007812 308.140625 175.867188 309.242188 173.632812 C 309.660156 172.796875 311.519531 169.050781 313.960938 169.199219 C 316.46875 169.34375 318.871094 173.558594 317.976562 176.894531 C 316.855469 181.0625 310.800781 183.054688 308.773438 181.410156 " fill-opacity="1" fill-rule="nonzero"/><path fill="#ffffff" d="M 308.8125 203.472656 C 308.046875 203.855469 307.113281 203.726562 306.503906 203.121094 C 305.789062 202.410156 305.214844 201.648438 304.746094 200.882812 L 303.984375 200.597656 L 303.171875 196.933594 C 301.964844 193.839844 302.738281 191.816406 302.738281 191.816406 C 302.890625 190.109375 307.203125 189.089844 309.621094 192.382812 C 311.257812 194.617188 313.617188 192.382812 313.617188 192.382812 C 313.617188 192.382812 314.855469 189.050781 316.296875 191.097656 C 317.742188 193.148438 314.878906 196.75 314.878906 196.75 L 317.015625 205.863281 C 317.511719 207.964844 319.015625 209.6875 321.03125 210.460938 L 323.085938 211.25 C 323.085938 211.25 319.878906 221.765625 310.785156 221.570312 C 303.84375 221.421875 306.835938 212.042969 306.835938 212.042969 L 307.746094 211.640625 C 310.132812 210.589844 311.4375 207.992188 310.863281 205.453125 L 310.25 202.75 L 308.8125 203.472656 " fill-opacity="1" fill-rule="nonzero"/><path fill="#000000" d="M 307.371094 212.507812 C 307.082031 213.5625 306.171875 217.429688 307.679688 219.53125 C 308.328125 220.441406 309.347656 220.894531 310.800781 220.925781 C 318.109375 221.085938 321.464844 213.738281 322.273438 211.621094 L 320.804688 211.058594 C 318.585938 210.207031 316.933594 208.320312 316.394531 206.007812 L 314.253906 196.894531 C 314.210938 196.703125 314.253906 196.5 314.375 196.347656 C 315.089844 195.449219 316.730469 192.820312 315.773438 191.46875 C 315.558594 191.164062 315.394531 191.066406 315.3125 191.074219 C 315 191.113281 314.46875 191.929688 314.21875 192.605469 C 314.1875 192.695312 314.132812 192.777344 314.0625 192.847656 C 314.003906 192.898438 312.675781 194.144531 311.148438 194 C 310.34375 193.929688 309.65625 193.511719 309.105469 192.761719 C 307.824219 191.011719 305.882812 190.609375 304.527344 190.988281 C 303.878906 191.167969 303.410156 191.53125 303.375 191.871094 C 303.375 191.929688 303.359375 191.988281 303.335938 192.042969 C 303.332031 192.058594 302.683594 193.90625 303.773438 196.699219 C 303.785156 196.726562 303.792969 196.757812 303.800781 196.792969 L 304.539062 200.117188 L 304.972656 200.28125 C 305.109375 200.328125 305.222656 200.425781 305.296875 200.546875 C 305.769531 201.324219 306.328125 202.035156 306.960938 202.664062 C 307.367188 203.070312 307.996094 203.164062 308.527344 202.898438 L 309.96875 202.175781 C 310.140625 202.089844 310.347656 202.085938 310.527344 202.167969 C 310.707031 202.253906 310.835938 202.414062 310.878906 202.609375 L 311.492188 205.308594 C 312.132812 208.144531 310.667969 211.054688 308.007812 212.226562 Z M 311.03125 222.210938 C 310.949219 222.210938 310.859375 222.210938 310.773438 222.210938 C 308.914062 222.171875 307.519531 221.519531 306.632812 220.273438 C 304.515625 217.3125 306.15625 212.070312 306.226562 211.847656 C 306.28125 211.671875 306.410156 211.527344 306.582031 211.457031 L 307.492188 211.054688 C 309.589844 210.125 310.746094 207.828125 310.238281 205.589844 L 309.808594 203.691406 L 309.101562 204.046875 C 308.078125 204.558594 306.851562 204.367188 306.050781 203.574219 C 305.402344 202.925781 304.816406 202.195312 304.316406 201.402344 L 303.761719 201.195312 C 303.558594 201.121094 303.410156 200.945312 303.359375 200.734375 L 302.558594 197.117188 C 301.425781 194.179688 301.96875 192.117188 302.109375 191.671875 C 302.234375 190.808594 303.015625 190.082031 304.179688 189.753906 C 305.960938 189.257812 308.496094 189.761719 310.140625 192 C 310.46875 192.449219 310.832031 192.6875 311.257812 192.726562 C 311.957031 192.792969 312.734375 192.285156 313.078125 192 C 313.308594 191.433594 314.019531 189.949219 315.148438 189.800781 C 315.574219 189.75 316.214844 189.863281 316.824219 190.730469 C 318.296875 192.816406 316.238281 195.972656 315.570312 196.890625 L 317.644531 205.714844 C 318.089844 207.613281 319.441406 209.164062 321.261719 209.859375 L 323.316406 210.648438 C 323.632812 210.769531 323.800781 211.113281 323.699219 211.433594 C 323.667969 211.542969 320.304688 222.210938 311.03125 222.210938 " fill-opacity="1" fill-rule="nonzero"/><path fill="#000000" d="M 310.25 203.394531 C 310.015625 203.394531 309.785156 203.261719 309.675781 203.03125 C 309.519531 202.710938 309.648438 202.328125 309.96875 202.175781 C 312.066406 201.15625 311.691406 199.21875 311.6875 199.199219 C 311.613281 198.851562 311.835938 198.515625 312.183594 198.441406 C 312.53125 198.371094 312.871094 198.59375 312.941406 198.941406 C 313.152344 199.953125 312.917969 202.167969 310.53125 203.328125 C 310.441406 203.375 310.34375 203.394531 310.25 203.394531 " fill-opacity="1" fill-rule="nonzero"/><path fill="#d2ccf6" d="M 297.960938 300.894531 C 297.609375 300.894531 297.320312 300.609375 297.320312 300.253906 L 297.320312 268.382812 C 297.320312 264.460938 300.511719 261.273438 304.429688 261.273438 L 344.300781 261.273438 C 344.65625 261.273438 344.941406 261.5625 344.941406 261.914062 C 344.941406 262.269531 344.65625 262.554688 344.300781 262.554688 L 304.429688 262.554688 C 301.21875 262.554688 298.605469 265.171875 298.605469 268.382812 L 298.605469 300.253906 C 298.605469 300.609375 298.316406 300.894531 297.960938 300.894531 " fill-opacity="1" fill-rule="nonzero"/><path fill="#5236ff" d="M 294.125 343.128906 L 298.269531 343.136719 L 298.324219 269.816406 C 298.332031 266.628906 300.355469 264.050781 302.839844 264.054688 L 344.019531 263.519531 L 343.835938 258.617188 L 302.382812 258.742188 C 297.867188 258.734375 294.191406 263.417969 294.179688 269.207031 L 294.125 343.128906 " fill-opacity="1" fill-rule="nonzero"/><path fill="#000000" d="M 294.769531 342.488281 L 297.628906 342.496094 L 297.683594 269.816406 C 297.695312 266.28125 300 263.410156 302.835938 263.410156 C 302.835938 263.410156 302.839844 263.410156 302.84375 263.410156 L 343.355469 262.886719 L 343.21875 259.257812 L 302.386719 259.378906 C 302.382812 259.378906 302.378906 259.378906 302.375 259.378906 C 298.21875 259.378906 294.835938 263.789062 294.824219 269.210938 Z M 298.910156 343.777344 L 293.484375 343.769531 L 293.542969 269.207031 C 293.550781 263.078125 297.511719 258.097656 302.371094 258.097656 C 302.378906 258.097656 302.378906 258.097656 302.382812 258.097656 L 344.453125 257.972656 L 344.6875 264.152344 L 302.851562 264.695312 C 302.851562 264.695312 302.847656 264.695312 302.847656 264.695312 C 300.710938 264.695312 298.972656 266.992188 298.96875 269.816406 L 298.910156 343.777344 " fill-opacity="1" fill-rule="nonzero"/><path fill="#5236ff" d="M 289.488281 353.40625 C 289.488281 358.800781 292.492188 363.359375 296.050781 363.359375 C 299.609375 363.359375 302.613281 358.800781 302.613281 353.40625 C 302.613281 348.011719 299.609375 343.453125 296.050781 343.453125 C 292.492188 343.453125 289.488281 348.011719 289.488281 353.40625 Z M 284.71875 353.40625 C 284.71875 345.414062 289.695312 339.152344 296.050781 339.152344 C 302.410156 339.152344 307.386719 345.414062 307.386719 353.40625 C 307.386719 361.402344 302.410156 367.664062 296.050781 367.664062 C 289.695312 367.664062 284.71875 361.402344 284.71875 353.40625 " fill-opacity="1" fill-rule="nonzero"/><path fill="#000000" d="M 296.054688 344.09375 C 292.84375 344.09375 290.132812 348.359375 290.132812 353.40625 C 290.132812 358.453125 292.84375 362.71875 296.054688 362.71875 C 299.261719 362.71875 301.972656 358.453125 301.972656 353.40625 C 301.972656 348.359375 299.261719 344.09375 296.054688 344.09375 Z M 296.054688 364 C 292.148438 364 288.847656 359.148438 288.847656 353.40625 C 288.847656 347.664062 292.148438 342.8125 296.054688 342.8125 C 299.957031 342.8125 303.257812 347.664062 303.257812 353.40625 C 303.257812 359.148438 299.957031 364 296.054688 364 Z M 296.054688 339.792969 C 290.054688 339.792969 285.355469 345.773438 285.355469 353.40625 C 285.355469 361.039062 290.054688 367.019531 296.054688 367.019531 C 302.050781 367.019531 306.746094 361.039062 306.746094 353.40625 C 306.746094 345.773438 302.050781 339.792969 296.054688 339.792969 Z M 296.054688 368.304688 C 289.335938 368.304688 284.074219 361.757812 284.074219 353.40625 C 284.074219 345.054688 289.335938 338.511719 296.054688 338.511719 C 302.769531 338.511719 308.027344 345.054688 308.027344 353.40625 C 308.027344 361.757812 302.769531 368.304688 296.054688 368.304688 " fill-opacity="1" fill-rule="nonzero"/><path fill="#ffffff" d="M 291.382812 238.726562 L 288.050781 238.726562 L 292.863281 251.769531 C 292.863281 252.554688 292.238281 252.457031 291.453125 252.441406 L 279.238281 252.234375 C 277.644531 252.09375 277.226562 253.417969 277.226562 253.691406 L 277.085938 257.785156 L 279.792969 257.785156 L 279.722656 256.117188 C 279.722656 255.554688 280.410156 255.0625 280.972656 255.078125 L 294.019531 255.398438 C 294.070312 255.398438 294.136719 255.394531 294.210938 255.386719 C 295.914062 255.195312 296.953125 253.40625 296.339844 251.804688 L 291.382812 238.726562 " fill-opacity="1" fill-rule="nonzero"/><path fill="#000000" d="M 277.75 257.144531 L 279.125 257.144531 L 279.082031 256.144531 C 279.082031 255.722656 279.261719 255.332031 279.582031 255.015625 C 279.953125 254.65625 280.472656 254.4375 280.953125 254.4375 C 280.964844 254.4375 280.976562 254.4375 280.988281 254.4375 L 294.035156 254.757812 C 294.058594 254.757812 294.097656 254.753906 294.136719 254.75 C 294.734375 254.683594 295.257812 254.34375 295.578125 253.824219 C 295.90625 253.277344 295.964844 252.625 295.738281 252.035156 L 290.9375 239.371094 L 288.972656 239.371094 L 293.503906 251.65625 L 293.503906 251.769531 C 293.503906 252.179688 293.382812 252.503906 293.144531 252.734375 C 292.742188 253.125 292.179688 253.105469 291.636719 253.089844 L 291.4375 253.082031 L 279.183594 252.871094 C 278.042969 252.773438 277.867188 253.707031 277.867188 253.71875 Z M 280.460938 258.425781 L 276.425781 258.425781 L 276.585938 253.667969 C 276.585938 253.367188 276.785156 252.703125 277.332031 252.199219 C 277.683594 251.878906 278.300781 251.515625 279.269531 251.59375 L 291.675781 251.804688 C 291.835938 251.808594 292.054688 251.816406 292.191406 251.804688 L 287.128906 238.085938 L 291.824219 238.085938 L 296.9375 251.578125 C 297.308594 252.539062 297.210938 253.601562 296.671875 254.488281 C 296.148438 255.351562 295.273438 255.910156 294.28125 256.023438 C 294.171875 256.035156 294.078125 256.039062 294.003906 256.039062 L 280.957031 255.71875 C 280.84375 255.714844 280.625 255.789062 280.480469 255.933594 C 280.402344 256.011719 280.363281 256.082031 280.363281 256.117188 L 280.460938 258.425781 " fill-opacity="1" fill-rule="nonzero"/><path fill="#ffffff" d="M 280.171875 194.5 C 281.386719 194.5 282.375 195.488281 282.375 196.703125 L 282.375 211.847656 C 282.375 213.0625 281.386719 214.046875 280.171875 214.046875 L 238.417969 214.046875 C 237.203125 214.046875 236.21875 213.0625 236.21875 211.847656 L 236.21875 196.703125 C 236.21875 195.488281 237.203125 194.5 238.417969 194.5 L 280.171875 194.5 " fill-opacity="1" fill-rule="nonzero"/><path fill="#000000" d="M 280.175781 214.691406 L 238.421875 214.691406 C 236.855469 214.691406 235.578125 213.414062 235.578125 211.847656 L 235.578125 196.703125 C 235.578125 195.132812 236.855469 193.859375 238.421875 193.859375 L 246.65625 193.859375 C 247.011719 193.859375 247.296875 194.148438 247.296875 194.5 C 247.296875 194.855469 247.011719 195.144531 246.65625 195.144531 L 238.421875 195.144531 C 237.558594 195.144531 236.863281 195.84375 236.863281 196.703125 L 236.863281 211.847656 C 236.863281 212.707031 237.558594 213.40625 238.421875 213.40625 L 280.175781 213.40625 C 281.035156 213.40625 281.734375 212.707031 281.734375 211.847656 L 281.734375 196.703125 C 281.734375 195.84375 281.035156 195.144531 280.175781 195.144531 L 252.207031 195.144531 C 251.851562 195.144531 251.566406 194.855469 251.566406 194.5 C 251.566406 194.148438 251.851562 193.859375 252.207031 193.859375 L 280.175781 193.859375 C 281.742188 193.859375 283.015625 195.132812 283.015625 196.703125 L 283.015625 211.847656 C 283.015625 213.414062 281.742188 214.691406 280.175781 214.691406 " fill-opacity="1" fill-rule="nonzero"/><path fill="#000000" d="M 276.277344 202.351562 L 243.09375 202.351562 C 242.738281 202.351562 242.453125 202.0625 242.453125 201.710938 C 242.453125 201.355469 242.738281 201.070312 243.09375 201.070312 L 276.277344 201.070312 C 276.632812 201.070312 276.921875 201.355469 276.921875 201.710938 C 276.921875 202.0625 276.632812 202.351562 276.277344 202.351562 " fill-opacity="1" fill-rule="nonzero"/><path fill="#000000" d="M 276.277344 206.785156 L 269.339844 206.785156 C 268.988281 206.785156 268.699219 206.5 268.699219 206.144531 C 268.699219 205.792969 268.988281 205.503906 269.339844 205.503906 L 276.277344 205.503906 C 276.632812 205.503906 276.921875 205.792969 276.921875 206.144531 C 276.921875 206.5 276.632812 206.785156 276.277344 206.785156 " fill-opacity="1" fill-rule="nonzero"/><path fill="#000000" d="M 264.90625 206.785156 L 243.097656 206.785156 C 242.742188 206.785156 242.457031 206.5 242.457031 206.144531 C 242.457031 205.789062 242.742188 205.5 243.097656 205.5 L 264.90625 205.5 C 265.261719 205.5 265.546875 205.789062 265.546875 206.144531 C 265.546875 206.5 265.261719 206.785156 264.90625 206.785156 " fill-opacity="1" fill-rule="nonzero"/><path fill="#745ff6" d="M 282.109375 133.382812 C 276.660156 133.65625 272.027344 129.609375 271.761719 124.34375 C 271.496094 119.078125 275.703125 114.585938 281.152344 114.3125 C 286.601562 114.039062 291.234375 118.085938 291.5 123.355469 C 291.765625 128.621094 287.558594 133.113281 282.109375 133.382812 Z M 301.558594 124.703125 L 301.371094 121 L 297.242188 120.316406 C 297.039062 119.464844 296.765625 118.644531 296.429688 117.855469 L 299.367188 114.960938 L 297.285156 111.847656 L 293.347656 113.253906 C 292.742188 112.625 292.078125 112.046875 291.371094 111.523438 L 292.421875 107.597656 L 289.007812 105.914062 L 286.320312 109.023438 C 285.472656 108.777344 284.601562 108.601562 283.707031 108.492188 L 282.585938 104.589844 L 278.753906 104.785156 L 278.03125 108.777344 C 277.148438 108.972656 276.296875 109.238281 275.480469 109.570312 L 272.496094 106.742188 L 269.269531 108.761719 L 270.707031 112.5625 C 270.054688 113.152344 269.457031 113.792969 268.914062 114.480469 L 264.851562 113.476562 L 263.097656 116.78125 L 266.308594 119.367188 C 266.050781 120.1875 265.863281 121.03125 265.746094 121.898438 L 261.707031 122.992188 L 261.890625 126.695312 L 266.023438 127.382812 C 266.222656 128.230469 266.496094 129.054688 266.832031 129.839844 L 263.898438 132.734375 L 265.976562 135.847656 L 269.917969 134.445312 C 270.523438 135.070312 271.1875 135.648438 271.890625 136.171875 L 270.839844 140.097656 L 274.253906 141.785156 L 276.941406 138.671875 C 277.785156 138.917969 278.660156 139.097656 279.558594 139.207031 L 280.675781 143.109375 L 284.511719 142.917969 L 285.234375 138.921875 C 286.113281 138.722656 286.964844 138.460938 287.78125 138.128906 L 290.765625 140.957031 L 293.992188 138.9375 L 292.554688 135.132812 C 293.207031 134.546875 293.808594 133.902344 294.351562 133.21875 L 298.410156 134.21875 L 300.164062 130.914062 L 296.957031 128.328125 C 297.214844 127.511719 297.402344 126.664062 297.515625 125.800781 L 301.558594 124.703125 " fill-opacity="1" fill-rule="nonzero"/><path fill="#000000" d="M 280.277344 113.71875 C 280.113281 113.71875 279.953125 113.722656 279.785156 113.726562 C 277.320312 113.851562 275.046875 114.898438 273.386719 116.671875 C 271.734375 118.4375 270.886719 120.714844 271.007812 123.089844 C 271.253906 127.992188 275.605469 131.773438 280.683594 131.519531 C 283.148438 131.394531 285.425781 130.351562 287.085938 128.578125 C 288.734375 126.8125 289.582031 124.535156 289.460938 122.164062 C 289.226562 117.414062 285.148438 113.71875 280.277344 113.71875 Z M 280.195312 132.816406 C 274.640625 132.816406 270 128.585938 269.726562 123.152344 C 269.589844 120.429688 270.558594 117.816406 272.449219 115.792969 C 274.339844 113.777344 276.921875 112.589844 279.722656 112.449219 C 285.511719 112.15625 290.464844 116.488281 290.746094 122.097656 C 290.882812 124.820312 289.914062 127.433594 288.019531 129.457031 C 286.132812 131.472656 283.550781 132.660156 280.746094 132.800781 C 280.5625 132.8125 280.378906 132.816406 280.195312 132.816406 Z M 275.546875 136.808594 C 275.605469 136.808594 275.667969 136.816406 275.726562 136.832031 C 276.53125 137.070312 277.375 137.242188 278.238281 137.347656 C 278.496094 137.378906 278.707031 137.558594 278.777344 137.808594 L 279.757812 141.21875 L 282.574219 141.074219 L 283.207031 137.582031 C 283.253906 137.332031 283.445312 137.128906 283.695312 137.074219 C 284.542969 136.882812 285.367188 136.625 286.144531 136.3125 C 286.378906 136.214844 286.644531 136.265625 286.824219 136.4375 L 289.453125 138.925781 L 291.8125 137.449219 L 290.558594 134.140625 C 290.46875 133.894531 290.53125 133.613281 290.726562 133.4375 C 291.351562 132.871094 291.933594 132.253906 292.449219 131.597656 C 292.609375 131.402344 292.863281 131.308594 293.105469 131.371094 L 296.683594 132.253906 L 297.957031 129.859375 L 295.15625 127.605469 C 294.949219 127.441406 294.867188 127.164062 294.949219 126.914062 C 295.195312 126.136719 295.371094 125.320312 295.484375 124.492188 C 295.519531 124.234375 295.703125 124.023438 295.953125 123.957031 L 299.496094 123 L 299.359375 120.324219 L 295.738281 119.726562 C 295.484375 119.683594 295.28125 119.492188 295.21875 119.242188 C 295.027344 118.425781 294.765625 117.632812 294.445312 116.886719 C 294.339844 116.644531 294.394531 116.363281 294.582031 116.175781 L 297.144531 113.652344 L 295.636719 111.398438 L 292.167969 112.632812 C 291.929688 112.71875 291.664062 112.65625 291.492188 112.476562 C 290.910156 111.875 290.269531 111.316406 289.59375 110.816406 C 289.382812 110.660156 289.285156 110.390625 289.355469 110.132812 L 290.269531 106.714844 L 287.769531 105.484375 L 285.410156 108.21875 C 285.246094 108.410156 284.984375 108.488281 284.746094 108.414062 C 283.9375 108.179688 283.09375 108.007812 282.234375 107.902344 C 281.976562 107.871094 281.765625 107.691406 281.691406 107.441406 L 280.714844 104.03125 L 277.898438 104.171875 L 277.265625 107.664062 C 277.21875 107.917969 277.027344 108.121094 276.773438 108.175781 C 275.929688 108.367188 275.101562 108.625 274.328125 108.9375 C 274.09375 109.03125 273.824219 108.984375 273.644531 108.808594 L 271.015625 106.324219 L 268.65625 107.800781 L 269.910156 111.113281 C 270.007812 111.359375 269.9375 111.636719 269.742188 111.8125 C 269.117188 112.378906 268.539062 112.996094 268.019531 113.652344 C 267.863281 113.851562 267.605469 113.9375 267.363281 113.878906 L 263.789062 112.996094 L 262.515625 115.390625 L 265.3125 117.644531 C 265.519531 117.808594 265.601562 118.085938 265.523438 118.339844 C 265.277344 119.113281 265.097656 119.925781 264.984375 120.757812 C 264.953125 121.011719 264.765625 121.222656 264.519531 121.292969 L 260.976562 122.253906 L 261.109375 124.921875 L 264.730469 125.527344 C 264.984375 125.566406 265.1875 125.757812 265.25 126.007812 C 265.445312 126.824219 265.703125 127.617188 266.027344 128.363281 C 266.132812 128.605469 266.074219 128.886719 265.886719 129.074219 L 263.328125 131.597656 L 264.835938 133.851562 L 268.300781 132.617188 C 268.539062 132.53125 268.804688 132.59375 268.980469 132.773438 C 269.558594 133.375 270.199219 133.933594 270.878906 134.433594 C 271.089844 134.589844 271.183594 134.859375 271.117188 135.113281 L 270.199219 138.53125 L 272.699219 139.765625 L 275.058594 137.03125 C 275.183594 136.886719 275.363281 136.808594 275.546875 136.808594 Z M 279.277344 142.527344 C 278.996094 142.527344 278.742188 142.339844 278.664062 142.058594 L 277.660156 138.5625 C 277.015625 138.46875 276.382812 138.339844 275.765625 138.175781 L 273.347656 140.980469 C 273.152344 141.203125 272.835938 141.265625 272.574219 141.136719 L 269.160156 139.449219 C 268.886719 139.316406 268.746094 139.003906 268.828125 138.707031 L 269.765625 135.199219 C 269.269531 134.816406 268.796875 134.398438 268.351562 133.960938 L 264.792969 135.230469 C 264.515625 135.328125 264.210938 135.222656 264.046875 134.980469 L 261.96875 131.867188 C 261.796875 131.613281 261.832031 131.273438 262.050781 131.054688 L 264.679688 128.464844 C 264.457031 127.898438 264.265625 127.316406 264.105469 126.722656 L 260.390625 126.105469 C 260.09375 126.054688 259.871094 125.804688 259.855469 125.503906 L 259.667969 121.800781 C 259.65625 121.5 259.851562 121.226562 260.140625 121.148438 L 263.777344 120.164062 C 263.875 119.554688 264.007812 118.957031 264.175781 118.375 L 261.300781 116.054688 C 261.058594 115.863281 260.992188 115.527344 261.132812 115.257812 L 262.890625 111.953125 C 263.027344 111.691406 263.324219 111.558594 263.609375 111.628906 L 267.273438 112.535156 C 267.675781 112.054688 268.105469 111.597656 268.558594 111.164062 L 267.273438 107.761719 C 267.164062 107.476562 267.273438 107.15625 267.53125 106.992188 L 270.757812 104.972656 C 271.007812 104.820312 271.328125 104.851562 271.539062 105.054688 L 274.230469 107.597656 C 274.828125 107.375 275.445312 107.183594 276.078125 107.023438 L 276.726562 103.441406 C 276.78125 103.152344 277.027344 102.933594 277.328125 102.917969 L 281.160156 102.726562 C 281.457031 102.707031 281.722656 102.902344 281.804688 103.191406 L 282.808594 106.6875 C 283.453125 106.78125 284.089844 106.910156 284.703125 107.074219 L 287.128906 104.269531 C 287.320312 104.050781 287.632812 103.984375 287.894531 104.113281 L 291.308594 105.800781 C 291.582031 105.9375 291.722656 106.246094 291.644531 106.539062 L 290.703125 110.050781 C 291.199219 110.4375 291.671875 110.851562 292.117188 111.289062 L 295.675781 110.019531 C 295.953125 109.925781 296.261719 110.023438 296.421875 110.269531 L 298.5 113.382812 C 298.671875 113.636719 298.640625 113.976562 298.421875 114.195312 L 295.789062 116.785156 C 296.011719 117.347656 296.203125 117.929688 296.363281 118.527344 L 300.078125 119.144531 C 300.378906 119.195312 300.601562 119.445312 300.617188 119.746094 L 300.800781 123.449219 C 300.816406 123.75 300.621094 124.019531 300.328125 124.101562 L 296.695312 125.085938 C 296.597656 125.695312 296.460938 126.296875 296.296875 126.875 L 299.171875 129.191406 C 299.414062 129.386719 299.480469 129.722656 299.335938 129.992188 L 297.582031 133.296875 C 297.441406 133.558594 297.148438 133.6875 296.859375 133.617188 L 293.195312 132.714844 C 292.796875 133.195312 292.367188 133.65625 291.914062 134.085938 L 293.199219 137.484375 C 293.304688 137.773438 293.195312 138.09375 292.9375 138.257812 L 289.710938 140.277344 C 289.460938 140.429688 289.140625 140.398438 288.929688 140.199219 L 286.238281 137.648438 C 285.644531 137.875 285.023438 138.066406 284.394531 138.226562 L 283.746094 141.804688 C 283.691406 142.101562 283.445312 142.316406 283.148438 142.332031 L 279.3125 142.523438 C 279.300781 142.527344 279.292969 142.527344 279.277344 142.527344 " fill-opacity="1" fill-rule="nonzero"/><path fill="#745ff6" d="M 337.511719 116.898438 C 328.183594 117.367188 320.253906 110.441406 319.804688 101.429688 C 319.351562 92.417969 326.546875 84.734375 335.871094 84.265625 C 345.199219 83.796875 353.128906 90.722656 353.578125 99.734375 C 354.035156 108.746094 346.835938 116.429688 337.511719 116.898438 Z M 370.789062 102.046875 L 370.472656 95.710938 L 363.40625 94.535156 C 363.058594 93.082031 362.597656 91.675781 362.015625 90.328125 L 367.035156 85.371094 L 363.480469 80.046875 L 356.742188 82.449219 C 355.699219 81.375 354.570312 80.386719 353.355469 79.496094 L 355.15625 72.777344 L 349.316406 69.890625 L 344.714844 75.214844 C 343.269531 74.792969 341.773438 74.488281 340.242188 74.300781 L 338.328125 67.628906 L 331.765625 67.957031 L 330.527344 74.789062 C 329.019531 75.125 327.566406 75.578125 326.171875 76.144531 L 321.058594 71.308594 L 315.539062 74.765625 L 318 81.265625 C 316.882812 82.277344 315.855469 83.375 314.925781 84.550781 L 307.980469 82.835938 L 304.976562 88.488281 L 310.472656 92.917969 C 310.027344 94.3125 309.707031 95.761719 309.507812 97.242188 L 302.597656 99.117188 L 302.914062 105.453125 L 309.980469 106.628906 C 310.324219 108.082031 310.789062 109.488281 311.367188 110.835938 L 306.347656 115.789062 L 309.902344 121.113281 L 316.640625 118.714844 C 317.683594 119.789062 318.816406 120.777344 320.027344 121.667969 L 318.230469 128.386719 L 324.070312 131.273438 L 328.667969 125.949219 C 330.113281 126.371094 331.613281 126.675781 333.144531 126.863281 L 335.058594 133.535156 L 341.617188 133.207031 L 342.855469 126.375 C 344.363281 126.035156 345.820312 125.585938 347.214844 125.019531 L 352.324219 129.855469 L 357.847656 126.398438 L 355.386719 119.894531 C 356.5 118.886719 357.53125 117.789062 358.457031 116.613281 L 365.40625 118.332031 L 368.40625 112.675781 L 362.914062 108.25 C 363.355469 106.851562 363.679688 105.402344 363.875 103.921875 L 370.789062 102.046875 " fill-opacity="1" fill-rule="nonzero"/><path fill="#000000" d="M 334.378906 82.789062 C 334.089844 82.789062 333.804688 82.796875 333.515625 82.8125 C 324.558594 83.261719 317.621094 90.660156 318.054688 99.304688 C 318.488281 107.949219 326.144531 114.613281 335.085938 114.164062 C 344.046875 113.71875 350.984375 106.320312 350.550781 97.675781 C 350.339844 93.492188 348.453125 89.640625 345.242188 86.835938 C 342.238281 84.210938 338.410156 82.789062 334.378906 82.789062 Z M 334.234375 115.46875 C 324.96875 115.46875 317.230469 108.421875 316.773438 99.367188 C 316.300781 90.019531 323.785156 82.015625 333.449219 81.53125 C 338.132812 81.292969 342.613281 82.835938 346.085938 85.871094 C 349.5625 88.90625 351.601562 93.078125 351.832031 97.609375 C 352.300781 106.960938 344.816406 114.960938 335.152344 115.445312 L 335.121094 114.808594 L 335.152344 115.445312 C 334.847656 115.460938 334.539062 115.46875 334.234375 115.46875 Z M 326.277344 123.214844 C 326.335938 123.214844 326.398438 123.226562 326.457031 123.242188 C 327.863281 123.652344 329.328125 123.953125 330.828125 124.132812 C 331.085938 124.164062 331.296875 124.347656 331.367188 124.59375 L 333.144531 130.78125 L 338.6875 130.5 L 339.832031 124.171875 C 339.878906 123.917969 340.074219 123.714844 340.324219 123.65625 C 341.796875 123.328125 343.230469 122.878906 344.582031 122.332031 C 344.816406 122.238281 345.082031 122.289062 345.265625 122.460938 L 350.015625 126.953125 L 354.667969 124.042969 L 352.394531 118.03125 C 352.300781 117.785156 352.367188 117.503906 352.5625 117.328125 C 353.648438 116.347656 354.660156 115.269531 355.5625 114.125 C 355.71875 113.929688 355.976562 113.839844 356.21875 113.898438 L 362.679688 115.496094 L 365.203125 110.75 L 360.121094 106.65625 C 359.914062 106.492188 359.832031 106.214844 359.910156 105.964844 C 360.339844 104.609375 360.65625 103.1875 360.847656 101.746094 C 360.882812 101.488281 361.066406 101.28125 361.316406 101.210938 L 367.730469 99.472656 L 367.464844 94.164062 L 360.910156 93.078125 C 360.65625 93.035156 360.449219 92.84375 360.386719 92.59375 C 360.050781 91.175781 359.597656 89.792969 359.035156 88.492188 C 358.929688 88.246094 358.984375 87.964844 359.171875 87.777344 L 363.820312 83.199219 L 360.835938 78.730469 L 354.566406 80.964844 C 354.328125 81.046875 354.066406 80.984375 353.890625 80.804688 C 352.878906 79.757812 351.765625 78.789062 350.585938 77.917969 C 350.375 77.761719 350.277344 77.488281 350.347656 77.234375 L 352.011719 71.027344 L 347.085938 68.59375 L 342.808594 73.542969 C 342.648438 73.730469 342.382812 73.808594 342.144531 73.738281 C 340.742188 73.328125 339.269531 73.027344 337.773438 72.84375 C 337.515625 72.816406 337.304688 72.632812 337.234375 72.386719 L 335.457031 66.199219 L 329.917969 66.476562 L 328.769531 72.8125 C 328.722656 73.0625 328.527344 73.265625 328.277344 73.320312 C 326.808594 73.652344 325.375 74.097656 324.019531 74.648438 C 323.785156 74.742188 323.519531 74.691406 323.335938 74.519531 L 318.589844 70.023438 L 313.929688 72.9375 L 316.210938 78.949219 C 316.300781 79.195312 316.234375 79.476562 316.039062 79.652344 C 314.953125 80.636719 313.945312 81.710938 313.039062 82.855469 C 312.882812 83.050781 312.628906 83.140625 312.382812 83.078125 L 305.921875 81.484375 L 303.402344 86.226562 L 308.480469 90.324219 C 308.6875 90.488281 308.769531 90.761719 308.6875 91.015625 C 308.265625 92.371094 307.949219 93.789062 307.753906 95.238281 C 307.722656 95.488281 307.535156 95.699219 307.285156 95.769531 L 300.871094 97.507812 L 301.140625 102.816406 L 307.695312 103.902344 C 307.949219 103.945312 308.152344 104.136719 308.210938 104.386719 C 308.550781 105.804688 309.007812 107.1875 309.566406 108.488281 C 309.671875 108.730469 309.617188 109.015625 309.429688 109.199219 L 304.785156 113.78125 L 307.769531 118.25 L 314.035156 116.019531 C 314.273438 115.933594 314.539062 115.996094 314.714844 116.175781 C 315.726562 117.222656 316.835938 118.191406 318.019531 119.0625 C 318.230469 119.21875 318.324219 119.488281 318.253906 119.742188 L 316.59375 125.957031 L 321.515625 128.386719 L 325.792969 123.4375 C 325.917969 123.292969 326.09375 123.214844 326.277344 123.214844 Z M 332.667969 132.085938 C 332.382812 132.085938 332.128906 131.898438 332.050781 131.621094 L 330.253906 125.355469 C 328.96875 125.175781 327.710938 124.921875 326.496094 124.585938 L 322.164062 129.601562 C 321.972656 129.820312 321.65625 129.886719 321.394531 129.753906 L 315.554688 126.875 C 315.28125 126.738281 315.136719 126.425781 315.21875 126.128906 L 316.902344 119.832031 C 315.910156 119.070312 314.960938 118.246094 314.082031 117.363281 L 307.730469 119.628906 C 307.449219 119.726562 307.140625 119.625 306.976562 119.378906 L 303.425781 114.054688 C 303.253906 113.796875 303.289062 113.457031 303.507812 113.242188 L 308.21875 108.589844 C 307.757812 107.472656 307.371094 106.296875 307.066406 105.097656 L 300.417969 103.996094 C 300.121094 103.945312 299.894531 103.695312 299.882812 103.394531 L 299.5625 97.054688 C 299.550781 96.753906 299.746094 96.484375 300.035156 96.40625 L 306.542969 94.640625 C 306.726562 93.417969 306.992188 92.214844 307.339844 91.050781 L 302.183594 86.898438 C 301.945312 86.703125 301.875 86.367188 302.019531 86.09375 L 305.023438 80.441406 C 305.160156 80.183594 305.457031 80.050781 305.746094 80.121094 L 312.292969 81.734375 C 313.082031 80.773438 313.9375 79.851562 314.855469 79 L 312.546875 72.898438 C 312.441406 72.613281 312.546875 72.289062 312.804688 72.128906 L 318.328125 68.671875 C 318.578125 68.519531 318.898438 68.550781 319.109375 68.75 L 323.921875 73.304688 C 325.097656 72.851562 326.328125 72.46875 327.582031 72.167969 L 328.746094 65.75 C 328.796875 65.457031 329.046875 65.238281 329.34375 65.222656 L 335.90625 64.894531 C 336.203125 64.875 336.472656 65.070312 336.550781 65.355469 L 338.351562 71.625 C 339.628906 71.800781 340.890625 72.058594 342.109375 72.394531 L 346.4375 67.378906 C 346.628906 67.15625 346.945312 67.09375 347.207031 67.222656 L 353.050781 70.105469 C 353.324219 70.242188 353.464844 70.550781 353.382812 70.851562 L 351.699219 77.148438 C 352.695312 77.90625 353.640625 78.734375 354.523438 79.617188 L 360.875 77.355469 C 361.152344 77.253906 361.460938 77.355469 361.625 77.601562 L 365.179688 82.925781 C 365.351562 83.183594 365.316406 83.523438 365.097656 83.738281 L 360.382812 88.386719 C 360.84375 89.511719 361.230469 90.683594 361.535156 91.878906 L 368.183594 92.984375 C 368.480469 93.03125 368.707031 93.285156 368.71875 93.585938 L 369.039062 99.925781 C 369.054688 100.222656 368.855469 100.496094 368.566406 100.574219 L 362.0625 102.335938 C 361.875 103.5625 361.609375 104.765625 361.265625 105.929688 L 366.417969 110.085938 C 366.65625 110.277344 366.726562 110.613281 366.582031 110.882812 L 363.578125 116.539062 C 363.441406 116.796875 363.144531 116.929688 362.859375 116.863281 L 356.308594 115.246094 C 355.523438 116.210938 354.660156 117.128906 353.75 117.984375 L 356.054688 124.082031 C 356.164062 124.367188 356.054688 124.691406 355.796875 124.851562 L 350.277344 128.308594 C 350.027344 128.460938 349.707031 128.429688 349.492188 128.226562 L 344.679688 123.671875 C 343.507812 124.128906 342.277344 124.511719 341.019531 124.8125 L 339.859375 131.230469 C 339.808594 131.523438 339.554688 131.742188 339.257812 131.757812 L 332.699219 132.085938 C 332.6875 132.085938 332.675781 132.085938 332.667969 132.085938 " fill-opacity="1" fill-rule="nonzero"/></svg>