<svg xmlns="http://www.w3.org/2000/svg" xmlns:xlink="http://www.w3.org/1999/xlink" width="500" zoomAndPan="magnify" viewBox="0 0 375 374.999991" height="500" preserveAspectRatio="xMidYMid meet" version="1.0"><path fill="#d2ccf6" d="M 329.9375 193.191406 C 300.695312 216.183594 342.875 271.632812 326.152344 305.53125 C 303.636719 351.171875 165.933594 374.839844 83.65625 311.210938 C 14.75 257.925781 1.667969 156.523438 39.4375 121.164062 C 50.742188 110.582031 63.292969 109.011719 80.859375 98.691406 C 97.195312 89.09375 99.25 86.367188 100.582031 84.5 C 113.71875 66.070312 93.8125 45.785156 100.496094 29.378906 C 111.0625 3.453125 183.472656 -1.65625 241.265625 15.132812 C 256.855469 19.660156 335.597656 44.433594 357.503906 107.496094 C 359.199219 112.375 375.121094 159.445312 351.472656 181.390625 C 343.277344 189 337.734375 187.058594 329.9375 193.191406 " fill-opacity="1" fill-rule="nonzero"/><path fill="#000000" d="M 37.074219 220.0625 C 36.804688 220.0625 36.554688 219.882812 36.476562 219.609375 C 26.457031 184.851562 34.617188 156.972656 34.699219 156.695312 C 34.800781 156.363281 35.148438 156.179688 35.480469 156.277344 C 35.808594 156.375 35.996094 156.722656 35.898438 157.054688 C 35.816406 157.328125 27.765625 184.875 37.675781 219.261719 C 37.773438 219.59375 37.582031 219.941406 37.25 220.035156 C 37.191406 220.054688 37.132812 220.0625 37.074219 220.0625 " fill-opacity="1" fill-rule="nonzero"/><path fill="#000000" d="M 26.71875 197.453125 C 26.429688 197.453125 26.171875 197.25 26.109375 196.957031 C 26.089844 196.871094 24.320312 188.328125 24.777344 176.304688 C 25.199219 165.203125 27.660156 148.765625 36.976562 133.484375 C 37.15625 133.191406 37.539062 133.097656 37.835938 133.277344 C 38.128906 133.457031 38.222656 133.839844 38.042969 134.132812 C 20.480469 162.929688 27.257812 196.363281 27.332031 196.699219 C 27.402344 197.035156 27.1875 197.367188 26.847656 197.4375 C 26.804688 197.449219 26.761719 197.453125 26.71875 197.453125 " fill-opacity="1" fill-rule="nonzero"/><path fill="#000000" d="M 352.273438 110.683594 C 352.160156 110.683594 352.042969 110.652344 351.941406 110.589844 C 351.648438 110.402344 351.5625 110.019531 351.746094 109.726562 L 353.472656 106.996094 C 353.65625 106.707031 354.042969 106.621094 354.335938 106.804688 C 354.625 106.988281 354.710938 107.375 354.527344 107.667969 L 352.804688 110.394531 C 352.683594 110.582031 352.480469 110.683594 352.273438 110.683594 " fill-opacity="1" fill-rule="nonzero"/><path fill="#000000" d="M 348.253906 117.042969 C 348.140625 117.042969 348.023438 117.007812 347.921875 116.945312 C 347.628906 116.761719 347.542969 116.375 347.726562 116.082031 L 349.453125 113.351562 C 349.640625 113.0625 350.023438 112.976562 350.3125 113.160156 C 350.605469 113.34375 350.695312 113.730469 350.511719 114.019531 L 348.785156 116.75 C 348.664062 116.9375 348.460938 117.042969 348.253906 117.042969 " fill-opacity="1" fill-rule="nonzero"/><path fill="#000000" d="M 349.308594 111.351562 C 349.195312 111.351562 349.082031 111.320312 348.976562 111.253906 L 346.246094 109.53125 C 345.953125 109.347656 345.867188 108.960938 346.050781 108.667969 C 346.238281 108.378906 346.621094 108.292969 346.914062 108.476562 L 349.644531 110.199219 C 349.9375 110.386719 350.023438 110.769531 349.835938 111.0625 C 349.71875 111.25 349.519531 111.351562 349.308594 111.351562 " fill-opacity="1" fill-rule="nonzero"/><path fill="#000000" d="M 355.675781 115.367188 C 355.5625 115.367188 355.445312 115.335938 355.339844 115.273438 L 352.613281 113.546875 C 352.320312 113.363281 352.230469 112.976562 352.417969 112.683594 C 352.601562 112.394531 352.988281 112.308594 353.277344 112.492188 L 356.007812 114.214844 C 356.304688 114.402344 356.390625 114.785156 356.207031 115.078125 C 356.085938 115.265625 355.882812 115.367188 355.675781 115.367188 " fill-opacity="1" fill-rule="nonzero"/><path fill="#000000" d="M 90.414062 17.101562 C 90.257812 17.101562 90.101562 17.046875 89.980469 16.929688 C 89.730469 16.695312 89.722656 16.296875 89.960938 16.050781 L 91.925781 13.996094 C 92.167969 13.746094 92.5625 13.738281 92.8125 13.976562 C 93.058594 14.210938 93.070312 14.609375 92.832031 14.859375 L 90.863281 16.910156 C 90.742188 17.039062 90.578125 17.101562 90.414062 17.101562 " fill-opacity="1" fill-rule="nonzero"/><path fill="#000000" d="M 83.53125 24.292969 C 83.375 24.292969 83.21875 24.234375 83.097656 24.121094 C 82.851562 23.882812 82.839844 23.488281 83.078125 23.234375 L 85.042969 21.183594 C 85.285156 20.933594 85.679688 20.925781 85.929688 21.164062 C 86.179688 21.402344 86.1875 21.796875 85.949219 22.046875 L 83.980469 24.101562 C 83.859375 24.226562 83.695312 24.292969 83.53125 24.292969 " fill-opacity="1" fill-rule="nonzero"/><path fill="#000000" d="M 85.460938 17.214844 C 85.300781 17.214844 85.144531 17.152344 85.023438 17.035156 L 83.027344 15.070312 C 82.78125 14.828125 82.777344 14.433594 83.019531 14.1875 C 83.261719 13.941406 83.65625 13.9375 83.902344 14.179688 L 85.898438 16.144531 C 86.144531 16.386719 86.148438 16.78125 85.90625 17.027344 C 85.78125 17.152344 85.621094 17.214844 85.460938 17.214844 " fill-opacity="1" fill-rule="nonzero"/><path fill="#000000" d="M 92.445312 24.09375 C 92.289062 24.09375 92.128906 24.035156 92.007812 23.914062 L 90.011719 21.949219 C 89.765625 21.707031 89.761719 21.3125 90.003906 21.066406 C 90.246094 20.820312 90.640625 20.816406 90.886719 21.0625 L 92.882812 23.027344 C 93.128906 23.265625 93.132812 23.660156 92.890625 23.90625 C 92.769531 24.03125 92.605469 24.09375 92.445312 24.09375 " fill-opacity="1" fill-rule="nonzero"/><path fill="#000000" d="M 341.15625 88.34375 C 340.71875 88.34375 340.285156 88.433594 339.871094 88.621094 C 338.25 89.347656 337.511719 91.289062 338.226562 92.949219 C 338.574219 93.761719 339.214844 94.378906 340.023438 94.691406 C 340.808594 95 341.667969 94.976562 342.441406 94.628906 C 344.0625 93.902344 344.796875 91.957031 344.082031 90.296875 C 343.734375 89.488281 343.097656 88.871094 342.289062 88.558594 C 341.921875 88.414062 341.539062 88.34375 341.15625 88.34375 Z M 341.15625 96.15625 C 340.621094 96.15625 340.085938 96.054688 339.570312 95.859375 C 338.445312 95.421875 337.5625 94.5625 337.082031 93.445312 C 336.097656 91.164062 337.121094 88.488281 339.359375 87.480469 C 340.4375 86.996094 341.640625 86.964844 342.742188 87.394531 C 343.863281 87.828125 344.746094 88.6875 345.230469 89.804688 C 346.214844 92.085938 345.191406 94.761719 342.953125 95.769531 C 342.378906 96.027344 341.769531 96.15625 341.15625 96.15625 " fill-opacity="1" fill-rule="nonzero"/><path fill="#5236ff" d="M 315.21875 344.398438 L 307.078125 344.996094 L 154.582031 344.398438 C 147.660156 344.398438 142.070312 338.800781 142.09375 331.898438 L 143.25 19.320312 C 143.273438 12.417969 148.910156 6.824219 155.832031 6.824219 L 308.1875 5.039062 C 325.699219 5.039062 328.980469 12.417969 328.957031 19.320312 L 327.800781 331.898438 C 327.777344 338.800781 322.144531 344.398438 315.21875 344.398438 " fill-opacity="1" fill-rule="nonzero"/><path fill="#ffffff" d="M 305.554688 344.398438 L 144.917969 344.398438 C 137.996094 344.398438 132.402344 338.78125 132.421875 331.859375 L 133.457031 18.285156 C 133.480469 11.359375 139.109375 5.746094 146.03125 5.746094 L 306.671875 5.746094 C 313.59375 5.746094 319.1875 11.359375 319.164062 18.285156 L 318.128906 331.859375 C 318.109375 338.78125 312.476562 344.398438 305.554688 344.398438 " fill-opacity="1" fill-rule="nonzero"/><path fill="#5236ff" d="M 141.628906 332.289062 L 142.617188 32.882812 C 142.621094 31.285156 143.921875 29.988281 145.519531 29.988281 L 307.019531 29.988281 C 308.621094 29.988281 309.910156 31.285156 309.90625 32.882812 L 308.917969 332.289062 C 308.914062 333.890625 307.613281 335.1875 306.015625 335.1875 L 144.511719 335.1875 C 142.914062 335.1875 141.625 333.890625 141.628906 332.289062 " fill-opacity="1" fill-rule="nonzero"/><path fill="#d2ccf6" d="M 226.296875 21.695312 C 223.707031 21.695312 221.609375 19.59375 221.621094 16.996094 C 221.628906 14.40625 223.738281 12.300781 226.332031 12.300781 C 228.921875 12.300781 231.019531 14.40625 231.011719 16.996094 C 231 19.59375 228.894531 21.695312 226.296875 21.695312 " fill-opacity="1" fill-rule="nonzero"/><path fill="#000000" d="M 318.667969 169.054688 C 318.320312 169.050781 318.042969 168.773438 318.046875 168.429688 L 318.539062 18.28125 C 318.550781 15.097656 317.320312 12.105469 315.074219 9.855469 C 312.832031 7.609375 309.847656 6.371094 306.671875 6.371094 L 146.03125 6.371094 C 139.464844 6.371094 134.101562 11.714844 134.082031 18.289062 L 133.6875 138.355469 C 133.683594 138.703125 133.40625 138.980469 133.0625 138.980469 C 133.058594 138.980469 133.058594 138.980469 133.058594 138.980469 C 132.714844 138.976562 132.433594 138.699219 132.4375 138.355469 L 132.832031 18.28125 C 132.855469 11.023438 138.777344 5.121094 146.03125 5.121094 L 306.671875 5.121094 C 310.183594 5.121094 313.480469 6.488281 315.957031 8.972656 C 318.441406 11.460938 319.800781 14.769531 319.789062 18.289062 L 319.292969 168.433594 C 319.292969 168.777344 319.011719 169.054688 318.667969 169.054688 " fill-opacity="1" fill-rule="nonzero"/><path fill="#000000" d="M 305.554688 345.023438 C 305.554688 345.023438 305.554688 345.023438 305.550781 345.023438 L 178.910156 344.429688 C 178.566406 344.425781 178.285156 344.144531 178.289062 343.800781 C 178.289062 343.457031 178.570312 343.179688 178.914062 343.179688 L 305.558594 343.773438 C 305.902344 343.773438 306.179688 344.054688 306.179688 344.398438 C 306.179688 344.742188 305.898438 345.023438 305.554688 345.023438 " fill-opacity="1" fill-rule="nonzero"/><path fill="#ffffff" d="M 167.296875 109.878906 L 167.671875 109.878906 L 167.40625 84.371094 L 167.03125 84.371094 C 159.988281 84.371094 154.339844 90.066406 154.414062 97.085938 L 154.414062 97.164062 C 154.488281 104.1875 160.257812 109.878906 167.296875 109.878906 " fill-opacity="1" fill-rule="nonzero"/><path fill="#000000" d="M 166.789062 85 C 163.636719 85.0625 160.699219 86.316406 158.488281 88.546875 C 156.230469 90.824219 155.003906 93.855469 155.039062 97.078125 L 155.039062 97.160156 C 155.109375 103.742188 160.46875 109.117188 167.039062 109.25 Z M 167.671875 110.503906 L 167.296875 110.503906 C 159.925781 110.503906 153.867188 104.523438 153.789062 97.171875 L 153.789062 97.09375 C 153.75 93.535156 155.105469 90.1875 157.601562 87.667969 C 160.105469 85.140625 163.453125 83.75 167.03125 83.75 L 167.40625 83.75 C 167.75 83.75 168.027344 84.023438 168.03125 84.367188 L 168.296875 109.871094 C 168.296875 110.039062 168.234375 110.199219 168.117188 110.320312 C 168 110.4375 167.839844 110.503906 167.671875 110.503906 " fill-opacity="1" fill-rule="nonzero"/><path fill="#ffffff" d="M 283.542969 109.878906 L 283.167969 109.878906 L 282.902344 84.375 L 283.277344 84.375 C 290.320312 84.375 296.085938 90.066406 296.160156 97.085938 L 296.160156 97.167969 C 296.234375 104.1875 290.585938 109.878906 283.542969 109.878906 " fill-opacity="1" fill-rule="nonzero"/><path fill="#000000" d="M 283.535156 85 L 283.789062 109.25 C 286.9375 109.191406 289.878906 107.933594 292.085938 105.703125 C 294.34375 103.425781 295.570312 100.394531 295.535156 97.171875 L 295.535156 97.09375 C 295.46875 90.507812 290.105469 85.132812 283.535156 85 Z M 283.546875 110.503906 L 283.171875 110.503906 C 282.828125 110.503906 282.550781 110.226562 282.546875 109.882812 L 282.277344 84.378906 C 282.277344 84.210938 282.34375 84.050781 282.460938 83.929688 C 282.578125 83.8125 282.738281 83.746094 282.902344 83.746094 L 283.277344 83.746094 C 290.652344 83.746094 296.710938 89.726562 296.785156 97.078125 L 296.785156 97.15625 C 296.824219 100.71875 295.46875 104.066406 292.972656 106.585938 C 290.472656 109.109375 287.125 110.503906 283.546875 110.503906 " fill-opacity="1" fill-rule="nonzero"/><path fill="#ffffff" d="M 287.160156 96.074219 C 286.875 68.664062 258.871094 40.3125 224.691406 40.3125 C 190.515625 40.3125 163.105469 68.664062 163.394531 96.074219 C 163.679688 123.480469 191.554688 139.566406 225.730469 139.566406 C 259.90625 139.566406 287.449219 123.480469 287.160156 96.074219 " fill-opacity="1" fill-rule="nonzero"/><path fill="#000000" d="M 224.691406 40.9375 C 208.214844 40.9375 191.972656 47.796875 180.125 59.761719 C 169.757812 70.230469 163.886719 83.464844 164.019531 96.066406 C 164.152344 108.914062 170.4375 119.808594 182.199219 127.578125 C 193.296875 134.902344 208.757812 138.941406 225.734375 138.941406 C 246.929688 138.941406 265.265625 132.703125 276.035156 121.828125 C 283.105469 114.691406 286.640625 106.027344 286.535156 96.082031 C 286.261719 70.050781 259.757812 40.9375 224.691406 40.9375 Z M 225.734375 140.191406 C 208.515625 140.191406 192.808594 136.082031 181.507812 128.617188 C 169.390625 120.613281 162.910156 109.359375 162.769531 96.082031 C 162.632812 83.144531 168.636719 69.589844 179.238281 58.882812 C 191.316406 46.683594 207.886719 39.6875 224.691406 39.6875 C 240.980469 39.6875 256.734375 46 269.058594 57.457031 C 280.816406 68.386719 287.640625 82.460938 287.785156 96.066406 C 287.890625 106.214844 284.136719 115.425781 276.925781 122.707031 C 265.917969 133.816406 247.257812 140.191406 225.734375 140.191406 " fill-opacity="1" fill-rule="nonzero"/><path fill="#ffffff" d="M 210.316406 147.800781 L 241.320312 147.800781 C 254.90625 147.800781 266.035156 158.785156 266.175781 172.332031 C 266.269531 181.285156 265.488281 190.210938 263.839844 198.996094 L 259.621094 221.503906 C 256.671875 237.234375 242.953125 248.574219 226.875 248.574219 C 210.792969 248.574219 196.835938 237.234375 193.558594 221.503906 L 188.863281 198.996094 C 187.035156 190.210938 186.0625 181.285156 185.972656 172.332031 C 185.832031 158.785156 196.730469 147.800781 210.316406 147.800781 " fill-opacity="1" fill-rule="nonzero"/><path fill="#000000" d="M 210.316406 148.425781 C 203.902344 148.425781 197.902344 150.917969 193.421875 155.445312 C 188.953125 159.953125 186.53125 165.953125 186.597656 172.328125 C 186.691406 181.214844 187.65625 190.148438 189.476562 198.867188 L 194.171875 221.378906 C 197.378906 236.773438 211.136719 247.949219 226.871094 247.949219 C 242.605469 247.949219 256.121094 236.777344 259.007812 221.386719 L 263.226562 198.878906 C 264.863281 190.160156 265.648438 181.230469 265.554688 172.339844 C 265.414062 159.152344 254.542969 148.425781 241.316406 148.425781 Z M 226.871094 249.199219 C 210.546875 249.199219 196.277344 237.601562 192.945312 221.632812 L 188.253906 199.121094 C 186.417969 190.320312 185.441406 181.3125 185.347656 172.339844 C 185.277344 165.628906 187.828125 159.316406 192.53125 154.5625 C 197.253906 149.800781 203.570312 147.175781 210.316406 147.175781 L 241.316406 147.175781 C 255.226562 147.175781 266.65625 158.460938 266.800781 172.328125 C 266.894531 181.296875 266.105469 190.308594 264.457031 199.109375 L 260.234375 221.617188 C 257.238281 237.597656 243.207031 249.199219 226.871094 249.199219 " fill-opacity="1" fill-rule="nonzero"/><path fill="#000000" d="M 242.691406 148.425781 L 208.941406 148.425781 C 208.597656 148.425781 208.320312 148.144531 208.320312 147.800781 C 208.320312 147.457031 208.597656 147.175781 208.941406 147.175781 L 242.691406 147.175781 C 243.039062 147.175781 243.316406 147.457031 243.316406 147.800781 C 243.316406 148.144531 243.039062 148.425781 242.691406 148.425781 " fill-opacity="1" fill-rule="nonzero"/><path fill="#000000" d="M 183.585938 87.847656 L 243.175781 87.847656 C 249.367188 87.847656 254.445312 93.238281 254.511719 99.890625 L 254.59375 107.75 C 254.648438 112.824219 251.988281 118.199219 247.3125 119.074219 C 230.832031 122.171875 196.648438 122.171875 180.101562 119.074219 C 175.410156 118.199219 172.636719 112.824219 172.585938 107.75 L 172.5 99.890625 C 172.433594 93.238281 177.394531 87.847656 183.585938 87.847656 " fill-opacity="1" fill-rule="nonzero"/><path fill="#745ff6" d="M 227.550781 103.660156 C 227.574219 105.890625 229.273438 107.695312 231.347656 107.695312 C 233.421875 107.695312 235.082031 105.890625 235.0625 103.660156 C 235.035156 101.433594 233.335938 99.625 231.261719 99.625 C 229.1875 99.625 227.523438 101.433594 227.550781 103.660156 " fill-opacity="1" fill-rule="nonzero"/><path fill="#745ff6" d="M 187.597656 103.660156 C 187.617188 105.890625 189.320312 107.695312 191.394531 107.695312 C 193.464844 107.695312 195.128906 105.890625 195.105469 103.660156 C 195.082031 101.433594 193.382812 99.625 191.308594 99.625 C 189.234375 99.625 187.570312 101.433594 187.597656 103.660156 " fill-opacity="1" fill-rule="nonzero"/><path fill="#745ff6" d="M 224.308594 208.378906 C 218.242188 208.378906 213.277344 203.457031 213.21875 197.382812 L 213.007812 177.21875 C 212.945312 171.148438 217.804688 166.222656 223.867188 166.222656 C 229.929688 166.222656 234.894531 171.148438 234.957031 177.21875 L 235.167969 197.382812 C 235.230469 203.457031 230.367188 208.378906 224.308594 208.378906 " fill-opacity="1" fill-rule="nonzero"/><path fill="#745ff6" d="M 226.078125 213.796875 L 223.847656 213.796875 C 215.234375 213.796875 208.152344 206.777344 208.058594 198.144531 L 207.855469 178.480469 C 207.851562 178.132812 208.128906 177.851562 208.476562 177.847656 C 208.476562 177.847656 208.480469 177.847656 208.480469 177.847656 C 208.824219 177.847656 209.101562 178.125 209.105469 178.464844 L 209.308594 198.128906 C 209.390625 206.082031 215.914062 212.550781 223.847656 212.550781 L 226.078125 212.550781 C 229.667969 212.550781 233.03125 211.152344 235.546875 208.609375 C 238.070312 206.058594 239.441406 202.664062 239.40625 199.054688 L 239.1875 178.148438 C 239.183594 177.804688 239.460938 177.519531 239.804688 177.515625 C 240.171875 177.507812 240.433594 177.789062 240.4375 178.136719 L 240.65625 199.039062 C 240.695312 202.988281 239.195312 206.699219 236.433594 209.488281 C 233.683594 212.265625 230.003906 213.796875 226.078125 213.796875 " fill-opacity="1" fill-rule="nonzero"/><path fill="#745ff6" d="M 236.351562 223.34375 L 212.878906 223.34375 C 211.78125 223.34375 210.886719 222.457031 210.875 221.359375 C 210.863281 220.261719 211.742188 219.375 212.835938 219.375 L 236.3125 219.375 C 237.402344 219.375 238.300781 220.261719 238.3125 221.359375 C 238.324219 222.457031 237.445312 223.34375 236.351562 223.34375 " fill-opacity="1" fill-rule="nonzero"/><path fill="#745ff6" d="M 225.984375 223.195312 L 222.9375 223.195312 L 222.769531 207.15625 L 225.816406 207.15625 L 225.984375 223.195312 " fill-opacity="1" fill-rule="nonzero"/><path fill="#745ff6" d="M 285.386719 170.671875 C 284.078125 170.628906 283.019531 171.613281 283.019531 172.875 L 283.042969 202.164062 C 283.046875 203.429688 284.105469 204.484375 285.414062 204.53125 C 286.722656 204.574219 287.78125 203.589844 287.78125 202.324219 L 287.753906 173.035156 C 287.753906 171.773438 286.695312 170.71875 285.386719 170.671875 " fill-opacity="1" fill-rule="nonzero"/><path fill="#745ff6" d="M 296.074219 161.253906 C 294.769531 161.207031 293.710938 162.195312 293.710938 163.457031 L 293.753906 212.308594 C 293.753906 213.570312 294.816406 214.628906 296.125 214.671875 C 297.429688 214.714844 298.488281 213.730469 298.488281 212.46875 L 298.445312 163.613281 C 298.445312 162.355469 297.382812 161.296875 296.074219 161.253906 " fill-opacity="1" fill-rule="nonzero"/><path fill="#745ff6" d="M 306.785156 170.355469 C 305.476562 170.3125 304.417969 171.296875 304.421875 172.558594 L 304.449219 203.925781 C 304.449219 205.1875 305.511719 206.246094 306.820312 206.289062 C 308.125 206.332031 309.183594 205.347656 309.183594 204.085938 L 309.15625 172.71875 C 309.15625 171.457031 308.09375 170.398438 306.785156 170.355469 " fill-opacity="1" fill-rule="nonzero"/><path fill="#745ff6" d="M 317.488281 173.996094 C 316.183594 173.953125 315.121094 174.9375 315.121094 176.199219 L 315.148438 201.007812 C 315.148438 202.269531 316.207031 203.328125 317.515625 203.371094 C 318.824219 203.417969 319.882812 202.429688 319.878906 201.167969 L 319.859375 176.359375 C 319.859375 175.097656 318.796875 174.039062 317.488281 173.996094 " fill-opacity="1" fill-rule="nonzero"/><path fill="#745ff6" d="M 275.503906 177.726562 C 274.199219 177.683594 273.144531 178.492188 273.15625 179.539062 L 273.328125 200.09375 C 273.335938 201.136719 274.402344 202.023438 275.710938 202.066406 C 277.019531 202.109375 278.070312 201.300781 278.0625 200.253906 L 277.890625 179.699219 C 277.878906 178.652344 276.8125 177.769531 275.503906 177.726562 " fill-opacity="1" fill-rule="nonzero"/><path fill="#745ff6" d="M 347.417969 176.144531 C 346.109375 176.101562 345.054688 177.089844 345.054688 178.347656 L 345.074219 203.15625 C 345.074219 204.417969 346.136719 205.476562 347.445312 205.519531 C 348.75 205.5625 349.8125 204.578125 349.808594 203.316406 L 349.785156 178.507812 C 349.785156 177.246094 348.726562 176.1875 347.417969 176.144531 " fill-opacity="1" fill-rule="nonzero"/><path fill="#745ff6" d="M 356.835938 181.800781 C 355.53125 181.71875 354.472656 182.289062 354.464844 183.078125 L 354.371094 198.574219 C 354.367188 199.363281 355.421875 200.070312 356.726562 200.152344 C 358.03125 200.234375 359.09375 199.664062 359.097656 198.875 L 359.195312 183.378906 C 359.199219 182.589844 358.144531 181.886719 356.835938 181.800781 " fill-opacity="1" fill-rule="nonzero"/><path fill="#745ff6" d="M 328.191406 179.019531 C 326.886719 178.972656 325.828125 179.960938 325.828125 181.21875 L 325.84375 196.707031 C 325.84375 197.96875 326.90625 199.027344 328.210938 199.074219 C 329.519531 199.117188 330.578125 198.128906 330.578125 196.871094 L 330.5625 181.382812 C 330.5625 180.121094 329.503906 179.0625 328.191406 179.019531 " fill-opacity="1" fill-rule="nonzero"/><path fill="#745ff6" d="M 338.054688 169.847656 C 336.746094 169.804688 335.6875 170.789062 335.6875 172.050781 L 335.71875 206.625 C 335.71875 207.882812 336.78125 208.941406 338.085938 208.988281 C 339.394531 209.03125 340.453125 208.046875 340.453125 206.78125 L 340.421875 172.210938 C 340.421875 170.949219 339.359375 169.890625 338.054688 169.847656 " fill-opacity="1" fill-rule="nonzero"/><path fill="#745ff6" d="M 166.1875 170.753906 C 164.882812 170.722656 163.835938 171.683594 163.847656 172.90625 L 164.234375 206.410156 C 164.25 207.632812 165.320312 208.648438 166.625 208.683594 C 167.933594 208.714844 168.980469 207.75 168.964844 206.527344 L 168.578125 173.023438 C 168.566406 171.800781 167.496094 170.785156 166.1875 170.753906 " fill-opacity="1" fill-rule="nonzero"/><path fill="#745ff6" d="M 144.855469 174.953125 C 143.546875 174.921875 142.5 175.886719 142.511719 177.109375 L 142.789062 201.152344 C 142.804688 202.375 143.875 203.390625 145.183594 203.421875 C 146.488281 203.453125 147.539062 202.488281 147.523438 201.265625 L 147.246094 177.226562 C 147.234375 176.003906 146.160156 174.988281 144.855469 174.953125 " fill-opacity="1" fill-rule="nonzero"/><path fill="#745ff6" d="M 134.210938 179.207031 C 132.90625 179.175781 131.855469 180.136719 131.871094 181.359375 L 132.042969 196.367188 C 132.058594 197.589844 133.128906 198.609375 134.4375 198.640625 C 135.742188 198.671875 136.789062 197.707031 136.777344 196.484375 L 136.601562 181.476562 C 136.589844 180.253906 135.519531 179.238281 134.210938 179.207031 " fill-opacity="1" fill-rule="nonzero"/><path fill="#745ff6" d="M 155.453125 178.371094 C 154.144531 178.339844 153.097656 179.304688 153.113281 180.527344 L 153.285156 195.535156 C 153.300781 196.757812 154.371094 197.777344 155.675781 197.808594 C 156.984375 197.839844 158.03125 196.875 158.015625 195.65625 L 157.84375 180.644531 C 157.828125 179.421875 156.757812 178.40625 155.453125 178.371094 " fill-opacity="1" fill-rule="nonzero"/><path fill="#745ff6" d="M 176.167969 175.058594 C 174.863281 175.023438 173.804688 176.324219 173.808594 177.957031 L 173.855469 198.015625 C 173.855469 199.648438 174.921875 201 176.226562 201.03125 C 177.53125 201.0625 178.589844 199.765625 178.585938 198.132812 L 178.542969 178.074219 C 178.539062 176.441406 177.476562 175.089844 176.167969 175.058594 " fill-opacity="1" fill-rule="nonzero"/><path fill="#5236ff" d="M 123.410156 169.695312 C 122.101562 169.660156 121.054688 170.625 121.070312 171.847656 L 121.457031 205.351562 C 121.46875 206.574219 122.542969 207.589844 123.847656 207.621094 C 125.15625 207.65625 126.203125 206.691406 126.1875 205.46875 L 125.800781 171.964844 C 125.785156 170.742188 124.714844 169.726562 123.410156 169.695312 " fill-opacity="1" fill-rule="nonzero"/><path fill="#5236ff" d="M 112.765625 173.859375 C 111.460938 173.824219 110.410156 174.789062 110.425781 176.011719 L 110.710938 200.660156 C 110.722656 201.878906 111.792969 202.898438 113.101562 202.929688 C 114.40625 202.964844 115.457031 201.996094 115.441406 200.773438 L 115.15625 176.128906 C 115.144531 174.90625 114.074219 173.890625 112.765625 173.859375 " fill-opacity="1" fill-rule="nonzero"/><path fill="#5236ff" d="M 110.761719 40.210938 L 33.699219 40.359375 C 29.984375 40.367188 26.980469 43.382812 26.984375 47.097656 L 27.046875 78.964844 C 27.054688 82.679688 30.074219 85.683594 33.789062 85.675781 L 91.488281 85.566406 L 108.335938 98.441406 L 108.308594 85.535156 L 110.847656 85.527344 C 114.5625 85.523438 117.570312 82.503906 117.5625 78.792969 L 117.503906 46.921875 C 117.496094 43.207031 114.476562 40.207031 110.761719 40.210938 " fill-opacity="1" fill-rule="nonzero"/><path fill="#000000" d="M 108.144531 100.203125 C 108.003906 100.203125 107.867188 100.152344 107.753906 100.0625 L 91.421875 86.878906 L 68.261719 86.308594 C 67.917969 86.296875 67.644531 86.011719 67.652344 85.667969 C 67.660156 85.324219 67.933594 85.058594 68.292969 85.058594 L 91.664062 85.632812 C 91.800781 85.636719 91.933594 85.683594 92.039062 85.773438 L 107.554688 98.292969 L 107.839844 86.65625 C 107.84375 86.492188 107.914062 86.332031 108.03125 86.21875 C 108.152344 86.105469 108.3125 86.042969 108.480469 86.046875 L 111.019531 86.109375 C 111.070312 86.113281 111.121094 86.113281 111.167969 86.113281 C 114.464844 86.113281 117.1875 83.476562 117.269531 80.164062 L 118.054688 48.300781 C 118.09375 46.671875 117.496094 45.128906 116.371094 43.945312 C 115.25 42.769531 113.734375 42.09375 112.101562 42.054688 L 35.066406 40.164062 C 33.445312 40.113281 31.886719 40.71875 30.707031 41.839844 C 29.527344 42.964844 28.855469 44.480469 28.8125 46.109375 L 28.027344 77.96875 C 27.988281 79.597656 28.585938 81.144531 29.710938 82.324219 C 30.832031 83.503906 32.351562 84.175781 33.980469 84.214844 L 43.25 84.441406 C 43.597656 84.449219 43.871094 84.738281 43.859375 85.082031 C 43.851562 85.425781 43.566406 85.695312 43.222656 85.691406 L 33.949219 85.464844 C 31.984375 85.417969 30.160156 84.605469 28.804688 83.183594 C 27.449219 81.761719 26.730469 79.902344 26.78125 77.9375 L 27.566406 46.074219 C 27.613281 44.113281 28.421875 42.289062 29.84375 40.9375 C 31.265625 39.585938 33.128906 38.875 35.097656 38.914062 L 112.132812 40.808594 C 114.097656 40.855469 115.921875 41.664062 117.277344 43.085938 C 118.632812 44.507812 119.351562 46.371094 119.300781 48.332031 L 118.515625 80.195312 C 118.417969 84.183594 115.140625 87.359375 111.167969 87.359375 C 111.109375 87.359375 111.046875 87.359375 110.988281 87.355469 L 109.074219 87.3125 L 108.769531 99.59375 C 108.765625 99.828125 108.625 100.042969 108.40625 100.144531 C 108.324219 100.183594 108.234375 100.203125 108.144531 100.203125 " fill-opacity="1" fill-rule="nonzero"/><path fill="#000000" d="M 61.398438 86.175781 C 61.394531 86.175781 61.386719 86.175781 61.378906 86.175781 L 54.039062 85.957031 C 53.695312 85.945312 53.425781 85.660156 53.433594 85.3125 C 53.445312 84.96875 53.742188 84.6875 54.078125 84.707031 L 61.417969 84.929688 C 61.761719 84.9375 62.035156 85.226562 62.023438 85.570312 C 62.015625 85.910156 61.734375 86.175781 61.398438 86.175781 " fill-opacity="1" fill-rule="nonzero"/><path fill="#745ff6" d="M 69.203125 56.3125 C 69.199219 56.3125 69.195312 56.3125 69.1875 56.3125 L 39.226562 55.578125 C 38.882812 55.566406 38.609375 55.28125 38.617188 54.933594 C 38.625 54.59375 38.894531 54.3125 39.257812 54.328125 L 69.21875 55.066406 C 69.566406 55.070312 69.835938 55.359375 69.828125 55.703125 C 69.820312 56.042969 69.542969 56.3125 69.203125 56.3125 " fill-opacity="1" fill-rule="nonzero"/><path fill="#745ff6" d="M 106.585938 57.242188 C 106.582031 57.242188 106.578125 57.242188 106.570312 57.242188 L 74.828125 56.460938 C 74.480469 56.449219 74.210938 56.164062 74.21875 55.820312 C 74.226562 55.480469 74.503906 55.210938 74.84375 55.210938 C 74.847656 55.210938 74.851562 55.210938 74.855469 55.210938 L 106.601562 55.992188 C 106.949219 56 107.21875 56.289062 107.210938 56.632812 C 107.203125 56.972656 106.925781 57.242188 106.585938 57.242188 " fill-opacity="1" fill-rule="nonzero"/><path fill="#745ff6" d="M 83.140625 71.597656 C 83.136719 71.597656 83.128906 71.597656 83.125 71.597656 L 39.222656 70.46875 C 38.878906 70.460938 38.605469 70.175781 38.617188 69.832031 C 38.625 69.492188 38.902344 69.222656 39.242188 69.222656 C 39.246094 69.222656 39.25 69.222656 39.257812 69.222656 L 83.15625 70.347656 C 83.5 70.359375 83.773438 70.644531 83.765625 70.988281 C 83.753906 71.328125 83.476562 71.597656 83.140625 71.597656 " fill-opacity="1" fill-rule="nonzero"/><path fill="#745ff6" d="M 106.585938 72.136719 C 106.582031 72.136719 106.574219 72.136719 106.570312 72.136719 L 88.765625 71.746094 C 88.417969 71.738281 88.144531 71.453125 88.152344 71.109375 C 88.160156 70.765625 88.445312 70.503906 88.792969 70.5 L 106.597656 70.890625 C 106.945312 70.894531 107.21875 71.179688 107.210938 71.527344 C 107.203125 71.863281 106.925781 72.136719 106.585938 72.136719 " fill-opacity="1" fill-rule="nonzero"/><path fill="#745ff6" d="M 57.488281 63.394531 C 57.484375 63.394531 57.480469 63.394531 57.476562 63.394531 L 39.230469 63.023438 C 38.882812 63.019531 38.609375 62.730469 38.617188 62.386719 C 38.625 62.042969 38.90625 61.777344 39.253906 61.777344 L 57.503906 62.144531 C 57.847656 62.152344 58.121094 62.4375 58.113281 62.78125 C 58.109375 63.121094 57.828125 63.394531 57.488281 63.394531 " fill-opacity="1" fill-rule="nonzero"/><path fill="#745ff6" d="M 106.585938 64.6875 C 106.582031 64.6875 106.578125 64.6875 106.570312 64.6875 L 63.113281 63.539062 C 62.765625 63.527344 62.496094 63.242188 62.503906 62.894531 C 62.515625 62.550781 62.816406 62.269531 63.144531 62.289062 L 106.601562 63.4375 C 106.949219 63.445312 107.222656 63.734375 107.210938 64.082031 C 107.203125 64.417969 106.925781 64.6875 106.585938 64.6875 " fill-opacity="1" fill-rule="nonzero"/><path fill="#745ff6" d="M 132.589844 317.132812 C 132.589844 317.132812 114.863281 278.304688 125.03125 227.964844 C 125.03125 227.964844 152.511719 250.972656 142.601562 317.132812 L 132.589844 317.132812 " fill-opacity="1" fill-rule="nonzero"/><path fill="#ffffff" d="M 136.929688 313.707031 C 136.917969 313.707031 136.90625 313.707031 136.890625 313.707031 C 136.546875 313.6875 136.285156 313.394531 136.304688 313.046875 C 137.660156 288.238281 126.460938 235.261719 126.347656 234.730469 C 126.273438 234.394531 126.492188 234.0625 126.828125 233.992188 C 127.164062 233.917969 127.496094 234.132812 127.570312 234.46875 C 127.683594 235.003906 138.914062 288.140625 137.550781 313.117188 C 137.53125 313.449219 137.257812 313.707031 136.929688 313.707031 " fill-opacity="1" fill-rule="nonzero"/><path fill="#d2ccf6" d="M 150.425781 254.003906 C 150.425781 254.003906 127.585938 295.238281 141.324219 313.082031 L 148.675781 313.082031 C 148.675781 313.082031 163.363281 280.847656 150.425781 254.003906 " fill-opacity="1" fill-rule="nonzero"/><path fill="#ffffff" d="M 144.757812 314.800781 C 144.421875 314.800781 144.144531 314.535156 144.132812 314.199219 C 143.472656 297.167969 149.746094 254.34375 149.808594 253.910156 C 149.859375 253.570312 150.175781 253.335938 150.519531 253.382812 C 150.859375 253.433594 151.09375 253.753906 151.046875 254.09375 C 150.980469 254.523438 144.722656 297.234375 145.382812 314.152344 C 145.394531 314.496094 145.125 314.785156 144.78125 314.796875 C 144.773438 314.800781 144.765625 314.800781 144.757812 314.800781 " fill-opacity="1" fill-rule="nonzero"/><path fill="#5236ff" d="M 106.816406 269.375 C 106.816406 269.375 126.273438 276.007812 133.320312 315.28125 L 125.667969 315.28125 C 125.667969 315.28125 109.695312 293.710938 106.816406 269.375 " fill-opacity="1" fill-rule="nonzero"/><path fill="#d2ccf6" d="M 129.136719 314.800781 C 128.835938 314.800781 128.570312 314.582031 128.523438 314.277344 C 125.628906 296.8125 113.113281 279.222656 112.984375 279.042969 C 112.785156 278.765625 112.847656 278.375 113.128906 278.171875 C 113.410156 277.972656 113.800781 278.035156 114 278.316406 C 114.128906 278.496094 126.816406 296.324219 129.753906 314.074219 C 129.8125 314.414062 129.582031 314.734375 129.238281 314.789062 C 129.207031 314.796875 129.171875 314.800781 129.136719 314.800781 " fill-opacity="1" fill-rule="nonzero"/><path fill="#ffffff" d="M 114.324219 312.164062 L 162.328125 312.164062 L 163.40625 334.855469 C 163.667969 340.417969 159.226562 345.070312 153.652344 345.070312 L 126.238281 345.070312 C 119.644531 345.070312 114.296875 339.726562 114.304688 333.136719 L 114.324219 312.164062 " fill-opacity="1" fill-rule="nonzero"/><path fill="#745ff6" d="M 114.949219 312.789062 L 114.929688 333.136719 C 114.925781 336.15625 116.101562 338.996094 118.238281 341.132812 C 120.375 343.269531 123.214844 344.449219 126.238281 344.449219 L 153.652344 344.449219 C 156.175781 344.449219 158.527344 343.441406 160.265625 341.617188 C 162.007812 339.792969 162.902344 337.402344 162.78125 334.882812 L 161.734375 312.789062 Z M 153.652344 345.695312 L 126.238281 345.695312 C 122.878906 345.695312 119.726562 344.390625 117.351562 342.015625 C 114.980469 339.644531 113.675781 336.488281 113.679688 333.136719 L 113.699219 312.164062 C 113.699219 311.820312 113.980469 311.539062 114.324219 311.539062 L 162.328125 311.539062 C 162.660156 311.539062 162.9375 311.800781 162.953125 312.136719 L 164.03125 334.824219 C 164.167969 337.6875 163.152344 340.40625 161.171875 342.480469 C 159.191406 344.550781 156.519531 345.695312 153.652344 345.695312 " fill-opacity="1" fill-rule="nonzero"/><path fill="#d2ccf6" d="M 344.152344 318.65625 L 230.472656 318.65625 C 227.539062 318.65625 225.136719 316.257812 225.136719 313.324219 L 225.136719 268.570312 C 225.136719 265.636719 227.539062 263.238281 230.472656 263.238281 L 257.191406 263.238281 C 257.550781 263.238281 257.839844 262.957031 257.855469 262.601562 L 261.640625 248.136719 L 275.742188 263.085938 C 275.863281 263.183594 276.011719 263.238281 276.167969 263.238281 L 344.152344 263.238281 C 347.085938 263.238281 349.484375 265.636719 349.484375 268.570312 L 349.484375 313.324219 C 349.484375 316.257812 347.085938 318.65625 344.152344 318.65625 " fill-opacity="1" fill-rule="nonzero"/><path fill="#745ff6" d="M 336.753906 282.140625 L 309.511719 282.140625 C 309.167969 282.140625 308.886719 281.863281 308.886719 281.515625 C 308.886719 281.171875 309.167969 280.894531 309.511719 280.894531 L 336.753906 280.894531 C 337.097656 280.894531 337.378906 281.171875 337.378906 281.515625 C 337.378906 281.863281 337.097656 282.140625 336.753906 282.140625 " fill-opacity="1" fill-rule="nonzero"/><path fill="#745ff6" d="M 297.835938 282.140625 L 237.804688 282.140625 C 237.457031 282.140625 237.179688 281.863281 237.179688 281.515625 C 237.179688 281.171875 237.457031 280.894531 237.804688 280.894531 L 297.835938 280.894531 C 298.183594 280.894531 298.460938 281.171875 298.460938 281.515625 C 298.460938 281.863281 298.183594 282.140625 297.835938 282.140625 " fill-opacity="1" fill-rule="nonzero"/><path fill="#745ff6" d="M 336.753906 294.199219 L 274.484375 294.199219 C 274.140625 294.199219 273.859375 293.917969 273.859375 293.574219 C 273.859375 293.230469 274.140625 292.949219 274.484375 292.949219 L 336.753906 292.949219 C 337.097656 292.949219 337.378906 293.230469 337.378906 293.574219 C 337.378906 293.917969 337.097656 294.199219 336.753906 294.199219 " fill-opacity="1" fill-rule="nonzero"/><path fill="#745ff6" d="M 262.417969 294.199219 L 237.804688 294.199219 C 237.457031 294.199219 237.179688 293.917969 237.179688 293.574219 C 237.179688 293.230469 237.457031 292.949219 237.804688 292.949219 L 262.417969 292.949219 C 262.765625 292.949219 263.042969 293.230469 263.042969 293.574219 C 263.042969 293.917969 262.765625 294.199219 262.417969 294.199219 " fill-opacity="1" fill-rule="nonzero"/><path fill="#745ff6" d="M 336.753906 304.699219 L 298.664062 304.699219 C 298.316406 304.699219 298.039062 304.417969 298.039062 304.074219 C 298.039062 303.730469 298.316406 303.449219 298.664062 303.449219 L 336.753906 303.449219 C 337.097656 303.449219 337.378906 303.730469 337.378906 304.074219 C 337.378906 304.417969 337.097656 304.699219 336.753906 304.699219 " fill-opacity="1" fill-rule="nonzero"/><path fill="#745ff6" d="M 286.523438 304.699219 L 237.804688 304.699219 C 237.457031 304.699219 237.175781 304.417969 237.175781 304.074219 C 237.175781 303.730469 237.457031 303.449219 237.804688 303.449219 L 286.523438 303.449219 C 286.867188 303.449219 287.148438 303.730469 287.148438 304.074219 C 287.148438 304.417969 286.867188 304.699219 286.523438 304.699219 " fill-opacity="1" fill-rule="nonzero"/><path fill="#000000" d="M 344.34375 320.160156 C 344.332031 320.160156 344.316406 320.160156 344.300781 320.160156 L 229.296875 319.222656 C 227.886719 319.210938 226.5625 318.644531 225.570312 317.636719 C 224.574219 316.625 224.035156 315.292969 224.046875 313.886719 L 224.421875 267.804688 C 224.445312 264.902344 226.816406 262.558594 229.71875 262.558594 C 229.730469 262.558594 229.746094 262.558594 229.761719 262.558594 L 253.859375 262.753906 L 257.457031 262.972656 L 261.03125 247.992188 C 261.085938 247.769531 261.261719 247.589844 261.480469 247.53125 C 261.703125 247.472656 261.941406 247.542969 262.097656 247.710938 L 276.148438 262.9375 L 297.839844 263.113281 C 298.1875 263.117188 298.460938 263.398438 298.457031 263.742188 C 298.457031 264.085938 298.179688 264.382812 297.832031 264.359375 L 275.867188 264.179688 C 275.695312 264.179688 275.53125 264.109375 275.414062 263.980469 L 261.976562 249.421875 L 258.550781 263.773438 C 258.480469 264.066406 258.203125 264.265625 257.90625 264.25 L 253.816406 264.003906 L 229.75 263.804688 C 227.523438 263.773438 225.6875 265.585938 225.671875 267.816406 L 225.296875 313.898438 C 225.285156 314.972656 225.699219 315.988281 226.460938 316.761719 C 227.222656 317.535156 228.234375 317.964844 229.308594 317.972656 L 344.3125 318.910156 C 344.320312 318.910156 344.332031 318.910156 344.34375 318.910156 C 346.558594 318.910156 348.371094 317.117188 348.386719 314.902344 L 348.765625 268.820312 C 348.785156 266.589844 346.984375 264.761719 344.753906 264.742188 L 303.28125 264.40625 C 302.9375 264.402344 302.660156 264.121094 302.660156 263.777344 C 302.664062 263.433594 302.964844 263.160156 303.292969 263.15625 L 344.761719 263.496094 C 347.683594 263.519531 350.039062 265.914062 350.015625 268.828125 L 349.636719 314.910156 C 349.617188 317.8125 347.242188 320.160156 344.34375 320.160156 " fill-opacity="1" fill-rule="nonzero"/><path fill="#ffffff" d="M 62.679688 322.871094 L 63.671875 332.304688 L 70.054688 333.054688 L 70.054688 321.867188 L 62.679688 322.871094 " fill-opacity="1" fill-rule="nonzero"/><path fill="#000000" d="M 64.238281 331.742188 L 69.429688 332.351562 L 69.429688 322.582031 L 63.363281 323.40625 Z M 70.054688 333.675781 C 70.03125 333.675781 70.007812 333.675781 69.980469 333.671875 L 63.597656 332.925781 C 63.304688 332.890625 63.078125 332.660156 63.046875 332.371094 L 62.058594 322.933594 C 62.023438 322.601562 62.261719 322.296875 62.59375 322.25 L 69.96875 321.246094 C 70.148438 321.222656 70.328125 321.273438 70.464844 321.394531 C 70.601562 321.511719 70.679688 321.683594 70.679688 321.867188 L 70.679688 333.054688 C 70.679688 333.230469 70.601562 333.398438 70.46875 333.519531 C 70.355469 333.621094 70.207031 333.675781 70.054688 333.675781 " fill-opacity="1" fill-rule="nonzero"/><path fill="#745ff6" d="M 71.058594 349.476562 C 68.398438 349.851562 64.035156 350.179688 58.914062 349.472656 C 57.234375 349.238281 56.121094 347.613281 56.527344 345.96875 C 57.65625 341.386719 59.597656 332.699219 62.933594 328.671875 L 63.761719 330.855469 L 64.90625 328.800781 C 65.0625 328.519531 65.34375 328.328125 65.664062 328.289062 L 68.171875 327.972656 C 68.695312 327.90625 69.183594 328.25 69.289062 328.769531 L 69.6875 330.660156 L 70.5625 328.175781 L 73.480469 346.285156 C 73.683594 347.832031 72.605469 349.261719 71.058594 349.476562 " fill-opacity="1" fill-rule="nonzero"/><path fill="#000000" d="M 62.753906 329.960938 C 60.117188 333.863281 58.421875 340.832031 57.375 345.128906 L 57.132812 346.117188 C 56.980469 346.738281 57.09375 347.367188 57.453125 347.894531 C 57.808594 348.417969 58.371094 348.769531 59 348.855469 C 64.003906 349.546875 68.273438 349.238281 70.972656 348.859375 C 72.171875 348.691406 73.019531 347.574219 72.859375 346.367188 L 70.335938 330.699219 L 70.277344 330.867188 C 70.1875 331.132812 69.925781 331.300781 69.648438 331.285156 C 69.371094 331.265625 69.136719 331.066406 69.078125 330.789062 L 68.679688 328.894531 C 68.636719 328.699219 68.449219 328.566406 68.25 328.589844 L 65.742188 328.90625 C 65.621094 328.925781 65.511719 328.996094 65.453125 329.105469 L 64.308594 331.160156 C 64.191406 331.375 63.957031 331.496094 63.71875 331.480469 C 63.476562 331.460938 63.265625 331.308594 63.179688 331.078125 Z M 65.023438 350.515625 C 63.148438 350.515625 61.058594 350.398438 58.828125 350.089844 C 57.851562 349.957031 56.972656 349.410156 56.417969 348.59375 C 55.867188 347.785156 55.6875 346.773438 55.921875 345.820312 L 56.164062 344.832031 C 57.316406 340.085938 59.253906 332.136719 62.453125 328.277344 C 62.59375 328.105469 62.816406 328.019531 63.035156 328.058594 C 63.253906 328.09375 63.4375 328.246094 63.519531 328.453125 L 63.871094 329.378906 L 64.359375 328.496094 C 64.613281 328.042969 65.070312 327.734375 65.585938 327.667969 L 68.09375 327.351562 C 68.84375 327.253906 69.558594 327.699219 69.828125 328.386719 L 69.972656 327.96875 C 70.066406 327.699219 70.339844 327.527344 70.617188 327.550781 C 70.902344 327.578125 71.132812 327.792969 71.179688 328.074219 L 74.09375 346.1875 C 74.347656 348.085938 73.023438 349.832031 71.148438 350.097656 C 69.574219 350.316406 67.480469 350.515625 65.023438 350.515625 " fill-opacity="1" fill-rule="nonzero"/><path fill="#000000" d="M 63.660156 347.476562 C 61.941406 347.476562 60.082031 347.328125 58.226562 346.90625 C 57.890625 346.828125 57.679688 346.492188 57.757812 346.15625 C 57.832031 345.820312 58.167969 345.613281 58.503906 345.6875 C 64.699219 347.097656 71.179688 345.285156 71.246094 345.265625 C 71.578125 345.171875 71.921875 345.363281 72.019531 345.695312 C 72.113281 346.027344 71.921875 346.371094 71.589844 346.464844 C 71.390625 346.523438 67.972656 347.476562 63.660156 347.476562 " fill-opacity="1" fill-rule="nonzero"/><path fill="#000000" d="M 62.140625 340.464844 C 61.804688 340.464844 61.527344 340.199219 61.515625 339.859375 C 61.503906 339.515625 61.773438 339.226562 62.121094 339.214844 L 68.105469 339.019531 C 68.441406 338.992188 68.738281 339.277344 68.75 339.621094 C 68.761719 339.964844 68.488281 340.253906 68.144531 340.265625 L 62.160156 340.464844 C 62.152344 340.464844 62.148438 340.464844 62.140625 340.464844 " fill-opacity="1" fill-rule="nonzero"/><path fill="#ffffff" d="M 92.582031 317.847656 L 93.539062 331.617188 L 101.222656 331.617188 L 101.582031 317.847656 L 92.582031 317.847656 " fill-opacity="1" fill-rule="nonzero"/><path fill="#000000" d="M 94.125 330.992188 L 100.613281 330.992188 L 100.9375 318.472656 L 93.253906 318.472656 Z M 101.222656 332.238281 L 93.539062 332.238281 C 93.210938 332.238281 92.941406 331.984375 92.917969 331.660156 L 91.960938 317.886719 C 91.949219 317.714844 92.007812 317.546875 92.128906 317.421875 C 92.246094 317.292969 92.410156 317.222656 92.582031 317.222656 L 101.582031 317.222656 C 101.75 317.222656 101.910156 317.289062 102.027344 317.410156 C 102.144531 317.53125 102.210938 317.695312 102.203125 317.863281 L 101.847656 331.628906 C 101.839844 331.96875 101.5625 332.238281 101.222656 332.238281 " fill-opacity="1" fill-rule="nonzero"/><path fill="#745ff6" d="M 91.535156 339.386719 C 91.515625 340.691406 92.40625 341.832031 93.675781 342.128906 C 98.089844 343.15625 108.039062 345.445312 110.878906 345.867188 C 114.5625 346.414062 119.089844 345.285156 121.035156 343.132812 C 122.980469 340.980469 116.675781 335.839844 113.683594 333.96875 C 109.238281 331.191406 104.96875 325.699219 103.179688 325.453125 C 101.390625 325.207031 98.046875 330.398438 98.046875 330.398438 L 92.582031 328.105469 C 92.582031 328.105469 91.632812 332.78125 91.535156 339.386719 " fill-opacity="1" fill-rule="nonzero"/><path fill="#000000" d="M 92.15625 339.398438 C 92.144531 340.402344 92.839844 341.292969 93.816406 341.523438 C 98.03125 342.5 108.144531 344.828125 110.96875 345.25 C 114.523438 345.777344 118.832031 344.640625 120.570312 342.714844 C 120.679688 342.59375 120.820312 342.382812 120.761719 341.972656 C 120.480469 339.941406 116.277344 336.328125 113.355469 334.5 C 111.085938 333.082031 108.925781 331.035156 107.019531 329.230469 C 105.433594 327.722656 103.792969 326.167969 103.09375 326.074219 C 102.253906 325.945312 100.082031 328.390625 98.574219 330.734375 C 98.40625 330.988281 98.085938 331.089844 97.804688 330.972656 L 93.0625 328.980469 C 92.796875 330.550781 92.230469 334.445312 92.15625 339.398438 Z M 112.792969 346.628906 C 112.117188 346.628906 111.441406 346.582031 110.785156 346.480469 C 108.019531 346.070312 98.789062 343.957031 93.53125 342.738281 C 91.988281 342.378906 90.886719 340.964844 90.910156 339.378906 C 91.007812 332.789062 91.960938 328.027344 91.972656 327.980469 C 92.007812 327.796875 92.125 327.640625 92.292969 327.550781 C 92.457031 327.464844 92.652344 327.453125 92.824219 327.527344 L 97.808594 329.621094 C 98.890625 328.007812 101.425781 324.585938 103.265625 324.835938 C 104.3125 324.980469 105.632812 326.191406 107.882812 328.324219 C 109.742188 330.089844 111.851562 332.089844 114.015625 333.441406 C 115.953125 334.652344 121.578125 338.785156 122 341.800781 C 122.09375 342.476562 121.921875 343.082031 121.5 343.550781 C 119.808594 345.421875 116.246094 346.628906 112.792969 346.628906 " fill-opacity="1" fill-rule="nonzero"/><path fill="#000000" d="M 112.730469 344.09375 C 104.664062 344.09375 93.914062 339.753906 93.304688 339.503906 C 92.984375 339.375 92.832031 339.011719 92.960938 338.691406 C 93.09375 338.371094 93.457031 338.21875 93.777344 338.351562 C 93.972656 338.429688 113.277344 346.222656 118.878906 341.164062 C 119.136719 340.933594 119.53125 340.953125 119.761719 341.210938 C 119.992188 341.46875 119.972656 341.859375 119.714844 342.089844 C 118.101562 343.550781 115.582031 344.09375 112.730469 344.09375 " fill-opacity="1" fill-rule="nonzero"/><path fill="#000000" d="M 104.214844 335.761719 C 104.042969 335.761719 103.871094 335.691406 103.75 335.554688 C 103.519531 335.300781 103.539062 334.902344 103.796875 334.671875 L 107.703125 331.152344 C 107.960938 330.917969 108.355469 330.941406 108.585938 331.195312 C 108.816406 331.453125 108.796875 331.847656 108.539062 332.078125 L 104.632812 335.601562 C 104.511719 335.707031 104.363281 335.761719 104.214844 335.761719 " fill-opacity="1" fill-rule="nonzero"/><path fill="#000000" d="M 60.5 228.082031 C 60.5 228.082031 58.121094 271.128906 56.875 285.988281 C 55.628906 300.84375 59.785156 324.730469 59.785156 324.730469 L 71.644531 324.105469 C 71.644531 324.105469 72.457031 295.066406 73.339844 287.003906 C 73.339844 287.003906 78.347656 276.070312 79.832031 266.316406 C 81.316406 256.566406 86.375 241.167969 86.375 241.167969 C 86.375 241.167969 90.480469 318.039062 90.878906 324.078125 C 90.878906 324.078125 100.175781 324.492188 103.511719 322.394531 C 103.511719 322.394531 109.417969 294.367188 108.570312 279.117188 C 107.722656 263.867188 108.652344 225.976562 108.652344 225.976562 L 60.5 228.082031 " fill-opacity="1" fill-rule="nonzero"/><path fill="#ffffff" d="M 71.15625 287.625 L 67.53125 287.625 C 67.1875 287.625 66.90625 287.34375 66.90625 287 C 66.90625 286.65625 67.1875 286.375 67.53125 286.375 L 71.15625 286.375 C 71.5 286.375 71.78125 286.65625 71.78125 287 C 71.78125 287.34375 71.5 287.625 71.15625 287.625 " fill-opacity="1" fill-rule="nonzero"/><path fill="#ffffff" d="M 96.976562 309.980469 C 96.972656 309.980469 96.96875 309.980469 96.964844 309.980469 C 96.621094 309.972656 96.34375 309.6875 96.351562 309.34375 C 96.484375 302.167969 104.324219 289.371094 104.660156 288.828125 C 104.839844 288.535156 105.226562 288.445312 105.519531 288.625 C 105.8125 288.804688 105.902344 289.191406 105.722656 289.484375 C 105.644531 289.613281 97.726562 302.53125 97.601562 309.367188 C 97.59375 309.710938 97.316406 309.980469 96.976562 309.980469 " fill-opacity="1" fill-rule="nonzero"/><path fill="#ffffff" d="M 112.40625 159.242188 C 113.269531 159.175781 117.507812 167.847656 130.769531 167.484375 C 144.027344 167.121094 154.667969 152.292969 154.667969 152.292969 C 154.667969 152.292969 159.246094 144.578125 162.722656 141.785156 C 166.199219 138.996094 166.746094 138.628906 166.746094 138.628906 C 166.746094 138.628906 167.832031 140.078125 166.746094 141.785156 C 165.652344 143.496094 162.648438 146.6875 162.648438 146.6875 C 162.648438 146.6875 165.960938 148.503906 164.464844 152.292969 C 162.746094 156.648438 157.902344 156.296875 157.902344 156.296875 C 157.902344 156.296875 148.070312 199.792969 107.4375 179.125 L 112.40625 159.242188 " fill-opacity="1" fill-rule="nonzero"/><path fill="#000000" d="M 108.164062 178.792969 C 119.929688 184.675781 130.179688 185.648438 138.632812 181.679688 C 152.886719 174.996094 157.25 156.347656 157.292969 156.160156 C 157.363281 155.859375 157.636719 155.652344 157.945312 155.675781 C 158.125 155.691406 162.359375 155.929688 163.886719 152.066406 C 165.152344 148.851562 162.457031 147.296875 162.34375 147.234375 C 162.175781 147.140625 162.058594 146.972656 162.027344 146.78125 C 162 146.59375 162.058594 146.402344 162.191406 146.257812 C 162.21875 146.230469 165.171875 143.089844 166.214844 141.449219 C 166.691406 140.710938 166.644531 140.035156 166.511719 139.585938 C 165.972656 140 164.960938 140.792969 163.113281 142.273438 C 159.765625 144.960938 155.25 152.535156 155.207031 152.613281 C 155.195312 152.625 155.1875 152.640625 155.175781 152.65625 C 154.734375 153.273438 144.203125 167.742188 130.785156 168.105469 C 119.976562 168.40625 115.058594 162.921875 112.960938 160.582031 C 112.898438 160.511719 112.832031 160.441406 112.769531 160.371094 Z M 127.585938 185.324219 C 121.375 185.324219 114.542969 183.441406 107.152344 179.683594 C 106.894531 179.550781 106.757812 179.253906 106.832031 178.976562 L 111.800781 159.09375 C 111.863281 158.832031 112.089844 158.640625 112.359375 158.621094 C 112.839844 158.582031 113.171875 158.949219 113.890625 159.75 C 115.875 161.960938 120.527344 167.144531 130.75 166.859375 C 143.332031 166.515625 153.691406 152.570312 154.144531 151.949219 C 154.488281 151.378906 158.875 144.078125 162.332031 141.300781 C 165.789062 138.527344 166.371094 138.128906 166.394531 138.113281 C 166.667969 137.925781 167.042969 137.988281 167.242188 138.253906 C 167.296875 138.328125 168.578125 140.074219 167.273438 142.121094 C 166.425781 143.449219 164.507812 145.589844 163.597656 146.582031 C 164.832031 147.585938 166.183594 149.644531 165.046875 152.523438 C 163.535156 156.355469 159.785156 156.867188 158.386719 156.921875 C 157.578125 159.96875 152.644531 176.488281 139.164062 182.8125 C 135.59375 184.484375 131.726562 185.324219 127.585938 185.324219 " fill-opacity="1" fill-rule="nonzero"/><path fill="#745ff6" d="M 46.683594 179.125 C 46.683594 179.125 50.664062 153.460938 64.722656 147.144531 C 78.78125 140.832031 97.800781 141.710938 103.046875 144.863281 C 108.289062 148.015625 121.960938 162.273438 121.960938 162.273438 L 109.882812 179.125 C 109.882812 179.125 112.640625 224.488281 110.460938 236.464844 C 110.460938 236.464844 97.019531 238.03125 91.320312 235.789062 C 85.621094 233.546875 66.878906 230.402344 57.921875 234.515625 L 59.550781 177.082031 L 46.683594 179.125 " fill-opacity="1" fill-rule="nonzero"/><path fill="#000000" d="M 70.09375 231.890625 C 78.636719 231.890625 87.851562 233.753906 91.550781 235.207031 C 96.453125 237.136719 107.523438 236.140625 109.921875 235.894531 C 111.921875 223.464844 109.285156 179.609375 109.257812 179.164062 C 109.25 179.019531 109.289062 178.878906 109.375 178.761719 L 121.152344 162.332031 C 118.960938 160.066406 107.367188 148.191406 102.722656 145.398438 C 97.828125 142.453125 78.96875 141.429688 64.976562 147.714844 C 52.816406 153.179688 48.292969 173.90625 47.449219 178.371094 L 59.453125 176.464844 C 59.632812 176.4375 59.824219 176.492188 59.960938 176.613281 C 60.101562 176.734375 60.179688 176.914062 60.175781 177.101562 L 58.574219 233.5625 C 61.730469 232.355469 65.828125 231.890625 70.09375 231.890625 Z M 100.988281 237.625 C 97.386719 237.625 93.566406 237.34375 91.09375 236.371094 C 85.21875 234.054688 66.695312 231.175781 58.183594 235.082031 C 57.988281 235.171875 57.757812 235.15625 57.578125 235.035156 C 57.398438 234.917969 57.292969 234.714844 57.296875 234.496094 L 58.902344 177.816406 L 46.78125 179.742188 C 46.582031 179.773438 46.382812 179.707031 46.242188 179.566406 C 46.101562 179.425781 46.035156 179.226562 46.066406 179.03125 C 46.230469 177.96875 50.257812 152.957031 64.464844 146.574219 C 78.390625 140.320312 97.667969 140.902344 103.367188 144.328125 C 108.625 147.488281 121.851562 161.257812 122.414062 161.84375 C 122.621094 162.058594 122.644531 162.394531 122.46875 162.636719 L 110.519531 179.308594 C 110.75 183.144531 113.191406 224.964844 111.074219 236.578125 C 111.023438 236.847656 110.804688 237.050781 110.53125 237.082031 C 110.214844 237.121094 105.792969 237.625 100.988281 237.625 " fill-opacity="1" fill-rule="nonzero"/><path fill="#000000" d="M 70.269531 223.304688 C 69.972656 223.304688 69.710938 223.089844 69.65625 222.785156 C 69.59375 222.449219 69.824219 222.121094 70.164062 222.066406 C 91.410156 218.3125 97.570312 203.667969 97.628906 203.519531 C 97.757812 203.199219 98.125 203.046875 98.441406 203.175781 C 98.761719 203.304688 98.917969 203.667969 98.785156 203.988281 C 98.726562 204.140625 92.300781 219.421875 70.378906 223.292969 C 70.34375 223.300781 70.304688 223.304688 70.269531 223.304688 " fill-opacity="1" fill-rule="nonzero"/><path fill="#000000" d="M 108.863281 197.066406 L 81.503906 197.066406 L 90.074219 166.53125 L 117.433594 166.53125 L 108.863281 197.066406 " fill-opacity="1" fill-rule="nonzero"/><path fill="#ffffff" d="M 49.09375 179.222656 L 62.941406 173.039062 C 62.941406 173.039062 60.992188 196.484375 89.003906 185.65625 C 89.003906 185.65625 87.96875 182.644531 88.117188 179.125 C 88.261719 175.609375 90.371094 179.011719 90.664062 181.871094 C 90.960938 184.730469 97.535156 183.570312 101.488281 182.445312 C 105.441406 181.316406 110.628906 182.054688 101.488281 187.09375 C 92.347656 192.132812 90.34375 189.882812 90.34375 189.882812 C 90.34375 189.882812 78.671875 206.203125 64.148438 202.738281 C 46.285156 198.472656 49.09375 179.222656 49.09375 179.222656 " fill-opacity="1" fill-rule="nonzero"/><path fill="#000000" d="M 49.675781 179.648438 C 49.554688 180.820312 49.273438 184.878906 50.535156 189.25 C 52.507812 196.085938 57.136719 200.421875 64.296875 202.128906 C 65.625 202.445312 66.929688 202.589844 68.207031 202.589844 C 80.324219 202.59375 89.734375 189.664062 89.835938 189.519531 C 89.949219 189.367188 90.121094 189.269531 90.3125 189.261719 C 90.503906 189.25 90.6875 189.324219 90.8125 189.46875 C 90.816406 189.46875 92.863281 191.132812 101.1875 186.546875 C 106.027344 183.875 105.953125 182.898438 105.953125 182.890625 C 105.765625 182.582031 103.941406 182.394531 101.660156 183.042969 C 99.777344 183.582031 93.453125 185.203125 91.039062 183.570312 C 90.457031 183.175781 90.113281 182.609375 90.042969 181.9375 C 89.890625 180.449219 89.242188 178.992188 88.816406 178.445312 C 88.785156 178.597656 88.753906 178.820312 88.742188 179.152344 C 88.601562 182.515625 89.585938 185.425781 89.59375 185.457031 C 89.703125 185.773438 89.542969 186.117188 89.230469 186.242188 C 79.566406 189.972656 72.304688 190.101562 67.648438 186.617188 C 62.773438 182.976562 62.277344 176.527344 62.28125 174.019531 Z M 68.199219 203.839844 C 66.832031 203.839844 65.429688 203.683594 64.003906 203.34375 C 45.796875 198.996094 48.449219 179.332031 48.476562 179.136719 C 48.507812 178.925781 48.644531 178.742188 48.839844 178.65625 L 62.6875 172.46875 C 62.886719 172.378906 63.121094 172.402344 63.300781 172.53125 C 63.480469 172.65625 63.582031 172.871094 63.5625 173.089844 C 63.554688 173.175781 62.9375 181.546875 68.402344 185.625 C 72.609375 188.765625 79.277344 188.648438 88.238281 185.28125 C 87.9375 184.21875 87.378906 181.820312 87.492188 179.097656 C 87.515625 178.589844 87.578125 177.035156 88.660156 177 C 88.667969 177 88.679688 177 88.6875 177 C 90.070312 177 91.113281 180.121094 91.285156 181.808594 C 91.316406 182.117188 91.460938 182.347656 91.738281 182.535156 C 93.203125 183.527344 97.605469 182.902344 101.316406 181.84375 C 103.039062 181.351562 106.460938 180.84375 107.109375 182.421875 C 107.640625 183.707031 106 185.316406 101.792969 187.640625 C 94.757812 191.515625 91.6875 191.203125 90.503906 190.707031 C 88.652344 193.082031 79.621094 203.839844 68.199219 203.839844 " fill-opacity="1" fill-rule="nonzero"/><path fill="#000000" d="M 86.054688 135.449219 C 84.855469 136.542969 82.519531 137.878906 80.6875 136.957031 C 79.324219 136.269531 78.566406 134.496094 78.613281 132.460938 C 77.980469 132.511719 77.152344 132.46875 76.5625 131.945312 C 75.65625 131.144531 75.824219 129.667969 75.859375 128.699219 C 76.023438 124.222656 73.421875 123.53125 74.058594 120.492188 C 74.558594 118.105469 76.4375 116.683594 76.789062 116.414062 C 78.558594 115.074219 79.761719 115.507812 82.742188 114.726562 C 87.757812 113.414062 87.917969 111.253906 91.21875 111.246094 C 91.410156 111.246094 95.90625 111.292969 97.433594 114.398438 C 98.675781 116.921875 97.226562 119.988281 95.726562 121.601562 C 93.785156 123.6875 92.390625 122.65625 90.445312 124.410156 C 87.023438 127.480469 89.605469 132.199219 86.054688 135.449219 " fill-opacity="1" fill-rule="nonzero"/><path fill="#ffffff" d="M 96.0625 127.457031 L 95.863281 127.289062 C 94.871094 126.433594 93.835938 125.441406 93.574219 124.160156 C 92.453125 118.707031 87.457031 116.730469 87.226562 121.734375 C 87.167969 122.996094 82.550781 122.929688 83.101562 124.257812 C 84.527344 127.714844 84.558594 126.785156 82.542969 128.058594 C 82.316406 128.066406 82.089844 128.117188 81.875 128.21875 C 80.839844 128.699219 80.476562 130.101562 81.058594 131.347656 C 81.410156 132.105469 82.035156 132.628906 82.699219 132.816406 L 82.699219 138.277344 C 82.699219 140.324219 81.460938 142.171875 79.5625 142.945312 L 77.71875 143.699219 C 77.71875 143.699219 86.324219 149.3125 95.058594 143.148438 L 93.890625 142.625 C 91.839844 141.707031 90.492188 139.695312 90.421875 137.449219 L 90.410156 136.382812 C 91 136.433594 91.566406 136.394531 92.09375 136.242188 C 94.535156 135.53125 95.347656 132.71875 94.929688 129.222656 L 95.925781 128.6875 C 96.390625 128.4375 96.460938 127.800781 96.0625 127.457031 " fill-opacity="1" fill-rule="nonzero"/><path fill="#000000" d="M 79.164062 143.78125 C 81.5625 144.953125 87.511719 147.070312 93.765625 143.253906 L 93.636719 143.195312 C 91.382812 142.183594 89.875 139.9375 89.796875 137.46875 L 89.785156 136.386719 C 89.785156 136.210938 89.859375 136.042969 89.988281 135.921875 C 90.117188 135.804688 90.292969 135.742188 90.464844 135.761719 C 91 135.804688 91.488281 135.765625 91.917969 135.640625 C 94.664062 134.84375 94.507812 130.9375 94.3125 129.292969 C 94.28125 129.039062 94.410156 128.792969 94.636719 128.671875 L 95.628906 128.140625 C 95.679688 128.113281 95.691406 128.070312 95.695312 128.039062 C 95.699219 128.011719 95.695312 127.96875 95.652344 127.929688 L 95.457031 127.757812 C 94.410156 126.859375 93.269531 125.773438 92.964844 124.285156 C 92.300781 121.050781 90.273438 119.386719 89.128906 119.484375 C 88.066406 119.566406 87.882812 121.105469 87.851562 121.761719 C 87.800781 122.816406 86.503906 123.183594 85.246094 123.535156 C 84.75 123.671875 83.949219 123.894531 83.707031 124.089844 C 83.898438 124.554688 84.066406 124.9375 84.203125 125.253906 C 84.886719 126.828125 85.117188 127.359375 83.722656 128.101562 C 83.5 128.222656 83.21875 128.371094 82.878906 128.585938 C 82.785156 128.644531 82.679688 128.675781 82.570312 128.683594 C 82.414062 128.6875 82.269531 128.722656 82.140625 128.78125 C 81.417969 129.117188 81.1875 130.152344 81.625 131.085938 C 81.886719 131.648438 82.351562 132.070312 82.871094 132.21875 C 83.140625 132.292969 83.324219 132.539062 83.324219 132.816406 L 83.324219 138.277344 C 83.324219 140.589844 81.941406 142.648438 79.800781 143.523438 Z M 86.234375 146.640625 C 81.175781 146.640625 77.433594 144.257812 77.375 144.21875 C 77.183594 144.09375 77.074219 143.871094 77.097656 143.640625 C 77.117188 143.410156 77.265625 143.210938 77.480469 143.121094 L 79.328125 142.367188 C 80.996094 141.683594 82.074219 140.078125 82.074219 138.277344 L 82.074219 133.246094 C 81.398438 132.929688 80.835938 132.351562 80.492188 131.613281 C 79.765625 130.054688 80.265625 128.277344 81.613281 127.652344 C 81.839844 127.542969 82.085938 127.476562 82.34375 127.449219 C 82.660156 127.253906 82.921875 127.113281 83.136719 127 C 83.261719 126.933594 83.398438 126.859375 83.480469 126.808594 C 83.429688 126.605469 83.25 126.191406 83.058594 125.753906 C 82.910156 125.414062 82.730469 125 82.523438 124.496094 C 82.394531 124.183594 82.398438 123.867188 82.539062 123.578125 C 82.867188 122.902344 83.8125 122.636719 84.910156 122.332031 C 85.445312 122.183594 86.433594 121.90625 86.605469 121.675781 C 86.753906 118.652344 88.5 118.28125 89.03125 118.238281 C 90.90625 118.089844 93.414062 120.265625 94.1875 124.03125 C 94.414062 125.136719 95.382812 126.046875 96.273438 126.816406 L 96.46875 126.988281 C 96.8125 127.28125 96.988281 127.726562 96.9375 128.175781 C 96.890625 128.628906 96.621094 129.023438 96.222656 129.238281 L 95.597656 129.574219 C 95.960938 133.476562 94.757812 136.117188 92.265625 136.839844 C 91.882812 136.953125 91.472656 137.011719 91.042969 137.027344 L 91.046875 137.441406 C 91.109375 139.421875 92.324219 141.238281 94.148438 142.058594 L 95.3125 142.578125 C 95.519531 142.671875 95.65625 142.867188 95.679688 143.089844 C 95.699219 143.3125 95.601562 143.53125 95.417969 143.65625 C 92.222656 145.914062 89.027344 146.640625 86.234375 146.640625 " fill-opacity="1" fill-rule="nonzero"/><path fill="#000000" d="M 90.410156 137.003906 C 90.378906 137.003906 90.347656 137.003906 90.316406 136.996094 C 86.667969 136.4375 85.027344 133.648438 84.957031 133.527344 C 84.785156 133.230469 84.886719 132.847656 85.1875 132.675781 C 85.484375 132.507812 85.867188 132.609375 86.039062 132.90625 C 86.0625 132.941406 87.480469 135.300781 90.503906 135.765625 C 90.847656 135.816406 91.082031 136.136719 91.027344 136.476562 C 90.980469 136.785156 90.714844 137.003906 90.410156 137.003906 " fill-opacity="1" fill-rule="nonzero"/></svg>