<svg xmlns="http://www.w3.org/2000/svg" xmlns:xlink="http://www.w3.org/1999/xlink" width="396" zoomAndPan="magnify" viewBox="0 0 297.75 269.25" height="359" preserveAspectRatio="xMidYMid meet" version="1.0"><defs><clipPath id="c4f70d59d0"><path d="M 0.289062 0 L 297.210938 0 L 297.210938 268.503906 L 0.289062 268.503906 Z M 0.289062 0 " clip-rule="nonzero"/></clipPath></defs><g clip-path="url(#c4f70d59d0)"><path fill="#41048f" d="M 219.628906 28.3125 L 155.949219 28.3125 L 155.949219 7.105469 C 155.949219 6.640625 155.90625 6.179688 155.816406 5.726562 C 155.722656 5.269531 155.589844 4.828125 155.410156 4.398438 C 155.234375 3.96875 155.015625 3.5625 154.757812 3.175781 C 154.5 2.789062 154.207031 2.433594 153.878906 2.105469 C 153.550781 1.777344 153.191406 1.484375 152.804688 1.226562 C 152.417969 0.96875 152.011719 0.75 151.582031 0.574219 C 151.152344 0.394531 150.710938 0.261719 150.253906 0.171875 C 149.800781 0.078125 149.339844 0.0351562 148.875 0.0351562 C 148.410156 0.0351562 147.949219 0.078125 147.496094 0.171875 C 147.039062 0.261719 146.597656 0.394531 146.167969 0.574219 C 145.738281 0.75 145.332031 0.96875 144.945312 1.226562 C 144.558594 1.484375 144.199219 1.777344 143.871094 2.105469 C 143.542969 2.433594 143.25 2.789062 142.992188 3.175781 C 142.734375 3.5625 142.515625 3.96875 142.339844 4.398438 C 142.160156 4.828125 142.027344 5.269531 141.933594 5.726562 C 141.84375 6.179688 141.800781 6.640625 141.800781 7.105469 L 141.800781 28.3125 L 78.121094 28.3125 C 76.960938 28.316406 75.804688 28.371094 74.652344 28.488281 C 73.5 28.601562 72.355469 28.773438 71.21875 29 C 70.085938 29.226562 68.960938 29.507812 67.855469 29.84375 C 66.746094 30.179688 65.65625 30.570312 64.585938 31.015625 C 63.515625 31.457031 62.46875 31.953125 61.449219 32.496094 C 60.429688 33.042969 59.4375 33.636719 58.472656 34.28125 C 57.507812 34.925781 56.582031 35.613281 55.683594 36.347656 C 54.789062 37.082031 53.933594 37.859375 53.113281 38.675781 C 52.292969 39.496094 51.515625 40.351562 50.78125 41.246094 C 50.046875 42.140625 49.359375 43.070312 48.714844 44.03125 C 48.070312 44.996094 47.476562 45.984375 46.929688 47.007812 C 46.382812 48.027344 45.886719 49.070312 45.445312 50.140625 C 45 51.210938 44.609375 52.296875 44.273438 53.40625 C 43.9375 54.511719 43.652344 55.636719 43.425781 56.769531 C 43.199219 57.90625 43.03125 59.046875 42.914062 60.199219 C 42.800781 61.351562 42.742188 62.507812 42.742188 63.664062 L 42.742188 190.921875 C 42.742188 192.082031 42.800781 193.234375 42.914062 194.386719 C 43.03125 195.539062 43.199219 196.683594 43.425781 197.816406 C 43.652344 198.953125 43.9375 200.074219 44.273438 201.179688 C 44.609375 202.289062 45 203.378906 45.445312 204.445312 C 45.886719 205.515625 46.382812 206.558594 46.929688 207.582031 C 47.476562 208.601562 48.070312 209.59375 48.714844 210.554688 C 49.359375 211.515625 50.046875 212.445312 50.78125 213.339844 C 51.515625 214.234375 52.292969 215.089844 53.113281 215.910156 C 53.933594 216.730469 54.789062 217.503906 55.683594 218.238281 C 56.582031 218.972656 57.507812 219.664062 58.472656 220.304688 C 59.4375 220.949219 60.429688 221.542969 61.449219 222.089844 C 62.46875 222.636719 63.515625 223.128906 64.585938 223.574219 C 65.65625 224.015625 66.746094 224.40625 67.855469 224.742188 C 68.960938 225.082031 70.085938 225.363281 71.21875 225.589844 C 72.355469 225.816406 73.5 225.984375 74.652344 226.101562 C 75.804688 226.214844 76.960938 226.273438 78.121094 226.273438 L 116.785156 226.273438 L 142.988281 265.542969 C 143.148438 265.785156 143.324219 266.015625 143.511719 266.234375 C 143.703125 266.457031 143.90625 266.664062 144.121094 266.859375 C 144.335938 267.050781 144.558594 267.234375 144.796875 267.402344 C 145.035156 267.566406 145.28125 267.71875 145.535156 267.855469 C 145.792969 267.992188 146.054688 268.113281 146.324219 268.21875 C 146.597656 268.324219 146.871094 268.410156 147.152344 268.480469 C 147.433594 268.550781 147.71875 268.605469 148.007812 268.640625 C 148.296875 268.675781 148.585938 268.691406 148.875 268.691406 C 149.164062 268.691406 149.453125 268.675781 149.742188 268.640625 C 150.03125 268.605469 150.3125 268.550781 150.597656 268.480469 C 150.878906 268.410156 151.152344 268.324219 151.421875 268.21875 C 151.695312 268.113281 151.957031 267.992188 152.214844 267.855469 C 152.46875 267.71875 152.714844 267.566406 152.953125 267.402344 C 153.191406 267.234375 153.414062 267.050781 153.628906 266.859375 C 153.84375 266.664062 154.046875 266.457031 154.238281 266.234375 C 154.425781 266.015625 154.601562 265.785156 154.761719 265.542969 L 180.964844 226.273438 L 219.628906 226.273438 C 220.789062 226.273438 221.945312 226.214844 223.097656 226.101562 C 224.25 225.984375 225.394531 225.816406 226.53125 225.589844 C 227.664062 225.363281 228.789062 225.082031 229.894531 224.742188 C 231.003906 224.40625 232.09375 224.015625 233.164062 223.574219 C 234.234375 223.128906 235.28125 222.636719 236.300781 222.089844 C 237.320312 221.542969 238.3125 220.949219 239.277344 220.304688 C 240.242188 219.664062 241.167969 218.972656 242.066406 218.238281 C 242.960938 217.503906 243.816406 216.730469 244.636719 215.910156 C 245.457031 215.089844 246.234375 214.234375 246.96875 213.339844 C 247.703125 212.445312 248.390625 211.515625 249.035156 210.554688 C 249.679688 209.59375 250.273438 208.601562 250.820312 207.582031 C 251.367188 206.558594 251.863281 205.515625 252.304688 204.445312 C 252.75 203.378906 253.140625 202.289062 253.476562 201.179688 C 253.8125 200.074219 254.097656 198.953125 254.324219 197.816406 C 254.550781 196.683594 254.71875 195.539062 254.835938 194.386719 C 254.949219 193.234375 255.007812 192.082031 255.007812 190.921875 L 255.007812 63.664062 C 255.007812 62.507812 254.949219 61.351562 254.835938 60.199219 C 254.71875 59.046875 254.550781 57.90625 254.324219 56.769531 C 254.097656 55.636719 253.8125 54.511719 253.476562 53.40625 C 253.140625 52.296875 252.75 51.210938 252.304688 50.140625 C 251.863281 49.070312 251.367188 48.027344 250.820312 47.007812 C 250.273438 45.984375 249.679688 44.996094 249.035156 44.03125 C 248.390625 43.070312 247.703125 42.140625 246.96875 41.246094 C 246.234375 40.351562 245.457031 39.496094 244.636719 38.675781 C 243.816406 37.859375 242.960938 37.082031 242.066406 36.347656 C 241.167969 35.613281 240.242188 34.925781 239.277344 34.28125 C 238.3125 33.636719 237.320312 33.042969 236.300781 32.496094 C 235.28125 31.953125 234.234375 31.457031 233.164062 31.015625 C 232.09375 30.570312 231.003906 30.179688 229.894531 29.84375 C 228.789062 29.507812 227.664062 29.226562 226.53125 29 C 225.394531 28.773438 224.25 28.601562 223.097656 28.488281 C 221.945312 28.371094 220.789062 28.316406 219.628906 28.3125 Z M 240.855469 190.921875 C 240.855469 191.617188 240.820312 192.3125 240.753906 193 C 240.683594 193.691406 240.582031 194.378906 240.445312 195.058594 C 240.308594 195.742188 240.140625 196.414062 239.9375 197.078125 C 239.734375 197.742188 239.5 198.394531 239.234375 199.035156 C 238.96875 199.679688 238.671875 200.304688 238.34375 200.917969 C 238.015625 201.53125 237.660156 202.125 237.273438 202.703125 C 236.886719 203.277344 236.472656 203.835938 236.03125 204.371094 C 235.589844 204.910156 235.125 205.421875 234.632812 205.914062 C 234.140625 206.40625 233.628906 206.871094 233.089844 207.3125 C 232.554688 207.753906 231.996094 208.164062 231.417969 208.550781 C 230.839844 208.9375 230.246094 209.292969 229.632812 209.621094 C 229.019531 209.949219 228.390625 210.246094 227.75 210.511719 C 227.109375 210.777344 226.453125 211.011719 225.789062 211.214844 C 225.125 211.417969 224.453125 211.585938 223.769531 211.722656 C 223.089844 211.859375 222.402344 211.960938 221.710938 212.027344 C 221.019531 212.097656 220.324219 212.132812 219.628906 212.132812 L 177.175781 212.132812 C 175.996094 212.136719 174.882812 212.414062 173.839844 212.972656 C 172.796875 213.53125 171.949219 214.300781 171.289062 215.28125 L 148.875 248.878906 L 126.460938 215.28125 C 125.800781 214.300781 124.953125 213.53125 123.910156 212.972656 C 122.867188 212.414062 121.753906 212.136719 120.574219 212.132812 L 78.121094 212.132812 C 77.425781 212.132812 76.730469 212.097656 76.039062 212.027344 C 75.347656 211.960938 74.660156 211.859375 73.980469 211.722656 C 73.296875 211.585938 72.625 211.417969 71.960938 211.214844 C 71.296875 211.011719 70.640625 210.777344 70 210.511719 C 69.359375 210.246094 68.730469 209.949219 68.117188 209.621094 C 67.503906 209.292969 66.910156 208.9375 66.332031 208.550781 C 65.753906 208.164062 65.195312 207.753906 64.660156 207.3125 C 64.121094 206.871094 63.609375 206.40625 63.117188 205.914062 C 62.625 205.421875 62.160156 204.910156 61.71875 204.371094 C 61.277344 203.835938 60.863281 203.277344 60.476562 202.703125 C 60.089844 202.125 59.734375 201.53125 59.40625 200.917969 C 59.078125 200.304688 58.78125 199.679688 58.515625 199.035156 C 58.25 198.394531 58.015625 197.742188 57.8125 197.078125 C 57.609375 196.414062 57.441406 195.742188 57.304688 195.058594 C 57.167969 194.378906 57.066406 193.691406 56.996094 193 C 56.929688 192.3125 56.894531 191.617188 56.894531 190.921875 L 56.894531 169.714844 L 240.855469 169.714844 Z M 240.855469 155.574219 L 56.894531 155.574219 L 56.894531 63.664062 C 56.894531 62.96875 56.929688 62.277344 56.996094 61.585938 C 57.066406 60.894531 57.167969 60.207031 57.304688 59.527344 C 57.441406 58.847656 57.609375 58.175781 57.8125 57.507812 C 58.015625 56.84375 58.25 56.191406 58.515625 55.550781 C 58.78125 54.910156 59.078125 54.28125 59.40625 53.671875 C 59.734375 53.058594 60.089844 52.464844 60.476562 51.886719 C 60.863281 51.308594 61.277344 50.75 61.71875 50.214844 C 62.160156 49.679688 62.625 49.164062 63.117188 48.671875 C 63.609375 48.183594 64.121094 47.714844 64.660156 47.277344 C 65.195312 46.835938 65.753906 46.421875 66.332031 46.035156 C 66.910156 45.648438 67.503906 45.292969 68.117188 44.964844 C 68.730469 44.636719 69.359375 44.339844 70 44.074219 C 70.640625 43.808594 71.296875 43.574219 71.960938 43.371094 C 72.625 43.171875 73.296875 43 73.980469 42.867188 C 74.660156 42.730469 75.347656 42.628906 76.039062 42.558594 C 76.730469 42.488281 77.425781 42.453125 78.121094 42.453125 L 219.628906 42.453125 C 220.324219 42.453125 221.019531 42.488281 221.710938 42.558594 C 222.402344 42.628906 223.089844 42.730469 223.769531 42.867188 C 224.453125 43 225.125 43.171875 225.789062 43.371094 C 226.453125 43.574219 227.109375 43.808594 227.75 44.074219 C 228.390625 44.339844 229.019531 44.636719 229.632812 44.964844 C 230.246094 45.292969 230.839844 45.648438 231.417969 46.035156 C 231.996094 46.421875 232.554688 46.835938 233.089844 47.277344 C 233.628906 47.714844 234.140625 48.183594 234.632812 48.671875 C 235.125 49.164062 235.589844 49.679688 236.03125 50.214844 C 236.472656 50.75 236.886719 51.308594 237.273438 51.886719 C 237.660156 52.464844 238.015625 53.058594 238.34375 53.671875 C 238.671875 54.28125 238.96875 54.910156 239.234375 55.550781 C 239.5 56.191406 239.734375 56.84375 239.9375 57.507812 C 240.140625 58.175781 240.308594 58.847656 240.445312 59.527344 C 240.582031 60.207031 240.683594 60.894531 240.753906 61.585938 C 240.820312 62.277344 240.855469 62.96875 240.855469 63.664062 Z M 120.574219 106.082031 C 120.574219 107.011719 120.480469 107.933594 120.300781 108.84375 C 120.121094 109.753906 119.851562 110.636719 119.496094 111.496094 C 119.140625 112.351562 118.703125 113.167969 118.1875 113.941406 C 117.671875 114.710938 117.085938 115.425781 116.429688 116.082031 C 115.769531 116.738281 115.054688 117.324219 114.285156 117.839844 C 113.511719 118.355469 112.695312 118.792969 111.835938 119.148438 C 110.980469 119.503906 110.09375 119.769531 109.183594 119.953125 C 108.269531 120.132812 107.351562 120.222656 106.421875 120.222656 C 105.492188 120.222656 104.574219 120.132812 103.660156 119.953125 C 102.75 119.769531 101.863281 119.503906 101.007812 119.148438 C 100.148438 118.792969 99.332031 118.355469 98.558594 117.839844 C 97.789062 117.324219 97.074219 116.738281 96.414062 116.082031 C 95.757812 115.425781 95.171875 114.710938 94.65625 113.941406 C 94.140625 113.167969 93.703125 112.351562 93.347656 111.496094 C 92.992188 110.636719 92.722656 109.753906 92.542969 108.84375 C 92.363281 107.933594 92.269531 107.011719 92.269531 106.082031 C 92.269531 105.15625 92.363281 104.234375 92.542969 103.324219 C 92.722656 102.414062 92.992188 101.53125 93.347656 100.671875 C 93.703125 99.816406 94.140625 99 94.65625 98.226562 C 95.171875 97.457031 95.757812 96.742188 96.414062 96.085938 C 97.074219 95.429688 97.789062 94.84375 98.558594 94.328125 C 99.332031 93.8125 100.148438 93.375 101.007812 93.019531 C 101.863281 92.664062 102.75 92.398438 103.660156 92.214844 C 104.574219 92.035156 105.492188 91.945312 106.421875 91.945312 C 107.351562 91.945312 108.269531 92.035156 109.183594 92.214844 C 110.09375 92.398438 110.980469 92.664062 111.835938 93.019531 C 112.695312 93.375 113.511719 93.8125 114.285156 94.328125 C 115.054688 94.84375 115.769531 95.429688 116.429688 96.085938 C 117.085938 96.742188 117.671875 97.457031 118.1875 98.226562 C 118.703125 99 119.140625 99.816406 119.496094 100.671875 C 119.851562 101.53125 120.121094 102.414062 120.300781 103.324219 C 120.480469 104.234375 120.574219 105.15625 120.574219 106.082031 Z M 205.480469 106.082031 C 205.480469 107.011719 205.386719 107.933594 205.207031 108.84375 C 205.027344 109.753906 204.757812 110.636719 204.402344 111.496094 C 204.046875 112.351562 203.609375 113.167969 203.09375 113.941406 C 202.578125 114.710938 201.992188 115.425781 201.335938 116.082031 C 200.675781 116.738281 199.960938 117.324219 199.191406 117.839844 C 198.417969 118.355469 197.601562 118.792969 196.742188 119.148438 C 195.886719 119.503906 195 119.769531 194.089844 119.953125 C 193.175781 120.132812 192.257812 120.222656 191.328125 120.222656 C 190.398438 120.222656 189.480469 120.132812 188.566406 119.953125 C 187.65625 119.769531 186.769531 119.503906 185.914062 119.148438 C 185.054688 118.792969 184.238281 118.355469 183.464844 117.839844 C 182.695312 117.324219 181.980469 116.738281 181.320312 116.082031 C 180.664062 115.425781 180.078125 114.710938 179.5625 113.941406 C 179.046875 113.167969 178.609375 112.351562 178.253906 111.496094 C 177.898438 110.636719 177.628906 109.753906 177.449219 108.84375 C 177.269531 107.933594 177.175781 107.011719 177.175781 106.082031 C 177.175781 105.15625 177.269531 104.234375 177.449219 103.324219 C 177.628906 102.414062 177.898438 101.53125 178.253906 100.671875 C 178.609375 99.816406 179.046875 99 179.5625 98.226562 C 180.078125 97.457031 180.664062 96.742188 181.320312 96.085938 C 181.980469 95.429688 182.695312 94.84375 183.464844 94.328125 C 184.238281 93.8125 185.054688 93.375 185.914062 93.019531 C 186.769531 92.664062 187.65625 92.398438 188.566406 92.214844 C 189.480469 92.035156 190.398438 91.945312 191.328125 91.945312 C 192.257812 91.945312 193.175781 92.035156 194.089844 92.214844 C 195 92.398438 195.886719 92.664062 196.742188 93.019531 C 197.601562 93.375 198.417969 93.8125 199.191406 94.328125 C 199.960938 94.84375 200.675781 95.429688 201.335938 96.085938 C 201.992188 96.742188 202.578125 97.457031 203.09375 98.226562 C 203.609375 99 204.046875 99.816406 204.402344 100.671875 C 204.757812 101.53125 205.027344 102.414062 205.207031 103.324219 C 205.386719 104.234375 205.480469 105.15625 205.480469 106.082031 Z M 14.441406 77.804688 L 14.441406 134.363281 C 14.441406 134.828125 14.394531 135.289062 14.304688 135.742188 C 14.214844 136.199219 14.078125 136.640625 13.902344 137.070312 C 13.722656 137.5 13.503906 137.90625 13.246094 138.292969 C 12.988281 138.675781 12.695312 139.035156 12.367188 139.363281 C 12.039062 139.691406 11.683594 139.984375 11.296875 140.242188 C 10.910156 140.5 10.5 140.71875 10.070312 140.894531 C 9.644531 141.074219 9.199219 141.207031 8.746094 141.296875 C 8.289062 141.386719 7.828125 141.433594 7.363281 141.433594 C 6.898438 141.433594 6.441406 141.386719 5.984375 141.296875 C 5.527344 141.207031 5.085938 141.074219 4.65625 140.894531 C 4.226562 140.71875 3.820312 140.5 3.433594 140.242188 C 3.046875 139.984375 2.691406 139.691406 2.359375 139.363281 C 2.03125 139.035156 1.738281 138.675781 1.480469 138.292969 C 1.222656 137.90625 1.003906 137.5 0.828125 137.070312 C 0.648438 136.640625 0.515625 136.199219 0.425781 135.742188 C 0.335938 135.289062 0.289062 134.828125 0.289062 134.363281 L 0.289062 77.804688 C 0.289062 77.339844 0.335938 76.878906 0.425781 76.425781 C 0.515625 75.96875 0.648438 75.527344 0.828125 75.097656 C 1.003906 74.667969 1.222656 74.261719 1.480469 73.875 C 1.738281 73.488281 2.03125 73.132812 2.359375 72.804688 C 2.691406 72.476562 3.046875 72.183594 3.433594 71.925781 C 3.820312 71.667969 4.226562 71.449219 4.65625 71.273438 C 5.085938 71.09375 5.527344 70.960938 5.984375 70.871094 C 6.441406 70.777344 6.898438 70.734375 7.363281 70.734375 C 7.828125 70.734375 8.289062 70.777344 8.746094 70.871094 C 9.199219 70.960938 9.644531 71.09375 10.070312 71.273438 C 10.5 71.449219 10.910156 71.667969 11.296875 71.925781 C 11.683594 72.183594 12.039062 72.476562 12.367188 72.804688 C 12.695312 73.132812 12.988281 73.488281 13.246094 73.875 C 13.503906 74.261719 13.722656 74.667969 13.902344 75.097656 C 14.078125 75.527344 14.214844 75.96875 14.304688 76.425781 C 14.394531 76.878906 14.441406 77.339844 14.441406 77.804688 Z M 297.460938 77.804688 L 297.460938 134.363281 C 297.460938 134.828125 297.414062 135.289062 297.324219 135.742188 C 297.234375 136.199219 297.101562 136.640625 296.921875 137.070312 C 296.746094 137.5 296.527344 137.90625 296.269531 138.292969 C 296.011719 138.675781 295.71875 139.035156 295.390625 139.363281 C 295.058594 139.691406 294.703125 139.984375 294.316406 140.242188 C 293.929688 140.5 293.523438 140.71875 293.09375 140.894531 C 292.664062 141.074219 292.222656 141.207031 291.765625 141.296875 C 291.308594 141.386719 290.851562 141.433594 290.386719 141.433594 C 289.921875 141.433594 289.460938 141.386719 289.003906 141.296875 C 288.550781 141.207031 288.105469 141.074219 287.679688 140.894531 C 287.25 140.71875 286.839844 140.5 286.453125 140.242188 C 286.066406 139.984375 285.710938 139.691406 285.382812 139.363281 C 285.054688 139.035156 284.761719 138.675781 284.503906 138.292969 C 284.246094 137.90625 284.027344 137.5 283.847656 137.070312 C 283.671875 136.640625 283.535156 136.199219 283.445312 135.742188 C 283.355469 135.289062 283.308594 134.828125 283.308594 134.363281 L 283.308594 77.804688 C 283.308594 77.339844 283.355469 76.878906 283.445312 76.425781 C 283.535156 75.96875 283.671875 75.527344 283.847656 75.097656 C 284.027344 74.667969 284.246094 74.261719 284.503906 73.875 C 284.761719 73.488281 285.054688 73.132812 285.382812 72.804688 C 285.710938 72.476562 286.066406 72.183594 286.453125 71.925781 C 286.839844 71.667969 287.25 71.449219 287.679688 71.273438 C 288.105469 71.09375 288.550781 70.960938 289.003906 70.871094 C 289.460938 70.777344 289.921875 70.734375 290.386719 70.734375 C 290.851562 70.734375 291.308594 70.777344 291.765625 70.871094 C 292.222656 70.960938 292.664062 71.09375 293.09375 71.273438 C 293.523438 71.449219 293.929688 71.667969 294.316406 71.925781 C 294.703125 72.183594 295.058594 72.476562 295.390625 72.804688 C 295.71875 73.132812 296.011719 73.488281 296.269531 73.875 C 296.527344 74.261719 296.746094 74.667969 296.921875 75.097656 C 297.101562 75.527344 297.234375 75.96875 297.324219 76.425781 C 297.414062 76.878906 297.460938 77.339844 297.460938 77.804688 Z M 297.460938 77.804688 " fill-opacity="1" fill-rule="nonzero"/></g></svg>