<svg width="18" height="18" viewBox="0 0 18 18" fill="none" xmlns="http://www.w3.org/2000/svg">
<rect width="18" height="18" fill="#D7D7D7"/>
<g id="Design - Tablet">
<path d="M-435 -1416C-435 -1417.1 -434.105 -1418 -433 -1418H542C543.105 -1418 544 -1417.1 544 -1416V626C544 627.105 543.105 628 542 628H-433C-434.105 628 -435 627.105 -435 626V-1416Z" fill="#EDECEC"/>
<path d="M-433 -1417H542V-1419H-433V-1417ZM543 -1416V626H545V-1416H543ZM542 627H-433V629H542V627ZM-434 626V-1416H-436V626H-434ZM-433 627C-433.552 627 -434 626.552 -434 626H-436C-436 627.657 -434.657 629 -433 629V627ZM543 626C543 626.552 542.552 627 542 627V629C543.657 629 545 627.657 545 626H543ZM542 -1417C542.552 -1417 543 -1416.55 543 -1416H545C545 -1417.66 543.657 -1419 542 -1419V-1417ZM-433 -1419C-434.657 -1419 -436 -1417.66 -436 -1416H-434C-434 -1416.55 -433.552 -1417 -433 -1417V-1419Z" fill="black" fill-opacity="0.1"/>
<g id="tablet_tts" clip-path="url(#clip0_81_12117)">
<rect width="820" height="1888" transform="translate(-355 -1338)" fill="white"/>
<g id="Div [sc-fHIGvW]">
<g id="Section [sc-jmxxdg]">
<rect width="820" height="818" transform="translate(-355 -504)" fill="#FEFEFF"/>
<g id="TTS - Tablet">
<g id="Frame 30" filter="url(#filter0_d_81_12117)">
<rect x="-319.5" y="-284.5" width="749" height="415" rx="12.5" stroke="#EFECFF" stroke-linejoin="round" shape-rendering="crispEdges"/>
<g id="Frame 37">
<g id="Div [component-6]">
<rect width="374" height="104" transform="translate(-319 -52)" fill="white"/>
<g id="Label [svelte-1evtqhp]">
<g id="Div [wrap]" filter="url(#filter1_i_81_12117)">
<path d="M-295 -2C-295 -6.41828 -291.418 -10 -287 -10H23C27.4183 -10 31 -6.41828 31 -2V20C31 24.4183 27.4183 28 23 28H-287C-291.418 28 -295 24.4183 -295 20V-2Z" fill="white"/>
<path d="M-294.25 -2C-294.25 -6.00407 -291.004 -9.25 -287 -9.25H23C27.0041 -9.25 30.25 -6.00406 30.25 -2V20C30.25 24.0041 27.0041 27.25 23 27.25H-287C-291.004 27.25 -294.25 24.0041 -294.25 20V-2Z" stroke="#EFECFF" stroke-width="1.5"/>
<g id="Frame 29">
<g id="vuesax/bold/arrow-down">
<g id="vuesax/bold/arrow-down_2">
<g id="arrow-down">
<path id="Vector" d="M13.44 6.13501H8.76749H4.55999C3.83999 6.13501 3.47999 7.00501 3.98999 7.51501L7.87499 11.4C8.49749 12.0225 9.50999 12.0225 10.1325 11.4L11.61 9.92251L14.0175 7.51501C14.52 7.00501 14.16 6.13501 13.44 6.13501Z" fill="#292D32"/>
</g>
</g>
</g>
</g>
</g>
</g>
</g>
</g>
</g>
</g>
</g>
</g>
</g>
</g>
<defs>
<filter id="filter0_d_81_12117" x="-332" y="-289" width="955" height="440" filterUnits="userSpaceOnUse" color-interpolation-filters="sRGB">
<feFlood flood-opacity="0" result="BackgroundImageFix"/>
<feColorMatrix in="SourceAlpha" type="matrix" values="0 0 0 0 0 0 0 0 0 0 0 0 0 0 0 0 0 0 127 0" result="hardAlpha"/>
<feOffset dy="8"/>
<feGaussianBlur stdDeviation="6"/>
<feComposite in2="hardAlpha" operator="out"/>
<feColorMatrix type="matrix" values="0 0 0 0 0 0 0 0 0 0 0 0 0 0 0 0 0 0 0.15 0"/>
<feBlend mode="normal" in2="BackgroundImageFix" result="effect1_dropShadow_81_12117"/>
<feBlend mode="normal" in="SourceGraphic" in2="effect1_dropShadow_81_12117" result="shape"/>
</filter>
<filter id="filter1_i_81_12117" x="-295" y="-10" width="326" height="40" filterUnits="userSpaceOnUse" color-interpolation-filters="sRGB">
<feFlood flood-opacity="0" result="BackgroundImageFix"/>
<feBlend mode="normal" in="SourceGraphic" in2="BackgroundImageFix" result="shape"/>
<feColorMatrix in="SourceAlpha" type="matrix" values="0 0 0 0 0 0 0 0 0 0 0 0 0 0 0 0 0 0 127 0" result="hardAlpha"/>
<feOffset dy="2"/>
<feGaussianBlur stdDeviation="2"/>
<feComposite in2="hardAlpha" operator="arithmetic" k2="-1" k3="1"/>
<feColorMatrix type="matrix" values="0 0 0 0 0 0 0 0 0 0 0 0 0 0 0 0 0 0 0.05 0"/>
<feBlend mode="normal" in2="shape" result="effect1_innerShadow_81_12117"/>
</filter>
<clipPath id="clip0_81_12117">
<rect width="820" height="1888" fill="white" transform="translate(-355 -1338)"/>
</clipPath>
</defs>
</svg>
