<svg width="28" height="28" viewBox="0 0 28 28" fill="none" xmlns="http://www.w3.org/2000/svg">
<g id="vuesax/linear/music">
<g id="music">
<path id="Vector" d="M7.32668 25.6667C9.33699 25.6667 10.9667 24.037 10.9667 22.0267C10.9667 20.0164 9.33699 18.3867 7.32668 18.3867C5.31636 18.3867 3.68668 20.0164 3.68668 22.0267C3.68668 24.037 5.31636 25.6667 7.32668 25.6667Z" stroke="#292D32" stroke-width="1.5" stroke-linecap="round" stroke-linejoin="round"/>
<path id="Vector_2" d="M24.3133 19.6V5.36665C24.3133 2.33332 22.4117 1.91332 20.4867 2.43832L13.2067 4.42165C11.8767 4.78332 10.9667 5.83332 10.9667 7.34999V9.88165V11.585V22.015" stroke="#292D32" stroke-width="1.5" stroke-linecap="round" stroke-linejoin="round"/>
<path id="Vector_3" d="M20.6733 23.24C22.6836 23.24 24.3133 21.6103 24.3133 19.6C24.3133 17.5896 22.6836 15.96 20.6733 15.96C18.663 15.96 17.0333 17.5896 17.0333 19.6C17.0333 21.6103 18.663 23.24 20.6733 23.24Z" stroke="#292D32" stroke-width="1.5" stroke-linecap="round" stroke-linejoin="round"/>
<path id="Vector_4" d="M10.9667 11.1066L24.3133 7.46655" stroke="#292D32" stroke-width="1.5" stroke-linecap="round" stroke-linejoin="round"/>
</g>
</g>
</svg>
