<svg width="12" height="13" viewBox="0 0 12 13" fill="none" xmlns="http://www.w3.org/2000/svg">
<g id="Icon">
<path id="Vector" d="M4.5 9.5V3L10.5 2V8.5" stroke="#6B7280" stroke-width="1.5" stroke-linecap="round" stroke-linejoin="round"/>
<path id="Vector_2" d="M3 11C3.82843 11 4.5 10.3284 4.5 9.5C4.5 8.67157 3.82843 8 3 8C2.17157 8 1.5 8.67157 1.5 9.5C1.5 10.3284 2.17157 11 3 11Z" stroke="#6B7280" stroke-width="1.5" stroke-linecap="round" stroke-linejoin="round"/>
<path id="Vector_3" d="M9 10C9.82843 10 10.5 9.32843 10.5 8.5C10.5 7.67157 9.82843 7 9 7C8.17157 7 7.5 7.67157 7.5 8.5C7.5 9.32843 8.17157 10 9 10Z" stroke="#6B7280" stroke-width="1.5" stroke-linecap="round" stroke-linejoin="round"/>
</g>
</svg>
