<svg width="500" height="500" viewBox="0 0 500 500" fill="none" xmlns="http://www.w3.org/2000/svg">
<path d="M439.917 257.589C400.927 288.245 457.167 362.177 434.87 407.375C404.849 468.229 221.245 499.786 111.542 414.948C19.6667 343.901 2.22395 208.698 52.5833 161.552C67.6562 147.443 84.3906 145.349 107.812 131.589C129.594 118.792 132.333 115.156 134.109 112.667C151.625 88.0938 125.083 61.0469 133.995 39.1719C148.083 4.60417 244.63 -2.20833 321.687 20.1771C342.474 26.2135 447.464 59.2448 476.672 143.328C478.932 149.833 500.161 212.594 468.63 241.854C457.703 252 450.313 249.411 439.917 257.589Z" fill="#D2CCF6"/>
<path d="M49.4323 293.417C49.0729 293.417 48.7396 293.177 48.6354 292.813C35.276 246.469 46.1562 209.297 46.2656 208.927C46.401 208.484 46.8646 208.24 47.3073 208.37C47.7448 208.5 47.9948 208.964 47.8646 209.406C47.7552 209.771 37.0208 246.5 50.2344 292.349C50.3646 292.792 50.1094 293.255 49.6667 293.38C49.5885 293.406 49.5104 293.417 49.4323 293.417Z" fill="black"/>
<path d="M35.625 263.271C35.2396 263.271 34.8958 263 34.8125 262.609C34.7865 262.495 32.4271 251.104 33.0365 235.073C33.599 220.271 36.8802 198.354 49.3021 177.979C49.5417 177.589 50.0521 177.464 50.4479 177.703C50.8385 177.943 50.9635 178.453 50.724 178.844C27.3073 217.24 36.3438 261.818 36.4427 262.266C36.5365 262.714 36.25 263.156 35.7969 263.25C35.7396 263.266 35.6823 263.271 35.625 263.271Z" fill="black"/>
<path d="M469.698 147.578C469.547 147.578 469.391 147.536 469.255 147.453C468.865 147.203 468.75 146.693 468.995 146.302L471.297 142.661C471.542 142.276 472.057 142.161 472.448 142.406C472.833 142.651 472.948 143.167 472.703 143.557L470.406 147.193C470.245 147.443 469.974 147.578 469.698 147.578Z" fill="black"/>
<path d="M464.339 156.057C464.188 156.057 464.031 156.01 463.896 155.927C463.505 155.682 463.391 155.167 463.635 154.776L465.938 151.135C466.188 150.75 466.698 150.635 467.083 150.88C467.474 151.125 467.594 151.641 467.349 152.026L465.047 155.667C464.885 155.917 464.615 156.057 464.339 156.057Z" fill="black"/>
<path d="M465.745 148.469C465.594 148.469 465.443 148.427 465.302 148.339L461.661 146.042C461.271 145.797 461.156 145.281 461.401 144.891C461.651 144.505 462.161 144.391 462.552 144.635L466.193 146.932C466.583 147.182 466.698 147.693 466.448 148.083C466.292 148.333 466.026 148.469 465.745 148.469Z" fill="black"/>
<path d="M474.234 153.823C474.083 153.823 473.927 153.781 473.786 153.698L470.151 151.396C469.76 151.151 469.641 150.635 469.891 150.245C470.135 149.859 470.651 149.745 471.036 149.99L474.677 152.286C475.073 152.536 475.188 153.047 474.943 153.437C474.781 153.687 474.51 153.823 474.234 153.823Z" fill="black"/>
<path d="M120.552 22.8021C120.344 22.8021 120.135 22.7292 119.974 22.5729C119.641 22.2604 119.63 21.7292 119.948 21.401L122.568 18.6615C122.891 18.3281 123.417 18.3177 123.75 18.6354C124.078 18.9479 124.094 19.4792 123.776 19.8125L121.151 22.5469C120.99 22.7187 120.771 22.8021 120.552 22.8021Z" fill="black"/>
<path d="M111.375 32.3906C111.167 32.3906 110.958 32.3125 110.797 32.1614C110.469 31.8437 110.453 31.3177 110.771 30.9792L113.391 28.2448C113.714 27.9114 114.24 27.901 114.573 28.2187C114.906 28.5364 114.917 29.0625 114.599 29.3958L111.974 32.1354C111.812 32.3021 111.594 32.3906 111.375 32.3906Z" fill="black"/>
<path d="M113.948 22.9531C113.734 22.9531 113.526 22.8698 113.365 22.7135L110.703 20.0937C110.375 19.7708 110.37 19.2448 110.693 18.9167C111.016 18.5885 111.542 18.5833 111.87 18.9063L114.531 21.526C114.859 21.849 114.865 22.375 114.542 22.7031C114.375 22.8698 114.161 22.9531 113.948 22.9531Z" fill="black"/>
<path d="M123.26 32.125C123.052 32.125 122.839 32.0469 122.677 31.8854L120.016 29.2656C119.687 28.9427 119.682 28.4167 120.005 28.0886C120.328 27.7604 120.854 27.7552 121.182 28.0833L123.844 30.7031C124.172 31.0208 124.177 31.5469 123.854 31.875C123.693 32.0417 123.474 32.125 123.26 32.125Z" fill="black"/>
<path d="M454.875 117.792C454.292 117.792 453.714 117.911 453.161 118.161C451 119.13 450.016 121.719 450.969 123.932C451.432 125.016 452.286 125.839 453.365 126.255C454.411 126.667 455.557 126.635 456.589 126.172C458.75 125.203 459.729 122.609 458.776 120.396C458.313 119.318 457.464 118.495 456.385 118.078C455.896 117.885 455.385 117.792 454.875 117.792ZM454.875 128.208C454.161 128.208 453.448 128.073 452.76 127.812C451.26 127.229 450.083 126.083 449.443 124.594C448.13 121.552 449.495 117.984 452.479 116.641C453.917 115.995 455.521 115.953 456.99 116.526C458.484 117.104 459.661 118.25 460.307 119.74C461.62 122.781 460.255 126.349 457.271 127.693C456.505 128.036 455.693 128.208 454.875 128.208Z" fill="black"/>
<path d="M420.292 459.198L409.438 459.995L206.109 459.198C196.88 459.198 189.427 451.734 189.458 442.531L191 25.7604C191.031 16.5573 198.547 9.09896 207.776 9.09896L410.917 6.71875C434.266 6.71875 438.641 16.5573 438.609 25.7604L437.068 442.531C437.036 451.734 429.526 459.198 420.292 459.198Z" fill="#5236FF"/>
<path d="M407.406 459.198H193.224C183.995 459.198 176.536 451.708 176.563 442.479L177.943 24.3802C177.974 15.1458 185.479 7.66145 194.708 7.66145H408.896C418.125 7.66145 425.583 15.1458 425.552 24.3802L424.172 442.479C424.146 451.708 416.635 459.198 407.406 459.198Z" fill="white"/>
<path d="M188.839 443.052L190.156 43.8438C190.161 41.7135 191.896 39.9844 194.026 39.9844H409.359C411.495 39.9844 413.214 41.7135 413.208 43.8438L411.891 443.052C411.885 445.188 410.151 446.917 408.021 446.917H192.682C190.552 446.917 188.833 445.188 188.839 443.052Z" fill="#5236FF"/>
<path d="M301.729 28.9271C298.276 28.9271 295.479 26.125 295.495 22.6615C295.505 19.2083 298.318 16.401 301.776 16.401C305.229 16.401 308.026 19.2083 308.016 22.6615C308 26.125 305.193 28.9271 301.729 28.9271Z" fill="#D2CCF6"/>
<path d="M424.891 225.406C424.427 225.401 424.057 225.031 424.062 224.573L424.719 24.375C424.734 20.1302 423.094 16.1406 420.099 13.1406C417.109 10.1458 413.13 8.49479 408.896 8.49479H194.708C185.953 8.49479 178.802 15.6198 178.776 24.3854L178.25 184.474C178.245 184.938 177.875 185.307 177.417 185.307C177.411 185.307 177.411 185.307 177.411 185.307C176.953 185.302 176.578 184.932 176.583 184.474L177.109 24.375C177.141 14.6979 185.036 6.82812 194.708 6.82812H408.896C413.578 6.82812 417.974 8.65104 421.276 11.9635C424.589 15.2813 426.401 19.6927 426.385 24.3854L425.724 224.578C425.724 225.036 425.349 225.406 424.891 225.406Z" fill="black"/>
<path d="M407.406 460.031C407.406 460.031 407.406 460.031 407.401 460.031L238.547 459.24C238.089 459.234 237.714 458.859 237.719 458.401C237.719 457.943 238.094 457.573 238.552 457.573L407.411 458.365C407.87 458.365 408.24 458.74 408.24 459.198C408.24 459.656 407.865 460.031 407.406 460.031Z" fill="black"/>
<path d="M223.063 146.505H223.563L223.208 112.495H222.708C213.318 112.495 205.786 120.089 205.885 129.448V129.552C205.984 138.917 213.677 146.505 223.063 146.505Z" fill="white"/>
<path d="M222.385 113.333C218.182 113.417 214.266 115.089 211.318 118.063C208.307 121.099 206.672 125.141 206.719 129.438V129.547C206.812 138.323 213.958 145.49 222.719 145.667L222.385 113.333ZM223.562 147.339H223.062C213.234 147.339 205.156 139.365 205.052 129.563V129.458C205 124.714 206.807 120.25 210.135 116.891C213.474 113.521 217.937 111.667 222.708 111.667H223.208C223.667 111.667 224.036 112.031 224.042 112.49L224.396 146.495C224.396 146.719 224.312 146.932 224.156 147.094C224 147.25 223.786 147.339 223.562 147.339Z" fill="black"/>
<path d="M378.057 146.505H377.557L377.203 112.5H377.703C387.094 112.5 394.781 120.089 394.88 129.448V129.557C394.979 138.917 387.448 146.505 378.057 146.505Z" fill="white"/>
<path d="M378.047 113.333L378.385 145.667C382.583 145.589 386.505 143.911 389.448 140.938C392.458 137.901 394.094 133.859 394.047 129.563V129.458C393.958 120.677 386.807 113.51 378.047 113.333ZM378.062 147.339H377.562C377.104 147.339 376.734 146.969 376.729 146.51L376.37 112.505C376.37 112.281 376.458 112.068 376.615 111.906C376.771 111.75 376.984 111.661 377.203 111.661H377.703C387.536 111.661 395.615 119.635 395.714 129.438V129.542C395.766 134.292 393.958 138.755 390.63 142.115C387.297 145.479 382.833 147.339 378.062 147.339Z" fill="black"/>
<path d="M382.88 128.099C382.5 91.5521 345.161 53.75 299.589 53.75C254.021 53.75 217.474 91.5521 217.859 128.099C218.24 164.641 255.406 186.089 300.974 186.089C346.542 186.089 383.266 164.641 382.88 128.099Z" fill="white"/>
<path d="M299.589 54.5833C277.62 54.5833 255.964 63.7292 240.167 79.6823C226.344 93.6406 218.516 111.286 218.693 128.089C218.87 145.219 227.25 159.745 242.932 170.104C257.729 179.87 278.344 185.255 300.979 185.255C329.24 185.255 353.688 176.938 368.047 162.438C377.474 152.922 382.188 141.37 382.047 128.109C381.682 93.401 346.344 54.5833 299.589 54.5833ZM300.979 186.922C278.021 186.922 257.078 181.443 242.01 171.49C225.854 160.818 217.214 145.812 217.026 128.109C216.844 110.859 224.849 92.7865 238.984 78.5104C255.089 62.2448 277.182 52.9167 299.589 52.9167C321.307 52.9167 342.313 61.3333 358.745 76.6094C374.422 91.1823 383.521 109.948 383.714 128.089C383.854 141.62 378.849 153.901 369.234 163.609C354.557 178.422 329.677 186.922 300.979 186.922Z" fill="black"/>
<path d="M280.422 197.068H321.76C339.875 197.068 354.714 211.714 354.901 229.776C355.026 241.714 353.984 253.615 351.786 265.328L346.161 295.339C342.229 316.313 323.937 331.432 302.5 331.432C281.057 331.432 262.448 316.313 258.078 295.339L251.818 265.328C249.38 253.615 248.083 241.714 247.964 229.776C247.776 211.714 262.307 197.068 280.422 197.068Z" fill="white"/>
<path d="M280.422 197.901C271.87 197.901 263.87 201.224 257.896 207.26C251.937 213.271 248.708 221.271 248.797 229.771C248.922 241.62 250.208 253.531 252.635 265.156L258.896 295.172C263.172 315.698 281.516 330.599 302.495 330.599C323.474 330.599 341.495 315.703 345.344 295.182L350.969 265.172C353.151 253.547 354.198 241.641 354.073 229.786C353.885 212.203 339.391 197.901 321.755 197.901H280.422ZM302.495 332.266C280.729 332.266 261.703 316.802 257.26 295.51L251.005 265.495C248.557 253.76 247.255 241.75 247.13 229.786C247.036 220.839 250.437 212.422 256.708 206.083C263.005 199.734 271.427 196.234 280.422 196.234H321.755C340.302 196.234 355.542 211.281 355.734 229.771C355.859 241.729 354.807 253.745 352.609 265.479L346.979 295.49C342.984 316.797 324.276 332.266 302.495 332.266Z" fill="black"/>
<path d="M323.589 197.901H278.589C278.13 197.901 277.76 197.526 277.76 197.068C277.76 196.609 278.13 196.234 278.589 196.234H323.589C324.052 196.234 324.422 196.609 324.422 197.068C324.422 197.526 324.052 197.901 323.589 197.901Z" fill="black"/>
<path d="M244.781 117.13H324.234C332.49 117.13 339.26 124.318 339.349 133.188L339.458 143.667C339.531 150.432 335.984 157.599 329.75 158.766C307.776 162.896 262.198 162.896 240.135 158.766C233.88 157.599 230.182 150.432 230.115 143.667L230 133.188C229.911 124.318 236.526 117.13 244.781 117.13Z" fill="black"/>
<path d="M303.401 138.214C303.432 141.187 305.698 143.594 308.464 143.594C311.229 143.594 313.443 141.187 313.417 138.214C313.38 135.245 311.115 132.833 308.349 132.833C305.583 132.833 303.365 135.245 303.401 138.214Z" fill="#745FF6"/>
<path d="M250.13 138.214C250.156 141.187 252.427 143.594 255.193 143.594C257.953 143.594 260.172 141.187 260.141 138.214C260.109 135.245 257.844 132.833 255.078 132.833C252.312 132.833 250.094 135.245 250.13 138.214Z" fill="#745FF6"/>
<path d="M299.078 277.839C290.99 277.839 284.37 271.276 284.292 263.177L284.01 236.292C283.927 228.198 290.406 221.63 298.49 221.63C306.573 221.63 313.193 228.198 313.276 236.292L313.557 263.177C313.641 271.276 307.156 277.839 299.078 277.839Z" fill="#745FF6"/>
<path d="M301.437 285.063H298.464C286.979 285.063 277.536 275.703 277.411 264.193L277.141 237.974C277.135 237.51 277.505 237.135 277.969 237.13H277.974C278.432 237.13 278.802 237.5 278.807 237.953L279.078 264.172C279.187 274.776 287.885 283.401 298.464 283.401H301.437C306.224 283.401 310.708 281.536 314.062 278.146C317.427 274.745 319.255 270.219 319.208 265.406L318.917 237.531C318.911 237.073 319.281 236.693 319.74 236.688C320.229 236.677 320.578 237.052 320.583 237.516L320.875 265.385C320.927 270.651 318.927 275.599 315.245 279.318C311.578 283.021 306.672 285.063 301.437 285.063Z" fill="#745FF6"/>
<path d="M315.135 297.792H283.839C282.375 297.792 281.182 296.609 281.167 295.146C281.151 293.682 282.323 292.5 283.781 292.5H315.083C316.536 292.5 317.734 293.682 317.75 295.146C317.766 296.609 316.594 297.792 315.135 297.792Z" fill="#745FF6"/>
<path d="M301.312 297.594H297.25L297.026 276.208H301.089L301.312 297.594Z" fill="#745FF6"/>
<path d="M380.516 227.563C378.771 227.505 377.359 228.818 377.359 230.5L377.391 269.552C377.396 271.24 378.807 272.646 380.552 272.708C382.297 272.766 383.708 271.453 383.708 269.766L383.672 230.714C383.672 229.031 382.26 227.625 380.516 227.563Z" fill="#745FF6"/>
<path d="M394.766 215.005C393.026 214.943 391.615 216.26 391.615 217.943L391.672 283.078C391.672 284.76 393.089 286.172 394.833 286.229C396.573 286.286 397.984 284.974 397.984 283.292L397.927 218.151C397.927 216.474 396.51 215.063 394.766 215.005Z" fill="#745FF6"/>
<path d="M409.047 227.141C407.302 227.083 405.891 228.396 405.896 230.078L405.932 271.901C405.932 273.583 407.349 274.995 409.094 275.052C410.833 275.109 412.245 273.797 412.245 272.115L412.208 230.292C412.208 228.609 410.792 227.198 409.047 227.141Z" fill="#745FF6"/>
<path d="M423.318 231.995C421.578 231.937 420.161 233.25 420.161 234.932L420.198 268.01C420.198 269.693 421.609 271.104 423.354 271.161C425.099 271.224 426.51 269.906 426.505 268.224L426.479 235.146C426.479 233.464 425.063 232.052 423.318 231.995Z" fill="#745FF6"/>
<path d="M367.339 236.969C365.599 236.911 364.193 237.99 364.208 239.385L364.438 266.792C364.448 268.182 365.87 269.365 367.615 269.422C369.359 269.479 370.76 268.401 370.75 267.005L370.521 239.599C370.505 238.203 369.083 237.026 367.339 236.969Z" fill="#745FF6"/>
<path d="M463.224 234.859C461.479 234.802 460.073 236.12 460.073 237.797L460.099 270.875C460.099 272.557 461.516 273.969 463.26 274.026C465 274.083 466.417 272.771 466.411 271.089L466.38 238.01C466.38 236.328 464.969 234.917 463.224 234.859Z" fill="#745FF6"/>
<path d="M475.781 242.401C474.042 242.292 472.63 243.052 472.62 244.104L472.495 264.766C472.49 265.818 473.896 266.76 475.635 266.87C477.375 266.979 478.792 266.219 478.797 265.167L478.927 244.505C478.932 243.453 477.526 242.516 475.781 242.401Z" fill="#745FF6"/>
<path d="M437.589 238.693C435.849 238.63 434.438 239.948 434.438 241.625L434.458 262.276C434.458 263.958 435.875 265.37 437.615 265.432C439.359 265.49 440.771 264.172 440.771 262.495L440.75 241.844C440.75 240.161 439.339 238.75 437.589 238.693Z" fill="#745FF6"/>
<path d="M450.74 226.464C448.995 226.406 447.583 227.719 447.583 229.401L447.625 275.5C447.625 277.177 449.042 278.589 450.781 278.651C452.526 278.708 453.938 277.396 453.938 275.708L453.896 229.615C453.896 227.932 452.479 226.521 450.74 226.464Z" fill="#745FF6"/>
<path d="M221.583 227.672C219.844 227.63 218.448 228.911 218.464 230.542L218.979 275.214C219 276.844 220.427 278.198 222.167 278.245C223.911 278.286 225.307 277 225.286 275.37L224.771 230.698C224.755 229.068 223.328 227.714 221.583 227.672Z" fill="#745FF6"/>
<path d="M193.141 233.271C191.396 233.229 190 234.516 190.016 236.146L190.385 268.203C190.406 269.833 191.833 271.188 193.578 271.229C195.318 271.271 196.719 269.984 196.698 268.354L196.328 236.302C196.313 234.672 194.88 233.318 193.141 233.271Z" fill="#745FF6"/>
<path d="M178.948 238.943C177.208 238.901 175.807 240.182 175.828 241.812L176.057 261.823C176.078 263.453 177.505 264.812 179.25 264.854C180.99 264.896 182.385 263.609 182.37 261.979L182.135 241.969C182.12 240.339 180.693 238.984 178.948 238.943Z" fill="#745FF6"/>
<path d="M207.271 237.828C205.526 237.786 204.13 239.073 204.151 240.703L204.38 260.714C204.401 262.344 205.828 263.703 207.568 263.745C209.313 263.786 210.708 262.5 210.688 260.875L210.458 240.859C210.438 239.229 209.01 237.875 207.271 237.828Z" fill="#745FF6"/>
<path d="M234.891 233.411C233.151 233.365 231.74 235.099 231.745 237.276L231.807 264.021C231.807 266.198 233.229 268 234.969 268.042C236.708 268.083 238.12 266.354 238.115 264.177L238.057 237.432C238.052 235.255 236.635 233.453 234.891 233.411Z" fill="#745FF6"/>
<path d="M164.547 226.26C162.802 226.214 161.406 227.5 161.427 229.13L161.943 273.802C161.958 275.432 163.391 276.786 165.13 276.828C166.875 276.875 168.271 275.589 168.25 273.958L167.734 229.286C167.714 227.656 166.286 226.302 164.547 226.26Z" fill="#5236FF"/>
<path d="M150.354 231.813C148.615 231.766 147.214 233.052 147.234 234.682L147.615 267.547C147.63 269.172 149.057 270.531 150.802 270.573C152.542 270.62 153.943 269.328 153.922 267.698L153.542 234.839C153.526 233.208 152.099 231.854 150.354 231.813Z" fill="#5236FF"/>
<path d="M147.682 53.6146L44.9323 53.8125C39.9792 53.8229 35.974 57.8437 35.9792 62.7969L36.0625 105.286C36.0729 110.24 40.099 114.245 45.0521 114.234L121.984 114.089L144.448 131.255L144.411 114.047L147.797 114.036C152.75 114.031 156.76 110.005 156.75 105.057L156.672 62.5625C156.661 57.6094 152.635 53.6094 147.682 53.6146Z" fill="#5236FF"/>
<path d="M144.193 133.604C144.005 133.604 143.823 133.536 143.672 133.417L121.896 115.839L91.0156 115.078C90.5573 115.063 90.1927 114.682 90.2031 114.224C90.2135 113.766 90.5781 113.411 91.0573 113.411L122.219 114.177C122.401 114.182 122.578 114.245 122.719 114.365L143.406 131.057L143.786 115.542C143.792 115.323 143.885 115.109 144.042 114.958C144.203 114.807 144.417 114.724 144.641 114.729L148.026 114.813C148.094 114.818 148.161 114.818 148.224 114.818C152.62 114.818 156.25 111.302 156.359 106.885L157.406 64.4011C157.458 62.2292 156.661 60.1719 155.161 58.5938C153.667 57.0261 151.646 56.125 149.469 56.0729L46.7552 53.5521C44.5937 53.4844 42.5156 54.2917 40.9427 55.7865C39.3698 57.2865 38.474 59.3073 38.4167 61.4792L37.3698 103.958C37.3177 106.13 38.1146 108.193 39.6146 109.766C41.1094 111.339 43.1354 112.234 45.3073 112.286L57.6667 112.589C58.1302 112.599 58.4948 112.984 58.4792 113.443C58.4687 113.901 58.0885 114.26 57.6302 114.255L45.2656 113.953C42.6458 113.891 40.2135 112.807 38.4062 110.911C36.599 109.016 35.6406 106.536 35.7083 103.917L36.7552 61.4323C36.8177 58.8177 37.8958 56.3854 39.7917 54.5833C41.6875 52.7813 44.1719 51.8333 46.7969 51.8854L149.51 54.4115C152.13 54.474 154.562 55.5521 156.37 57.4479C158.177 59.3438 159.135 61.8281 159.068 64.4427L158.021 106.927C157.891 112.245 153.521 116.479 148.224 116.479C148.146 116.479 148.062 116.479 147.984 116.474L145.432 116.417L145.026 132.792C145.021 133.104 144.833 133.391 144.542 133.526C144.432 133.578 144.312 133.604 144.193 133.604Z" fill="black"/>
<path d="M81.8646 114.901C81.8594 114.901 81.849 114.901 81.8385 114.901L72.0521 114.609C71.5937 114.594 71.2344 114.214 71.2448 113.75C71.2604 113.292 71.6562 112.917 72.1042 112.943L81.8906 113.24C82.349 113.25 82.7135 113.635 82.6979 114.094C82.6875 114.547 82.3125 114.901 81.8646 114.901Z" fill="black"/>
<path d="M92.2708 75.0833C92.2656 75.0833 92.2604 75.0833 92.25 75.0833L52.3021 74.1042C51.8437 74.0885 51.4791 73.7083 51.4896 73.2448C51.5 72.7917 51.8594 72.4167 52.3437 72.4375L92.2917 73.4219C92.7552 73.4271 93.1146 73.8125 93.1042 74.2708C93.0937 74.724 92.7239 75.0833 92.2708 75.0833Z" fill="#745FF6"/>
<path d="M142.115 76.3229C142.109 76.3229 142.104 76.3229 142.094 76.3229L99.7708 75.2813C99.3073 75.2656 98.9479 74.8854 98.9583 74.4271C98.9687 73.974 99.3385 73.6146 99.7917 73.6146C99.7969 73.6146 99.8021 73.6146 99.8073 73.6146L142.135 74.6563C142.599 74.6667 142.958 75.0521 142.948 75.5104C142.937 75.9636 142.568 76.3229 142.115 76.3229Z" fill="#745FF6"/>
<path d="M110.854 95.4635C110.849 95.4635 110.839 95.4635 110.833 95.4635L52.2969 93.9583C51.8385 93.9479 51.4739 93.5677 51.4896 93.1094C51.5 92.6563 51.8698 92.2969 52.3229 92.2969C52.3281 92.2969 52.3333 92.2969 52.3437 92.2969L110.875 93.7969C111.333 93.8125 111.698 94.1927 111.687 94.651C111.672 95.1042 111.302 95.4635 110.854 95.4635Z" fill="#745FF6"/>
<path d="M142.115 96.1823C142.109 96.1823 142.099 96.1823 142.094 96.1823L118.354 95.6615C117.891 95.651 117.526 95.2708 117.536 94.8125C117.547 94.3542 117.927 94.0052 118.391 94L142.13 94.5208C142.594 94.526 142.958 94.9063 142.948 95.3698C142.938 95.8177 142.568 96.1823 142.115 96.1823Z" fill="#745FF6"/>
<path d="M76.651 84.526C76.6458 84.526 76.6406 84.526 76.6354 84.526L52.3073 84.0312C51.8437 84.026 51.4791 83.6406 51.4896 83.1823C51.5 82.7239 51.875 82.3698 52.3385 82.3698L76.6719 82.8594C77.1302 82.8698 77.4948 83.25 77.4844 83.7083C77.4792 84.1614 77.1042 84.526 76.651 84.526Z" fill="#745FF6"/>
<path d="M142.115 86.25C142.109 86.25 142.104 86.25 142.094 86.25L84.151 84.7188C83.6875 84.7031 83.3281 84.3229 83.3385 83.8594C83.3542 83.401 83.7552 83.026 84.1927 83.0521L142.135 84.5833C142.599 84.5938 142.964 84.9792 142.948 85.4427C142.937 85.8906 142.568 86.25 142.115 86.25Z" fill="#745FF6"/>
<path d="M176.786 422.844C176.786 422.844 153.151 371.073 166.708 303.953C166.708 303.953 203.349 334.63 190.135 422.844H176.786Z" fill="#745FF6"/>
<path d="M182.573 418.276C182.557 418.276 182.542 418.276 182.521 418.276C182.062 418.25 181.714 417.859 181.74 417.396C183.547 384.318 168.615 313.682 168.464 312.974C168.365 312.526 168.656 312.083 169.104 311.99C169.552 311.891 169.995 312.177 170.094 312.625C170.245 313.339 185.219 384.188 183.401 417.49C183.375 417.932 183.01 418.276 182.573 418.276Z" fill="white"/>
<path d="M200.568 338.672C200.568 338.672 170.115 393.651 188.432 417.443H198.234C198.234 417.443 217.818 374.464 200.568 338.672Z" fill="#D2CCF6"/>
<path d="M193.01 419.734C192.562 419.734 192.193 419.38 192.177 418.932C191.297 396.224 199.661 339.125 199.745 338.547C199.812 338.094 200.234 337.781 200.693 337.844C201.146 337.911 201.458 338.339 201.396 338.792C201.307 339.365 192.964 396.313 193.844 418.87C193.859 419.328 193.5 419.714 193.042 419.729C193.031 419.734 193.021 419.734 193.01 419.734Z" fill="white"/>
<path d="M142.422 359.167C142.422 359.167 168.365 368.01 177.76 420.375H167.557C167.557 420.375 146.26 391.615 142.422 359.167Z" fill="#5236FF"/>
<path d="M172.182 419.734C171.781 419.734 171.427 419.443 171.365 419.036C167.505 395.75 150.818 372.297 150.646 372.057C150.38 371.688 150.464 371.167 150.839 370.896C151.214 370.63 151.734 370.714 152 371.089C152.172 371.328 169.089 395.099 173.005 418.766C173.083 419.219 172.776 419.646 172.318 419.719C172.276 419.729 172.229 419.734 172.182 419.734Z" fill="#D2CCF6"/>
<path d="M152.432 416.219H216.438L217.875 446.474C218.224 453.891 212.302 460.094 204.87 460.094H168.318C159.526 460.094 152.396 452.969 152.406 444.182L152.432 416.219Z" fill="white"/>
<path d="M153.266 417.052L153.24 444.182C153.234 448.208 154.802 451.995 157.651 454.844C160.5 457.693 164.286 459.266 168.318 459.266H204.87C208.234 459.266 211.37 457.922 213.688 455.49C216.01 453.057 217.203 449.87 217.042 446.51L215.646 417.052H153.266ZM204.87 460.927H168.318C163.839 460.927 159.635 459.188 156.469 456.021C153.307 452.859 151.568 448.651 151.573 444.182L151.599 416.219C151.599 415.76 151.974 415.385 152.432 415.385H216.438C216.88 415.385 217.25 415.734 217.271 416.182L218.708 446.432C218.891 450.25 217.536 453.875 214.896 456.641C212.255 459.401 208.693 460.927 204.87 460.927Z" fill="#745FF6"/>
<path d="M458.87 424.875H307.297C303.385 424.875 300.182 421.677 300.182 417.766V358.094C300.182 354.182 303.385 350.984 307.297 350.984H342.922C343.401 350.984 343.786 350.609 343.807 350.135L348.854 330.849L367.656 350.781C367.818 350.911 368.016 350.984 368.224 350.984H458.87C462.781 350.984 465.979 354.182 465.979 358.094V417.766C465.979 421.677 462.781 424.875 458.87 424.875Z" fill="#D2CCF6"/>
<path d="M449.005 376.188H412.682C412.224 376.188 411.849 375.818 411.849 375.354C411.849 374.896 412.224 374.526 412.682 374.526H449.005C449.464 374.526 449.839 374.896 449.839 375.354C449.839 375.818 449.464 376.188 449.005 376.188Z" fill="#745FF6"/>
<path d="M397.115 376.188H317.073C316.609 376.188 316.24 375.818 316.24 375.354C316.24 374.896 316.609 374.526 317.073 374.526H397.115C397.578 374.526 397.948 374.896 397.948 375.354C397.948 375.818 397.578 376.188 397.115 376.188Z" fill="#745FF6"/>
<path d="M449.005 392.266H365.979C365.521 392.266 365.146 391.891 365.146 391.432C365.146 390.974 365.521 390.599 365.979 390.599H449.005C449.464 390.599 449.839 390.974 449.839 391.432C449.839 391.891 449.464 392.266 449.005 392.266Z" fill="#745FF6"/>
<path d="M349.891 392.266H317.073C316.609 392.266 316.24 391.891 316.24 391.432C316.24 390.974 316.609 390.599 317.073 390.599H349.891C350.354 390.599 350.724 390.974 350.724 391.432C350.724 391.891 350.354 392.266 349.891 392.266Z" fill="#745FF6"/>
<path d="M449.005 406.266H398.219C397.755 406.266 397.385 405.891 397.385 405.432C397.385 404.974 397.755 404.599 398.219 404.599H449.005C449.464 404.599 449.839 404.974 449.839 405.432C449.839 405.891 449.464 406.266 449.005 406.266Z" fill="#745FF6"/>
<path d="M382.031 406.266H317.073C316.609 406.266 316.234 405.891 316.234 405.432C316.234 404.974 316.609 404.599 317.073 404.599H382.031C382.49 404.599 382.865 404.974 382.865 405.432C382.865 405.891 382.49 406.266 382.031 406.266Z" fill="#745FF6"/>
<path d="M459.125 426.88C459.109 426.88 459.089 426.88 459.068 426.88L305.729 425.63C303.849 425.615 302.083 424.859 300.76 423.516C299.432 422.167 298.714 420.391 298.729 418.516L299.229 357.073C299.26 353.203 302.422 350.078 306.292 350.078C306.307 350.078 306.328 350.078 306.349 350.078L338.479 350.339L343.276 350.63L348.042 330.656C348.115 330.359 348.349 330.12 348.641 330.042C348.937 329.964 349.255 330.057 349.464 330.281L368.198 350.583L397.12 350.818C397.583 350.823 397.948 351.198 397.943 351.656C397.943 352.115 397.573 352.51 397.109 352.479L367.823 352.24C367.594 352.24 367.375 352.146 367.219 351.974L349.302 332.563L344.734 351.698C344.641 352.089 344.271 352.354 343.875 352.333L338.422 352.005L306.333 351.74C303.365 351.698 300.917 354.115 300.896 357.089L300.396 418.531C300.38 419.964 300.932 421.318 301.948 422.349C302.964 423.38 304.312 423.953 305.745 423.964L459.083 425.214C459.094 425.214 459.109 425.214 459.125 425.214C462.078 425.214 464.495 422.823 464.516 419.87L465.021 358.427C465.047 355.453 462.646 353.016 459.672 352.99L404.375 352.542C403.917 352.536 403.547 352.161 403.547 351.703C403.552 351.245 403.953 350.88 404.391 350.875L459.682 351.328C463.578 351.359 466.719 354.552 466.688 358.438L466.182 419.88C466.156 423.75 462.99 426.88 459.125 426.88Z" fill="black"/>
<path d="M83.5729 430.495L84.8958 443.073L93.4062 444.073V429.156L83.5729 430.495Z" fill="white"/>
<path d="M85.651 442.323L92.5729 443.135V430.109L84.4844 431.208L85.651 442.323ZM93.4062 444.901C93.375 444.901 93.3437 444.901 93.3073 444.896L84.7969 443.901C84.4062 443.854 84.1042 443.547 84.0625 443.161L82.7448 430.578C82.6979 430.135 83.0156 429.729 83.4583 429.667L93.2917 428.328C93.5312 428.297 93.7708 428.365 93.9531 428.526C94.1354 428.682 94.2396 428.911 94.2396 429.156V444.073C94.2396 444.307 94.1354 444.531 93.9583 444.693C93.8073 444.828 93.6094 444.901 93.4062 444.901Z" fill="black"/>
<path d="M94.7448 465.969C91.1979 466.469 85.3802 466.906 78.5521 465.964C76.3125 465.651 74.8281 463.484 75.3698 461.292C76.875 455.182 79.4635 443.599 83.9115 438.229L85.0156 441.141L86.5417 438.401C86.75 438.026 87.125 437.771 87.5521 437.719L90.8958 437.297C91.5937 437.208 92.2448 437.667 92.3854 438.359L92.9167 440.88L94.0833 437.568L97.974 461.714C98.2448 463.776 96.8073 465.682 94.7448 465.969Z" fill="#745FF6"/>
<path d="M83.6719 439.948C80.1562 445.151 77.8958 454.443 76.5 460.172L76.1771 461.49C75.974 462.318 76.125 463.156 76.6042 463.859C77.0781 464.557 77.8281 465.026 78.6667 465.141C85.3385 466.063 91.0312 465.651 94.6302 465.146C96.2292 464.922 97.3594 463.432 97.1458 461.823L93.7812 440.932L93.7031 441.156C93.5833 441.51 93.2344 441.734 92.8646 441.714C92.4948 441.688 92.1823 441.422 92.1042 441.052L91.5729 438.526C91.5156 438.266 91.2656 438.089 91 438.12L87.6562 438.542C87.4948 438.568 87.349 438.662 87.2708 438.807L85.7448 441.547C85.5885 441.833 85.276 441.995 84.9583 441.974C84.6354 441.948 84.3542 441.745 84.2396 441.438L83.6719 439.948ZM86.6979 467.354C84.1979 467.354 81.4114 467.198 78.4375 466.787C77.1354 466.609 75.9635 465.88 75.2239 464.792C74.4896 463.714 74.25 462.365 74.5625 461.094L74.8854 459.776C76.4219 453.448 79.0052 442.849 83.2708 437.703C83.4583 437.474 83.7552 437.359 84.0469 437.412C84.3385 437.458 84.5833 437.662 84.6927 437.938L85.1614 439.172L85.8125 437.995C86.151 437.391 86.7604 436.979 87.4479 436.891L90.7917 436.469C91.7917 436.339 92.7448 436.932 93.1042 437.849L93.2969 437.292C93.4219 436.932 93.7864 436.703 94.1562 436.734C94.5364 436.771 94.8437 437.057 94.9062 437.432L98.7917 461.583C99.1302 464.115 97.3646 466.443 94.8646 466.797C92.7656 467.089 89.9739 467.354 86.6979 467.354Z" fill="black"/>
<path d="M84.8802 463.302C82.5885 463.302 80.1094 463.104 77.6354 462.542C77.1875 462.438 76.9062 461.99 77.0104 461.542C77.1094 461.094 77.5573 460.818 78.0052 460.917C86.2656 462.797 94.9062 460.38 94.9948 460.354C95.4375 460.229 95.8958 460.484 96.026 460.927C96.151 461.37 95.8958 461.828 95.4531 461.953C95.1875 462.031 90.6302 463.302 84.8802 463.302Z" fill="black"/>
<path d="M82.8542 453.953C82.4062 453.953 82.0365 453.599 82.0208 453.146C82.0052 452.688 82.3646 452.302 82.8281 452.286L90.8073 452.026C91.2552 451.99 91.651 452.37 91.6667 452.828C91.6823 453.286 91.3177 453.672 90.8594 453.688L82.8802 453.953C82.8698 453.953 82.8646 453.953 82.8542 453.953Z" fill="black"/>
<path d="M123.443 423.797L124.719 442.156H134.964L135.443 423.797H123.443Z" fill="white"/>
<path d="M125.5 441.323H134.151L134.583 424.63H124.339L125.5 441.323ZM134.964 442.984H124.719C124.281 442.984 123.922 442.646 123.891 442.214L122.615 423.849C122.599 423.62 122.677 423.396 122.839 423.229C122.995 423.057 123.214 422.964 123.443 422.964H135.443C135.667 422.964 135.88 423.052 136.036 423.214C136.193 423.375 136.281 423.594 136.271 423.818L135.797 442.172C135.786 442.625 135.417 442.984 134.964 442.984Z" fill="black"/>
<path d="M122.047 452.516C122.021 454.255 123.208 455.776 124.901 456.172C130.786 457.542 144.052 460.594 147.839 461.156C152.75 461.885 158.786 460.38 161.38 457.51C163.974 454.641 155.568 447.786 151.578 445.292C145.651 441.589 139.958 434.266 137.573 433.938C135.187 433.609 130.729 440.531 130.729 440.531L123.443 437.474C123.443 437.474 122.177 443.708 122.047 452.516Z" fill="#745FF6"/>
<path d="M122.875 452.531C122.859 453.87 123.786 455.057 125.089 455.365C130.708 456.667 144.193 459.771 147.958 460.333C152.698 461.036 158.443 459.521 160.76 456.953C160.906 456.792 161.094 456.51 161.016 455.964C160.641 453.255 155.036 448.438 151.141 446C148.115 444.109 145.234 441.38 142.693 438.974C140.578 436.964 138.391 434.891 137.458 434.766C136.339 434.594 133.443 437.854 131.432 440.979C131.208 441.318 130.781 441.453 130.406 441.297L124.083 438.641C123.729 440.734 122.974 445.927 122.875 452.531ZM150.391 462.172C149.49 462.172 148.589 462.109 147.714 461.974C144.026 461.427 131.719 458.609 124.708 456.984C122.651 456.505 121.182 454.62 121.214 452.505C121.344 443.719 122.615 437.37 122.63 437.307C122.677 437.063 122.833 436.854 123.057 436.734C123.276 436.62 123.536 436.604 123.766 436.703L130.411 439.495C131.854 437.344 135.234 432.781 137.687 433.115C139.083 433.307 140.844 434.922 143.844 437.766C146.323 440.12 149.135 442.786 152.021 444.589C154.604 446.203 162.104 451.714 162.667 455.734C162.792 456.635 162.562 457.443 162 458.068C159.745 460.563 154.995 462.172 150.391 462.172Z" fill="black"/>
<path d="M150.307 458.792C139.552 458.792 125.219 453.005 124.406 452.672C123.979 452.5 123.776 452.016 123.948 451.589C124.125 451.161 124.609 450.958 125.036 451.135C125.297 451.24 151.036 461.63 158.505 454.885C158.849 454.578 159.375 454.604 159.682 454.948C159.99 455.292 159.964 455.812 159.62 456.12C157.469 458.068 154.109 458.792 150.307 458.792Z" fill="black"/>
<path d="M138.953 447.682C138.724 447.682 138.495 447.589 138.333 447.406C138.026 447.068 138.052 446.536 138.396 446.229L143.604 441.536C143.948 441.224 144.474 441.255 144.781 441.594C145.089 441.937 145.063 442.464 144.719 442.771L139.51 447.469C139.349 447.609 139.151 447.682 138.953 447.682Z" fill="black"/>
<path d="M80.6667 304.109C80.6667 304.109 77.4948 361.505 75.8333 381.318C74.1719 401.125 79.7135 432.974 79.7135 432.974L95.526 432.141C95.526 432.141 96.6094 393.422 97.7865 382.672C97.7865 382.672 104.464 368.094 106.443 355.089C108.422 342.089 115.167 321.557 115.167 321.557C115.167 321.557 120.641 424.052 121.172 432.104C121.172 432.104 133.568 432.656 138.016 429.859C138.016 429.859 145.891 392.49 144.76 372.156C143.63 351.823 144.87 301.302 144.87 301.302L80.6667 304.109Z" fill="black"/>
<path d="M94.875 383.5H90.0416C89.5833 383.5 89.2083 383.125 89.2083 382.667C89.2083 382.208 89.5833 381.833 90.0416 381.833H94.875C95.3333 381.833 95.7083 382.208 95.7083 382.667C95.7083 383.125 95.3333 383.5 94.875 383.5Z" fill="white"/>
<path d="M129.302 413.307C129.297 413.307 129.292 413.307 129.286 413.307C128.828 413.297 128.458 412.917 128.469 412.458C128.646 402.891 139.099 385.828 139.547 385.104C139.786 384.714 140.302 384.594 140.693 384.833C141.083 385.073 141.203 385.589 140.964 385.979C140.859 386.151 130.302 403.375 130.135 412.49C130.125 412.948 129.755 413.307 129.302 413.307Z" fill="white"/>
<path d="M149.875 212.323C151.026 212.234 156.677 223.797 174.359 223.313C192.036 222.828 206.224 203.057 206.224 203.057C206.224 203.057 212.328 192.771 216.964 189.047C221.599 185.328 222.328 184.839 222.328 184.839C222.328 184.839 223.776 186.771 222.328 189.047C220.87 191.328 216.865 195.583 216.865 195.583C216.865 195.583 221.281 198.005 219.286 203.057C216.995 208.865 210.536 208.396 210.536 208.396C210.536 208.396 197.427 266.391 143.25 238.833L149.875 212.323Z" fill="white"/>
<path d="M144.219 238.391C159.906 246.234 173.573 247.531 184.844 242.24C203.849 233.328 209.667 208.464 209.724 208.214C209.818 207.813 210.182 207.536 210.594 207.568C210.833 207.589 216.479 207.906 218.516 202.755C220.203 198.469 216.609 196.396 216.458 196.313C216.234 196.188 216.078 195.964 216.036 195.708C216 195.458 216.078 195.203 216.255 195.01C216.292 194.974 220.229 190.786 221.62 188.599C222.255 187.615 222.193 186.714 222.016 186.115C221.297 186.667 219.948 187.724 217.484 189.698C213.021 193.281 207 203.38 206.943 203.484C206.927 203.5 206.917 203.521 206.901 203.542C206.312 204.365 192.271 223.656 174.38 224.141C159.969 224.542 153.411 217.229 150.615 214.109C150.531 214.016 150.443 213.922 150.359 213.828L144.219 238.391ZM170.115 247.099C161.833 247.099 152.724 244.589 142.87 239.578C142.526 239.401 142.344 239.005 142.443 238.635L149.068 212.125C149.151 211.776 149.453 211.521 149.812 211.495C150.453 211.443 150.896 211.932 151.854 213C154.5 215.948 160.703 222.859 174.333 222.479C191.109 222.021 204.922 203.427 205.526 202.599C205.984 201.839 211.833 192.104 216.443 188.401C221.052 184.703 221.828 184.172 221.859 184.151C222.224 183.901 222.724 183.984 222.99 184.339C223.062 184.438 224.771 186.766 223.031 189.495C221.901 191.266 219.344 194.12 218.13 195.443C219.776 196.781 221.578 199.526 220.062 203.365C218.047 208.474 213.047 209.156 211.182 209.229C210.104 213.292 203.526 235.318 185.552 243.75C180.792 245.979 175.635 247.099 170.115 247.099Z" fill="black"/>
<path d="M62.2448 238.833C62.2448 238.833 67.5521 204.615 86.2969 196.193C105.042 187.776 130.401 188.948 137.396 193.151C144.385 197.354 162.615 216.365 162.615 216.365L146.51 238.833C146.51 238.833 150.187 299.318 147.281 315.286C147.281 315.286 129.359 317.375 121.76 314.385C114.161 311.396 89.1719 307.203 77.2292 312.688L79.401 236.109L62.2448 238.833Z" fill="#745FF6"/>
<path d="M93.4583 309.188C104.849 309.188 117.135 311.672 122.068 313.609C128.604 316.182 143.365 314.854 146.562 314.526C149.229 297.953 145.714 239.479 145.677 238.885C145.667 238.693 145.719 238.505 145.833 238.349L161.536 216.443C158.615 213.422 143.156 197.589 136.964 193.865C130.438 189.938 105.292 188.573 86.6354 196.953C70.4219 204.24 64.3906 231.875 63.2656 237.828L79.2708 235.286C79.5104 235.25 79.7656 235.323 79.9479 235.484C80.1354 235.646 80.2396 235.885 80.2344 236.135L78.099 311.417C82.3073 309.807 87.7708 309.188 93.4583 309.188ZM134.651 316.833C129.849 316.833 124.755 316.458 121.458 315.161C113.625 312.073 88.9271 308.234 77.5781 313.443C77.3177 313.563 77.0104 313.542 76.7708 313.38C76.5313 313.224 76.3906 312.953 76.3958 312.661L78.5365 237.089L62.375 239.656C62.1094 239.698 61.8437 239.609 61.6563 239.422C61.4687 239.234 61.3802 238.969 61.4219 238.708C61.6406 237.292 67.0104 203.943 85.9531 195.432C104.521 187.094 130.224 187.87 137.823 192.438C144.833 196.651 162.469 215.01 163.219 215.792C163.495 216.078 163.526 216.526 163.292 216.849L147.359 239.078C147.667 244.193 150.922 299.953 148.099 315.438C148.031 315.797 147.74 316.068 147.375 316.109C146.953 316.161 141.057 316.833 134.651 316.833Z" fill="black"/>
<path d="M93.6927 297.74C93.2969 297.74 92.9479 297.453 92.875 297.047C92.7917 296.599 93.099 296.161 93.5521 296.089C121.88 291.083 130.094 271.557 130.172 271.359C130.344 270.932 130.833 270.729 131.255 270.901C131.682 271.073 131.891 271.557 131.714 271.984C131.635 272.188 123.068 292.563 93.8385 297.724C93.7917 297.734 93.7396 297.74 93.6927 297.74Z" fill="black"/>
<path d="M145.151 262.755H108.672L120.099 222.042H156.578L145.151 262.755Z" fill="black"/>
<path d="M65.4583 238.964L83.9219 230.719C83.9219 230.719 81.3229 261.979 118.672 247.542C118.672 247.542 117.292 243.526 117.49 238.833C117.682 234.146 120.495 238.682 120.885 242.495C121.281 246.307 130.047 244.76 135.318 243.26C140.589 241.755 147.505 242.74 135.318 249.458C123.13 256.177 120.458 253.177 120.458 253.177C120.458 253.177 104.896 274.938 85.5312 270.318C61.7135 264.63 65.4583 238.964 65.4583 238.964Z" fill="white"/>
<path d="M66.2344 239.531C66.0729 241.094 65.6979 246.505 67.3802 252.333C70.0104 261.448 76.1823 267.229 85.7292 269.505C87.5 269.927 89.2396 270.12 90.9427 270.12C107.099 270.125 119.646 252.885 119.781 252.693C119.932 252.49 120.161 252.359 120.417 252.349C120.672 252.333 120.917 252.432 121.083 252.625C121.089 252.625 123.818 254.844 134.917 248.729C141.37 245.167 141.271 243.865 141.271 243.854C141.021 243.443 138.589 243.193 135.547 244.057C133.036 244.776 124.604 246.938 121.385 244.76C120.609 244.234 120.151 243.479 120.057 242.583C119.854 240.599 118.99 238.656 118.422 237.927C118.38 238.13 118.339 238.427 118.323 238.87C118.135 243.354 119.448 247.234 119.458 247.276C119.604 247.698 119.391 248.156 118.974 248.323C106.089 253.297 96.4062 253.469 90.1979 248.823C83.6979 243.969 83.0364 235.37 83.0417 232.026L66.2344 239.531ZM90.9323 271.786C89.1094 271.786 87.2396 271.578 85.3385 271.125C61.0625 265.328 64.599 239.109 64.6354 238.849C64.6771 238.568 64.8594 238.323 65.1198 238.208L83.5833 229.958C83.8489 229.839 84.1615 229.87 84.401 230.042C84.6406 230.208 84.776 230.495 84.75 230.786C84.7396 230.901 83.9167 242.062 91.2031 247.5C96.8125 251.688 105.703 251.531 117.651 247.042C117.25 245.625 116.505 242.427 116.656 238.797C116.687 238.12 116.771 236.047 118.214 236C118.224 236 118.24 236 118.25 236C120.094 236 121.484 240.161 121.714 242.411C121.755 242.823 121.948 243.13 122.318 243.38C124.271 244.703 130.141 243.87 135.089 242.458C137.385 241.802 141.948 241.125 142.812 243.229C143.521 244.943 141.333 247.089 135.724 250.188C126.344 255.354 122.25 254.938 120.672 254.276C118.203 257.443 106.161 271.786 90.9323 271.786Z" fill="black"/>
<path d="M114.74 180.599C113.141 182.057 110.026 183.839 107.583 182.609C105.766 181.693 104.755 179.328 104.818 176.615C103.974 176.682 102.87 176.625 102.083 175.927C100.875 174.859 101.099 172.891 101.146 171.599C101.365 165.63 97.8958 164.708 98.7448 160.656C99.4115 157.474 101.917 155.578 102.385 155.219C104.745 153.432 106.349 154.01 110.323 152.969C117.01 151.219 117.224 148.339 121.625 148.328C121.88 148.328 127.875 148.391 129.911 152.531C131.568 155.896 129.635 159.984 127.635 162.135C125.047 164.917 123.188 163.542 120.594 165.88C116.031 169.974 119.474 176.266 114.74 180.599Z" fill="black"/>
<path d="M128.083 169.943L127.818 169.719C126.495 168.578 125.115 167.255 124.766 165.547C123.271 158.276 116.609 155.641 116.302 162.312C116.224 163.995 110.068 163.906 110.802 165.677C112.703 170.286 112.745 169.047 110.057 170.745C109.755 170.755 109.453 170.823 109.167 170.958C107.786 171.599 107.302 173.469 108.078 175.13C108.547 176.141 109.38 176.839 110.266 177.089V184.37C110.266 187.099 108.615 189.562 106.083 190.594L103.625 191.599C103.625 191.599 115.099 199.083 126.745 190.865L125.188 190.167C122.453 188.943 120.656 186.26 120.562 183.266L120.547 181.844C121.333 181.911 122.089 181.859 122.792 181.656C126.047 180.708 127.13 176.958 126.573 172.297L127.901 171.583C128.521 171.25 128.615 170.401 128.083 169.943Z" fill="white"/>
<path d="M105.552 191.708C108.75 193.271 116.682 196.094 125.021 191.005L124.849 190.927C121.844 189.578 119.833 186.583 119.729 183.292L119.714 181.849C119.714 181.615 119.813 181.391 119.984 181.229C120.156 181.073 120.391 180.99 120.62 181.016C121.333 181.073 121.984 181.021 122.557 180.854C126.219 179.792 126.01 174.583 125.75 172.391C125.708 172.052 125.88 171.724 126.182 171.563L127.505 170.854C127.573 170.818 127.589 170.76 127.594 170.719C127.599 170.682 127.594 170.625 127.536 170.573L127.276 170.344C125.88 169.146 124.359 167.698 123.953 165.714C123.068 161.401 120.365 159.182 118.839 159.313C117.422 159.422 117.177 161.474 117.135 162.349C117.068 163.755 115.339 164.245 113.661 164.714C113 164.896 111.932 165.193 111.609 165.453C111.865 166.073 112.089 166.583 112.271 167.005C113.182 169.104 113.49 169.813 111.63 170.802C111.333 170.964 110.958 171.161 110.505 171.448C110.38 171.526 110.24 171.568 110.094 171.578C109.885 171.583 109.693 171.63 109.521 171.708C108.557 172.156 108.25 173.536 108.833 174.781C109.182 175.531 109.802 176.094 110.495 176.292C110.854 176.391 111.099 176.719 111.099 177.089V184.37C111.099 187.453 109.255 190.198 106.401 191.365L105.552 191.708ZM114.979 195.521C108.234 195.521 103.245 192.344 103.167 192.292C102.911 192.125 102.766 191.828 102.797 191.521C102.823 191.214 103.021 190.948 103.307 190.828L105.771 189.823C107.995 188.911 109.432 186.771 109.432 184.37V177.661C108.531 177.24 107.781 176.469 107.323 175.484C106.354 173.406 107.021 171.036 108.818 170.203C109.12 170.057 109.448 169.969 109.792 169.932C110.214 169.672 110.563 169.484 110.849 169.333C111.016 169.245 111.198 169.146 111.307 169.078C111.24 168.807 111 168.255 110.745 167.672C110.547 167.219 110.307 166.667 110.031 165.995C109.859 165.578 109.865 165.156 110.052 164.771C110.49 163.87 111.75 163.516 113.214 163.109C113.927 162.911 115.245 162.542 115.474 162.234C115.672 158.203 118 157.708 118.708 157.651C121.208 157.453 124.552 160.354 125.583 165.375C125.885 166.849 127.177 168.063 128.365 169.089L128.625 169.318C129.083 169.708 129.318 170.302 129.25 170.901C129.188 171.505 128.828 172.031 128.297 172.318L127.464 172.766C127.948 177.969 126.344 181.49 123.021 182.453C122.51 182.604 121.964 182.682 121.391 182.703L121.396 183.255C121.479 185.896 123.099 188.318 125.531 189.411L127.083 190.104C127.359 190.229 127.542 190.49 127.573 190.786C127.599 191.083 127.469 191.375 127.224 191.542C122.964 194.552 118.703 195.521 114.979 195.521Z" fill="black"/>
<path d="M120.547 182.672C120.505 182.672 120.464 182.672 120.422 182.661C115.557 181.917 113.37 178.198 113.276 178.036C113.047 177.641 113.182 177.13 113.583 176.901C113.979 176.677 114.49 176.812 114.719 177.208C114.75 177.255 116.641 180.401 120.672 181.021C121.13 181.089 121.443 181.516 121.37 181.969C121.307 182.38 120.953 182.672 120.547 182.672Z" fill="black"/>
</svg>
