<svg xmlns="http://www.w3.org/2000/svg" xmlns:xlink="http://www.w3.org/1999/xlink" width="500" zoomAndPan="magnify" viewBox="0 0 375 374.999991" height="500" preserveAspectRatio="xMidYMid meet" version="1.0"><path fill="#d2ccf6" d="M 270.828125 328.222656 C 359.230469 273.03125 357.011719 228.355469 357.554688 223.839844 C 371.199219 109.683594 337.242188 47.78125 275.515625 20.277344 C 246.261719 7.242188 200.019531 0.492188 167.050781 22.445312 C 136.265625 42.945312 149.605469 66.796875 115.640625 107.738281 C 76.523438 154.890625 43.613281 149.007812 17.382812 190.191406 C 0.0585938 217.386719 9.152344 249.820312 11.34375 259.261719 C 27.410156 328.488281 111.75 352.28125 121.210938 354.792969 C 196.304688 374.75 258.117188 336.160156 270.828125 328.222656 " fill-opacity="1" fill-rule="nonzero"/><path fill="#000000" d="M 247.121094 354.226562 C 246.828125 354.226562 246.5625 354.023438 246.5 353.722656 C 246.425781 353.378906 246.640625 353.039062 246.988281 352.964844 C 275.050781 346.867188 301.109375 332.644531 322.34375 311.835938 C 322.59375 311.589844 323 311.59375 323.246094 311.84375 C 323.496094 312.097656 323.488281 312.5 323.238281 312.75 C 301.832031 333.726562 275.558594 348.0625 247.257812 354.214844 C 247.210938 354.222656 247.167969 354.226562 247.121094 354.226562 " fill-opacity="1" fill-rule="nonzero"/><path fill="#000000" d="M 258.585938 342.8125 C 258.320312 342.8125 258.070312 342.644531 257.980469 342.375 C 257.867188 342.042969 258.050781 341.679688 258.382812 341.566406 C 275.550781 335.839844 291.441406 326.871094 305.609375 314.914062 C 305.878906 314.6875 306.28125 314.722656 306.507812 314.992188 C 306.738281 315.261719 306.703125 315.664062 306.433594 315.890625 C 292.140625 327.953125 276.109375 336.996094 258.789062 342.777344 C 258.71875 342.800781 258.652344 342.8125 258.585938 342.8125 " fill-opacity="1" fill-rule="nonzero"/><path fill="#000000" d="M 311.460938 308.410156 C 311.191406 308.410156 310.921875 308.472656 310.675781 308.597656 C 310.261719 308.808594 309.953125 309.167969 309.808594 309.609375 C 309.664062 310.050781 309.703125 310.523438 309.914062 310.9375 C 310.121094 311.347656 310.480469 311.660156 310.925781 311.800781 C 311.367188 311.945312 311.835938 311.910156 312.253906 311.699219 C 312.667969 311.488281 312.976562 311.128906 313.117188 310.6875 C 313.261719 310.246094 313.226562 309.773438 313.015625 309.359375 C 312.804688 308.949219 312.445312 308.640625 312.003906 308.496094 C 311.828125 308.4375 311.644531 308.410156 311.460938 308.410156 Z M 311.46875 313.167969 C 311.152344 313.167969 310.835938 313.117188 310.527344 313.015625 C 309.761719 312.769531 309.136719 312.234375 308.773438 311.515625 C 308.40625 310.796875 308.34375 309.980469 308.59375 309.214844 C 308.84375 308.449219 309.378906 307.824219 310.09375 307.460938 C 311.578125 306.707031 313.398438 307.296875 314.152344 308.78125 C 314.519531 309.5 314.582031 310.316406 314.332031 311.082031 C 314.082031 311.847656 313.550781 312.472656 312.832031 312.835938 C 312.402344 313.058594 311.9375 313.167969 311.46875 313.167969 " fill-opacity="1" fill-rule="nonzero"/><path fill="#000000" d="M 322.265625 305.867188 L 328.359375 310.171875 C 328.765625 307.375 329.019531 304.683594 329.136719 303.285156 Z M 328.835938 311.929688 C 328.703125 311.929688 328.578125 311.890625 328.464844 311.8125 L 320.539062 306.214844 C 320.347656 306.078125 320.246094 305.84375 320.277344 305.609375 C 320.308594 305.375 320.460938 305.175781 320.683594 305.09375 L 329.628906 301.734375 C 329.835938 301.65625 330.0625 301.691406 330.242188 301.824219 C 330.410156 301.953125 330.511719 302.160156 330.496094 302.378906 C 330.492188 302.425781 330.167969 306.949219 329.46875 311.390625 C 329.433594 311.609375 329.289062 311.792969 329.082031 311.882812 C 329.003906 311.914062 328.917969 311.929688 328.835938 311.929688 " fill-opacity="1" fill-rule="nonzero"/><path fill="#5236ff" d="M 232.84375 197.535156 L 169.359375 197.933594 C 168.949219 197.933594 168.816406 198.3125 168.816406 198.679688 L 168.816406 252.652344 C 168.816406 257.820312 132.742188 271.246094 132.394531 270.5625 L 132.347656 276.273438 C 132.347656 277.339844 133.28125 278.28125 134.476562 278.28125 L 135.269531 278.28125 C 135.273438 278.28125 135.277344 278.28125 135.285156 278.28125 L 188.511719 278.28125 C 190.980469 278.28125 193.421875 277.726562 195.65625 276.792969 L 224.921875 264.480469 C 230.191406 262.261719 233.511719 257.503906 233.511719 252.308594 L 233.511719 198.285156 C 233.511719 197.917969 233.253906 197.535156 232.84375 197.535156 " fill-opacity="1" fill-rule="nonzero"/><path fill="#ffffff" d="M 162.386719 194.789062 L 162.386719 248.769531 C 162.386719 254.09375 158.957031 258.941406 153.570312 261.238281 L 133.832031 269.660156 C 132.542969 270.207031 132.980469 271.933594 134.410156 271.933594 L 188.652344 271.933594 C 191.089844 271.933594 193.5 271.453125 195.707031 270.527344 L 217.578125 261.324219 C 223.003906 259.042969 226.464844 254.171875 226.464844 248.824219 L 226.464844 194.789062 C 226.464844 194.566406 226.265625 194.386719 226.015625 194.386719 L 162.832031 194.386719 C 162.585938 194.386719 162.386719 194.566406 162.386719 194.789062 " fill-opacity="1" fill-rule="nonzero"/><path fill="#5236ff" d="M 113.574219 25.1875 L 349.464844 24.503906 C 354.207031 24.503906 357.933594 28.550781 357.511719 33.246094 L 341.003906 218.15625 C 340.628906 222.300781 337.140625 225.476562 332.953125 225.476562 L 42.386719 225.433594 C 37.640625 225.433594 33.871094 220.96875 34.289062 216.273438 L 50.804688 32.507812 C 51.175781 28.363281 54.53125 24.738281 58.714844 24.738281 L 113.574219 25.1875 " fill-opacity="1" fill-rule="nonzero"/><path fill="#ffffff" d="M 102.324219 25.191406 L 338.179688 25.191406 C 342.921875 25.191406 346.644531 29.261719 346.222656 33.980469 L 329.785156 218.558594 C 329.417969 222.726562 325.925781 225.914062 321.742188 225.914062 L 31.167969 225.914062 C 26.421875 225.914062 22.699219 221.851562 23.121094 217.128906 L 39.554688 32.550781 C 39.925781 28.386719 43.417969 25.191406 47.601562 25.191406 L 102.324219 25.191406 " fill-opacity="1" fill-rule="nonzero"/><path fill="#000000" d="M 30.675781 132.941406 C 30.65625 132.941406 30.636719 132.941406 30.617188 132.941406 C 30.265625 132.910156 30.003906 132.597656 30.035156 132.246094 L 38.917969 32.492188 C 39.324219 27.96875 43.054688 24.550781 47.601562 24.550781 L 102.324219 24.550781 C 102.679688 24.550781 102.964844 24.839844 102.964844 25.191406 C 102.964844 25.546875 102.679688 25.832031 102.324219 25.832031 L 47.601562 25.832031 C 43.722656 25.832031 40.535156 28.742188 40.191406 32.605469 L 31.3125 132.359375 C 31.28125 132.691406 31.003906 132.941406 30.675781 132.941406 " fill-opacity="1" fill-rule="nonzero"/><path fill="#000000" d="M 270.589844 226.554688 L 139.296875 226.554688 C 138.945312 226.554688 138.660156 226.269531 138.660156 225.914062 C 138.660156 225.5625 138.945312 225.277344 139.296875 225.277344 L 270.589844 225.277344 C 270.945312 225.277344 271.230469 225.5625 271.230469 225.914062 C 271.230469 226.269531 270.945312 226.554688 270.589844 226.554688 " fill-opacity="1" fill-rule="nonzero"/><path fill="#000000" d="M 334.214844 169.5 C 334.199219 169.5 334.179688 169.5 334.160156 169.496094 C 333.808594 169.464844 333.546875 169.15625 333.582031 168.804688 L 345.589844 33.921875 C 345.773438 31.847656 345.070312 29.78125 343.667969 28.246094 C 342.261719 26.710938 340.261719 25.832031 338.179688 25.832031 L 102.324219 25.832031 C 101.972656 25.832031 101.6875 25.542969 101.6875 25.191406 C 101.6875 24.839844 101.972656 24.554688 102.324219 24.554688 L 338.179688 24.554688 C 340.621094 24.554688 342.964844 25.585938 344.609375 27.382812 C 346.257812 29.183594 347.078125 31.609375 346.863281 34.035156 L 334.851562 168.914062 C 334.824219 169.25 334.546875 169.5 334.214844 169.5 " fill-opacity="1" fill-rule="nonzero"/><path fill="#d2ccf6" d="M 107.570312 32.710938 L 330.257812 32.710938 C 334.738281 32.710938 338.25 36.460938 337.851562 40.820312 L 322.335938 211.1875 C 321.988281 215.035156 318.691406 217.980469 314.738281 217.980469 L 40.386719 217.980469 C 35.90625 217.980469 32.390625 214.226562 32.789062 209.871094 L 48.304688 39.5 C 48.65625 35.65625 51.953125 32.710938 55.902344 32.710938 L 107.570312 32.710938 " fill-opacity="1" fill-rule="nonzero"/><path fill="#5236ff" d="M 336.828125 52.183594 L 337.851562 40.902344 C 338.25 36.542969 334.738281 32.769531 330.257812 32.769531 L 55.902344 32.769531 C 51.953125 32.769531 48.65625 35.738281 48.304688 39.582031 L 47.160156 52.183594 L 336.828125 52.183594 " fill-opacity="1" fill-rule="nonzero"/><path fill="#5236ff" d="M 316.164062 141.167969 L 138.34375 141.167969 L 145.59375 60.183594 L 323.414062 60.183594 L 316.164062 141.167969 " fill-opacity="1" fill-rule="nonzero"/><path fill="#5236ff" d="M 309.457031 209.367188 L 131.632812 209.367188 L 137.191406 147.257812 L 315.015625 147.257812 L 309.457031 209.367188 " fill-opacity="1" fill-rule="nonzero"/><path fill="#5236ff" d="M 128.320312 141.59375 L 49.421875 141.59375 L 56.914062 60.789062 L 135.8125 60.789062 L 128.320312 141.59375 " fill-opacity="1" fill-rule="nonzero"/><path fill="#5236ff" d="M 126.296875 157.59375 L 47.398438 157.59375 L 48.074219 150.304688 L 126.972656 150.304688 L 126.296875 157.59375 " fill-opacity="1" fill-rule="nonzero"/><path fill="#5236ff" d="M 125.273438 172.980469 L 46.378906 172.980469 L 47.054688 165.6875 L 125.949219 165.6875 L 125.273438 172.980469 " fill-opacity="1" fill-rule="nonzero"/><path fill="#5236ff" d="M 124.28125 185.128906 L 45.386719 185.128906 L 46.0625 177.839844 L 124.957031 177.839844 L 124.28125 185.128906 " fill-opacity="1" fill-rule="nonzero"/><path fill="#5236ff" d="M 123.316406 197.011719 L 44.417969 197.011719 L 45.09375 189.722656 L 123.992188 189.722656 L 123.316406 197.011719 " fill-opacity="1" fill-rule="nonzero"/><path fill="#5236ff" d="M 122.324219 209.164062 L 43.425781 209.164062 L 44.101562 201.875 L 123 201.875 L 122.324219 209.164062 " fill-opacity="1" fill-rule="nonzero"/><path fill="#5236ff" d="M 287.472656 274.953125 L 27.613281 274.953125 L 51.996094 251.101562 L 314.5 251.101562 L 292.148438 272.964844 C 290.832031 274.25 289.179688 274.953125 287.472656 274.953125 " fill-opacity="1" fill-rule="nonzero"/><path fill="#ffffff" d="M 290.113281 283.472656 L 27.613281 283.472656 L 27.613281 274.527344 L 290.113281 274.527344 L 290.113281 283.472656 " fill-opacity="1" fill-rule="nonzero"/><path fill="#ffffff" d="M 289.773438 274.457031 L 314.5 251.101562 L 314.5 258.769531 L 289.773438 283.472656 L 289.773438 274.457031 " fill-opacity="1" fill-rule="nonzero"/><path fill="#000000" d="M 242.832031 317.140625 C 234.324219 287.359375 272.828125 284.824219 289.425781 304.039062 C 291.839844 306.828125 290.5 311.171875 286.921875 312.070312 L 250.066406 321.320312 C 246.921875 322.109375 243.71875 320.257812 242.832031 317.140625 " fill-opacity="1" fill-rule="nonzero"/><path fill="#ffffff" d="M 266.875 284.960938 C 264.339844 283.664062 260.597656 282.128906 253.984375 283.132812 C 246.699219 284.242188 245.070312 289.621094 233.644531 292.027344 C 213.992188 296.167969 223.667969 307.660156 223.667969 307.660156 L 238.953125 300.746094 C 239.941406 300.296875 241.035156 300.125 242.117188 300.242188 C 245.449219 300.609375 253.425781 301.203125 260.691406 299.5625 C 266.125 298.339844 273.289062 302.84375 277.144531 299.449219 C 279.382812 297.476562 272.273438 287.730469 266.875 284.960938 " fill-opacity="1" fill-rule="nonzero"/><path fill="#000000" d="M 258.035156 283.449219 C 256.84375 283.449219 255.535156 283.542969 254.082031 283.765625 C 250.871094 284.253906 248.789062 285.617188 246.375 287.199219 C 243.417969 289.132812 240.070312 291.328125 233.773438 292.652344 C 227.226562 294.03125 223.347656 296.347656 222.246094 299.527344 C 221.167969 302.636719 223.109375 305.796875 223.871094 306.867188 L 238.6875 300.164062 C 239.785156 299.671875 240.992188 299.476562 242.1875 299.609375 C 245.300781 299.949219 253.320312 300.574219 260.550781 298.941406 C 263 298.390625 265.707031 298.921875 268.320312 299.441406 C 271.625 300.09375 274.746094 300.710938 276.722656 298.972656 C 276.949219 298.769531 276.949219 298.335938 276.90625 298.007812 C 276.519531 294.90625 271.015625 287.800781 266.585938 285.53125 C 264.5 284.460938 261.894531 283.449219 258.035156 283.449219 Z M 223.667969 308.300781 C 223.484375 308.300781 223.304688 308.21875 223.175781 308.070312 C 223.027344 307.890625 219.488281 303.613281 221.035156 299.121094 C 222.289062 295.476562 226.488281 292.882812 233.507812 291.402344 C 239.570312 290.125 242.8125 288.003906 245.675781 286.128906 C 248.105469 284.535156 250.402344 283.03125 253.890625 282.5 C 260.40625 281.507812 264.257812 282.902344 267.167969 284.390625 C 271.730469 286.730469 277.699219 294.027344 278.175781 297.851562 C 278.320312 299 277.925781 299.617188 277.566406 299.929688 C 275.117188 302.085938 271.539062 301.378906 268.074219 300.695312 C 265.589844 300.203125 263.019531 299.695312 260.832031 300.1875 C 253.417969 301.863281 245.222656 301.226562 242.046875 300.878906 C 241.082031 300.769531 240.101562 300.929688 239.214844 301.328125 L 223.933594 308.242188 C 223.847656 308.28125 223.757812 308.300781 223.667969 308.300781 " fill-opacity="1" fill-rule="nonzero"/><path fill="#745ff6" d="M 35.097656 240.585938 C 32.863281 234.75 37.777344 221.441406 44.113281 221.105469 C 71.511719 219.652344 116.15625 218.324219 177.070312 243.128906 C 179.371094 244.066406 181.121094 246.210938 181.859375 248.980469 L 182.292969 250.609375 C 182.988281 253.210938 182.523438 257.292969 181.308594 260.628906 C 180.113281 263.921875 177.34375 266.484375 173.855469 267.164062 C 172.992188 267.332031 172.085938 267.390625 171.199219 267.246094 C 157.519531 265.042969 115.804688 255.722656 85.648438 275.257812 C 59.171875 292.40625 42.109375 258.902344 35.097656 240.585938 " fill-opacity="1" fill-rule="nonzero"/><path fill="#745ff6" d="M 233.949219 291.132812 C 231.804688 288.945312 228.554688 288.207031 225.644531 289.214844 C 211.582031 294.078125 165.753906 309.042969 157.945312 300.3125 C 153.488281 295.328125 143.160156 280.480469 131.949219 267.011719 C 124.691406 258.292969 117.0625 250.152344 110.410156 245.644531 C 90.597656 232.207031 37.320312 235.964844 37.320312 235.964844 C 37.320312 235.964844 82.394531 336.1875 123.78125 347.6875 C 130.898438 349.667969 137.085938 350.839844 142.574219 351.390625 C 163.253906 353.46875 174.046875 346.722656 187.660156 340.933594 C 207.980469 332.289062 239.246094 310.769531 239.238281 303.140625 C 239.230469 297.757812 236.488281 293.714844 233.949219 291.132812 " fill-opacity="1" fill-rule="nonzero"/><path fill="#745ff6" d="M 91.984375 352.511719 C 100.132812 354.75 126.980469 360.109375 160.648438 360.988281 C 132.5625 345.730469 124.992188 317.449219 124.992188 317.449219 C 148.683594 314.613281 124.839844 269.886719 115.574219 253.335938 C 110.441406 244.164062 96.429688 236.582031 86.941406 231.824219 C 66.285156 221.460938 30.734375 214.394531 17.0625 228.902344 C 11.082031 235.25 9.9375 240.949219 9.929688 250.917969 C 9.929688 252.734375 10.121094 254.550781 10.488281 256.332031 C 25.5625 329.878906 63.296875 344.632812 91.984375 352.511719 " fill-opacity="1" fill-rule="nonzero"/><path fill="#d2ccf6" d="M 138.570312 274.828125 C 138.378906 274.828125 138.191406 274.746094 138.066406 274.585938 C 128.902344 263 119.300781 253.890625 109.527344 247.503906 C 104.074219 243.945312 97.183594 241.007812 90.121094 239.242188 C 89.78125 239.15625 89.574219 238.808594 89.660156 238.46875 C 89.746094 238.125 90.089844 237.914062 90.433594 238.003906 C 97.628906 239.804688 104.660156 242.796875 110.226562 246.433594 C 120.117188 252.894531 129.820312 262.101562 139.070312 273.796875 C 139.289062 274.070312 139.242188 274.472656 138.964844 274.691406 C 138.847656 274.785156 138.707031 274.828125 138.570312 274.828125 " fill-opacity="1" fill-rule="nonzero"/><path fill="#d2ccf6" d="M 151.757812 354.359375 C 151.734375 354.359375 151.707031 354.359375 151.6875 354.355469 C 145.15625 353.640625 139.59375 352.46875 133.074219 350.4375 C 114.90625 344.777344 87.09375 313.105469 73.496094 288.226562 C 73.328125 287.917969 73.441406 287.527344 73.753906 287.359375 C 74.0625 287.191406 74.449219 287.304688 74.621094 287.613281 C 88.097656 312.28125 115.578125 343.648438 133.457031 349.21875 C 139.890625 351.222656 145.382812 352.378906 151.824219 353.085938 C 152.175781 353.125 152.429688 353.4375 152.390625 353.789062 C 152.355469 354.117188 152.078125 354.359375 151.757812 354.359375 " fill-opacity="1" fill-rule="nonzero"/><path fill="#ffffff" d="M 209.546875 267.988281 C 210.871094 268.105469 212.453125 268.203125 214.898438 267.574219 L 233.847656 262.351562 C 235.492188 261.925781 236.460938 260.242188 235.988281 258.632812 C 235.988281 258.632812 235.316406 256.015625 232.386719 256.566406 C 231.21875 256.789062 224.582031 258.808594 223.796875 258.8125 C 222.535156 258.8125 221.898438 257.917969 222.289062 256.734375 C 222.492188 256.125 222.652344 255.566406 222.785156 255.082031 C 223.097656 253.917969 224.023438 253.019531 225.195312 252.703125 C 227.578125 252.0625 234.707031 250.601562 235.714844 250.132812 C 237.207031 249.441406 239.421875 248.660156 240.140625 247.113281 L 240.324219 246.707031 C 241.050781 245.097656 239.765625 243.308594 237.988281 243.457031 L 220.746094 245.054688 C 218.535156 245.242188 216.457031 246.179688 214.863281 247.707031 L 206.625 255.605469 C 204.765625 257.386719 202.039062 257.949219 199.617188 257.058594 L 178.667969 247.980469 C 172.457031 245.652344 168.96875 257.363281 168.96875 257.363281 C 168.398438 260.941406 171.003906 264.304688 174.480469 264.804688 L 209.546875 267.988281 " fill-opacity="1" fill-rule="nonzero"/><path fill="#000000" d="M 209.605469 267.351562 C 211.015625 267.476562 212.46875 267.535156 214.738281 266.957031 L 233.675781 261.734375 C 234.320312 261.570312 234.84375 261.171875 235.160156 260.605469 C 235.476562 260.058594 235.550781 259.417969 235.371094 258.8125 C 235.3125 258.585938 234.753906 256.769531 232.503906 257.195312 C 232.050781 257.28125 230.617188 257.683594 229.097656 258.109375 C 225.746094 259.054688 224.269531 259.449219 223.800781 259.449219 C 223.796875 259.449219 223.792969 259.449219 223.789062 259.449219 C 222.976562 259.449219 222.308594 259.148438 221.90625 258.597656 C 221.507812 258.042969 221.425781 257.308594 221.683594 256.53125 C 221.859375 256 222.023438 255.457031 222.167969 254.917969 C 222.535156 253.546875 223.632812 252.460938 225.03125 252.085938 C 225.976562 251.832031 227.632812 251.457031 229.386719 251.058594 C 231.839844 250.5 234.894531 249.808594 235.445312 249.554688 C 235.65625 249.457031 235.882812 249.355469 236.117188 249.25 C 237.421875 248.675781 239.046875 247.953125 239.5625 246.84375 L 239.742188 246.445312 C 239.988281 245.90625 239.925781 245.289062 239.582031 244.804688 C 239.230469 244.308594 238.65625 244.046875 238.039062 244.09375 L 220.804688 245.6875 C 218.738281 245.863281 216.789062 246.746094 215.308594 248.167969 L 207.066406 256.066406 C 205.046875 258.007812 202.035156 258.632812 199.394531 257.65625 L 178.414062 248.566406 C 177.375 248.179688 176.367188 248.226562 175.359375 248.730469 C 171.851562 250.46875 169.769531 256.941406 169.59375 257.507812 C 169.363281 259.019531 169.753906 260.546875 170.6875 261.8125 C 171.632812 263.09375 173.046875 263.953125 174.570312 264.171875 Z M 211.199219 268.710938 C 210.585938 268.710938 210.027344 268.671875 209.488281 268.625 L 174.421875 265.4375 C 172.53125 265.167969 170.804688 264.125 169.65625 262.570312 C 168.511719 261.015625 168.039062 259.128906 168.335938 257.261719 C 168.339844 257.234375 168.347656 257.207031 168.355469 257.179688 C 168.449219 256.875 170.640625 249.644531 174.785156 247.585938 C 176.113281 246.925781 177.496094 246.859375 178.890625 247.382812 L 199.871094 256.46875 C 202.019531 257.261719 204.511719 256.746094 206.183594 255.144531 L 214.421875 247.246094 C 216.113281 245.621094 218.34375 244.617188 220.691406 244.417969 L 237.929688 242.824219 C 239.003906 242.726562 240.011719 243.199219 240.628906 244.066406 C 241.234375 244.925781 241.339844 246.011719 240.90625 246.972656 L 240.722656 247.375 C 240 248.929688 238.136719 249.757812 236.636719 250.421875 C 236.40625 250.519531 236.1875 250.617188 235.984375 250.714844 C 235.355469 251.003906 233.078125 251.53125 229.667969 252.304688 C 227.929688 252.699219 226.28125 253.074219 225.363281 253.320312 C 224.40625 253.578125 223.652344 254.316406 223.402344 255.25 C 223.25 255.8125 223.078125 256.378906 222.898438 256.933594 C 222.773438 257.308594 222.789062 257.632812 222.941406 257.847656 C 223.09375 258.054688 223.394531 258.171875 223.789062 258.171875 C 223.789062 258.171875 223.792969 258.171875 223.792969 258.171875 C 224.21875 258.15625 226.949219 257.386719 228.753906 256.882812 C 230.363281 256.425781 231.757812 256.035156 232.269531 255.941406 C 235.050781 255.414062 236.320312 257.367188 236.605469 258.472656 C 236.875 259.394531 236.761719 260.382812 236.273438 261.238281 C 235.78125 262.105469 234.976562 262.71875 234.003906 262.96875 L 215.066406 268.191406 C 213.5 268.589844 212.265625 268.710938 211.199219 268.710938 " fill-opacity="1" fill-rule="nonzero"/><path fill="#ffffff" d="M 187.28125 265.75 C 184.566406 260.824219 188.136719 255.058594 190.074219 252.507812 C 190.609375 251.796875 190.363281 250.785156 189.554688 250.40625 L 185.445312 248.457031 C 184.886719 248.191406 184.214844 248.324219 183.792969 248.773438 C 181.3125 251.421875 173.800781 260.515625 180.636719 266.996094 C 180.863281 267.210938 181.160156 267.335938 181.472656 267.367188 L 185.898438 267.796875 C 187.019531 267.90625 187.820312 266.726562 187.28125 265.75 " fill-opacity="1" fill-rule="nonzero"/><path fill="#000000" d="M 184.835938 248.960938 C 184.621094 248.960938 184.414062 249.046875 184.261719 249.210938 C 181.894531 251.742188 174.671875 260.460938 181.078125 266.535156 C 181.191406 266.640625 181.359375 266.714844 181.53125 266.730469 L 185.960938 267.160156 C 186.253906 267.1875 186.527344 267.058594 186.691406 266.8125 C 186.765625 266.699219 186.914062 266.402344 186.722656 266.054688 C 183.785156 260.730469 187.730469 254.539062 189.5625 252.121094 C 189.703125 251.9375 189.75 251.707031 189.695312 251.484375 C 189.640625 251.261719 189.492188 251.082031 189.28125 250.980469 L 185.171875 249.035156 C 185.066406 248.984375 184.953125 248.960938 184.835938 248.960938 Z M 186.039062 268.441406 C 185.96875 268.441406 185.902344 268.4375 185.835938 268.433594 L 181.410156 268.003906 C 180.949219 267.960938 180.519531 267.765625 180.195312 267.460938 C 172.9375 260.578125 180.757812 251.082031 183.324219 248.339844 C 183.941406 247.679688 184.90625 247.496094 185.722656 247.882812 L 189.832031 249.828125 C 190.386719 250.09375 190.792969 250.585938 190.9375 251.183594 C 191.085938 251.777344 190.953125 252.398438 190.582031 252.890625 C 188.902344 255.109375 185.265625 260.773438 187.84375 265.4375 C 188.207031 266.101562 188.175781 266.878906 187.757812 267.515625 C 187.375 268.097656 186.730469 268.441406 186.039062 268.441406 " fill-opacity="1" fill-rule="nonzero"/><path fill="#d2ccf6" d="M 189.207031 255.910156 C 189.207031 258.847656 186.785156 261.230469 183.792969 261.230469 C 180.800781 261.230469 178.378906 258.847656 178.378906 255.910156 C 178.378906 252.972656 180.800781 250.589844 183.792969 250.589844 C 186.785156 250.589844 189.207031 252.972656 189.207031 255.910156 " fill-opacity="1" fill-rule="nonzero"/><path fill="#000000" d="M 183.792969 251.230469 C 181.160156 251.230469 179.019531 253.328125 179.019531 255.910156 C 179.019531 258.492188 181.160156 260.589844 183.792969 260.589844 C 186.425781 260.589844 188.566406 258.492188 188.566406 255.910156 C 188.566406 253.328125 186.425781 251.230469 183.792969 251.230469 Z M 183.792969 261.867188 C 180.453125 261.867188 177.738281 259.195312 177.738281 255.910156 C 177.738281 252.625 180.453125 249.953125 183.792969 249.953125 C 187.132812 249.953125 189.847656 252.625 189.847656 255.910156 C 189.847656 259.195312 187.132812 261.867188 183.792969 261.867188 " fill-opacity="1" fill-rule="nonzero"/><path fill="#ffffff" d="M 41.203125 236.308594 L 38.765625 189.964844 L 70.21875 208.144531 L 72.125 233.71875 C 72.402344 239.433594 67.785156 243.019531 67.785156 243.019531 C 62.105469 247.9375 53.539062 247.855469 46.984375 244.132812 L 45.46875 243.269531 C 42.929688 241.828125 41.320312 239.199219 41.203125 236.308594 " fill-opacity="1" fill-rule="nonzero"/><path fill="#000000" d="M 39.46875 191.105469 L 41.84375 236.277344 C 41.84375 236.28125 41.84375 236.28125 41.84375 236.285156 C 41.949219 238.96875 43.421875 241.375 45.785156 242.714844 L 47.300781 243.578125 C 54.007812 247.386719 62.257812 246.960938 67.367188 242.539062 C 67.433594 242.484375 71.742188 239.050781 71.484375 233.75 L 69.609375 208.53125 Z M 57.027344 247.496094 C 53.570312 247.496094 49.976562 246.566406 46.667969 244.6875 L 45.152344 243.828125 C 42.40625 242.265625 40.691406 239.46875 40.566406 236.339844 L 38.128906 189.996094 C 38.117188 189.765625 38.230469 189.542969 38.433594 189.417969 C 38.632812 189.296875 38.882812 189.296875 39.085938 189.410156 L 70.539062 207.59375 C 70.722656 207.699219 70.84375 207.890625 70.859375 208.097656 L 72.761719 233.671875 C 73.054688 239.664062 68.378906 243.371094 68.179688 243.523438 C 65.136719 246.160156 61.179688 247.496094 57.027344 247.496094 " fill-opacity="1" fill-rule="nonzero"/><path fill="#000000" d="M 84.242188 148.34375 C 76.429688 146.746094 85.167969 156.144531 57.265625 143.550781 C 46.152344 138.535156 50.078125 152.667969 47.191406 151.375 C 36.535156 146.597656 33.613281 145.40625 27.980469 146.011719 C 24.25 146.414062 15.625 152.273438 16.117188 157.207031 C 17.734375 173.296875 25.359375 170.21875 28.15625 184.457031 C 30.121094 194.457031 32.417969 197.75 36.101562 199.707031 C 39.824219 201.683594 43.480469 196.933594 47.714844 198.792969 C 53.191406 201.199219 50.648438 210.722656 55.613281 215.554688 C 58.746094 218.601562 66.722656 220.96875 80.695312 216.640625 C 82.960938 215.941406 84.394531 213.738281 84.09375 211.414062 C 83.710938 208.429688 83.207031 204.667969 82.417969 201.109375 C 78.660156 184.152344 73.363281 179.667969 76.082031 175.8125 C 80.25 169.910156 92.015625 175.363281 94.816406 170.421875 C 97.726562 165.292969 94.933594 150.527344 84.242188 148.34375 " fill-opacity="1" fill-rule="nonzero"/><path fill="#ffffff" d="M 52.714844 171.996094 L 54.34375 176.386719 C 55.125 178.5 55.765625 180.660156 56.246094 182.855469 C 57.136719 186.949219 58.957031 193.933594 59.933594 197.871094 C 63.0625 210.511719 79.925781 199.589844 79.925781 199.589844 L 81.445312 196.457031 L 83.574219 195.949219 C 83.960938 195.855469 84.335938 195.691406 84.628906 195.429688 C 85.441406 194.710938 85.621094 193.597656 85.175781 192.703125 C 83.0625 188.425781 78.980469 179.445312 77.4375 171.09375 C 77.070312 169.097656 75.476562 167.53125 73.449219 167.144531 C 68.921875 166.28125 60.722656 165.957031 52.714844 171.996094 " fill-opacity="1" fill-rule="nonzero"/><path fill="#000000" d="M 53.480469 172.222656 L 54.941406 176.164062 C 55.742188 178.332031 56.394531 180.535156 56.871094 182.722656 C 57.515625 185.679688 58.667969 190.238281 59.59375 193.898438 C 59.953125 195.320312 60.285156 196.636719 60.550781 197.71875 C 61.199219 200.335938 62.523438 202.054688 64.484375 202.828125 C 69.769531 204.921875 78.210938 199.898438 79.429688 199.144531 L 80.871094 196.179688 C 80.957031 196.007812 81.113281 195.882812 81.296875 195.835938 L 83.425781 195.328125 C 83.75 195.25 84.011719 195.121094 84.207031 194.953125 C 84.773438 194.445312 84.933594 193.65625 84.605469 192.984375 C 82.351562 188.429688 78.347656 179.542969 76.808594 171.207031 C 76.492188 169.488281 75.09375 168.109375 73.328125 167.769531 C 69.238281 166.988281 61.277344 166.550781 53.480469 172.222656 Z M 67.410156 204.609375 C 66.226562 204.609375 65.074219 204.433594 64.015625 204.015625 C 61.644531 203.082031 60.0625 201.066406 59.3125 198.023438 C 59.042969 196.941406 58.710938 195.628906 58.351562 194.210938 C 57.425781 190.539062 56.269531 185.96875 55.621094 182.996094 C 55.15625 180.867188 54.523438 178.71875 53.742188 176.609375 L 52.117188 172.21875 C 52.019531 171.949219 52.105469 171.652344 52.328125 171.484375 C 60.640625 165.21875 69.203125 165.679688 73.570312 166.515625 C 75.847656 166.953125 77.65625 168.746094 78.066406 170.976562 C 79.578125 179.160156 83.527344 187.921875 85.75 192.417969 C 86.339844 193.613281 86.0625 195.015625 85.054688 195.90625 C 84.703125 196.21875 84.253906 196.441406 83.722656 196.570312 L 81.890625 197.011719 L 80.503906 199.867188 C 80.449219 199.972656 80.371094 200.0625 80.273438 200.125 C 79.9375 200.34375 73.265625 204.609375 67.410156 204.609375 " fill-opacity="1" fill-rule="nonzero"/><path fill="#ffffff" d="M 53.792969 186.863281 C 53.792969 186.863281 49.839844 176.144531 45.285156 178.933594 C 40.730469 181.722656 45.382812 193.414062 53.792969 186.863281 " fill-opacity="1" fill-rule="nonzero"/><path fill="#000000" d="M 77.351562 178.949219 C 75.503906 177.832031 73.613281 178.503906 73.015625 179.542969 C 69.632812 185.441406 71.574219 190.363281 73.191406 190.746094 C 75.859375 191.378906 78.230469 189.910156 78.761719 183.71875 C 79.015625 180.8125 78.328125 179.542969 77.351562 178.949219 " fill-opacity="1" fill-rule="nonzero"/><path fill="#000000" d="M 75.203125 178.953125 C 75.199219 178.953125 75.195312 178.953125 75.191406 178.953125 L 50.121094 178.425781 C 49.769531 178.421875 49.488281 178.128906 49.496094 177.777344 C 49.503906 177.421875 49.800781 177.160156 50.148438 177.148438 L 75.21875 177.675781 C 75.570312 177.683594 75.851562 177.976562 75.84375 178.328125 C 75.835938 178.675781 75.550781 178.953125 75.203125 178.953125 " fill-opacity="1" fill-rule="nonzero"/><path fill="#000000" d="M 80.398438 179.792969 C 80.398438 179.792969 85.414062 176.953125 86.808594 180.351562 C 88.496094 184.464844 85.789062 189.597656 84.785156 189.890625 L 80.398438 179.792969 " fill-opacity="1" fill-rule="nonzero"/><path fill="#ffffff" d="M 200.40625 77.925781 C 200.40625 94.484375 186.976562 107.90625 170.40625 107.90625 C 153.835938 107.90625 140.40625 94.484375 140.40625 77.925781 C 140.40625 61.371094 153.835938 47.949219 170.40625 47.949219 C 186.976562 47.949219 200.40625 61.371094 200.40625 77.925781 " fill-opacity="1" fill-rule="nonzero"/><path fill="#000000" d="M 170.40625 48.585938 C 154.21875 48.585938 141.046875 61.746094 141.046875 77.925781 C 141.046875 94.101562 154.21875 107.265625 170.40625 107.265625 C 186.597656 107.265625 199.769531 94.101562 199.769531 77.925781 C 199.769531 61.746094 186.597656 48.585938 170.40625 48.585938 Z M 170.40625 108.542969 C 153.511719 108.542969 139.765625 94.804688 139.765625 77.925781 C 139.765625 61.042969 153.511719 47.308594 170.40625 47.308594 C 187.304688 47.308594 201.046875 61.042969 201.046875 77.925781 C 201.046875 94.804688 187.304688 108.542969 170.40625 108.542969 " fill-opacity="1" fill-rule="nonzero"/><path fill="#745ff6" d="M 184.617188 71.773438 L 177.757812 71.773438 L 177.664062 71.316406 L 177.664062 71.324219 L 164.949219 65.316406 C 164.335938 65.027344 163.648438 65.492188 163.640625 66.1875 L 163.4375 87.09375 C 163.429688 87.808594 164.054688 88.300781 164.710938 88.058594 L 177.515625 83.261719 L 177.484375 82.847656 L 184.683594 82.847656 C 185.292969 82.847656 185.789062 82.675781 185.796875 82.054688 L 185.894531 72.832031 C 185.90625 72.101562 185.332031 71.773438 184.617188 71.773438 " fill-opacity="1" fill-rule="nonzero"/><path fill="#745ff6" d="M 160.1875 68.574219 C 160.160156 68.894531 160.035156 69.210938 159.820312 69.464844 C 157.792969 71.78125 156.652344 74.335938 156.429688 77.058594 C 156.207031 79.78125 156.914062 82.480469 158.53125 85.070312 C 158.925781 85.699219 158.785156 86.585938 158.222656 87.050781 C 157.660156 87.511719 156.882812 87.378906 156.488281 86.75 C 154.550781 83.648438 153.675781 80.234375 153.953125 76.875 C 154.230469 73.511719 155.652344 70.269531 158.074219 67.5 C 158.566406 66.9375 159.351562 66.921875 159.835938 67.460938 C 160.101562 67.761719 160.21875 68.171875 160.1875 68.574219 " fill-opacity="1" fill-rule="nonzero"/><path fill="#745ff6" d="M 155.988281 64.964844 C 155.960938 65.292969 155.835938 65.613281 155.613281 65.863281 C 152.707031 69.136719 151.070312 72.761719 150.75 76.628906 C 150.429688 80.496094 151.453125 84.320312 153.789062 87.992188 C 154.1875 88.617188 154.058594 89.5 153.496094 89.972656 C 152.933594 90.441406 152.160156 90.3125 151.761719 89.6875 C 150.460938 87.644531 149.5 85.503906 148.910156 83.328125 C 148.296875 81.058594 148.082031 78.742188 148.273438 76.441406 C 148.460938 74.140625 149.054688 71.886719 150.03125 69.738281 C 150.96875 67.675781 152.265625 65.707031 153.886719 63.882812 C 154.382812 63.324219 155.167969 63.316406 155.644531 63.863281 C 155.910156 64.164062 156.023438 64.570312 155.988281 64.964844 " fill-opacity="1" fill-rule="nonzero"/><path fill="#745ff6" d="M 168.386719 93.402344 L 171.152344 94.402344 L 182.480469 62.523438 L 179.71875 61.523438 L 168.386719 93.402344 " fill-opacity="1" fill-rule="nonzero"/><path fill="#ffffff" d="M 169.203125 93.019531 L 170.765625 93.585938 L 181.667969 62.910156 L 180.105469 62.347656 Z M 171.539062 95.222656 L 167.574219 93.789062 L 179.328125 60.707031 L 183.296875 62.140625 L 171.539062 95.222656 " fill-opacity="1" fill-rule="nonzero"/><path fill="#ffffff" d="M 320.484375 121.324219 C 320.484375 137.882812 307.050781 151.304688 290.484375 151.304688 C 273.914062 151.304688 260.480469 137.882812 260.480469 121.324219 C 260.480469 104.769531 273.914062 91.347656 290.484375 91.347656 C 307.050781 91.347656 320.484375 104.769531 320.484375 121.324219 " fill-opacity="1" fill-rule="nonzero"/><path fill="#000000" d="M 290.480469 91.988281 C 274.289062 91.988281 261.117188 105.148438 261.117188 121.328125 C 261.117188 137.503906 274.289062 150.664062 290.480469 150.664062 C 306.671875 150.664062 319.839844 137.503906 319.839844 121.328125 C 319.839844 105.148438 306.671875 91.988281 290.480469 91.988281 Z M 290.480469 151.941406 C 273.585938 151.941406 259.839844 138.210938 259.839844 121.328125 C 259.839844 104.445312 273.585938 90.710938 290.480469 90.710938 C 307.375 90.710938 321.121094 104.445312 321.121094 121.328125 C 321.121094 138.210938 307.375 151.941406 290.480469 151.941406 " fill-opacity="1" fill-rule="nonzero"/><path fill="#745ff6" d="M 300.496094 126.226562 L 295.910156 125.617188 L 296.097656 107.515625 L 300.894531 107.902344 L 300.847656 125.921875 C 300.847656 126.109375 300.6875 126.25 300.496094 126.226562 " fill-opacity="1" fill-rule="nonzero"/><path fill="#745ff6" d="M 300.496094 123.140625 L 283.929688 123.109375 C 283.570312 123.109375 283.265625 123.320312 283.148438 123.648438 L 277.726562 138.589844 L 280.636719 139.816406 L 286.109375 126.792969 C 286.253906 126.457031 286.582031 126.238281 286.957031 126.238281 L 300.472656 126.238281 C 300.605469 126.238281 300.707031 126.128906 300.699219 125.996094 L 300.496094 123.140625 " fill-opacity="1" fill-rule="nonzero"/><path fill="#745ff6" d="M 280.761719 139.644531 C 280.585938 140.082031 280.082031 140.265625 279.628906 140.058594 L 274.65625 137.777344 C 274.191406 137.566406 273.953125 137.027344 274.136719 136.570312 L 274.398438 135.90625 C 274.597656 135.40625 275.179688 135.191406 275.695312 135.425781 L 281.445312 137.851562 L 280.761719 139.644531 " fill-opacity="1" fill-rule="nonzero"/><path fill="#745ff6" d="M 297.109375 118.433594 L 285.351562 118.433594 C 285.136719 118.433594 284.953125 118.257812 284.9375 118.046875 L 284.828125 116.496094 C 284.8125 116.28125 284.972656 116.109375 285.183594 116.109375 L 296.941406 116.109375 C 297.152344 116.109375 297.335938 116.28125 297.351562 116.496094 L 297.464844 118.046875 C 297.480469 118.257812 297.316406 118.433594 297.109375 118.433594 " fill-opacity="1" fill-rule="nonzero"/><path fill="#745ff6" d="M 301.804688 102.929688 C 302.199219 104.808594 301.015625 106.542969 299.164062 106.804688 C 297.3125 107.0625 295.488281 105.75 295.097656 103.871094 C 294.703125 101.992188 295.886719 100.257812 297.742188 100 C 299.59375 99.738281 301.414062 101.050781 301.804688 102.929688 " fill-opacity="1" fill-rule="nonzero"/><path fill="#745ff6" d="M 306.410156 121.914062 C 305.828125 121.007812 304.945312 119.851562 303.75 118.816406 C 303.488281 118.589844 303.050781 118.183594 302.355469 117.722656 L 302.367188 121.464844 C 304.171875 123.203125 305.207031 125.691406 305.378906 128.074219 C 305.75 133.25 301.90625 137.457031 296.753906 137.457031 C 293.601562 137.457031 290.476562 135.773438 288.492188 133.195312 C 288.054688 132.625 287.695312 132.015625 287.390625 131.367188 C 287.390625 131.367188 286.710938 130.195312 286.585938 128.605469 L 284.953125 132.210938 C 285.332031 133.027344 285.71875 133.75 286.140625 134.246094 C 288.570312 137.886719 292.613281 140.074219 296.828125 140.074219 C 299.566406 140.074219 302.28125 139.222656 304.289062 137.496094 C 306.265625 135.789062 307.757812 133.242188 308.160156 130.59375 C 308.625 127.527344 308.152344 124.621094 306.410156 121.914062 " fill-opacity="1" fill-rule="nonzero"/><path fill="#745ff6" d="M 270.019531 75.277344 C 270.019531 91.832031 256.589844 105.253906 240.019531 105.253906 C 223.449219 105.253906 210.019531 91.832031 210.019531 75.277344 C 210.019531 58.71875 223.449219 45.296875 240.019531 45.296875 C 256.589844 45.296875 270.019531 58.71875 270.019531 75.277344 " fill-opacity="1" fill-rule="nonzero"/><path fill="#ffffff" d="M 263.382812 76.5 C 248.359375 60.800781 232.84375 60.664062 216.816406 76.707031 C 228.117188 90.578125 249.820312 92.644531 263.382812 76.5 " fill-opacity="1" fill-rule="nonzero"/><path fill="#745ff6" d="M 217.683594 76.75 C 223.273438 83.355469 231.316406 87.167969 239.832031 87.230469 C 248.429688 87.285156 256.46875 83.5 262.519531 76.527344 C 255.359375 69.179688 248.03125 65.417969 240.742188 65.339844 C 233.214844 65.261719 225.457031 69.097656 217.683594 76.75 Z M 240.046875 88.507812 C 239.972656 88.507812 239.898438 88.507812 239.824219 88.507812 C 230.734375 88.441406 222.167969 84.285156 216.320312 77.109375 C 216.113281 76.855469 216.128906 76.488281 216.363281 76.253906 C 224.53125 68.078125 232.726562 63.964844 240.753906 64.0625 C 248.539062 64.144531 256.304688 68.183594 263.84375 76.058594 C 264.070312 76.292969 264.082031 76.660156 263.871094 76.910156 C 257.585938 84.394531 249.132812 88.507812 240.046875 88.507812 " fill-opacity="1" fill-rule="nonzero"/><path fill="#745ff6" d="M 248.640625 76.578125 C 248.640625 81.132812 244.945312 84.824219 240.390625 84.824219 C 235.832031 84.824219 232.132812 81.132812 232.132812 76.578125 C 232.132812 72.023438 235.832031 68.328125 240.390625 68.328125 C 244.945312 68.328125 248.640625 72.023438 248.640625 76.578125 " fill-opacity="1" fill-rule="nonzero"/><path fill="#ffffff" d="M 232.792969 90.097656 L 235.183594 91.316406 L 249.484375 63.28125 L 247.09375 62.066406 L 232.792969 90.097656 " fill-opacity="1" fill-rule="nonzero"/><path fill="#745ff6" d="M 233.65625 89.820312 L 234.90625 90.457031 L 248.625 63.558594 L 247.375 62.921875 Z M 235.1875 91.953125 C 235.085938 91.953125 234.988281 91.933594 234.894531 91.886719 L 232.503906 90.667969 C 232.191406 90.503906 232.066406 90.121094 232.222656 89.808594 L 246.523438 61.773438 C 246.6875 61.457031 247.070312 61.335938 247.386719 61.492188 L 249.777344 62.710938 C 249.929688 62.789062 250.042969 62.921875 250.09375 63.085938 C 250.148438 63.246094 250.132812 63.417969 250.054688 63.570312 L 235.753906 91.605469 C 235.679688 91.757812 235.546875 91.871094 235.382812 91.921875 C 235.320312 91.945312 235.25 91.953125 235.1875 91.953125 " fill-opacity="1" fill-rule="nonzero"/><path fill="#745ff6" d="M 327.96875 188.074219 C 327.96875 204.632812 314.535156 218.054688 297.964844 218.054688 C 281.398438 218.054688 267.964844 204.632812 267.964844 188.074219 C 267.964844 171.519531 281.398438 158.097656 297.964844 158.097656 C 314.535156 158.097656 327.96875 171.519531 327.96875 188.074219 " fill-opacity="1" fill-rule="nonzero"/><path fill="#ffffff" d="M 306.617188 188.792969 C 305.785156 194.34375 303.507812 197.335938 301.59375 201.324219 C 299.582031 205.519531 299.375 208.910156 293.96875 209.230469 C 290.554688 209.433594 287.464844 206.789062 286.128906 202.773438 C 284.859375 198.960938 285.308594 193.933594 283.339844 188.003906 C 278.34375 172.945312 289.246094 164.792969 295.988281 166.976562 C 306.695312 170.445312 307.628906 182.03125 306.617188 188.792969 " fill-opacity="1" fill-rule="nonzero"/><path fill="#745ff6" d="M 293.53125 202.089844 C 293.335938 202.089844 293.144531 202 293.019531 201.835938 C 292.230469 200.789062 290.015625 200.113281 288.082031 200.332031 C 287.726562 200.371094 287.414062 200.121094 287.371094 199.765625 C 287.332031 199.417969 287.585938 199.101562 287.9375 199.0625 C 289.992188 198.828125 292.828125 199.453125 294.042969 201.066406 C 294.253906 201.347656 294.195312 201.746094 293.917969 201.960938 C 293.800781 202.046875 293.664062 202.089844 293.53125 202.089844 " fill-opacity="1" fill-rule="nonzero"/><path fill="#745ff6" d="M 300.925781 197.382812 C 300.808594 197.382812 300.691406 197.355469 300.589844 197.289062 C 300.285156 197.101562 300.191406 196.710938 300.378906 196.410156 C 305.933594 187.429688 304.304688 176.585938 299.371094 172.46875 C 296.265625 169.878906 292.042969 169.417969 290.1875 170.078125 C 287.554688 171.019531 286.34375 173.0625 285.789062 174.609375 C 284.78125 177.410156 285.140625 180.785156 286.710938 183.425781 C 287.75 185.15625 289.414062 187.125 290.464844 187.367188 C 290.808594 187.445312 291.023438 187.789062 290.945312 188.132812 C 290.867188 188.476562 290.523438 188.691406 290.179688 188.613281 C 288.089844 188.132812 285.859375 184.492188 285.613281 184.078125 C 283.847656 181.121094 283.457031 177.332031 284.585938 174.179688 C 285.5 171.625 287.335938 169.742188 289.757812 168.878906 C 292.214844 167.996094 296.902344 168.746094 300.191406 171.488281 C 306.203125 176.503906 306.800781 188.460938 301.46875 197.082031 C 301.347656 197.273438 301.136719 197.382812 300.925781 197.382812 " fill-opacity="1" fill-rule="nonzero"/><path fill="#745ff6" d="M 289.570312 197.652344 C 289.527344 197.652344 289.484375 197.644531 289.4375 197.636719 C 289.09375 197.566406 288.871094 197.226562 288.941406 196.878906 C 289.445312 194.46875 292.964844 190.839844 296.957031 188.617188 C 298.039062 188.015625 298.480469 186.875 298.65625 186.027344 C 299.109375 183.847656 298.414062 181.140625 296.878906 179.125 C 295.332031 177.101562 292.449219 175 289.78125 175.15625 C 288.007812 175.261719 286.496094 176.355469 285.296875 178.398438 C 285.117188 178.703125 284.726562 178.804688 284.421875 178.628906 C 284.117188 178.449219 284.011719 178.058594 284.191406 177.753906 C 285.621094 175.316406 287.476562 174.015625 289.707031 173.878906 C 292.863281 173.6875 296.09375 175.988281 297.894531 178.351562 C 299.644531 180.648438 300.433594 183.761719 299.90625 186.285156 C 299.574219 187.878906 298.769531 189.070312 297.582031 189.730469 C 293.628906 191.929688 290.570312 195.339844 290.195312 197.140625 C 290.132812 197.445312 289.867188 197.652344 289.570312 197.652344 " fill-opacity="1" fill-rule="nonzero"/><path fill="#ffffff" d="M 309.8125 184.109375 C 309.554688 184.109375 309.308594 183.949219 309.214844 183.691406 C 309.089844 183.363281 309.257812 182.996094 309.585938 182.871094 L 318.175781 179.652344 C 318.507812 179.527344 318.875 179.695312 319 180.027344 C 319.125 180.355469 318.957031 180.726562 318.628906 180.847656 L 310.039062 184.066406 C 309.960938 184.09375 309.890625 184.109375 309.8125 184.109375 " fill-opacity="1" fill-rule="nonzero"/><path fill="#ffffff" d="M 320.042969 189.765625 L 310.664062 189.765625 C 310.308594 189.765625 310.023438 189.476562 310.023438 189.125 C 310.023438 188.773438 310.308594 188.484375 310.664062 188.484375 L 320.042969 188.484375 C 320.394531 188.484375 320.683594 188.773438 320.683594 189.125 C 320.683594 189.476562 320.394531 189.765625 320.042969 189.765625 " fill-opacity="1" fill-rule="nonzero"/><path fill="#ffffff" d="M 319.207031 197.785156 C 319.132812 197.785156 319.050781 197.769531 318.976562 197.742188 L 310.65625 194.523438 C 310.328125 194.394531 310.164062 194.027344 310.289062 193.695312 C 310.417969 193.371094 310.789062 193.203125 311.121094 193.332031 L 319.441406 196.550781 C 319.769531 196.675781 319.933594 197.046875 319.804688 197.375 C 319.707031 197.628906 319.460938 197.785156 319.207031 197.785156 " fill-opacity="1" fill-rule="nonzero"/><path fill="#ffffff" d="M 221.617188 129.988281 L 221.710938 129.90625 L 220.058594 127.179688 C 219.636719 126.484375 218.703125 126.320312 218.070312 126.828125 L 211.921875 131.765625 L 183.484375 140.675781 C 182.257812 141.058594 181.976562 142.671875 183.003906 143.445312 L 188.769531 147.816406 C 189.550781 148.410156 189.613281 149.5625 188.894531 150.234375 L 188.660156 150.453125 L 154.074219 178.234375 L 155.9375 181.816406 C 155.960938 182.253906 156.164062 182.683594 156.542969 182.980469 L 175.515625 197.816406 C 176.164062 198.324219 177.097656 198.242188 177.652344 197.628906 L 207.152344 165.023438 C 207.726562 164.386719 208.699219 164.324219 209.347656 164.882812 L 216.585938 171.125 C 217.570312 171.972656 219.101562 171.332031 219.191406 170.039062 L 221.84375 130.917969 C 221.867188 130.570312 221.777344 130.25 221.617188 129.988281 " fill-opacity="1" fill-rule="nonzero"/><path fill="#745ff6" d="M 154.558594 177.160156 L 186.609375 147.296875 C 187.316406 146.636719 187.257812 145.496094 186.484375 144.914062 L 180.792969 140.613281 C 179.78125 139.851562 180.058594 138.265625 181.265625 137.886719 L 217.125 126.691406 C 218.171875 126.363281 219.214844 127.1875 219.144531 128.28125 L 216.523438 166.78125 C 216.4375 168.0625 214.925781 168.695312 213.953125 167.859375 L 206.804688 161.714844 C 206.167969 161.164062 205.203125 161.226562 204.636719 161.851562 L 175.511719 193.945312 C 174.960938 194.550781 174.039062 194.628906 173.398438 194.128906 L 154.664062 179.527344 C 153.90625 178.9375 153.859375 177.8125 154.558594 177.160156 " fill-opacity="1" fill-rule="nonzero"/><path fill="#000000" d="M 154.558594 177.160156 L 154.566406 177.160156 Z M 217.59375 127.257812 C 217.5 127.257812 217.40625 127.273438 217.316406 127.300781 L 181.457031 138.496094 C 181.121094 138.601562 180.886719 138.871094 180.824219 139.214844 C 180.765625 139.5625 180.898438 139.894531 181.175781 140.105469 L 186.871094 144.402344 C 187.390625 144.796875 187.707031 145.394531 187.742188 146.042969 C 187.777344 146.695312 187.519531 147.320312 187.046875 147.761719 L 154.996094 177.628906 C 154.796875 177.808594 154.691406 178.070312 154.703125 178.339844 C 154.714844 178.609375 154.84375 178.859375 155.058594 179.023438 L 173.789062 193.625 C 174.167969 193.917969 174.714844 193.871094 175.035156 193.519531 L 204.164062 161.421875 C 204.96875 160.53125 206.3125 160.449219 207.222656 161.234375 L 214.371094 167.371094 C 214.640625 167.605469 214.996094 167.660156 215.324219 167.523438 C 215.652344 167.386719 215.859375 167.09375 215.886719 166.742188 L 218.503906 128.238281 C 218.527344 127.933594 218.398438 127.648438 218.15625 127.457031 C 217.992188 127.324219 217.792969 127.257812 217.59375 127.257812 Z M 174.351562 195.09375 C 173.878906 195.09375 173.402344 194.941406 173.003906 194.632812 L 154.269531 180.03125 C 153.761719 179.632812 153.453125 179.039062 153.425781 178.394531 C 153.398438 177.753906 153.652344 177.132812 154.121094 176.695312 L 186.171875 146.828125 C 186.371094 146.644531 186.480469 146.382812 186.464844 146.109375 C 186.449219 145.835938 186.316406 145.589844 186.101562 145.425781 L 180.40625 141.125 C 179.746094 140.625 179.421875 139.8125 179.566406 139 C 179.707031 138.183594 180.285156 137.523438 181.078125 137.277344 L 216.933594 126.078125 C 217.625 125.863281 218.378906 126.003906 218.949219 126.453125 C 219.519531 126.902344 219.832031 127.601562 219.78125 128.324219 L 217.164062 166.828125 C 217.105469 167.660156 216.589844 168.378906 215.820312 168.703125 C 215.042969 169.027344 214.171875 168.886719 213.535156 168.339844 L 206.390625 162.199219 C 206.007812 161.875 205.449219 161.910156 205.109375 162.28125 L 175.984375 194.375 C 175.550781 194.847656 174.953125 195.09375 174.351562 195.09375 " fill-opacity="1" fill-rule="nonzero"/></svg>