<svg xmlns="http://www.w3.org/2000/svg" xmlns:xlink="http://www.w3.org/1999/xlink" width="500" zoomAndPan="magnify" viewBox="0 0 375 374.999991" height="500" preserveAspectRatio="xMidYMid meet" version="1.0"><path fill="#d2ccf6" d="M 90.605469 102 C 127.449219 64.921875 116.902344 41.683594 142.113281 24.515625 C 180.902344 -1.898438 253.300781 20.828125 296.007812 57.160156 C 348.324219 101.664062 375.3125 182.917969 344.570312 256.425781 C 311.824219 334.707031 225.671875 375.347656 148.800781 363.097656 C 80.152344 352.160156 12.667969 298.0625 5.90625 233.175781 C 5.171875 226.140625 1.9375 188.125 24.628906 155.34375 C 43.386719 128.253906 61.402344 131.394531 90.605469 102 " fill-opacity="1" fill-rule="nonzero"/><path fill="#5236ff" d="M 211.398438 55.96875 C 203.945312 58.007812 196.25 53.617188 194.210938 46.160156 C 192.167969 38.703125 196.554688 31 204.007812 28.960938 C 211.460938 26.917969 219.15625 31.308594 221.199219 38.765625 C 223.242188 46.222656 218.851562 53.921875 211.398438 55.96875 Z M 235.542969 37.65625 L 234.105469 32.410156 L 228.175781 32.679688 C 227.625 31.523438 226.988281 30.429688 226.269531 29.40625 L 229.410156 24.371094 L 225.546875 20.546875 L 220.542969 23.746094 C 219.5 23.035156 218.398438 22.40625 217.257812 21.875 L 217.460938 15.933594 L 212.203125 14.554688 L 209.472656 19.824219 C 208.226562 19.726562 206.960938 19.734375 205.691406 19.847656 L 202.898438 14.605469 L 197.660156 16.042969 L 197.925781 21.976562 C 196.769531 22.527344 195.679688 23.164062 194.652344 23.882812 L 189.625 20.742188 L 185.804688 24.609375 L 189 29.613281 C 188.289062 30.65625 187.660156 31.757812 187.128906 32.902344 L 181.195312 32.699219 L 179.816406 37.957031 L 185.082031 40.691406 C 184.980469 41.9375 184.992188 43.203125 185.105469 44.480469 L 179.867188 47.269531 L 181.300781 52.515625 L 187.234375 52.246094 C 187.78125 53.402344 188.417969 54.496094 189.136719 55.523438 L 186 60.554688 L 189.863281 64.378906 L 194.867188 61.179688 C 195.902344 61.890625 197.003906 62.519531 198.148438 63.050781 L 197.945312 68.988281 L 203.203125 70.367188 L 205.933594 65.101562 C 207.179688 65.199219 208.445312 65.1875 209.71875 65.074219 L 212.507812 70.316406 L 217.75 68.882812 L 217.480469 62.945312 C 218.636719 62.398438 219.730469 61.761719 220.753906 61.039062 L 225.785156 64.183594 L 229.605469 60.316406 L 226.40625 55.3125 C 227.121094 54.269531 227.746094 53.167969 228.28125 52.023438 L 234.214844 52.226562 L 235.59375 46.964844 L 230.328125 44.238281 C 230.421875 42.988281 230.414062 41.71875 230.300781 40.445312 L 235.542969 37.65625 " fill-opacity="1" fill-rule="nonzero"/><path fill="#745ff6" d="M 58.09375 364.113281 L 216.734375 364.113281 C 223.566406 364.113281 228.410156 358.585938 227.546875 351.773438 L 188.488281 43.199219 C 187.621094 36.386719 181.382812 30.859375 174.546875 30.859375 L 23.871094 29.101562 C 6.574219 29.101562 4.230469 36.386719 5.089844 43.199219 L 44.152344 351.773438 C 45.015625 358.585938 51.257812 364.113281 58.09375 364.113281 " fill-opacity="1" fill-rule="nonzero"/><path fill="#ffffff" d="M 67.640625 364.113281 L 226.277344 364.113281 C 233.113281 364.113281 237.957031 358.570312 237.09375 351.734375 L 198.03125 42.175781 C 197.167969 35.339844 190.929688 29.800781 184.09375 29.800781 L 25.453125 29.800781 C 18.617188 29.800781 13.773438 35.339844 14.636719 42.175781 L 53.699219 351.734375 C 54.5625 358.570312 60.800781 364.113281 67.640625 364.113281 " fill-opacity="1" fill-rule="nonzero"/><path fill="#000000" d="M 226.277344 365.035156 L 67.640625 365.035156 C 60.503906 365.035156 53.96875 359.234375 53.066406 352.101562 L 14.003906 42.542969 C 13.5625 39.039062 14.523438 35.738281 16.710938 33.257812 C 18.875 30.804688 21.980469 29.453125 25.453125 29.453125 L 184.089844 29.453125 C 191.226562 29.453125 197.761719 35.253906 198.660156 42.386719 L 204.230469 86.515625 C 204.273438 86.863281 204.027344 87.183594 203.679688 87.226562 C 203.332031 87.269531 203.011719 87.023438 202.96875 86.671875 L 197.398438 42.542969 C 196.578125 36.027344 190.609375 30.722656 184.089844 30.722656 L 25.453125 30.722656 C 22.351562 30.722656 19.585938 31.921875 17.664062 34.101562 C 15.722656 36.300781 14.871094 39.246094 15.269531 42.386719 L 54.332031 351.941406 C 55.152344 358.460938 61.121094 363.761719 67.640625 363.761719 L 226.277344 363.761719 C 229.378906 363.761719 232.144531 362.566406 234.0625 360.386719 C 236.007812 358.183594 236.859375 355.242188 236.460938 352.101562 L 225.34375 264.019531 C 225.304688 263.667969 225.546875 263.351562 225.898438 263.308594 C 226.246094 263.265625 226.566406 263.511719 226.609375 263.859375 L 237.726562 351.941406 C 238.167969 355.449219 237.207031 358.75 235.019531 361.230469 C 232.855469 363.683594 229.75 365.035156 226.277344 365.035156 " fill-opacity="1" fill-rule="nonzero"/><path fill="#d2ccf6" d="M 228.054688 352.160156 L 190.757812 56.585938 C 190.558594 55.007812 189.117188 53.726562 187.539062 53.726562 L 28.046875 53.726562 C 26.46875 53.726562 25.351562 55.007812 25.550781 56.585938 L 62.847656 352.160156 C 63.046875 353.738281 64.488281 355.019531 66.066406 355.019531 L 225.554688 355.019531 C 227.136719 355.019531 228.253906 353.738281 228.054688 352.160156 " fill-opacity="1" fill-rule="nonzero"/><path fill="#d2ccf6" d="M 106.757812 45.542969 C 109.320312 45.542969 111.132812 43.46875 110.808594 40.910156 C 110.488281 38.347656 108.148438 36.269531 105.589844 36.269531 C 103.027344 36.269531 101.214844 38.347656 101.535156 40.910156 C 101.859375 43.46875 104.199219 45.542969 106.757812 45.542969 " fill-opacity="1" fill-rule="nonzero"/><path fill="#ffffff" d="M 226.816406 47.117188 C 226.816406 48.777344 225.46875 50.128906 223.804688 50.128906 C 222.140625 50.128906 220.792969 48.777344 220.792969 47.117188 C 220.792969 45.453125 222.140625 44.105469 223.804688 44.105469 C 225.46875 44.105469 226.816406 45.453125 226.816406 47.117188 " fill-opacity="1" fill-rule="nonzero"/><path fill="#000000" d="M 157.289062 155.265625 L 121.917969 155.453125 L 106.808594 171.660156 L 140.070312 182.785156 L 157.289062 155.265625 " fill-opacity="1" fill-rule="nonzero"/><path fill="#745ff6" d="M 168.074219 340.753906 C 160.828125 345.363281 150.554688 342.199219 145.179688 333.707031 L 78.539062 228.542969 L 104.664062 211.921875 L 171.425781 317.277344 C 176.753906 325.695312 175.257812 336.183594 168.074219 340.753906 " fill-opacity="1" fill-rule="nonzero"/><path fill="#000000" d="M 79.417969 228.738281 L 145.714844 333.367188 C 148.480469 337.730469 152.71875 340.828125 157.351562 341.867188 C 161.066406 342.695312 164.753906 342.109375 167.730469 340.214844 C 174.59375 335.851562 176.007812 325.710938 170.886719 317.617188 L 104.46875 212.804688 Z M 160.636719 343.503906 C 159.464844 343.503906 158.269531 343.375 157.074219 343.105469 C 152.117188 341.996094 147.585938 338.695312 144.644531 334.046875 L 78.003906 228.882812 C 77.816406 228.585938 77.902344 228.195312 78.199219 228.003906 L 104.324219 211.386719 C 104.464844 211.296875 104.640625 211.265625 104.804688 211.304688 C 104.96875 211.339844 105.113281 211.441406 105.203125 211.582031 L 171.960938 316.9375 C 177.460938 325.625 175.867188 336.546875 168.414062 341.289062 C 166.117188 342.753906 163.433594 343.503906 160.636719 343.503906 " fill-opacity="1" fill-rule="nonzero"/><path fill="#ffffff" d="M 176.667969 143.058594 L 98.832031 182.714844 L 67.183594 207.035156 L 53.59375 224.441406 L 53.496094 224.582031 C 50.890625 227.554688 50.960938 235.324219 53.804688 243.636719 C 56.617188 251.859375 61.339844 257.972656 65.207031 258.859375 L 65.078125 258.902344 L 85.421875 264.222656 L 125.019531 263.832031 L 211.503906 246.757812 L 310.914062 279.507812 L 311.632812 279.636719 C 286.625 271.09375 257.160156 231.664062 239.296875 179.433594 C 221.449219 127.261719 220.613281 78.214844 235.152344 56.265625 L 235.128906 56.25 L 177.40625 141.960938 L 176.667969 143.058594 " fill-opacity="1" fill-rule="nonzero"/><path fill="#745ff6" d="M 337.839844 146.160156 C 360.015625 210.988281 355.929688 270.988281 328.71875 280.175781 C 301.507812 289.367188 261.46875 244.261719 239.296875 179.433594 C 217.121094 114.605469 221.203125 54.605469 248.417969 45.417969 C 275.628906 36.230469 315.664062 81.332031 337.839844 146.160156 " fill-opacity="1" fill-rule="nonzero"/><path fill="#000000" d="M 321.304688 282.007812 C 309.402344 282.007812 295.613281 273.726562 281.640625 257.984375 C 264.695312 238.894531 249.445312 211.070312 238.695312 179.640625 C 222.410156 132.042969 219.75 85.332031 231.917969 60.640625 C 235.964844 52.425781 241.449219 47.097656 248.210938 44.816406 C 258.808594 41.238281 271.53125 45.511719 285.015625 57.179688 C 298.097656 68.496094 310.902344 85.851562 322.050781 107.363281 C 322.210938 107.675781 322.089844 108.058594 321.777344 108.222656 C 321.464844 108.386719 321.082031 108.261719 320.921875 107.949219 C 298.148438 63.996094 269.09375 39.109375 248.617188 46.023438 C 242.191406 48.191406 236.957031 53.300781 233.058594 61.203125 C 221.035156 85.609375 223.71875 131.933594 239.898438 179.230469 C 260.023438 238.070312 294.957031 280.734375 321.304688 280.734375 C 323.792969 280.734375 326.199219 280.355469 328.515625 279.574219 C 334.945312 277.402344 340.179688 272.292969 344.074219 264.390625 C 356.097656 239.988281 353.410156 193.660156 337.234375 146.367188 C 333.847656 136.457031 329.957031 126.785156 325.679688 117.628906 C 325.53125 117.308594 325.667969 116.929688 325.988281 116.78125 C 326.304688 116.632812 326.683594 116.769531 326.832031 117.089844 C 331.132812 126.289062 335.035156 136 338.441406 145.953125 C 354.722656 193.554688 357.382812 240.261719 345.214844 264.953125 C 341.167969 273.171875 335.683594 278.496094 328.921875 280.78125 C 326.488281 281.601562 323.941406 282.007812 321.304688 282.007812 " fill-opacity="1" fill-rule="nonzero"/><path fill="#000000" d="M 317.5 268.230469 C 306.960938 268.230469 294.753906 260.90625 282.390625 246.972656 C 267.40625 230.09375 253.921875 205.496094 244.417969 177.707031 C 230.023438 135.621094 227.671875 94.316406 238.433594 72.480469 C 242.019531 65.199219 246.882812 60.476562 252.878906 58.453125 C 260.980469 55.71875 270.660156 58.226562 280.863281 65.707031 C 290.671875 72.898438 300.714844 84.460938 309.898438 99.140625 C 310.085938 99.441406 309.996094 99.832031 309.695312 100.015625 C 309.398438 100.207031 309.003906 100.117188 308.820312 99.816406 C 290.046875 69.816406 268.773438 54.429688 253.285156 59.660156 C 247.621094 61.570312 243.007812 66.074219 239.574219 73.042969 C 228.957031 94.589844 231.328125 135.511719 245.621094 177.296875 C 263.398438 229.269531 294.242188 266.953125 317.496094 266.957031 C 319.6875 266.957031 321.808594 266.625 323.847656 265.9375 C 345.3125 258.6875 350.441406 213.996094 335.78125 161.980469 C 335.683594 161.644531 335.878906 161.292969 336.21875 161.195312 C 336.558594 161.101562 336.910156 161.296875 337.003906 161.636719 C 344.132812 186.921875 346.839844 211.511719 344.625 230.875 C 342.375 250.589844 335.140625 263.46875 324.253906 267.140625 C 322.097656 267.871094 319.839844 268.230469 317.5 268.230469 " fill-opacity="1" fill-rule="nonzero"/><path fill="#ffffff" d="M 285.15625 164.023438 C 290.292969 179.035156 289.34375 192.929688 283.042969 195.058594 C 276.742188 197.1875 267.472656 186.742188 262.339844 171.730469 C 257.203125 156.722656 258.148438 142.828125 264.449219 140.699219 C 270.75 138.570312 280.023438 149.015625 285.15625 164.023438 " fill-opacity="1" fill-rule="nonzero"/><path fill="#000000" d="M 211.503906 246.121094 C 211.574219 246.121094 211.640625 246.132812 211.703125 246.152344 L 302.605469 276.101562 C 292.65625 270.210938 282.324219 260.082031 272.273438 246.292969 C 258.988281 228.074219 247.378906 205.023438 238.695312 179.640625 C 223.230469 134.433594 220.136719 90.398438 229.992188 65.019531 L 177.195312 143.414062 C 177.136719 143.5 177.054688 143.574219 176.957031 143.625 L 99.171875 183.253906 L 67.636719 207.488281 L 54.09375 224.832031 L 54.023438 224.9375 C 54.007812 224.960938 53.992188 224.980469 53.976562 225 C 51.527344 227.792969 51.710938 235.542969 54.40625 243.433594 C 57.054688 251.164062 61.652344 257.390625 65.347656 258.242188 C 65.460938 258.265625 65.558594 258.320312 65.636719 258.390625 L 85.5 263.585938 L 124.953125 263.195312 L 211.382812 246.132812 C 211.421875 246.125 211.464844 246.121094 211.503906 246.121094 Z M 311.628906 280.273438 C 311.597656 280.273438 311.558594 280.273438 311.519531 280.265625 L 310.800781 280.136719 C 310.773438 280.132812 310.742188 280.125 310.714844 280.113281 L 211.464844 247.414062 L 125.140625 264.453125 C 125.101562 264.460938 125.0625 264.464844 125.023438 264.46875 L 85.425781 264.855469 C 85.375 264.859375 85.316406 264.851562 85.261719 264.835938 L 64.917969 259.519531 C 64.8125 259.492188 64.71875 259.4375 64.640625 259.367188 C 60.578125 258.089844 55.929688 251.816406 53.203125 243.84375 C 50.285156 235.3125 50.203125 227.425781 52.992188 224.191406 L 53.066406 224.082031 L 66.683594 206.640625 C 66.714844 206.597656 66.753906 206.558594 66.796875 206.53125 L 98.445312 182.207031 C 98.476562 182.183594 98.507812 182.160156 98.542969 182.144531 L 176.234375 142.566406 L 234.601562 55.894531 C 234.796875 55.605469 235.191406 55.527344 235.484375 55.71875 C 235.773438 55.917969 235.875 56.324219 235.679688 56.613281 C 228.628906 67.257812 225.09375 84.972656 225.714844 106.496094 C 226.363281 128.84375 231.265625 153.992188 239.898438 179.226562 C 248.539062 204.492188 260.089844 227.425781 273.300781 245.542969 C 286.023438 263 299.714844 274.894531 311.835938 279.035156 C 312.15625 279.144531 312.332031 279.472656 312.25 279.796875 C 312.175781 280.082031 311.917969 280.273438 311.628906 280.273438 " fill-opacity="1" fill-rule="nonzero"/><path fill="#ffffff" d="M 176.84375 142.800781 L 235.128906 56.25 L 235.152344 56.265625 C 220.613281 78.214844 221.449219 127.261719 239.296875 179.433594 C 257.160156 231.664062 286.625 271.09375 311.632812 279.636719 L 310.914062 279.507812 L 211.667969 246.8125 L 209.367188 246.066406 C 197.839844 242.203125 184.328125 224.425781 176.300781 200.789062 C 168.058594 176.523438 169.375 153.753906 176.113281 143.847656 L 176.84375 142.800781 " fill-opacity="1" fill-rule="nonzero"/><path fill="#000000" d="M 176.84375 142.800781 L 176.847656 142.800781 Z M 229.992188 65.019531 L 177.371094 143.15625 C 177.371094 143.15625 177.367188 143.160156 177.367188 143.164062 L 176.632812 144.214844 C 170.378906 153.40625 168.460938 175.726562 176.902344 200.582031 C 184.679688 223.488281 197.808594 241.519531 209.570312 245.460938 L 211.867188 246.207031 L 302.605469 276.101562 C 292.65625 270.210938 282.324219 260.082031 272.273438 246.292969 C 258.988281 228.074219 247.378906 205.023438 238.695312 179.640625 C 223.230469 134.433594 220.136719 90.398438 229.992188 65.019531 Z M 311.628906 280.273438 C 311.597656 280.273438 311.558594 280.273438 311.519531 280.265625 L 310.800781 280.136719 C 310.773438 280.132812 310.742188 280.125 310.714844 280.113281 L 211.46875 247.417969 L 209.171875 246.667969 C 197.046875 242.609375 183.597656 224.253906 175.699219 200.992188 C 171.789062 189.476562 169.800781 177.695312 169.953125 166.921875 C 170.09375 156.945312 172.09375 148.625 175.585938 143.488281 L 176.316406 142.4375 L 234.601562 55.894531 C 234.796875 55.605469 235.191406 55.527344 235.484375 55.71875 C 235.773438 55.917969 235.875 56.324219 235.679688 56.613281 C 228.628906 67.257812 225.09375 84.972656 225.714844 106.496094 C 226.363281 128.84375 231.265625 153.992188 239.898438 179.226562 C 248.539062 204.492188 260.089844 227.425781 273.300781 245.542969 C 286.023438 263 299.714844 274.894531 311.835938 279.035156 C 312.15625 279.144531 312.332031 279.472656 312.25 279.796875 C 312.175781 280.082031 311.917969 280.273438 311.628906 280.273438 " fill-opacity="1" fill-rule="nonzero"/><path fill="#000000" d="M 84.324219 264.570312 C 84.269531 264.570312 84.21875 264.566406 84.164062 264.550781 L 64.917969 259.519531 C 64.8125 259.492188 64.71875 259.441406 64.640625 259.367188 C 60.578125 258.089844 55.929688 251.816406 53.203125 243.84375 C 50.285156 235.3125 50.203125 227.425781 52.992188 224.191406 L 53.066406 224.085938 L 66.683594 206.640625 C 66.898438 206.363281 67.296875 206.316406 67.574219 206.53125 C 67.851562 206.75 67.902344 207.148438 67.683594 207.425781 L 54.09375 224.832031 L 54.023438 224.9375 C 54.007812 224.960938 53.992188 224.980469 53.976562 225 C 51.527344 227.792969 51.710938 235.542969 54.40625 243.433594 C 57.050781 251.164062 61.652344 257.390625 65.347656 258.242188 C 65.457031 258.265625 65.554688 258.320312 65.636719 258.390625 L 84.484375 263.320312 C 84.824219 263.40625 85.027344 263.757812 84.941406 264.09375 C 84.863281 264.382812 84.605469 264.570312 84.324219 264.570312 " fill-opacity="1" fill-rule="nonzero"/><path fill="#745ff6" d="M 85.617188 264.136719 C 79.324219 262.730469 71.789062 252.394531 67.203125 238.988281 C 62.34375 224.785156 62.785156 210.902344 67.6875 206.675781 L 53.589844 224.441406 L 53.496094 224.582031 C 50.890625 227.554688 50.960938 235.324219 53.804688 243.636719 C 56.617188 251.859375 61.339844 257.972656 65.207031 258.863281 L 65.078125 258.902344 L 85.617188 264.136719 " fill-opacity="1" fill-rule="nonzero"/><path fill="#000000" d="M 65.632812 258.386719 L 80.546875 262.1875 C 75.382812 258.066406 70.175781 249.644531 66.601562 239.195312 C 63.152344 229.109375 62.28125 219.066406 63.929688 212.4375 L 54.023438 224.9375 C 54.007812 224.960938 53.992188 224.980469 53.976562 225 C 51.527344 227.792969 51.710938 235.542969 54.40625 243.433594 C 57.050781 251.164062 61.652344 257.390625 65.347656 258.242188 C 65.457031 258.265625 65.554688 258.320312 65.632812 258.386719 Z M 85.617188 264.773438 C 85.570312 264.773438 85.527344 264.765625 85.476562 264.757812 C 85.320312 264.722656 85.164062 264.683594 85.003906 264.636719 L 64.921875 259.519531 C 64.8125 259.492188 64.71875 259.441406 64.640625 259.367188 C 60.578125 258.089844 55.929688 251.816406 53.203125 243.84375 C 50.285156 235.3125 50.203125 227.425781 52.992188 224.191406 L 53.066406 224.085938 C 53.074219 224.070312 53.082031 224.058594 53.09375 224.046875 L 65.445312 208.480469 C 65.964844 207.5625 66.578125 206.792969 67.273438 206.191406 C 67.519531 205.976562 67.890625 205.988281 68.128906 206.214844 C 68.367188 206.445312 68.390625 206.8125 68.1875 207.070312 L 66.472656 209.230469 C 63.335938 214.886719 63.757812 226.953125 67.804688 238.785156 C 72.21875 251.691406 79.363281 261.691406 85.332031 263.40625 L 85.773438 263.519531 C 86.113281 263.605469 86.316406 263.945312 86.238281 264.285156 C 86.167969 264.574219 85.90625 264.773438 85.617188 264.773438 " fill-opacity="1" fill-rule="nonzero"/><path fill="#ffffff" d="M 123.574219 263.84375 L 125.257812 263.761719 C 116.078125 264.285156 104.050781 248.765625 97.003906 228.160156 C 89.816406 207.148438 90.804688 187.386719 98.832031 182.710938 L 97.773438 183.523438 L 67.773438 206.605469 C 62.789062 210.746094 62.316406 224.703125 67.203125 238.988281 C 71.917969 252.773438 79.925781 263.269531 86.3125 264.191406 L 123.574219 263.84375 " fill-opacity="1" fill-rule="nonzero"/><path fill="#000000" d="M 94.289062 187.011719 L 68.160156 207.109375 C 63.28125 211.160156 63.117188 225.082031 67.804688 238.785156 C 72.402344 252.21875 80.195312 262.621094 86.355469 263.554688 L 120.039062 263.242188 C 111.699219 259.332031 102.417969 245.964844 96.402344 228.367188 C 90.6875 211.664062 90.097656 195.429688 94.289062 187.011719 Z M 86.3125 264.828125 C 86.28125 264.828125 86.25 264.828125 86.222656 264.824219 C 79.5 263.851562 71.429688 253.3125 66.601562 239.195312 C 61.675781 224.789062 62.003906 210.570312 67.367188 206.113281 L 96.777344 183.488281 C 97.316406 182.96875 97.894531 182.523438 98.511719 182.164062 C 98.800781 181.992188 99.171875 182.078125 99.359375 182.359375 C 99.546875 182.636719 99.484375 183.011719 99.21875 183.21875 L 97.558594 184.492188 C 94.800781 187.21875 93.148438 192.378906 92.847656 199.335938 C 92.484375 207.757812 94.175781 217.921875 97.605469 227.953125 C 104.519531 248.171875 116.128906 263.140625 124.804688 263.140625 C 124.90625 263.140625 125.007812 263.136719 125.109375 263.132812 L 125.226562 263.125 C 125.582031 263.117188 125.875 263.378906 125.894531 263.730469 C 125.914062 264.078125 125.644531 264.378906 125.296875 264.398438 C 125.253906 264.402344 125.210938 264.402344 125.171875 264.40625 L 123.605469 264.480469 C 123.597656 264.480469 123.585938 264.480469 123.578125 264.480469 L 86.316406 264.828125 C 86.316406 264.828125 86.3125 264.828125 86.3125 264.828125 " fill-opacity="1" fill-rule="nonzero"/><path fill="#000000" d="M 264.449219 140.699219 C 258.148438 142.828125 256.933594 156.816406 262.339844 171.730469 C 271.398438 196.742188 281.761719 195.496094 282.992188 195.25 C 283.015625 195.246094 283.023438 195.273438 283.003906 195.289062 L 258.914062 209.371094 C 253.941406 199.570312 249.382812 188.8125 245.460938 177.351562 C 241.707031 166.367188 238.808594 155.535156 236.757812 145.160156 L 264.449219 140.699219 " fill-opacity="1" fill-rule="nonzero"/><path fill="#000000" d="M 237.507812 145.683594 C 239.59375 156.054688 242.46875 166.636719 246.066406 177.148438 C 249.8125 188.109375 254.226562 198.648438 259.179688 208.480469 L 280.761719 195.859375 C 276.808594 195.25 268.792969 191.421875 261.738281 171.949219 C 257.820312 161.121094 257.160156 150.230469 260.066406 144.199219 C 260.527344 143.246094 261.0625 142.441406 261.667969 141.792969 Z M 258.652344 210.261719 L 258.347656 209.660156 C 253.246094 199.601562 248.707031 188.800781 244.859375 177.558594 C 241.171875 166.773438 238.238281 155.917969 236.132812 145.285156 L 236.003906 144.636719 L 264.347656 140.074219 L 264.65625 141.304688 C 263.246094 141.777344 262.089844 142.9375 261.214844 144.75 C 258.492188 150.402344 259.1875 161.15625 262.9375 171.515625 C 271.832031 196.066406 281.765625 194.847656 282.871094 194.625 L 283.398438 194.519531 L 283.804688 195.542969 L 283.320312 195.839844 L 258.652344 210.261719 " fill-opacity="1" fill-rule="nonzero"/><path fill="#ffffff" d="M 120.289062 240.015625 C 120.011719 240.160156 109.890625 253.707031 109.890625 253.707031 L 105.507812 246.527344 L 114.425781 235.492188 L 120.289062 240.015625 " fill-opacity="1" fill-rule="nonzero"/><path fill="#000000" d="M 106.28125 246.578125 L 109.941406 252.570312 C 116.179688 244.230469 118.488281 241.226562 119.382812 240.117188 L 114.527344 236.375 Z M 109.890625 254.34375 C 109.878906 254.34375 109.871094 254.34375 109.859375 254.34375 C 109.648438 254.332031 109.457031 254.21875 109.347656 254.039062 L 104.960938 246.855469 C 104.820312 246.628906 104.839844 246.335938 105.011719 246.125 L 113.929688 235.089844 C 114.148438 234.820312 114.539062 234.773438 114.8125 234.988281 L 120.679688 239.511719 C 120.851562 239.644531 120.945312 239.855469 120.925781 240.070312 C 120.910156 240.242188 120.828125 240.394531 120.699219 240.503906 C 120.140625 241.105469 114.253906 248.929688 110.398438 254.085938 C 110.277344 254.25 110.089844 254.34375 109.890625 254.34375 " fill-opacity="1" fill-rule="nonzero"/><path fill="#000000" d="M 111.101562 246.828125 C 111.753906 246.933594 112.542969 247.207031 113.179688 247.878906 C 114.132812 248.890625 114.308594 250.421875 113.71875 251.695312 C 112.242188 254.875 107.996094 263.574219 103.195312 269.152344 C 101.496094 271.125 98.644531 271.027344 97.9375 267.636719 C 96.777344 262.082031 97.066406 252.726562 101.792969 243.871094 C 102.332031 242.855469 103.347656 242.171875 104.496094 242.074219 C 105.429688 241.996094 106.617188 241.964844 107.78125 242.113281 C 108.890625 242.253906 109.722656 243.195312 109.75 244.316406 L 109.777344 245.324219 C 109.796875 246.082031 110.351562 246.707031 111.101562 246.828125 " fill-opacity="1" fill-rule="nonzero"/><path fill="#ffffff" d="M 101.449219 268.832031 C 101.28125 268.832031 101.113281 268.765625 100.988281 268.632812 C 100.78125 268.40625 95.953125 262.925781 103.328125 244.894531 C 103.464844 244.570312 103.835938 244.414062 104.160156 244.546875 C 104.484375 244.679688 104.640625 245.050781 104.507812 245.378906 C 97.5 262.5 101.878906 267.71875 101.925781 267.769531 C 102.15625 268.03125 102.136719 268.429688 101.878906 268.664062 C 101.757812 268.777344 101.605469 268.832031 101.449219 268.832031 " fill-opacity="1" fill-rule="nonzero"/><path fill="#ffffff" d="M 108.683594 260.714844 C 108.585938 260.714844 108.484375 260.691406 108.390625 260.640625 L 104.640625 258.683594 C 104.328125 258.523438 104.210938 258.136719 104.371094 257.824219 C 104.535156 257.515625 104.917969 257.394531 105.230469 257.554688 L 108.980469 259.511719 C 109.289062 259.675781 109.410156 260.058594 109.25 260.371094 C 109.136719 260.589844 108.914062 260.714844 108.683594 260.714844 " fill-opacity="1" fill-rule="nonzero"/><path fill="#ffffff" d="M 110.6875 258.050781 C 110.589844 258.050781 110.484375 258.03125 110.390625 257.980469 L 106.011719 255.667969 C 105.703125 255.503906 105.582031 255.117188 105.746094 254.808594 C 105.910156 254.5 106.296875 254.378906 106.609375 254.542969 L 110.984375 256.851562 C 111.296875 257.015625 111.414062 257.402344 111.25 257.714844 C 111.136719 257.929688 110.917969 258.050781 110.6875 258.050781 " fill-opacity="1" fill-rule="nonzero"/><path fill="#000000" d="M 109.082031 162.234375 C 105.523438 160.410156 97.675781 156.210938 95.222656 159.367188 C 91.425781 164.261719 90.394531 176.421875 92.464844 179.757812 C 95.835938 185.1875 130.816406 200.601562 129.789062 199.648438 C 128.761719 198.699219 113.523438 227.453125 108.394531 238.84375 L 119.179688 244.207031 C 119.179688 244.207031 157.289062 206.28125 157.703125 200.316406 C 158.449219 189.648438 133.433594 175.867188 125.675781 170.90625 C 124.632812 170.238281 115.386719 165.46875 109.082031 162.234375 " fill-opacity="1" fill-rule="nonzero"/><path fill="#000000" d="M 96.539062 94.726562 C 95.210938 97.121094 96.90625 98.0625 95.847656 102.777344 C 95.066406 106.238281 93.753906 107.519531 94.507812 109.292969 C 95.1875 110.890625 96.96875 111.535156 98.148438 111.960938 C 103.488281 113.890625 108.832031 111.378906 112.113281 109.839844 C 114.765625 108.589844 118.40625 106.878906 118.253906 104.972656 C 118.101562 103.085938 114.421875 103.183594 112.839844 99.96875 C 111.566406 97.382812 113.230469 95.867188 111.867188 93.667969 C 110.105469 90.820312 105.695312 90.738281 104.988281 90.722656 C 102.152344 90.671875 98.175781 91.78125 96.539062 94.726562 " fill-opacity="1" fill-rule="nonzero"/><path fill="#ffffff" d="M 126.164062 110.550781 L 111.753906 113.476562 C 111.492188 113.523438 111.238281 113.367188 111.164062 113.113281 C 110.316406 110.339844 111.960938 107.351562 112.433594 106.578125 C 112.507812 106.457031 112.628906 106.375 112.769531 106.34375 C 113.484375 106.183594 114.132812 105.964844 114.71875 105.683594 C 115.441406 105.34375 115.769531 104.488281 115.480469 103.742188 C 115.015625 102.539062 114.519531 100.921875 114.226562 100.257812 C 114.15625 100.097656 114.167969 99.90625 114.273438 99.761719 C 114.53125 99.414062 114.921875 99.15625 114.898438 98.617188 C 114.894531 98.410156 114.757812 98.222656 114.566406 98.15625 C 112.800781 97.546875 111.535156 94.800781 110.378906 93.929688 C 109.828125 93.515625 109.445312 93.390625 108.820312 93.015625 C 108.714844 92.953125 108.589844 92.921875 108.46875 92.941406 C 105.398438 93.464844 109.890625 97.445312 105.804688 99.480469 C 105.601562 99.582031 105.472656 99.800781 105.507812 100.027344 C 105.5625 100.359375 105.527344 100.804688 105.46875 101.207031 C 105.46875 101.210938 105.46875 101.21875 105.46875 101.222656 C 105.410156 101.628906 104.914062 101.808594 104.605469 101.53125 C 104.027344 101.015625 103.414062 100.847656 103.042969 101.042969 C 102.511719 101.320312 102.5 102.316406 102.65625 102.921875 C 102.96875 104.132812 104.183594 104.734375 104.882812 104.988281 C 105.148438 105.082031 105.285156 105.375 105.195312 105.644531 C 104.652344 107.257812 102.996094 112.308594 102.78125 114.628906 C 102.761719 114.867188 102.585938 115.058594 102.351562 115.101562 L 99.605469 115.574219 C 95.472656 116.289062 90.503906 118.542969 87.246094 121.191406 L 83.050781 124.398438 C 82.726562 124.660156 81.269531 125.4375 81.550781 125.75 C 89.632812 134.738281 106.496094 130.101562 112.773438 127.648438 C 118.859375 125.269531 125.363281 113.183594 127.449219 115.746094 C 128.820312 117.433594 126.570312 110.480469 126.164062 110.550781 " fill-opacity="1" fill-rule="nonzero"/><path fill="#000000" d="M 82.332031 125.65625 C 91.296875 134.980469 110.375 127.902344 112.542969 127.054688 C 115.375 125.949219 118.472656 122.4375 120.960938 119.617188 C 123.699219 116.519531 125.324219 114.753906 126.738281 114.753906 C 126.75 114.753906 126.761719 114.753906 126.773438 114.753906 C 126.882812 114.757812 126.992188 114.769531 127.097656 114.792969 C 126.816406 113.65625 126.234375 111.929688 125.902344 111.253906 L 111.882812 114.101562 C 111.289062 114.207031 110.722656 113.855469 110.554688 113.296875 C 109.636719 110.292969 111.34375 107.140625 111.890625 106.246094 C 112.050781 105.980469 112.324219 105.789062 112.632812 105.722656 C 113.28125 105.578125 113.890625 105.371094 114.449219 105.109375 C 114.863281 104.910156 115.058594 104.410156 114.886719 103.972656 C 114.660156 103.382812 114.421875 102.691406 114.214844 102.082031 C 113.992188 101.441406 113.785156 100.835938 113.644531 100.511719 C 113.480469 100.136719 113.523438 99.707031 113.761719 99.386719 C 113.835938 99.285156 113.917969 99.191406 114.003906 99.097656 C 114.171875 98.90625 114.242188 98.816406 114.257812 98.722656 C 113.035156 98.25 112.097656 97.011719 111.269531 95.910156 C 110.804688 95.296875 110.367188 94.714844 109.996094 94.4375 C 109.699219 94.214844 109.464844 94.089844 109.164062 93.933594 C 108.96875 93.832031 108.761719 93.722656 108.523438 93.578125 C 108.335938 93.613281 108.113281 93.683594 108.027344 93.808594 C 107.871094 94.03125 107.980469 94.625 108.085938 95.195312 C 108.339844 96.59375 108.730469 98.703125 106.152344 100.019531 C 106.191406 100.359375 106.175781 100.789062 106.101562 101.300781 C 106.035156 101.730469 105.75 102.085938 105.347656 102.230469 C 104.949219 102.375 104.5 102.289062 104.183594 102.007812 C 103.746094 101.617188 103.40625 101.574219 103.339844 101.605469 C 103.238281 101.683594 103.136719 102.226562 103.273438 102.765625 C 103.511719 103.6875 104.519531 104.175781 105.097656 104.390625 C 105.695312 104.605469 106.003906 105.242188 105.800781 105.84375 C 105.292969 107.347656 103.625 112.425781 103.417969 114.6875 C 103.367188 115.210938 102.976562 115.640625 102.460938 115.730469 L 99.714844 116.199219 C 95.675781 116.898438 90.828125 119.101562 87.648438 121.683594 L 83.4375 124.902344 C 83.34375 124.976562 83.1875 125.078125 82.988281 125.210938 C 82.832031 125.308594 82.542969 125.496094 82.332031 125.65625 Z M 95.773438 131.675781 C 90.367188 131.675781 84.851562 130.371094 81.078125 126.175781 C 80.921875 126.003906 80.855469 125.78125 80.886719 125.550781 C 80.953125 125.039062 81.464844 124.675781 82.296875 124.140625 C 82.449219 124.042969 82.582031 123.957031 82.648438 123.902344 L 86.859375 120.683594 C 90.179688 117.988281 95.265625 115.675781 99.496094 114.945312 L 102.15625 114.488281 C 102.394531 112.167969 103.882812 107.550781 104.558594 105.542969 C 103.730469 105.226562 102.40625 104.507812 102.039062 103.082031 C 101.867188 102.402344 101.789062 100.984375 102.746094 100.480469 C 103.335938 100.167969 104.132812 100.339844 104.867188 100.917969 C 104.917969 100.476562 104.898438 100.238281 104.882812 100.128906 C 104.800781 99.632812 105.058594 99.144531 105.523438 98.914062 C 107.308594 98.019531 107.089844 96.820312 106.832031 95.425781 C 106.679688 94.597656 106.519531 93.738281 106.984375 93.078125 C 107.265625 92.671875 107.71875 92.421875 108.363281 92.3125 C 108.628906 92.269531 108.910156 92.324219 109.152344 92.472656 C 109.378906 92.609375 109.574219 92.710938 109.757812 92.804688 C 110.078125 92.976562 110.382812 93.136719 110.761719 93.417969 C 111.277344 93.808594 111.765625 94.457031 112.285156 95.144531 C 113.027344 96.128906 113.867188 97.242188 114.773438 97.554688 C 115.210938 97.707031 115.519531 98.121094 115.539062 98.589844 C 115.5625 99.257812 115.195312 99.671875 114.953125 99.941406 C 114.914062 99.984375 114.878906 100.027344 114.839844 100.070312 C 115 100.445312 115.195312 101.015625 115.417969 101.667969 C 115.625 102.265625 115.855469 102.945312 116.074219 103.511719 C 116.484375 104.570312 116.007812 105.777344 114.992188 106.257812 C 114.363281 106.554688 113.675781 106.789062 112.953125 106.953125 C 112.566406 107.597656 111.046875 110.355469 111.742188 112.832031 L 126.035156 109.925781 C 126.042969 109.925781 126.046875 109.925781 126.054688 109.921875 C 126.640625 109.824219 126.957031 110.269531 127.605469 112.089844 C 129.015625 116.054688 128.457031 116.367188 128.125 116.554688 C 127.863281 116.703125 127.449219 116.753906 126.957031 116.148438 C 126.867188 116.039062 126.804688 116.027344 126.746094 116.027344 C 126.742188 116.027344 126.738281 116.027344 126.738281 116.027344 C 125.828125 116.027344 123.75 118.382812 121.917969 120.460938 C 119.203125 123.535156 116.125 127.019531 113.003906 128.238281 C 111.640625 128.773438 103.835938 131.675781 95.773438 131.675781 " fill-opacity="1" fill-rule="nonzero"/><path fill="#ffffff" d="M 108.308594 106.292969 C 108.308594 106.292969 110.171875 107.148438 112.394531 106.425781 L 108.308594 106.292969 " fill-opacity="1" fill-rule="nonzero"/><path fill="#000000" d="M 110.546875 107.355469 C 109.113281 107.355469 108.101562 106.902344 108.042969 106.875 C 107.722656 106.726562 107.582031 106.351562 107.730469 106.03125 C 107.875 105.710938 108.25 105.570312 108.570312 105.714844 C 108.597656 105.726562 110.261719 106.453125 112.195312 105.824219 C 112.527344 105.714844 112.886719 105.898438 112.996094 106.230469 C 113.105469 106.566406 112.921875 106.925781 112.589844 107.035156 C 111.859375 107.269531 111.164062 107.355469 110.546875 107.355469 " fill-opacity="1" fill-rule="nonzero"/><path fill="#000000" d="M 98.695312 93.5625 C 98.695312 93.5625 98.03125 87.964844 93.558594 89.269531 C 89.085938 90.574219 93.152344 95.335938 96.464844 95.835938 C 99.777344 96.335938 98.695312 93.5625 98.695312 93.5625 " fill-opacity="1" fill-rule="nonzero"/><path fill="#ffffff" d="M 183.789062 76.332031 L 189.46875 71.308594 C 189.863281 70.960938 190.449219 70.941406 190.863281 71.269531 C 191.328125 71.636719 191.414062 72.316406 191.050781 72.789062 L 189.214844 75.152344 L 190.449219 78.648438 C 190.828125 79.726562 190.496094 80.925781 189.617188 81.652344 L 187.292969 83.578125 C 186.128906 84.542969 184.492188 84.695312 183.167969 83.960938 L 182.28125 83.46875 C 180.910156 82.707031 180.175781 81.160156 180.449219 79.617188 L 180.769531 77.800781 C 180.972656 76.664062 182.09375 75.925781 183.21875 76.195312 L 183.789062 76.332031 " fill-opacity="1" fill-rule="nonzero"/><path fill="#000000" d="M 182.746094 76.777344 C 182.480469 76.777344 182.222656 76.855469 181.996094 77.003906 C 181.675781 77.210938 181.464844 77.535156 181.398438 77.910156 L 181.074219 79.730469 C 180.847656 81.003906 181.457031 82.28125 182.589844 82.910156 L 183.476562 83.402344 C 184.574219 84.015625 185.914062 83.890625 186.886719 83.089844 L 189.210938 81.164062 C 189.882812 80.609375 190.136719 79.683594 189.847656 78.863281 L 188.613281 75.367188 C 188.542969 75.164062 188.578125 74.9375 188.707031 74.765625 L 190.542969 72.398438 C 190.695312 72.203125 190.660156 71.917969 190.46875 71.769531 C 190.296875 71.632812 190.050781 71.640625 189.886719 71.785156 L 184.210938 76.808594 C 184.054688 76.949219 183.84375 77 183.640625 76.953125 L 183.070312 76.816406 C 182.960938 76.789062 182.851562 76.777344 182.746094 76.777344 Z M 184.957031 85.066406 C 184.242188 85.066406 183.519531 84.882812 182.859375 84.519531 L 181.972656 84.023438 C 180.363281 83.132812 179.503906 81.316406 179.820312 79.511719 L 180.144531 77.691406 C 180.269531 76.976562 180.691406 76.339844 181.300781 75.9375 C 181.902344 75.542969 182.65625 75.410156 183.363281 75.578125 L 183.613281 75.636719 L 189.046875 70.832031 C 189.671875 70.277344 190.597656 70.25 191.257812 70.769531 C 191.996094 71.351562 192.128906 72.433594 191.550781 73.179688 L 189.929688 75.273438 L 191.046875 78.4375 C 191.515625 79.761719 191.101562 81.25 190.019531 82.144531 L 187.695312 84.070312 C 186.898438 84.726562 185.929688 85.0625 184.957031 85.066406 " fill-opacity="1" fill-rule="nonzero"/><path fill="#ffffff" d="M 183.789062 76.332031 L 185.757812 77.925781 C 185.757812 77.925781 184.996094 79.859375 183.671875 78.992188 L 183.789062 76.332031 " fill-opacity="1" fill-rule="nonzero"/><path fill="#000000" d="M 184.339844 79.851562 C 184.046875 79.851562 183.699219 79.773438 183.320312 79.527344 C 183.027344 79.332031 182.945312 78.9375 183.136719 78.644531 C 183.328125 78.351562 183.722656 78.269531 184.019531 78.460938 C 184.261719 78.621094 184.390625 78.582031 184.4375 78.566406 C 184.628906 78.503906 184.8125 78.296875 184.949219 78.089844 L 183.386719 76.824219 C 183.113281 76.605469 183.074219 76.203125 183.296875 75.929688 C 183.515625 75.65625 183.917969 75.613281 184.191406 75.835938 L 186.15625 77.433594 C 186.371094 77.605469 186.449219 77.902344 186.347656 78.160156 C 186.296875 78.292969 185.808594 79.464844 184.824219 79.777344 C 184.691406 79.820312 184.527344 79.851562 184.339844 79.851562 " fill-opacity="1" fill-rule="nonzero"/><path fill="#ffffff" d="M 189.539062 76.09375 L 187.121094 78.832031 L 189.539062 76.09375 " fill-opacity="1" fill-rule="nonzero"/><path fill="#000000" d="M 187.121094 79.46875 C 186.976562 79.46875 186.820312 79.417969 186.703125 79.308594 C 186.4375 79.078125 186.414062 78.675781 186.644531 78.410156 L 189.066406 75.671875 C 189.296875 75.410156 189.699219 75.382812 189.964844 75.617188 C 190.226562 75.847656 190.25 76.25 190.019531 76.515625 L 187.597656 79.253906 C 187.476562 79.394531 187.296875 79.46875 187.121094 79.46875 " fill-opacity="1" fill-rule="nonzero"/><path fill="#ffffff" d="M 190.140625 78.355469 L 188.195312 80.515625 L 190.140625 78.355469 " fill-opacity="1" fill-rule="nonzero"/><path fill="#000000" d="M 188.195312 81.148438 C 188.042969 81.148438 187.890625 81.09375 187.769531 80.984375 C 187.507812 80.75 187.488281 80.347656 187.722656 80.085938 L 189.671875 77.929688 C 189.902344 77.664062 190.304688 77.644531 190.570312 77.882812 C 190.828125 78.117188 190.851562 78.519531 190.613281 78.78125 L 188.667969 80.941406 C 188.542969 81.078125 188.367188 81.148438 188.195312 81.148438 " fill-opacity="1" fill-rule="nonzero"/><path fill="#5236ff" d="M 94.710938 116.15625 L 97.109375 115.359375 C 97.109375 115.359375 110.945312 125.117188 117.75 111.585938 L 121.058594 110.792969 L 126.820312 129.796875 L 93.238281 137.148438 L 94.710938 116.15625 " fill-opacity="1" fill-rule="nonzero"/><path fill="#745ff6" d="M 183.601562 86.085938 C 181.328125 85.261719 179.058594 84.433594 176.789062 83.605469 C 166.582031 94.460938 156.828125 99.835938 149.484375 102.738281 C 140.4375 106.320312 124.96875 110.136719 124.96875 110.136719 C 124.96875 110.136719 124.671875 117.367188 112.355469 125.089844 C 100.035156 132.808594 82.105469 123.78125 82.105469 123.78125 C 82.105469 123.78125 61.058594 140.183594 59.417969 150.527344 C 56.691406 167.714844 86.398438 177.359375 86.398438 177.359375 L 87.871094 172.742188 C 87.871094 172.742188 76.210938 162.347656 79.285156 152.476562 C 82.359375 142.605469 89.320312 138.484375 89.320312 138.484375 C 90.816406 150.109375 89.347656 163.496094 89.347656 163.496094 C 108.992188 169.449219 126.433594 163.707031 134.171875 160.316406 C 136.808594 159.164062 138.375 156.425781 138.058594 153.570312 C 136.871094 142.8125 133.289062 129.136719 133.289062 129.136719 C 137.890625 129.105469 142.878906 128.441406 147.996094 126.714844 C 172.980469 118.28125 182.105469 90.832031 183.601562 86.085938 " fill-opacity="1" fill-rule="nonzero"/><path fill="#5236ff" d="M 112.164062 159.136719 C 111.902344 159.136719 111.65625 158.976562 111.5625 158.714844 C 111.445312 158.382812 111.617188 158.019531 111.949219 157.902344 C 126.710938 152.609375 129.59375 136.285156 129.621094 136.121094 C 129.679688 135.773438 130.007812 135.539062 130.355469 135.59375 C 130.703125 135.652344 130.9375 135.984375 130.878906 136.328125 C 130.851562 136.5 127.855469 153.550781 112.378906 159.101562 C 112.304688 159.125 112.234375 159.136719 112.164062 159.136719 " fill-opacity="1" fill-rule="nonzero"/><path fill="#ffffff" d="M 114.933594 167.402344 L 98.753906 145.003906 C 98.339844 144.433594 97.542969 144.304688 96.972656 144.71875 L 67.695312 165.871094 C 67.125 166.285156 66.996094 167.078125 67.40625 167.648438 L 83.589844 190.046875 C 84 190.617188 84.796875 190.746094 85.367188 190.332031 L 114.648438 169.179688 C 115.21875 168.765625 115.347656 167.972656 114.933594 167.402344 " fill-opacity="1" fill-rule="nonzero"/><path fill="#000000" d="M 97.71875 145.113281 C 97.589844 145.113281 97.460938 145.152344 97.347656 145.234375 L 68.066406 166.386719 C 67.929688 166.488281 67.839844 166.636719 67.8125 166.804688 C 67.785156 166.972656 67.824219 167.140625 67.921875 167.277344 L 84.105469 189.671875 C 84.3125 189.960938 84.710938 190.023438 84.996094 189.816406 L 114.273438 168.664062 C 114.414062 168.5625 114.503906 168.417969 114.53125 168.25 C 114.558594 168.078125 114.519531 167.910156 114.417969 167.773438 L 98.238281 145.375 C 98.113281 145.203125 97.917969 145.113281 97.71875 145.113281 Z M 84.625 191.210938 C 84.03125 191.210938 83.445312 190.9375 83.074219 190.421875 L 66.890625 168.023438 C 66.59375 167.609375 66.472656 167.105469 66.554688 166.601562 C 66.632812 166.097656 66.90625 165.65625 67.320312 165.355469 L 96.601562 144.203125 C 97.453125 143.585938 98.652344 143.777344 99.269531 144.632812 L 115.449219 167.027344 C 115.75 167.441406 115.867188 167.945312 115.789062 168.449219 C 115.707031 168.953125 115.433594 169.394531 115.019531 169.695312 L 85.742188 190.851562 C 85.402344 191.09375 85.011719 191.210938 84.625 191.210938 " fill-opacity="1" fill-rule="nonzero"/><path fill="#5236ff" d="M 84.332031 186.476562 L 71.03125 168.066406 L 98.75 148.042969 L 112.050781 166.449219 L 84.332031 186.476562 " fill-opacity="1" fill-rule="nonzero"/><path fill="#ffffff" d="M 111.730469 160.339844 L 104.449219 150.261719 C 103.945312 149.5625 102.972656 149.410156 102.273438 149.910156 L 99.96875 151.578125 L 109.074219 164.183594 L 111.382812 162.515625 C 112.078125 162.011719 112.234375 161.039062 111.730469 160.339844 " fill-opacity="1" fill-rule="nonzero"/><path fill="#ffffff" d="M 109.910156 153.988281 C 109.695312 153.691406 109.761719 153.277344 110.058594 153.066406 C 110.355469 152.851562 110.765625 152.917969 110.980469 153.214844 C 111.191406 153.511719 111.125 153.921875 110.832031 154.136719 C 110.535156 154.347656 110.121094 154.285156 109.910156 153.988281 Z M 112.261719 152.289062 C 111.179688 150.792969 109.089844 150.457031 107.59375 151.535156 L 104.886719 153.496094 L 108.800781 158.910156 L 111.507812 156.953125 C 113.003906 155.875 113.34375 153.785156 112.261719 152.289062 " fill-opacity="1" fill-rule="nonzero"/><path fill="#ffffff" d="M 105.480469 168.546875 L 94.695312 153.621094 L 95.933594 152.726562 L 106.71875 167.652344 L 105.480469 168.546875 " fill-opacity="1" fill-rule="nonzero"/><path fill="#ffffff" d="M 102.941406 170.378906 L 92.160156 155.453125 L 93.394531 154.558594 L 104.179688 169.484375 L 102.941406 170.378906 " fill-opacity="1" fill-rule="nonzero"/><path fill="#ffffff" d="M 100.40625 172.214844 L 89.621094 157.285156 L 90.859375 156.394531 L 101.644531 171.316406 L 100.40625 172.214844 " fill-opacity="1" fill-rule="nonzero"/><path fill="#ffffff" d="M 85.644531 176.699219 C 85.644531 176.699219 90.5 184.242188 94.347656 183.890625 C 98.195312 183.535156 97.789062 180.730469 97.789062 180.730469 L 92.566406 176.8125 C 92.566406 176.8125 97.710938 178.355469 97.398438 176.472656 C 97.238281 175.503906 96.777344 175.480469 95.585938 175.277344 C 92.503906 174.75 86.816406 173.542969 86.816406 173.542969 L 85.644531 176.699219 " fill-opacity="1" fill-rule="nonzero"/><path fill="#000000" d="M 86.355469 176.621094 C 87.800781 178.777344 91.574219 183.511719 94.289062 183.253906 C 95.453125 183.148438 96.277344 182.792969 96.742188 182.207031 C 97.074219 181.785156 97.148438 181.328125 97.164062 181.054688 L 92.183594 177.320312 C 91.9375 177.136719 91.859375 176.800781 91.996094 176.523438 C 92.136719 176.25 92.453125 176.113281 92.75 176.199219 C 94.515625 176.730469 96.460938 176.9375 96.78125 176.632812 C 96.777344 176.628906 96.777344 176.609375 96.773438 176.574219 C 96.695312 176.109375 96.695312 176.109375 95.671875 175.9375 L 95.480469 175.90625 C 92.972656 175.476562 88.71875 174.589844 87.222656 174.277344 Z M 94.082031 184.539062 C 90.050781 184.539062 85.613281 177.828125 85.109375 177.042969 C 85 176.875 84.980469 176.667969 85.046875 176.480469 L 86.21875 173.320312 C 86.328125 173.023438 86.640625 172.851562 86.949219 172.917969 C 87.003906 172.929688 92.660156 174.128906 95.695312 174.648438 L 95.882812 174.679688 C 96.957031 174.863281 97.800781 175.003906 98.027344 176.367188 C 98.109375 176.855469 97.964844 177.285156 97.625 177.585938 C 97.121094 178.03125 96.179688 178.09375 95.214844 178.003906 L 98.171875 180.222656 C 98.304688 180.324219 98.394531 180.472656 98.417969 180.640625 C 98.425781 180.691406 98.59375 181.910156 97.742188 182.992188 C 97.050781 183.867188 95.929688 184.382812 94.40625 184.523438 C 94.296875 184.53125 94.191406 184.539062 94.082031 184.539062 " fill-opacity="1" fill-rule="nonzero"/><path fill="#ffffff" d="M 91.433594 180.824219 C 91.433594 180.824219 92.601562 182.160156 95.300781 183.734375 L 91.433594 180.824219 " fill-opacity="1" fill-rule="nonzero"/><path fill="#000000" d="M 95.300781 184.371094 C 95.191406 184.371094 95.082031 184.339844 94.980469 184.285156 C 92.222656 182.675781 91.003906 181.300781 90.953125 181.242188 C 90.722656 180.976562 90.75 180.574219 91.011719 180.34375 C 91.277344 180.113281 91.679688 180.140625 91.910156 180.40625 C 91.921875 180.417969 93.0625 181.691406 95.621094 183.183594 C 95.925781 183.359375 96.027344 183.75 95.851562 184.054688 C 95.734375 184.257812 95.519531 184.371094 95.300781 184.371094 " fill-opacity="1" fill-rule="nonzero"/><path fill="#ffffff" d="M 92.625 179.71875 C 92.625 179.71875 94.203125 181.164062 97.019531 182.847656 L 92.625 179.71875 " fill-opacity="1" fill-rule="nonzero"/><path fill="#000000" d="M 97.019531 183.484375 C 96.90625 183.484375 96.796875 183.453125 96.691406 183.390625 C 93.855469 181.699219 92.261719 180.246094 92.195312 180.1875 C 91.933594 179.949219 91.917969 179.546875 92.152344 179.289062 C 92.390625 179.03125 92.792969 179.011719 93.050781 179.25 C 93.066406 179.261719 94.628906 180.675781 97.347656 182.300781 C 97.648438 182.480469 97.746094 182.871094 97.566406 183.171875 C 97.449219 183.371094 97.234375 183.484375 97.019531 183.484375 " fill-opacity="1" fill-rule="nonzero"/><path fill="#745ff6" d="M 79.285156 152.476562 C 79.714844 151.101562 80.21875 149.84375 80.769531 148.6875 C 80.476562 148.453125 80.191406 148.210938 79.902344 147.972656 C 77.816406 146.222656 75.746094 144.480469 73.578125 142.828125 C 71.394531 141.167969 69.191406 139.527344 66.976562 137.902344 C 63.1875 142.191406 60.015625 146.761719 59.417969 150.527344 C 56.691406 167.714844 86.398438 177.359375 86.398438 177.359375 L 87.875 172.742188 C 87.875 172.742188 76.210938 162.347656 79.285156 152.476562 " fill-opacity="1" fill-rule="nonzero"/><path fill="#ffffff" d="M 312.832031 137.148438 C 312.832031 128.273438 320.03125 121.078125 328.902344 121.078125 C 337.78125 121.078125 344.976562 128.273438 344.976562 137.148438 C 344.976562 146.023438 337.78125 153.214844 328.902344 153.214844 C 320.03125 153.214844 312.832031 146.023438 312.832031 137.148438 " fill-opacity="1" fill-rule="nonzero"/><path fill="#000000" d="M 328.90625 121.714844 C 320.394531 121.714844 313.472656 128.636719 313.472656 137.148438 C 313.472656 145.65625 320.394531 152.578125 328.90625 152.578125 C 337.414062 152.578125 344.339844 145.65625 344.339844 137.148438 C 344.339844 128.636719 337.414062 121.714844 328.90625 121.714844 Z M 328.90625 153.855469 C 319.691406 153.855469 312.199219 146.359375 312.199219 137.148438 C 312.199219 127.9375 319.691406 120.441406 328.90625 120.441406 C 338.117188 120.441406 345.613281 127.9375 345.613281 137.148438 C 345.613281 146.359375 338.117188 153.855469 328.90625 153.855469 " fill-opacity="1" fill-rule="nonzero"/><path fill="#745ff6" d="M 333.238281 138.753906 C 332.339844 138.75 331.542969 139.1875 331.03125 139.851562 L 325.605469 137.742188 C 325.609375 137.667969 325.625 137.601562 325.625 137.527344 C 325.625 137.394531 325.605469 137.261719 325.589844 137.128906 L 331.148438 134.558594 C 331.660156 135.144531 332.40625 135.523438 333.238281 135.523438 C 334.789062 135.527344 336.046875 134.261719 336.046875 132.703125 C 336.046875 131.148438 334.789062 129.875 333.242188 129.875 C 331.695312 129.871094 330.4375 131.136719 330.4375 132.695312 C 330.4375 132.832031 330.457031 132.957031 330.476562 133.089844 L 324.917969 135.664062 C 324.402344 135.078125 323.65625 134.699219 322.824219 134.699219 C 321.273438 134.695312 320.015625 135.960938 320.015625 137.515625 C 320.015625 139.074219 321.273438 140.34375 322.820312 140.347656 C 323.71875 140.347656 324.515625 139.914062 325.03125 139.246094 L 330.457031 141.359375 C 330.449219 141.429688 330.4375 141.5 330.4375 141.570312 C 330.4375 143.128906 331.691406 144.398438 333.238281 144.402344 C 334.785156 144.402344 336.046875 143.136719 336.046875 141.582031 C 336.046875 140.023438 334.785156 138.753906 333.238281 138.753906 " fill-opacity="1" fill-rule="nonzero"/><path fill="#ffffff" d="M 304.253906 197.886719 C 307.6875 191.863281 315.355469 189.761719 321.378906 193.195312 C 327.402344 196.628906 329.503906 204.292969 326.074219 210.316406 C 322.636719 216.339844 314.972656 218.441406 308.945312 215.007812 C 302.921875 211.574219 300.824219 203.910156 304.253906 197.886719 " fill-opacity="1" fill-rule="nonzero"/><path fill="#000000" d="M 304.8125 198.199219 C 303.234375 200.964844 302.832031 204.179688 303.671875 207.25 C 304.511719 210.320312 306.496094 212.878906 309.261719 214.453125 C 314.972656 217.707031 322.265625 215.710938 325.519531 210 C 327.097656 207.234375 327.5 204.023438 326.660156 200.953125 C 325.820312 197.882812 323.832031 195.324219 321.066406 193.746094 C 318.300781 192.167969 315.085938 191.765625 312.019531 192.605469 C 308.945312 193.449219 306.386719 195.433594 304.8125 198.199219 Z M 315.144531 217.289062 C 312.929688 217.289062 310.691406 216.734375 308.632812 215.558594 C 302.3125 211.960938 300.105469 203.890625 303.703125 197.570312 C 305.449219 194.507812 308.28125 192.308594 311.679688 191.378906 C 315.078125 190.449219 318.632812 190.894531 321.695312 192.640625 C 328.015625 196.242188 330.226562 204.3125 326.625 210.632812 C 324.195312 214.894531 319.730469 217.289062 315.144531 217.289062 " fill-opacity="1" fill-rule="nonzero"/><path fill="#745ff6" d="M 312.097656 209.625 C 311.949219 209.628906 311.8125 209.554688 311.738281 209.429688 C 311.082031 208.34375 308.15625 203.117188 310.332031 199.703125 C 312.632812 196.09375 316.296875 199.035156 316.25 201.429688 C 316.246094 201.519531 316.300781 201.605469 316.378906 201.644531 C 316.460938 201.683594 316.558594 201.675781 316.628906 201.621094 C 317.785156 200.722656 319.847656 200.773438 321.015625 202.175781 C 322.40625 203.851562 321.703125 209.269531 312.097656 209.625 " fill-opacity="1" fill-rule="nonzero"/><path fill="#ffffff" d="M 260.125 101.84375 C 261.578125 93.890625 269.207031 88.585938 277.167969 89.988281 C 285.128906 91.394531 290.40625 98.976562 288.957031 106.929688 C 287.507812 114.882812 279.878906 120.191406 271.917969 118.785156 C 263.957031 117.382812 258.675781 109.796875 260.125 101.84375 " fill-opacity="1" fill-rule="nonzero"/><path fill="#000000" d="M 274.613281 90.402344 C 267.941406 90.402344 261.988281 95.183594 260.75 101.960938 C 260.082031 105.636719 260.882812 109.347656 263.011719 112.40625 C 265.144531 115.464844 268.34375 117.511719 272.027344 118.15625 C 272.847656 118.304688 273.667969 118.375 274.472656 118.375 C 281.144531 118.375 287.09375 113.59375 288.332031 106.816406 C 289 103.140625 288.195312 99.429688 286.070312 96.367188 C 283.941406 93.308594 280.738281 91.265625 277.058594 90.617188 C 276.238281 90.472656 275.417969 90.402344 274.613281 90.402344 Z M 274.472656 119.644531 C 273.59375 119.644531 272.703125 119.570312 271.808594 119.414062 C 267.789062 118.703125 264.292969 116.476562 261.96875 113.132812 C 259.644531 109.792969 258.769531 105.746094 259.5 101.730469 C 261.011719 93.449219 268.984375 87.898438 277.277344 89.363281 C 281.296875 90.070312 284.789062 92.300781 287.113281 95.640625 C 289.4375 98.980469 290.316406 103.03125 289.582031 107.042969 C 288.234375 114.433594 281.742188 119.644531 274.472656 119.644531 " fill-opacity="1" fill-rule="nonzero"/><path fill="#745ff6" d="M 283.457031 98.753906 L 278.367188 100.628906 C 278.105469 100.722656 278.035156 101.0625 278.242188 101.253906 L 278.839844 101.816406 C 278.992188 101.957031 279 102.195312 278.859375 102.347656 L 276.125 105.289062 C 275.984375 105.441406 275.746094 105.449219 275.59375 105.308594 L 272.09375 102.054688 C 271.941406 101.914062 271.703125 101.921875 271.5625 102.074219 L 265.464844 108.589844 C 265.324219 108.742188 265.332031 108.980469 265.484375 109.125 L 266.761719 110.3125 C 266.914062 110.453125 267.152344 110.445312 267.296875 110.292969 L 271.691406 105.605469 C 271.835938 105.453125 272.070312 105.445312 272.222656 105.585938 L 275.71875 108.839844 C 275.875 108.980469 276.113281 108.972656 276.253906 108.824219 L 280.6875 104.054688 C 280.828125 103.902344 281.066406 103.894531 281.21875 104.039062 L 281.867188 104.640625 C 282.074219 104.832031 282.414062 104.738281 282.488281 104.46875 L 283.949219 99.210938 C 284.03125 98.914062 283.746094 98.648438 283.457031 98.753906 " fill-opacity="1" fill-rule="nonzero"/><path fill="#5236ff" d="M 56.09375 332.863281 C 47.039062 335.34375 37.691406 330.011719 35.210938 320.949219 C 32.730469 311.890625 38.0625 302.535156 47.117188 300.050781 C 56.171875 297.570312 65.519531 302.90625 68 311.96875 C 70.480469 321.027344 65.148438 330.382812 56.09375 332.863281 Z M 85.421875 310.617188 L 83.679688 304.246094 L 76.476562 304.574219 C 75.808594 303.167969 75.035156 301.839844 74.160156 300.59375 L 77.972656 294.480469 L 73.28125 289.835938 L 67.203125 293.722656 C 65.9375 292.851562 64.601562 292.09375 63.210938 291.445312 L 63.460938 284.230469 L 57.074219 282.554688 L 53.757812 288.953125 C 52.242188 288.835938 50.703125 288.847656 49.15625 288.988281 L 45.769531 282.617188 L 39.398438 284.363281 L 39.726562 291.574219 C 38.324219 292.242188 36.996094 293.011719 35.753906 293.890625 L 29.640625 290.070312 L 24.996094 294.769531 L 28.886719 300.851562 C 28.015625 302.117188 27.253906 303.453125 26.609375 304.84375 L 19.398438 304.597656 L 17.726562 310.988281 L 24.121094 314.304688 C 24 315.820312 24.015625 317.359375 24.152344 318.910156 L 17.789062 322.300781 L 19.53125 328.671875 L 26.734375 328.34375 C 27.402344 329.746094 28.175781 331.078125 29.050781 332.324219 L 25.234375 338.4375 L 29.929688 343.082031 L 36.007812 339.195312 C 37.273438 340.0625 38.609375 340.824219 40 341.472656 L 39.75 348.683594 L 46.136719 350.359375 L 49.453125 343.960938 C 50.96875 344.082031 52.507812 344.066406 54.054688 343.929688 L 57.441406 350.296875 L 63.8125 348.554688 L 63.484375 341.34375 C 64.886719 340.675781 66.214844 339.902344 67.460938 339.027344 L 73.570312 342.84375 L 78.210938 338.148438 L 74.328125 332.066406 C 75.195312 330.800781 75.953125 329.464844 76.601562 328.070312 L 83.8125 328.320312 L 85.484375 321.929688 L 79.089844 318.609375 C 79.207031 317.097656 79.195312 315.554688 79.058594 314.007812 L 85.421875 310.617188 " fill-opacity="1" fill-rule="nonzero"/><path fill="#5236ff" d="M 118.804688 291.160156 C 118.480469 291.160156 118.203125 290.910156 118.171875 290.582031 C 118.140625 290.230469 118.398438 289.921875 118.75 289.890625 C 120.417969 289.738281 122.15625 289.675781 123.898438 289.691406 C 124.25 289.695312 124.53125 289.984375 124.527344 290.339844 C 124.523438 290.6875 124.230469 290.964844 123.882812 290.964844 C 122.183594 290.945312 120.492188 291.011719 118.863281 291.160156 C 118.84375 291.160156 118.824219 291.160156 118.804688 291.160156 Z M 134.003906 291.992188 C 133.964844 291.992188 133.925781 291.988281 133.886719 291.980469 C 132.207031 291.671875 130.527344 291.429688 128.902344 291.261719 C 128.550781 291.222656 128.296875 290.910156 128.335938 290.5625 C 128.371094 290.210938 128.6875 289.960938 129.03125 289.996094 C 130.691406 290.164062 132.402344 290.414062 134.117188 290.730469 C 134.464844 290.792969 134.691406 291.125 134.628906 291.46875 C 134.570312 291.777344 134.304688 291.992188 134.003906 291.992188 Z M 355.144531 292.179688 C 354.820312 292.179688 354.542969 291.9375 354.511719 291.605469 C 354.351562 289.984375 354.128906 288.300781 353.851562 286.597656 C 353.796875 286.25 354.035156 285.921875 354.378906 285.867188 C 354.726562 285.808594 355.054688 286.046875 355.109375 286.394531 C 355.390625 288.125 355.613281 289.832031 355.777344 291.480469 C 355.8125 291.832031 355.558594 292.140625 355.207031 292.175781 C 355.1875 292.179688 355.164062 292.179688 355.144531 292.179688 Z M 108.867188 293.261719 C 108.605469 293.261719 108.355469 293.09375 108.265625 292.832031 C 108.152344 292.5 108.328125 292.140625 108.660156 292.023438 C 110.265625 291.46875 111.941406 291.007812 113.644531 290.648438 C 113.988281 290.578125 114.324219 290.796875 114.394531 291.144531 C 114.46875 291.488281 114.246094 291.824219 113.902344 291.894531 C 112.253906 292.242188 110.628906 292.6875 109.078125 293.226562 C 109.007812 293.25 108.9375 293.261719 108.867188 293.261719 Z M 143.859375 294.519531 C 143.792969 294.519531 143.726562 294.507812 143.660156 294.488281 C 142.03125 293.957031 140.402344 293.480469 138.8125 293.070312 C 138.472656 292.984375 138.265625 292.636719 138.355469 292.296875 C 138.441406 291.957031 138.789062 291.75 139.128906 291.839844 C 140.742188 292.257812 142.398438 292.738281 144.054688 293.277344 C 144.386719 293.382812 144.570312 293.746094 144.464844 294.078125 C 144.378906 294.347656 144.125 294.519531 143.859375 294.519531 Z M 99.800781 297.832031 C 99.597656 297.832031 99.398438 297.734375 99.273438 297.554688 C 99.078125 297.265625 99.148438 296.867188 99.441406 296.667969 C 100.863281 295.691406 102.359375 294.808594 103.894531 294.035156 C 104.207031 293.878906 104.589844 294.003906 104.75 294.316406 C 104.90625 294.632812 104.78125 295.015625 104.464844 295.171875 C 102.984375 295.917969 101.535156 296.773438 100.160156 297.71875 C 100.050781 297.796875 99.925781 297.832031 99.800781 297.832031 Z M 153.355469 298.199219 C 153.265625 298.199219 153.179688 298.179688 153.097656 298.140625 C 151.539062 297.445312 149.96875 296.785156 148.425781 296.1875 C 148.097656 296.058594 147.933594 295.691406 148.058594 295.363281 C 148.1875 295.035156 148.554688 294.871094 148.886719 295 C 150.449219 295.609375 152.039062 296.273438 153.617188 296.980469 C 153.9375 297.125 154.078125 297.5 153.9375 297.820312 C 153.828125 298.058594 153.597656 298.199219 153.355469 298.199219 Z M 355.417969 302.347656 C 355.40625 302.347656 355.394531 302.347656 355.382812 302.347656 C 355.035156 302.328125 354.761719 302.027344 354.78125 301.675781 C 354.839844 300.636719 354.871094 299.5625 354.871094 298.480469 C 354.871094 297.871094 354.859375 297.257812 354.839844 296.640625 C 354.832031 296.292969 355.105469 295.996094 355.460938 295.988281 C 355.816406 295.96875 356.105469 296.253906 356.113281 296.605469 C 356.132812 297.234375 356.140625 297.859375 356.140625 298.480469 C 356.140625 299.585938 356.113281 300.683594 356.050781 301.746094 C 356.035156 302.085938 355.753906 302.347656 355.417969 302.347656 Z M 162.445312 302.796875 C 162.339844 302.796875 162.234375 302.769531 162.132812 302.714844 C 160.664062 301.886719 159.164062 301.082031 157.667969 300.324219 C 157.351562 300.164062 157.226562 299.78125 157.386719 299.46875 C 157.546875 299.15625 157.929688 299.03125 158.242188 299.1875 C 159.753906 299.953125 161.273438 300.769531 162.757812 301.605469 C 163.0625 301.78125 163.171875 302.167969 163 302.472656 C 162.882812 302.679688 162.667969 302.796875 162.445312 302.796875 Z M 171.089844 308.179688 C 170.964844 308.179688 170.839844 308.144531 170.730469 308.070312 C 169.351562 307.125 167.925781 306.191406 166.488281 305.296875 C 166.191406 305.113281 166.101562 304.71875 166.285156 304.421875 C 166.472656 304.121094 166.863281 304.03125 167.164062 304.21875 C 168.613281 305.121094 170.054688 306.066406 171.449219 307.019531 C 171.742188 307.21875 171.8125 307.613281 171.617188 307.90625 C 171.492188 308.085938 171.292969 308.179688 171.089844 308.179688 Z M 353.867188 312.390625 C 353.816406 312.390625 353.757812 312.386719 353.703125 312.371094 C 353.367188 312.28125 353.160156 311.933594 353.25 311.59375 C 353.671875 310.007812 354.011719 308.351562 354.269531 306.679688 C 354.324219 306.332031 354.648438 306.09375 354.996094 306.144531 C 355.34375 306.199219 355.582031 306.523438 355.53125 306.871094 C 355.265625 308.589844 354.917969 310.289062 354.484375 311.917969 C 354.40625 312.203125 354.148438 312.390625 353.867188 312.390625 Z M 179.207031 314.332031 C 179.0625 314.332031 178.914062 314.28125 178.796875 314.183594 C 177.671875 313.234375 176.566406 312.34375 175.507812 311.535156 C 175.289062 311.367188 175.066406 311.195312 174.84375 311.027344 C 174.5625 310.816406 174.503906 310.417969 174.71875 310.136719 C 174.929688 309.855469 175.328125 309.796875 175.609375 310.011719 C 175.835938 310.179688 176.0625 310.351562 176.28125 310.523438 C 177.355469 311.34375 178.476562 312.25 179.617188 313.207031 C 179.886719 313.4375 179.921875 313.835938 179.691406 314.105469 C 179.566406 314.253906 179.386719 314.332031 179.207031 314.332031 Z M 267.886719 314.816406 C 267.816406 314.816406 267.742188 314.804688 267.671875 314.777344 C 266.101562 314.207031 264.511719 314.023438 262.96875 314.230469 C 262.621094 314.28125 262.300781 314.03125 262.253906 313.6875 C 262.207031 313.335938 262.449219 313.015625 262.796875 312.96875 C 264.546875 312.734375 266.339844 312.941406 268.105469 313.582031 C 268.433594 313.703125 268.605469 314.066406 268.484375 314.394531 C 268.390625 314.65625 268.148438 314.816406 267.886719 314.816406 Z M 255.132812 320.140625 C 255.042969 320.140625 254.949219 320.121094 254.863281 320.078125 C 254.542969 319.929688 254.40625 319.550781 254.558594 319.230469 C 255.382812 317.5 256.488281 316.085938 257.847656 315.027344 C 258.125 314.808594 258.523438 314.859375 258.742188 315.136719 C 258.957031 315.414062 258.90625 315.8125 258.628906 316.027344 C 257.429688 316.96875 256.445312 318.226562 255.707031 319.777344 C 255.601562 320.007812 255.371094 320.140625 255.132812 320.140625 Z M 275.769531 321.058594 C 275.574219 321.058594 275.386719 320.972656 275.261719 320.808594 C 274.210938 319.429688 273.0625 318.226562 271.855469 317.234375 C 271.582031 317.011719 271.542969 316.609375 271.769531 316.339844 C 271.992188 316.066406 272.390625 316.027344 272.664062 316.25 C 273.949219 317.304688 275.160156 318.582031 276.273438 320.035156 C 276.484375 320.316406 276.433594 320.714844 276.15625 320.929688 C 276.039062 321.015625 275.902344 321.058594 275.769531 321.058594 Z M 186.742188 321.1875 C 186.582031 321.1875 186.425781 321.128906 186.300781 321.007812 C 184.976562 319.730469 183.765625 318.59375 182.601562 317.53125 C 182.34375 317.292969 182.324219 316.890625 182.558594 316.632812 C 182.796875 316.371094 183.199219 316.351562 183.460938 316.59375 C 184.632812 317.660156 185.851562 318.804688 187.183594 320.09375 C 187.4375 320.335938 187.445312 320.738281 187.199219 320.992188 C 187.074219 321.121094 186.910156 321.1875 186.742188 321.1875 Z M 350.167969 321.855469 C 350.066406 321.855469 349.964844 321.828125 349.867188 321.777344 C 349.558594 321.613281 349.441406 321.230469 349.605469 320.917969 C 350.386719 319.441406 351.09375 317.90625 351.695312 316.359375 C 351.824219 316.03125 352.195312 315.871094 352.523438 316 C 352.847656 316.128906 353.011719 316.496094 352.882812 316.824219 C 352.261719 318.414062 351.535156 319.992188 350.730469 321.515625 C 350.617188 321.730469 350.394531 321.855469 350.167969 321.855469 Z M 193.976562 328.367188 C 193.8125 328.367188 193.648438 328.300781 193.523438 328.175781 C 192.324219 326.960938 191.125 325.757812 189.929688 324.570312 C 189.679688 324.320312 189.679688 323.917969 189.929688 323.667969 C 190.175781 323.417969 190.578125 323.417969 190.828125 323.667969 C 192.023438 324.859375 193.222656 326.066406 194.429688 327.28125 C 194.675781 327.53125 194.671875 327.933594 194.425781 328.179688 C 194.300781 328.304688 194.136719 328.367188 193.976562 328.367188 Z M 253.898438 330.101562 C 253.59375 330.101562 253.324219 329.878906 253.273438 329.570312 C 253.105469 328.554688 253.019531 327.515625 253.019531 326.476562 C 253.019531 325.75 253.0625 325.023438 253.144531 324.316406 C 253.183594 323.964844 253.5 323.714844 253.851562 323.753906 C 254.199219 323.796875 254.449219 324.113281 254.40625 324.460938 C 254.332031 325.121094 254.292969 325.800781 254.292969 326.476562 C 254.292969 327.445312 254.371094 328.414062 254.527344 329.359375 C 254.585938 329.707031 254.351562 330.035156 254.003906 330.09375 C 253.96875 330.097656 253.933594 330.101562 253.898438 330.101562 Z M 280.1875 330.160156 C 279.902344 330.160156 279.640625 329.964844 279.570312 329.671875 C 279.21875 328.183594 278.632812 326.578125 277.871094 325.03125 C 277.71875 324.714844 277.847656 324.332031 278.164062 324.175781 C 278.480469 324.023438 278.859375 324.152344 279.015625 324.46875 C 279.828125 326.125 280.429688 327.777344 280.808594 329.378906 C 280.886719 329.722656 280.675781 330.0625 280.335938 330.144531 C 280.285156 330.15625 280.238281 330.160156 280.1875 330.160156 Z M 344.464844 330.269531 C 344.324219 330.269531 344.179688 330.21875 344.0625 330.117188 C 343.789062 329.890625 343.753906 329.492188 343.980469 329.222656 C 345.070312 327.914062 346.09375 326.566406 347.011719 325.214844 C 347.207031 324.921875 347.605469 324.847656 347.894531 325.046875 C 348.183594 325.246094 348.261719 325.640625 348.066406 325.929688 C 347.121094 327.316406 346.078125 328.699219 344.957031 330.039062 C 344.832031 330.1875 344.648438 330.269531 344.464844 330.269531 Z M 201.164062 335.582031 C 201.003906 335.582031 200.84375 335.523438 200.71875 335.398438 C 199.507812 334.203125 198.304688 332.996094 197.109375 331.792969 C 196.859375 331.542969 196.863281 331.140625 197.113281 330.894531 C 197.359375 330.648438 197.765625 330.648438 198.011719 330.898438 C 199.207031 332.097656 200.40625 333.300781 201.613281 334.496094 C 201.859375 334.742188 201.867188 335.144531 201.617188 335.394531 C 201.496094 335.519531 201.328125 335.582031 201.164062 335.582031 Z M 337.304688 337.484375 C 337.125 337.484375 336.949219 337.410156 336.820312 337.261719 C 336.589844 336.996094 336.621094 336.59375 336.886719 336.367188 C 338.1875 335.242188 339.433594 334.089844 340.582031 332.933594 C 340.828125 332.6875 341.234375 332.6875 341.484375 332.933594 C 341.730469 333.179688 341.730469 333.585938 341.484375 333.832031 C 340.308594 335.011719 339.042969 336.1875 337.71875 337.328125 C 337.597656 337.433594 337.449219 337.484375 337.304688 337.484375 Z M 258.347656 339.109375 C 258.171875 339.109375 257.992188 339.035156 257.867188 338.890625 C 256.679688 337.53125 255.6875 336.078125 254.921875 334.570312 C 254.757812 334.257812 254.882812 333.875 255.195312 333.714844 C 255.507812 333.558594 255.894531 333.679688 256.054688 333.992188 C 256.773438 335.40625 257.707031 336.773438 258.828125 338.050781 C 259.058594 338.316406 259.03125 338.722656 258.765625 338.953125 C 258.648438 339.058594 258.496094 339.109375 258.347656 339.109375 Z M 280.179688 340.265625 C 280.132812 340.265625 280.085938 340.257812 280.039062 340.25 C 279.695312 340.171875 279.480469 339.832031 279.558594 339.488281 C 279.910156 337.914062 280.085938 336.265625 280.085938 334.59375 C 280.085938 334.242188 280.371094 333.949219 280.722656 333.949219 C 281.074219 333.949219 281.359375 334.226562 281.359375 334.578125 C 281.359375 336.359375 281.171875 338.097656 280.800781 339.765625 C 280.734375 340.0625 280.46875 340.265625 280.179688 340.265625 Z M 208.542969 342.617188 C 208.390625 342.617188 208.238281 342.5625 208.117188 342.449219 C 206.90625 341.351562 205.683594 340.210938 204.378906 338.960938 C 204.121094 338.71875 204.113281 338.316406 204.355469 338.0625 C 204.597656 337.804688 205.003906 337.796875 205.257812 338.039062 C 206.554688 339.28125 207.773438 340.417969 208.972656 341.507812 C 209.230469 341.746094 209.253906 342.148438 209.015625 342.40625 C 208.890625 342.546875 208.71875 342.617188 208.542969 342.617188 Z M 329.273438 343.738281 C 329.074219 343.738281 328.875 343.640625 328.753906 343.460938 C 328.550781 343.175781 328.621094 342.777344 328.914062 342.578125 C 330.226562 341.667969 331.597656 340.65625 332.976562 339.574219 C 333.253906 339.359375 333.652344 339.40625 333.871094 339.683594 C 334.085938 339.960938 334.039062 340.359375 333.761719 340.578125 C 332.359375 341.675781 330.972656 342.699219 329.636719 343.625 C 329.523438 343.699219 329.398438 343.738281 329.273438 343.738281 Z M 266.308594 345.382812 C 266.199219 345.382812 266.097656 345.359375 265.992188 345.300781 C 264.425781 344.414062 262.972656 343.453125 261.675781 342.445312 C 261.394531 342.230469 261.34375 341.828125 261.558594 341.550781 C 261.777344 341.273438 262.175781 341.222656 262.453125 341.441406 C 263.703125 342.410156 265.105469 343.335938 266.625 344.195312 C 266.929688 344.367188 267.035156 344.757812 266.863281 345.0625 C 266.746094 345.269531 266.527344 345.382812 266.308594 345.382812 Z M 320.476562 348.832031 C 320.238281 348.832031 320.003906 348.695312 319.898438 348.464844 C 319.75 348.144531 319.890625 347.765625 320.210938 347.617188 C 321.679688 346.941406 323.179688 346.15625 324.664062 345.289062 C 324.96875 345.113281 325.355469 345.214844 325.535156 345.519531 C 325.710938 345.820312 325.609375 346.210938 325.308594 346.390625 C 323.785156 347.277344 322.25 348.082031 320.742188 348.773438 C 320.65625 348.816406 320.566406 348.832031 320.476562 348.832031 Z M 216.324219 349.1875 C 216.1875 349.1875 216.050781 349.144531 215.933594 349.054688 C 214.648438 348.058594 213.308594 346.972656 211.957031 345.828125 C 211.6875 345.601562 211.65625 345.195312 211.886719 344.929688 C 212.113281 344.664062 212.515625 344.628906 212.78125 344.855469 C 214.117188 345.988281 215.441406 347.0625 216.714844 348.046875 C 216.992188 348.261719 217.042969 348.664062 216.828125 348.941406 C 216.703125 349.101562 216.515625 349.1875 216.324219 349.1875 Z M 275.644531 349.425781 C 275.578125 349.425781 275.511719 349.414062 275.445312 349.394531 C 273.765625 348.84375 272.144531 348.230469 270.625 347.582031 C 270.304688 347.445312 270.152344 347.070312 270.289062 346.746094 C 270.429688 346.425781 270.804688 346.273438 271.125 346.414062 C 272.515625 347.003906 273.988281 347.566406 275.519531 348.078125 C 276.472656 346.832031 277.28125 345.511719 277.9375 344.148438 C 278.09375 343.832031 278.472656 343.699219 278.789062 343.851562 C 279.105469 344.003906 279.238281 344.382812 279.085938 344.699219 C 278.34375 346.242188 277.414062 347.730469 276.320312 349.121094 C 276.21875 349.25 276.082031 349.328125 275.933594 349.355469 C 275.847656 349.402344 275.746094 349.425781 275.644531 349.425781 Z M 285.527344 351.875 C 285.492188 351.875 285.457031 351.875 285.417969 351.871094 C 283.722656 351.570312 282.03125 351.210938 280.390625 350.808594 C 280.050781 350.722656 279.839844 350.378906 279.925781 350.035156 C 280.007812 349.695312 280.359375 349.488281 280.695312 349.574219 C 282.308594 349.972656 283.972656 350.320312 285.636719 350.613281 C 285.984375 350.675781 286.214844 351.003906 286.15625 351.351562 C 286.101562 351.660156 285.832031 351.875 285.527344 351.875 Z M 310.839844 352.046875 C 310.546875 352.046875 310.28125 351.84375 310.21875 351.542969 C 310.144531 351.199219 310.367188 350.863281 310.707031 350.789062 C 312.34375 350.441406 313.972656 350 315.546875 349.472656 C 315.882812 349.359375 316.242188 349.542969 316.351562 349.875 C 316.464844 350.207031 316.285156 350.566406 315.949219 350.679688 C 314.328125 351.21875 312.65625 351.675781 310.976562 352.035156 C 310.929688 352.042969 310.882812 352.046875 310.839844 352.046875 Z M 295.644531 353.019531 C 295.632812 353.019531 295.625 353.019531 295.609375 353.019531 C 293.988281 352.929688 292.273438 352.78125 290.5 352.585938 C 290.152344 352.546875 289.898438 352.234375 289.9375 351.882812 C 289.976562 351.53125 290.300781 351.285156 290.640625 351.320312 C 292.390625 351.511719 294.085938 351.65625 295.683594 351.746094 C 296.035156 351.765625 296.300781 352.066406 296.28125 352.417969 C 296.261719 352.757812 295.980469 353.019531 295.644531 353.019531 Z M 300.734375 353.128906 C 300.390625 353.128906 300.105469 352.851562 300.097656 352.503906 C 300.09375 352.152344 300.375 351.863281 300.726562 351.859375 C 302.453125 351.832031 304.144531 351.734375 305.75 351.566406 C 306.097656 351.53125 306.410156 351.785156 306.449219 352.132812 C 306.484375 352.484375 306.230469 352.796875 305.882812 352.835938 C 304.238281 353.003906 302.511719 353.105469 300.742188 353.128906 C 300.742188 353.128906 300.738281 353.128906 300.734375 353.128906 Z M 224.726562 354.933594 C 224.617188 354.933594 224.503906 354.902344 224.40625 354.84375 C 222.988281 354.011719 221.535156 353.082031 220.074219 352.082031 C 219.785156 351.882812 219.714844 351.488281 219.910156 351.199219 C 220.109375 350.90625 220.507812 350.832031 220.796875 351.03125 C 222.230469 352.015625 223.660156 352.929688 225.050781 353.746094 C 225.351562 353.925781 225.457031 354.316406 225.273438 354.617188 C 225.15625 354.820312 224.945312 354.933594 224.726562 354.933594 Z M 268.203125 356.050781 C 267.992188 356.050781 267.78125 355.945312 267.664062 355.746094 C 267.476562 355.449219 267.570312 355.054688 267.871094 354.871094 C 269.316406 353.976562 270.667969 352.984375 271.890625 351.925781 C 272.152344 351.691406 272.554688 351.722656 272.785156 351.988281 C 273.019531 352.253906 272.988281 352.65625 272.722656 352.886719 C 271.453125 353.992188 270.042969 355.023438 268.539062 355.953125 C 268.433594 356.019531 268.316406 356.050781 268.203125 356.050781 Z M 233.90625 359.292969 C 233.835938 359.292969 233.765625 359.28125 233.691406 359.253906 C 232.121094 358.691406 230.523438 358.019531 228.941406 357.265625 C 228.625 357.113281 228.492188 356.734375 228.640625 356.417969 C 228.796875 356.097656 229.171875 355.96875 229.492188 356.117188 C 231.03125 356.855469 232.59375 357.507812 234.125 358.058594 C 234.453125 358.175781 234.625 358.542969 234.507812 358.871094 C 234.414062 359.132812 234.171875 359.292969 233.90625 359.292969 Z M 258.90625 360.140625 C 258.628906 360.140625 258.375 359.957031 258.292969 359.679688 C 258.199219 359.34375 258.390625 358.988281 258.726562 358.890625 C 260.347656 358.417969 261.929688 357.847656 263.4375 357.1875 C 263.757812 357.042969 264.136719 357.191406 264.277344 357.515625 C 264.417969 357.839844 264.269531 358.214844 263.945312 358.355469 C 262.390625 359.035156 260.753906 359.625 259.085938 360.113281 C 259.023438 360.132812 258.964844 360.140625 258.90625 360.140625 Z M 243.796875 361.570312 C 243.773438 361.570312 243.753906 361.566406 243.730469 361.566406 C 242.042969 361.394531 240.328125 361.109375 238.640625 360.71875 C 238.296875 360.636719 238.082031 360.296875 238.164062 359.953125 C 238.242188 359.613281 238.582031 359.398438 238.925781 359.480469 C 240.5625 359.859375 242.222656 360.136719 243.859375 360.300781 C 244.207031 360.335938 244.464844 360.648438 244.429688 360.996094 C 244.394531 361.324219 244.121094 361.570312 243.796875 361.570312 Z M 248.878906 361.746094 C 248.535156 361.746094 248.25 361.472656 248.242188 361.128906 C 248.230469 360.777344 248.503906 360.484375 248.855469 360.472656 C 250.503906 360.421875 252.179688 360.257812 253.839844 359.992188 C 254.183594 359.929688 254.511719 360.171875 254.566406 360.519531 C 254.625 360.863281 254.390625 361.191406 254.042969 361.25 C 252.328125 361.523438 250.597656 361.691406 248.894531 361.746094 C 248.890625 361.746094 248.882812 361.746094 248.878906 361.746094 " fill-opacity="1" fill-rule="nonzero"/><path fill="#000000" d="M 337.820312 98.1875 C 337.554688 98.1875 337.308594 98.023438 337.214844 97.761719 C 335.316406 92.410156 333.003906 87.132812 330.339844 82.082031 C 320.414062 63.257812 305.492188 47.371094 287.1875 36.140625 C 286.890625 35.957031 286.796875 35.566406 286.976562 35.265625 C 287.164062 34.96875 287.554688 34.871094 287.855469 35.058594 C 306.351562 46.40625 321.433594 62.460938 331.464844 81.488281 C 334.15625 86.59375 336.496094 91.925781 338.417969 97.335938 C 338.535156 97.667969 338.359375 98.035156 338.03125 98.148438 C 337.960938 98.175781 337.890625 98.1875 337.820312 98.1875 " fill-opacity="1" fill-rule="nonzero"/><path fill="#000000" d="M 348.183594 102.785156 C 347.921875 102.785156 347.675781 102.621094 347.585938 102.359375 C 345.21875 95.699219 342.335938 89.128906 339.023438 82.839844 C 326.664062 59.40625 308.089844 39.628906 285.308594 25.652344 C 285.007812 25.464844 284.914062 25.074219 285.097656 24.773438 C 285.28125 24.476562 285.671875 24.382812 285.972656 24.566406 C 308.949219 38.664062 327.683594 58.609375 340.148438 82.246094 C 343.496094 88.589844 346.398438 95.214844 348.78125 101.933594 C 348.902344 102.265625 348.726562 102.628906 348.398438 102.746094 C 348.328125 102.769531 348.253906 102.785156 348.183594 102.785156 " fill-opacity="1" fill-rule="nonzero"/><path fill="#000000" d="M 61.195312 83.019531 C 61.035156 83.019531 60.878906 82.957031 60.753906 82.84375 C 60.5 82.597656 60.492188 82.195312 60.734375 81.941406 L 62.296875 80.3125 C 62.539062 80.058594 62.941406 80.050781 63.195312 80.292969 C 63.449219 80.535156 63.457031 80.9375 63.214844 81.195312 L 61.652344 82.824219 C 61.527344 82.953125 61.363281 83.019531 61.195312 83.019531 " fill-opacity="1" fill-rule="nonzero"/><path fill="#000000" d="M 55.730469 88.722656 C 55.570312 88.722656 55.410156 88.664062 55.289062 88.546875 C 55.035156 88.304688 55.027344 87.902344 55.269531 87.648438 L 56.832031 86.015625 C 57.074219 85.761719 57.476562 85.753906 57.730469 85.996094 C 57.984375 86.242188 57.992188 86.644531 57.75 86.898438 L 56.1875 88.527344 C 56.0625 88.660156 55.894531 88.722656 55.730469 88.722656 " fill-opacity="1" fill-rule="nonzero"/><path fill="#000000" d="M 57.261719 83.105469 C 57.101562 83.105469 56.9375 83.042969 56.816406 82.925781 L 55.230469 81.363281 C 54.980469 81.117188 54.976562 80.714844 55.222656 80.464844 C 55.46875 80.210938 55.871094 80.210938 56.121094 80.457031 L 57.707031 82.015625 C 57.957031 82.261719 57.960938 82.667969 57.714844 82.914062 C 57.589844 83.042969 57.425781 83.105469 57.261719 83.105469 " fill-opacity="1" fill-rule="nonzero"/><path fill="#000000" d="M 62.808594 88.566406 C 62.648438 88.566406 62.484375 88.503906 62.363281 88.386719 L 60.777344 86.824219 C 60.527344 86.578125 60.523438 86.175781 60.769531 85.925781 C 61.015625 85.671875 61.421875 85.671875 61.667969 85.914062 L 63.253906 87.476562 C 63.503906 87.722656 63.507812 88.128906 63.261719 88.375 C 63.136719 88.503906 62.972656 88.566406 62.808594 88.566406 " fill-opacity="1" fill-rule="nonzero"/><path fill="#000000" d="M 250.394531 281.441406 C 250.234375 281.441406 250.074219 281.382812 249.953125 281.265625 C 249.699219 281.019531 249.691406 280.617188 249.933594 280.363281 L 251.496094 278.734375 C 251.738281 278.480469 252.140625 278.46875 252.394531 278.714844 C 252.648438 278.957031 252.65625 279.359375 252.414062 279.613281 L 250.851562 281.246094 C 250.730469 281.375 250.5625 281.441406 250.394531 281.441406 " fill-opacity="1" fill-rule="nonzero"/><path fill="#000000" d="M 244.929688 287.144531 C 244.769531 287.144531 244.613281 287.085938 244.488281 286.96875 C 244.234375 286.722656 244.226562 286.320312 244.46875 286.066406 L 246.03125 284.4375 C 246.273438 284.183594 246.675781 284.175781 246.929688 284.417969 C 247.183594 284.664062 247.195312 285.066406 246.949219 285.320312 L 245.386719 286.949219 C 245.261719 287.078125 245.097656 287.144531 244.929688 287.144531 " fill-opacity="1" fill-rule="nonzero"/><path fill="#000000" d="M 246.460938 281.527344 C 246.300781 281.527344 246.136719 281.464844 246.011719 281.34375 L 244.429688 279.785156 C 244.179688 279.539062 244.175781 279.132812 244.421875 278.882812 C 244.667969 278.632812 245.070312 278.632812 245.320312 278.878906 L 246.90625 280.4375 C 247.15625 280.683594 247.160156 281.085938 246.914062 281.335938 C 246.789062 281.464844 246.625 281.527344 246.460938 281.527344 " fill-opacity="1" fill-rule="nonzero"/><path fill="#000000" d="M 252.007812 286.988281 C 251.847656 286.988281 251.683594 286.925781 251.5625 286.804688 L 249.976562 285.246094 C 249.726562 285 249.722656 284.59375 249.96875 284.34375 C 250.214844 284.09375 250.617188 284.089844 250.871094 284.335938 L 252.453125 285.898438 C 252.703125 286.144531 252.707031 286.546875 252.460938 286.796875 C 252.335938 286.925781 252.171875 286.988281 252.007812 286.988281 " fill-opacity="1" fill-rule="nonzero"/><path fill="#000000" d="M 16.066406 225.71875 C 15.90625 225.71875 15.746094 225.660156 15.625 225.542969 C 15.371094 225.300781 15.363281 224.898438 15.605469 224.644531 L 17.167969 223.011719 C 17.410156 222.761719 17.8125 222.75 18.066406 222.992188 C 18.320312 223.238281 18.328125 223.640625 18.085938 223.894531 L 16.523438 225.523438 C 16.398438 225.652344 16.230469 225.71875 16.066406 225.71875 " fill-opacity="1" fill-rule="nonzero"/><path fill="#000000" d="M 10.601562 231.425781 C 10.441406 231.425781 10.28125 231.367188 10.160156 231.246094 C 9.90625 231.003906 9.898438 230.601562 10.140625 230.347656 L 11.703125 228.71875 C 11.945312 228.460938 12.347656 228.457031 12.601562 228.699219 C 12.855469 228.941406 12.863281 229.34375 12.621094 229.597656 L 11.058594 231.226562 C 10.933594 231.359375 10.765625 231.425781 10.601562 231.425781 " fill-opacity="1" fill-rule="nonzero"/><path fill="#000000" d="M 12.132812 225.804688 C 11.96875 225.804688 11.808594 225.746094 11.683594 225.625 L 10.101562 224.0625 C 9.847656 223.816406 9.847656 223.414062 10.09375 223.164062 C 10.339844 222.910156 10.742188 222.910156 10.992188 223.15625 L 12.578125 224.714844 C 12.828125 224.960938 12.832031 225.367188 12.585938 225.617188 C 12.460938 225.746094 12.296875 225.804688 12.132812 225.804688 " fill-opacity="1" fill-rule="nonzero"/><path fill="#000000" d="M 17.679688 231.265625 C 17.519531 231.265625 17.355469 231.207031 17.234375 231.082031 L 15.648438 229.523438 C 15.398438 229.277344 15.394531 228.875 15.640625 228.625 C 15.886719 228.371094 16.289062 228.371094 16.542969 228.617188 L 18.125 230.175781 C 18.375 230.421875 18.378906 230.824219 18.132812 231.078125 C 18.007812 231.203125 17.84375 231.265625 17.679688 231.265625 " fill-opacity="1" fill-rule="nonzero"/></svg>