<svg width="1386" height="705" viewBox="0 0 1386 705" fill="none" xmlns="http://www.w3.org/2000/svg">
<path d="M63.4898 93.6655C36.4838 53.8246 65.0238 0 113.155 0H1386V705H658.162C545.409 705 439.99 649.103 376.726 555.771L63.4898 93.6655Z" fill="#F9F8FF"/>
<path d="M63.4898 93.6655C36.4838 53.8246 65.0238 0 113.155 0H1386V705H658.162C545.409 705 439.99 649.103 376.726 555.771L63.4898 93.6655Z" fill="url(#paint0_linear_1_4514)"/>
<mask id="mask0_1_4514" style="mask-type:alpha" maskUnits="userSpaceOnUse" x="53" y="0" width="1333" height="705">
<path d="M63.4898 93.6655C36.4838 53.8246 65.0238 0 113.155 0H1386V705H658.162C545.409 705 439.99 649.102 376.726 555.771L63.4898 93.6655Z" fill="#F9F8FF"/>
</mask>
<g mask="url(#mask0_1_4514)">
<ellipse cx="349.646" cy="361.677" rx="349.646" ry="361.677" transform="matrix(0.920144 -0.39158 0.361103 0.932526 378.678 -95.7188)" fill="url(#paint1_linear_1_4514)" fill-opacity="0.44" style="mix-blend-mode:multiply"/>
<ellipse cx="326.181" cy="289.821" rx="326.181" ry="289.821" transform="matrix(0.244077 -0.969756 0.959148 0.282903 816.264 1053.72)" fill="url(#paint2_linear_1_4514)" fill-opacity="0.42" style="mix-blend-mode:multiply"/>
</g>
<defs>
<linearGradient id="paint0_linear_1_4514" x1="291.884" y1="-3.49809e-05" x2="1393.1" y2="693.723" gradientUnits="userSpaceOnUse">
<stop stop-color="#684FFF"/>
<stop offset="1" stop-color="#B871FE"/>
</linearGradient>
<linearGradient id="paint1_linear_1_4514" x1="349.646" y1="0" x2="349.646" y2="723.354" gradientUnits="userSpaceOnUse">
<stop stop-color="#684FFF"/>
<stop offset="1" stop-color="#FFF8F0" stop-opacity="0"/>
</linearGradient>
<linearGradient id="paint2_linear_1_4514" x1="326.181" y1="0" x2="326.181" y2="579.642" gradientUnits="userSpaceOnUse">
<stop stop-color="#684FFF"/>
<stop offset="1" stop-color="#FFF8F0" stop-opacity="0"/>
</linearGradient>
</defs>
</svg>
