<svg xmlns="http://www.w3.org/2000/svg" xmlns:xlink="http://www.w3.org/1999/xlink" width="500" zoomAndPan="magnify" viewBox="0 0 375 374.999991" height="500" preserveAspectRatio="xMidYMid meet" version="1.0"><path fill="#d2ccf6" d="M 281.660156 37.355469 C 214.199219 0.0078125 123.824219 38.808594 76.730469 81.824219 C 63.277344 94.117188 30.652344 124.769531 22.949219 173.90625 C 13.382812 234.941406 44.703125 308.917969 116.535156 340.566406 C 194.722656 375.007812 282.148438 342.363281 323.0625 289.378906 C 361.332031 239.824219 353.671875 181.472656 350.9375 160.628906 C 347.726562 136.171875 338.175781 68.648438 281.660156 37.355469 " fill-opacity="1" fill-rule="nonzero"/><path fill="#ffffff" d="M 319.683594 75.074219 L 61.433594 75.074219 C 55.734375 75.074219 51.109375 79.699219 51.109375 85.40625 L 51.109375 262.609375 C 51.109375 268.3125 55.734375 272.9375 61.433594 272.9375 L 319.683594 272.9375 C 325.382812 272.9375 330.003906 268.3125 330.003906 262.609375 L 330.003906 85.40625 C 330.003906 79.699219 325.382812 75.074219 319.683594 75.074219 " fill-opacity="1" fill-rule="nonzero"/><path fill="#d2ccf6" d="M 315.554688 102.277344 L 65.5625 102.277344 L 65.5625 89.878906 L 315.554688 89.878906 L 315.554688 102.277344 " fill-opacity="1" fill-rule="nonzero"/><path fill="#d2ccf6" d="M 315.554688 193.808594 L 65.5625 193.808594 L 65.5625 111.335938 L 315.554688 111.335938 L 315.554688 193.808594 " fill-opacity="1" fill-rule="nonzero"/><path fill="#ffffff" d="M 309.859375 96.078125 C 309.859375 97.726562 308.523438 99.0625 306.878906 99.0625 C 305.230469 99.0625 303.898438 97.726562 303.898438 96.078125 C 303.898438 94.429688 305.230469 93.09375 306.878906 93.09375 C 308.523438 93.09375 309.859375 94.429688 309.859375 96.078125 " fill-opacity="1" fill-rule="nonzero"/><path fill="#d2ccf6" d="M 144.109375 250.902344 L 65.5625 250.902344 L 65.5625 199.484375 L 144.109375 199.484375 L 144.109375 250.902344 " fill-opacity="1" fill-rule="nonzero"/><path fill="#d2ccf6" d="M 229.832031 250.902344 L 151.285156 250.902344 L 151.285156 199.484375 L 229.832031 199.484375 L 229.832031 250.902344 " fill-opacity="1" fill-rule="nonzero"/><path fill="#d2ccf6" d="M 315.554688 250.902344 L 237.011719 250.902344 L 237.011719 199.484375 L 315.554688 199.484375 L 315.554688 250.902344 " fill-opacity="1" fill-rule="nonzero"/><path fill="#ffffff" d="M 282.558594 109.96875 L 139.222656 109.96875 C 135.589844 109.96875 132.648438 112.914062 132.648438 116.546875 L 132.648438 180.121094 C 132.648438 183.75 135.589844 186.695312 139.222656 186.695312 L 282.558594 186.695312 C 286.183594 186.695312 289.128906 183.75 289.128906 180.121094 L 289.128906 116.546875 C 289.128906 112.914062 286.183594 109.96875 282.558594 109.96875 " fill-opacity="1" fill-rule="nonzero"/><path fill="#000000" d="M 139.21875 110.574219 C 135.925781 110.574219 133.25 113.25 133.25 116.546875 L 133.25 180.121094 C 133.25 183.417969 135.925781 186.097656 139.21875 186.097656 L 282.554688 186.097656 C 285.847656 186.097656 288.523438 183.417969 288.523438 180.121094 L 288.523438 116.546875 C 288.523438 113.25 285.847656 110.574219 282.554688 110.574219 Z M 282.554688 187.296875 L 139.21875 187.296875 C 135.265625 187.296875 132.046875 184.078125 132.046875 180.121094 L 132.046875 116.546875 C 132.046875 112.589844 135.265625 109.371094 139.21875 109.371094 L 282.554688 109.371094 C 286.507812 109.371094 289.726562 112.589844 289.726562 116.546875 L 289.726562 180.121094 C 289.726562 184.078125 286.507812 187.296875 282.554688 187.296875 " fill-opacity="1" fill-rule="nonzero"/><path fill="#000000" d="M 283.902344 121.363281 L 137.871094 121.363281 C 137.542969 121.363281 137.273438 121.09375 137.273438 120.761719 C 137.273438 120.429688 137.542969 120.160156 137.871094 120.160156 L 283.902344 120.160156 C 284.234375 120.160156 284.503906 120.429688 284.503906 120.761719 C 284.503906 121.09375 284.234375 121.363281 283.902344 121.363281 " fill-opacity="1" fill-rule="nonzero"/><path fill="#d2ccf6" d="M 144.359375 115.027344 C 144.359375 115.960938 143.605469 116.714844 142.675781 116.714844 C 141.746094 116.714844 140.992188 115.960938 140.992188 115.027344 C 140.992188 114.09375 141.746094 113.339844 142.675781 113.339844 C 143.605469 113.339844 144.359375 114.09375 144.359375 115.027344 " fill-opacity="1" fill-rule="nonzero"/><path fill="#d2ccf6" d="M 151.097656 115.027344 C 151.097656 115.960938 150.34375 116.714844 149.417969 116.714844 C 148.484375 116.714844 147.730469 115.960938 147.730469 115.027344 C 147.730469 114.09375 148.484375 113.339844 149.417969 113.339844 C 150.34375 113.339844 151.097656 114.09375 151.097656 115.027344 " fill-opacity="1" fill-rule="nonzero"/><path fill="#d2ccf6" d="M 157.839844 115.027344 C 157.839844 115.960938 157.085938 116.714844 156.15625 116.714844 C 155.222656 116.714844 154.46875 115.960938 154.46875 115.027344 C 154.46875 114.09375 155.222656 113.339844 156.15625 113.339844 C 157.085938 113.339844 157.839844 114.09375 157.839844 115.027344 " fill-opacity="1" fill-rule="nonzero"/><path fill="#000000" d="M 283.988281 115.628906 L 274.496094 115.628906 C 274.164062 115.628906 273.894531 115.359375 273.894531 115.027344 C 273.894531 114.695312 274.164062 114.429688 274.496094 114.429688 L 283.988281 114.429688 C 284.320312 114.429688 284.589844 114.695312 284.589844 115.027344 C 284.589844 115.359375 284.320312 115.628906 283.988281 115.628906 " fill-opacity="1" fill-rule="nonzero"/><path fill="#000000" d="M 270.226562 115.628906 L 180.589844 115.628906 C 180.253906 115.628906 179.984375 115.363281 179.984375 115.03125 C 179.984375 114.695312 180.253906 114.429688 180.589844 114.429688 L 270.226562 114.429688 C 270.558594 114.429688 270.824219 114.695312 270.824219 115.03125 C 270.824219 115.363281 270.558594 115.628906 270.226562 115.628906 " fill-opacity="1" fill-rule="nonzero"/><path fill="#000000" d="M 170.253906 115.628906 L 161.882812 115.628906 C 161.550781 115.628906 161.28125 115.359375 161.28125 115.027344 C 161.28125 114.699219 161.550781 114.429688 161.882812 114.429688 L 170.253906 114.429688 C 170.585938 114.429688 170.851562 114.699219 170.851562 115.027344 C 170.851562 115.359375 170.585938 115.628906 170.253906 115.628906 " fill-opacity="1" fill-rule="nonzero"/><path fill="#d2ccf6" d="M 185.792969 174.007812 L 142.59375 174.007812 L 142.59375 130.773438 L 185.792969 130.773438 L 185.792969 174.007812 " fill-opacity="1" fill-rule="nonzero"/><path fill="#d2ccf6" d="M 203.171875 140.214844 L 193.738281 140.214844 L 193.738281 130.773438 L 203.171875 130.773438 L 203.171875 140.214844 " fill-opacity="1" fill-rule="nonzero"/><path fill="#d2ccf6" d="M 279.640625 140.214844 L 209.628906 140.214844 L 209.628906 130.773438 L 279.640625 130.773438 L 279.640625 140.214844 " fill-opacity="1" fill-rule="nonzero"/><path fill="#d2ccf6" d="M 203.171875 157.109375 L 193.738281 157.109375 L 193.738281 147.667969 L 203.171875 147.667969 L 203.171875 157.109375 " fill-opacity="1" fill-rule="nonzero"/><path fill="#d2ccf6" d="M 279.640625 157.109375 L 209.628906 157.109375 L 209.628906 147.667969 L 279.640625 147.667969 L 279.640625 157.109375 " fill-opacity="1" fill-rule="nonzero"/><path fill="#d2ccf6" d="M 203.171875 174.007812 L 193.738281 174.007812 L 193.738281 164.566406 L 203.171875 164.566406 L 203.171875 174.007812 " fill-opacity="1" fill-rule="nonzero"/><path fill="#d2ccf6" d="M 279.640625 174.003906 L 209.628906 174.003906 L 209.628906 164.5625 L 279.640625 164.5625 L 279.640625 174.003906 " fill-opacity="1" fill-rule="nonzero"/><path fill="#5236ff" d="M 344.640625 40.613281 L 162.199219 40.613281 C 157.578125 40.613281 153.832031 44.363281 153.832031 48.988281 L 153.832031 129.90625 C 153.832031 134.527344 157.578125 138.273438 162.199219 138.273438 L 344.640625 138.273438 C 349.261719 138.273438 353.007812 134.527344 353.007812 129.90625 L 353.007812 48.988281 C 353.007812 44.363281 349.261719 40.613281 344.640625 40.613281 " fill-opacity="1" fill-rule="nonzero"/><path fill="#000000" d="M 162.199219 41.214844 C 157.914062 41.214844 154.433594 44.703125 154.433594 48.988281 L 154.433594 129.90625 C 154.433594 134.191406 157.914062 137.675781 162.199219 137.675781 L 344.640625 137.675781 C 348.921875 137.675781 352.402344 134.191406 352.402344 129.90625 L 352.402344 48.988281 C 352.402344 44.703125 348.921875 41.214844 344.640625 41.214844 Z M 344.640625 138.878906 L 162.199219 138.878906 C 157.253906 138.878906 153.234375 134.851562 153.234375 129.90625 L 153.234375 48.988281 C 153.234375 44.039062 157.253906 40.015625 162.199219 40.015625 L 344.640625 40.015625 C 349.582031 40.015625 353.605469 44.039062 353.605469 48.988281 L 353.605469 129.90625 C 353.605469 134.851562 349.582031 138.878906 344.640625 138.878906 " fill-opacity="1" fill-rule="nonzero"/><path fill="#ffffff" d="M 346.355469 54.953125 L 160.480469 54.953125 C 160.148438 54.953125 159.882812 54.683594 159.882812 54.355469 C 159.882812 54.023438 160.148438 53.75 160.480469 53.75 L 346.355469 53.75 C 346.6875 53.75 346.953125 54.023438 346.953125 54.355469 C 346.953125 54.683594 346.6875 54.953125 346.355469 54.953125 " fill-opacity="1" fill-rule="nonzero"/><path fill="#ffffff" d="M 168.738281 47.054688 C 168.738281 48.242188 167.777344 49.203125 166.59375 49.203125 C 165.410156 49.203125 164.449219 48.242188 164.449219 47.054688 C 164.449219 45.871094 165.410156 44.910156 166.59375 44.910156 C 167.777344 44.910156 168.738281 45.871094 168.738281 47.054688 " fill-opacity="1" fill-rule="nonzero"/><path fill="#ffffff" d="M 177.320312 47.054688 C 177.320312 48.242188 176.355469 49.203125 175.171875 49.203125 C 173.988281 49.203125 173.027344 48.242188 173.027344 47.054688 C 173.027344 45.871094 173.988281 44.910156 175.171875 44.910156 C 176.355469 44.910156 177.320312 45.871094 177.320312 47.054688 " fill-opacity="1" fill-rule="nonzero"/><path fill="#ffffff" d="M 185.894531 47.054688 C 185.894531 48.242188 184.9375 49.203125 183.75 49.203125 C 182.566406 49.203125 181.605469 48.242188 181.605469 47.054688 C 181.605469 45.871094 182.566406 44.910156 183.75 44.910156 C 184.9375 44.910156 185.894531 45.871094 185.894531 47.054688 " fill-opacity="1" fill-rule="nonzero"/><path fill="#ffffff" d="M 346.460938 47.65625 L 334.378906 47.65625 C 334.046875 47.65625 333.78125 47.386719 333.78125 47.054688 C 333.78125 46.722656 334.046875 46.453125 334.378906 46.453125 L 346.460938 46.453125 C 346.792969 46.453125 347.0625 46.722656 347.0625 47.054688 C 347.0625 47.386719 346.792969 47.65625 346.460938 47.65625 " fill-opacity="1" fill-rule="nonzero"/><path fill="#ffffff" d="M 328.945312 47.65625 L 214.847656 47.65625 C 214.519531 47.65625 214.25 47.386719 214.25 47.054688 C 214.25 46.722656 214.519531 46.453125 214.847656 46.453125 L 328.945312 46.453125 C 329.277344 46.453125 329.546875 46.722656 329.546875 47.054688 C 329.546875 47.386719 329.277344 47.65625 328.945312 47.65625 " fill-opacity="1" fill-rule="nonzero"/><path fill="#ffffff" d="M 201.699219 47.65625 L 191.042969 47.65625 C 190.714844 47.65625 190.441406 47.386719 190.441406 47.054688 C 190.441406 46.722656 190.714844 46.453125 191.042969 46.453125 L 201.699219 46.453125 C 202.027344 46.453125 202.296875 46.722656 202.296875 47.054688 C 202.296875 47.386719 202.027344 47.65625 201.699219 47.65625 " fill-opacity="1" fill-rule="nonzero"/><path fill="#ffffff" d="M 221.476562 122.125 L 166.492188 122.125 L 166.492188 67.09375 L 221.476562 67.09375 L 221.476562 122.125 " fill-opacity="1" fill-rule="nonzero"/><path fill="#d2ccf6" d="M 243.597656 79.113281 L 231.589844 79.113281 L 231.589844 67.09375 L 243.597656 67.09375 L 243.597656 79.113281 " fill-opacity="1" fill-rule="nonzero"/><path fill="#ffffff" d="M 340.929688 79.113281 L 251.8125 79.113281 L 251.8125 67.097656 L 340.929688 67.097656 L 340.929688 79.113281 " fill-opacity="1" fill-rule="nonzero"/><path fill="#d2ccf6" d="M 243.597656 100.617188 L 231.59375 100.617188 L 231.59375 88.601562 L 243.597656 88.601562 L 243.597656 100.617188 " fill-opacity="1" fill-rule="nonzero"/><path fill="#ffffff" d="M 340.929688 100.621094 L 251.8125 100.621094 L 251.8125 88.601562 L 340.929688 88.601562 L 340.929688 100.621094 " fill-opacity="1" fill-rule="nonzero"/><path fill="#d2ccf6" d="M 243.601562 122.125 L 231.59375 122.125 L 231.59375 110.105469 L 243.601562 110.105469 L 243.601562 122.125 " fill-opacity="1" fill-rule="nonzero"/><path fill="#ffffff" d="M 340.929688 122.125 L 251.8125 122.125 L 251.8125 110.109375 L 340.929688 110.109375 L 340.929688 122.125 " fill-opacity="1" fill-rule="nonzero"/><path fill="#000000" d="M 60.570312 108.023438 C 58.199219 108.613281 55.886719 106.636719 52.292969 103.566406 C 47.929688 99.839844 44.886719 97.242188 44.726562 93.058594 C 44.585938 89.386719 46.71875 85.972656 49.175781 84.152344 C 50.589844 83.105469 52.730469 82.621094 57.007812 81.65625 C 61.90625 80.550781 62.535156 80.988281 65.375 79.875 C 68.679688 78.578125 69.195312 77.449219 70.714844 77.738281 C 73.171875 78.203125 75.390625 81.832031 75.34375 85.21875 C 75.277344 89.703125 71.292969 90.375 66.796875 97.6875 C 63.042969 103.800781 63.378906 107.320312 60.570312 108.023438 " fill-opacity="1" fill-rule="nonzero"/><path fill="#5236ff" d="M 47.808594 123.101562 C 55.800781 120.492188 67.980469 118.621094 82.539062 123.261719 C 87.847656 124.953125 91.652344 129.628906 92.308594 135.167969 L 104.167969 203.5 C 104.753906 208.46875 98.121094 213.296875 93.445312 215.070312 C 88.5625 216.921875 81.183594 218.671875 70.730469 218.671875 C 59.527344 218.671875 51.386719 219.320312 46.839844 217.332031 C 43.070312 215.679688 37.390625 211.679688 37.203125 207.5625 L 38.023438 137.324219 C 37.730469 130.921875 41.722656 125.089844 47.808594 123.101562 " fill-opacity="1" fill-rule="nonzero"/><path fill="#5236ff" d="M 103.804688 152.46875 C 103.804688 152.46875 94.339844 126.226562 83.726562 123.703125 L 89.121094 160.882812 L 103.804688 152.46875 " fill-opacity="1" fill-rule="nonzero"/><path fill="#5236ff" d="M 21.59375 163.054688 C 21.59375 163.054688 25.378906 148.957031 28.285156 141.035156 C 34.160156 125.015625 46.730469 123.507812 46.730469 123.507812 L 46.730469 162.9375 L 21.59375 163.054688 " fill-opacity="1" fill-rule="nonzero"/><path fill="#000000" d="M 69.828125 130.414062 C 59.449219 130.414062 50.34375 126.164062 49.90625 125.957031 C 49.605469 125.816406 49.480469 125.457031 49.621094 125.15625 C 49.761719 124.855469 50.121094 124.730469 50.421875 124.871094 C 50.542969 124.929688 62.652344 130.578125 74.507812 128.894531 C 74.835938 128.847656 75.140625 129.074219 75.1875 129.40625 C 75.234375 129.734375 75.003906 130.039062 74.679688 130.082031 C 73.050781 130.316406 71.421875 130.414062 69.828125 130.414062 " fill-opacity="1" fill-rule="nonzero"/><path fill="#745ff6" d="M 65.863281 176.300781 L 112.351562 176.230469 C 113.527344 176.226562 114.554688 175.421875 114.835938 174.277344 L 124.160156 136.394531 C 124.558594 134.777344 123.332031 133.214844 121.667969 133.214844 L 75.179688 133.289062 C 74.003906 133.289062 72.976562 134.09375 72.695312 135.238281 L 63.371094 173.121094 C 62.972656 174.738281 64.199219 176.304688 65.863281 176.300781 " fill-opacity="1" fill-rule="nonzero"/><path fill="#000000" d="M 65.863281 175.699219 L 65.863281 176.300781 L 65.863281 175.699219 L 112.347656 175.628906 C 113.253906 175.625 114.035156 175.011719 114.253906 174.132812 L 123.578125 136.25 C 123.722656 135.660156 123.589844 135.046875 123.214844 134.570312 C 122.839844 134.089844 122.277344 133.816406 121.671875 133.816406 C 121.671875 133.816406 121.667969 133.816406 121.667969 133.816406 L 75.183594 133.886719 C 74.277344 133.890625 73.496094 134.503906 73.28125 135.382812 L 63.953125 173.265625 C 63.808594 173.855469 63.9375 174.46875 64.316406 174.949219 C 64.6875 175.425781 65.25 175.699219 65.859375 175.699219 C 65.859375 175.699219 65.859375 175.699219 65.863281 175.699219 Z M 65.859375 176.902344 C 64.878906 176.902344 63.972656 176.460938 63.371094 175.691406 C 62.765625 174.917969 62.554688 173.929688 62.789062 172.976562 L 72.113281 135.09375 C 72.460938 133.679688 73.722656 132.6875 75.179688 132.6875 L 121.667969 132.617188 C 122.660156 132.605469 123.554688 133.054688 124.160156 133.824219 C 124.765625 134.597656 124.976562 135.585938 124.742188 136.539062 L 115.417969 174.421875 C 115.070312 175.835938 113.808594 176.828125 112.351562 176.828125 L 65.863281 176.902344 C 65.863281 176.902344 65.859375 176.902344 65.859375 176.902344 " fill-opacity="1" fill-rule="nonzero"/><path fill="#ffffff" d="M 120.734375 152.039062 L 119.375 155.832031 L 108.191406 150.523438 C 108.191406 150.523438 102.050781 155.859375 116.960938 162.664062 C 123.171875 165.496094 120.734375 152.039062 120.734375 152.039062 " fill-opacity="1" fill-rule="nonzero"/><path fill="#000000" d="M 108.328125 151.253906 C 107.96875 151.695312 107.378906 152.640625 107.578125 153.949219 C 107.855469 155.796875 109.75 158.710938 117.210938 162.117188 C 118.617188 162.757812 119.183594 162.316406 119.367188 162.171875 C 120.75 161.09375 120.738281 157.359375 120.46875 154.566406 L 119.941406 156.035156 C 119.882812 156.195312 119.761719 156.324219 119.605469 156.386719 C 119.449219 156.453125 119.273438 156.449219 119.117188 156.375 Z M 118.519531 163.65625 C 117.96875 163.65625 117.367188 163.507812 116.710938 163.207031 C 110.3125 160.289062 106.839844 157.226562 106.386719 154.101562 C 106.03125 151.636719 107.722656 150.132812 107.796875 150.070312 C 107.976562 149.914062 108.230469 149.878906 108.445312 149.980469 L 119.035156 155.007812 L 120.167969 151.839844 C 120.261719 151.582031 120.519531 151.421875 120.785156 151.441406 C 121.054688 151.464844 121.277344 151.667969 121.324219 151.9375 C 121.492188 152.855469 122.871094 160.96875 120.105469 163.121094 C 119.648438 163.480469 119.117188 163.65625 118.519531 163.65625 " fill-opacity="1" fill-rule="nonzero"/><path fill="#ffffff" d="M 52.582031 141.484375 C 52.582031 141.484375 31.703125 153.257812 27.398438 156.949219 C 23.089844 160.644531 18.421875 163.449219 24.511719 171.5 C 30.597656 179.550781 56.457031 147.226562 56.457031 147.226562 C 56.457031 147.226562 61.433594 148.042969 63.160156 141.257812 C 63.160156 141.257812 71.5625 141.546875 71.863281 138.902344 L 60.011719 136.800781 C 58.476562 136.53125 56.910156 137.035156 55.824219 138.152344 L 52.582031 141.484375 " fill-opacity="1" fill-rule="nonzero"/><path fill="#000000" d="M 52.582031 141.484375 Z M 59.1875 137.328125 C 58.09375 137.328125 57.03125 137.769531 56.253906 138.570312 L 53.011719 141.902344 C 52.96875 141.945312 52.925781 141.980469 52.875 142.007812 C 52.667969 142.125 32 153.792969 27.789062 157.40625 C 27.453125 157.695312 27.117188 157.976562 26.78125 158.253906 C 22.835938 161.558594 19.714844 164.164062 24.988281 171.136719 C 25.515625 171.828125 26.21875 172.171875 27.144531 172.183594 C 27.164062 172.183594 27.183594 172.183594 27.203125 172.183594 C 35.621094 172.1875 55.785156 147.105469 55.988281 146.851562 C 56.121094 146.679688 56.339844 146.597656 56.554688 146.632812 C 56.730469 146.660156 61.015625 147.246094 62.578125 141.109375 C 62.648438 140.835938 62.902344 140.644531 63.179688 140.65625 C 65.925781 140.746094 69.867188 140.382812 70.972656 139.355469 L 59.90625 137.394531 C 59.664062 137.351562 59.425781 137.328125 59.1875 137.328125 Z M 27.195312 173.386719 C 27.171875 173.386719 27.152344 173.386719 27.128906 173.386719 C 25.824219 173.367188 24.785156 172.855469 24.03125 171.863281 C 18.070312 163.976562 22.109375 160.597656 26.011719 157.332031 C 26.34375 157.058594 26.675781 156.777344 27.007812 156.496094 C 31.21875 152.878906 50.621094 141.898438 52.210938 141.003906 L 55.394531 137.730469 C 56.621094 136.472656 58.382812 135.902344 60.113281 136.210938 L 71.96875 138.3125 C 72.28125 138.367188 72.496094 138.65625 72.460938 138.972656 C 72.140625 141.761719 65.800781 141.902344 63.617188 141.871094 C 61.964844 147.558594 57.972656 147.886719 56.726562 147.847656 C 54.464844 150.644531 35.824219 173.386719 27.195312 173.386719 " fill-opacity="1" fill-rule="nonzero"/><path fill="#ffffff" d="M 77.386719 311.902344 L 70.464844 332.578125 C 70.464844 332.578125 78.003906 331.933594 78.726562 332.074219 C 79.449219 332.214844 88.265625 313.222656 88.265625 313.222656 L 77.386719 311.902344 " fill-opacity="1" fill-rule="nonzero"/><path fill="#000000" d="M 78.828125 331.480469 C 78.832031 331.484375 78.835938 331.484375 78.839844 331.484375 C 78.835938 331.484375 78.832031 331.484375 78.828125 331.480469 Z M 78.839844 331.484375 Z M 77.800781 312.558594 L 71.324219 331.902344 C 73.4375 331.726562 77.296875 331.421875 78.527344 331.460938 C 79.589844 330.089844 84.3125 320.285156 87.375 313.71875 Z M 70.464844 333.175781 C 70.28125 333.175781 70.109375 333.09375 69.992188 332.949219 C 69.867188 332.789062 69.832031 332.578125 69.894531 332.386719 L 76.820312 311.714844 C 76.910156 311.445312 77.175781 311.273438 77.460938 311.308594 L 88.339844 312.625 C 88.53125 312.648438 88.699219 312.761719 88.792969 312.929688 C 88.886719 313.097656 88.890625 313.300781 88.8125 313.476562 C 88.789062 313.523438 86.578125 318.28125 84.308594 322.964844 C 79.511719 332.84375 79.214844 332.777344 78.609375 332.664062 C 78.09375 332.582031 73.566406 332.914062 70.515625 333.175781 C 70.5 333.175781 70.480469 333.175781 70.464844 333.175781 " fill-opacity="1" fill-rule="nonzero"/><path fill="#745ff6" d="M 72.050781 328.03125 C 72.050781 328.03125 82.460938 323.761719 84.386719 329.125 C 86.835938 335.941406 90.664062 346.34375 90.664062 346.34375 C 91.3125 348.15625 90.066406 350.085938 88.148438 350.242188 C 84.34375 350.546875 78.671875 350.792969 76.027344 349.867188 C 71.851562 348.402344 64.929688 335.179688 64.929688 335.179688 L 67.0625 323.933594 C 67.0625 323.933594 70.839844 323.398438 72.050781 328.03125 " fill-opacity="1" fill-rule="nonzero"/><path fill="#000000" d="M 65.558594 335.085938 C 67.542969 338.839844 73.039062 348.179688 76.222656 349.300781 C 78.164062 349.980469 82.382812 350.101562 88.101562 349.640625 C 88.828125 349.585938 89.46875 349.199219 89.867188 348.585938 C 90.257812 347.976562 90.34375 347.230469 90.097656 346.546875 C 90.0625 346.449219 86.242188 336.070312 83.820312 329.324219 C 83.515625 328.46875 82.949219 327.871094 82.09375 327.488281 C 78.71875 325.984375 72.339844 328.5625 72.277344 328.589844 C 72.117188 328.65625 71.9375 328.648438 71.78125 328.570312 C 71.628906 328.492188 71.511719 328.351562 71.46875 328.1875 C 70.632812 324.980469 68.480469 324.550781 67.5625 324.515625 Z M 82.019531 351.117188 C 79.566406 351.117188 77.28125 350.945312 75.828125 350.433594 C 71.480469 348.90625 64.683594 336.007812 64.394531 335.457031 C 64.332031 335.339844 64.3125 335.203125 64.339844 335.066406 L 66.472656 323.820312 C 66.519531 323.566406 66.722656 323.371094 66.980469 323.339844 C 67.019531 323.332031 70.933594 322.835938 72.4375 327.242188 C 74.214844 326.597656 79.371094 324.960938 82.582031 326.390625 C 83.734375 326.902344 84.535156 327.753906 84.953125 328.921875 C 87.371094 335.660156 91.1875 346.03125 91.226562 346.136719 C 91.601562 347.179688 91.472656 348.308594 90.875 349.238281 C 90.277344 350.167969 89.300781 350.75 88.199219 350.839844 C 86.289062 350.992188 84.09375 351.117188 82.019531 351.117188 " fill-opacity="1" fill-rule="nonzero"/><path fill="#000000" d="M 87.996094 346.335938 L 77.304688 346.335938 C 76.972656 346.335938 76.703125 346.070312 76.703125 345.738281 C 76.703125 345.40625 76.972656 345.136719 77.304688 345.136719 L 87.996094 345.136719 C 88.328125 345.136719 88.597656 345.40625 88.597656 345.738281 C 88.597656 346.070312 88.328125 346.335938 87.996094 346.335938 " fill-opacity="1" fill-rule="nonzero"/><path fill="#ffffff" d="M 57.757812 316.984375 L 60.109375 337.777344 L 69.574219 335.179688 L 68.84375 316.445312 L 57.757812 316.984375 " fill-opacity="1" fill-rule="nonzero"/><path fill="#000000" d="M 58.425781 317.550781 L 60.628906 337.011719 L 68.953125 334.726562 L 68.269531 317.074219 Z M 60.109375 338.378906 C 59.992188 338.378906 59.875 338.34375 59.773438 338.277344 C 59.628906 338.175781 59.535156 338.019531 59.515625 337.84375 L 57.164062 317.050781 C 57.144531 316.886719 57.195312 316.722656 57.300781 316.59375 C 57.410156 316.46875 57.5625 316.390625 57.730469 316.382812 L 68.816406 315.84375 C 68.976562 315.835938 69.132812 315.894531 69.25 316 C 69.367188 316.109375 69.4375 316.261719 69.445312 316.421875 L 70.171875 335.15625 C 70.183594 335.4375 70 335.6875 69.730469 335.761719 L 60.269531 338.359375 C 60.21875 338.371094 60.164062 338.378906 60.109375 338.378906 " fill-opacity="1" fill-rule="nonzero"/><path fill="#745ff6" d="M 59.21875 353.097656 L 74.191406 353.097656 C 76.214844 353.097656 77.769531 351.300781 77.476562 349.296875 C 76.972656 345.910156 75.347656 340.300781 70.464844 332.578125 C 69.933594 331.734375 69 331.222656 68.003906 331.222656 L 63.449219 331.222656 C 62.667969 331.222656 62.007812 331.816406 61.925781 332.597656 L 61.582031 335.882812 L 59.601562 333.265625 C 59.601562 333.265625 56.0625 340.722656 55.898438 349.714844 C 55.863281 351.574219 57.363281 353.097656 59.21875 353.097656 " fill-opacity="1" fill-rule="nonzero"/><path fill="#000000" d="M 59.742188 334.449219 C 58.824219 336.699219 56.625 342.78125 56.496094 349.726562 C 56.484375 350.460938 56.761719 351.15625 57.273438 351.683594 C 57.792969 352.207031 58.480469 352.5 59.21875 352.5 L 74.191406 352.5 C 74.980469 352.5 75.734375 352.152344 76.25 351.554688 C 76.765625 350.957031 76.996094 350.164062 76.882812 349.382812 C 76.394531 346.089844 74.796875 340.554688 69.957031 332.898438 C 69.539062 332.234375 68.789062 331.824219 68.003906 331.824219 L 63.449219 331.824219 C 62.972656 331.824219 62.574219 332.179688 62.523438 332.660156 L 62.179688 335.949219 C 62.152344 336.191406 61.980469 336.398438 61.742188 336.460938 C 61.507812 336.53125 61.253906 336.445312 61.101562 336.246094 Z M 74.191406 353.699219 L 59.21875 353.699219 C 58.15625 353.699219 57.164062 353.28125 56.417969 352.523438 C 55.675781 351.765625 55.277344 350.765625 55.296875 349.703125 C 55.460938 340.6875 58.910156 333.316406 59.058594 333.007812 C 59.148438 332.816406 59.328125 332.6875 59.539062 332.667969 C 59.75 332.644531 59.953125 332.734375 60.078125 332.902344 L 61.144531 334.308594 L 61.328125 332.535156 C 61.441406 331.445312 62.355469 330.621094 63.449219 330.621094 L 68.003906 330.621094 C 69.214844 330.621094 70.324219 331.234375 70.972656 332.253906 C 75.925781 340.089844 77.566406 345.796875 78.070312 349.207031 C 78.234375 350.332031 77.902344 351.476562 77.160156 352.339844 C 76.414062 353.203125 75.332031 353.699219 74.191406 353.699219 " fill-opacity="1" fill-rule="nonzero"/><path fill="#000000" d="M 76.027344 350.117188 L 58.105469 350.117188 C 57.773438 350.117188 57.503906 349.847656 57.503906 349.515625 C 57.503906 349.183594 57.773438 348.914062 58.105469 348.914062 L 76.027344 348.914062 C 76.359375 348.914062 76.625 349.183594 76.625 349.515625 C 76.625 349.847656 76.359375 350.117188 76.027344 350.117188 " fill-opacity="1" fill-rule="nonzero"/><path fill="#000000" d="M 93.296875 192.101562 C 92.902344 191.144531 92.109375 190.410156 91.121094 190.097656 C 85.648438 188.382812 66.558594 183.851562 46.910156 196.464844 C 45.984375 197.058594 45.390625 198.054688 45.3125 199.15625 C 44.601562 209.148438 41.953125 261.386719 58.464844 323.238281 L 69.589844 322.445312 L 71.855469 216.691406 C 71.855469 216.691406 88.332031 255.460938 74.933594 317.164062 L 86.503906 319.300781 C 86.503906 319.300781 103.433594 297.019531 106.464844 262.976562 C 109.148438 232.859375 96.296875 199.417969 93.296875 192.101562 " fill-opacity="1" fill-rule="nonzero"/><path fill="#ffffff" d="M 61.300781 274.25 C 61.292969 274.25 61.28125 274.25 61.273438 274.25 C 50.851562 273.800781 49.675781 259.632812 49.664062 259.488281 C 49.640625 259.15625 49.886719 258.871094 50.21875 258.84375 C 50.542969 258.820312 50.835938 259.066406 50.859375 259.398438 C 50.871094 259.53125 51.96875 272.644531 61.324219 273.046875 C 61.65625 273.0625 61.914062 273.34375 61.898438 273.675781 C 61.886719 273.996094 61.621094 274.25 61.300781 274.25 " fill-opacity="1" fill-rule="nonzero"/><path fill="#ffffff" d="M 72.824219 226.988281 C 72.5 226.988281 72.234375 226.730469 72.222656 226.402344 L 71.832031 213.175781 C 71.824219 212.972656 71.921875 212.78125 72.085938 212.667969 L 79.019531 207.789062 C 79.289062 207.597656 79.664062 207.660156 79.855469 207.933594 C 80.046875 208.203125 79.980469 208.578125 79.710938 208.769531 L 73.042969 213.460938 L 73.425781 226.367188 C 73.433594 226.699219 73.171875 226.976562 72.84375 226.988281 C 72.835938 226.988281 72.832031 226.988281 72.824219 226.988281 " fill-opacity="1" fill-rule="nonzero"/><path fill="#ffffff" d="M 55.945312 119.796875 C 57.988281 118.441406 59.183594 116.121094 59.125 113.667969 L 58.894531 103.488281 C 58.824219 103.421875 58.753906 103.359375 58.6875 103.292969 C 58.6875 103.292969 54.613281 103.566406 54.019531 101.492188 C 53.425781 99.414062 56.308594 99.015625 56.308594 99.015625 C 56.308594 99.015625 53.585938 93.285156 60.625 93.347656 C 62.515625 93.367188 63.191406 90.230469 66.292969 89.53125 C 66.292969 89.53125 67.828125 89.398438 69.382812 93.421875 L 72.789062 98.46875 L 71.085938 99.402344 C 71.503906 101.320312 71.6875 103.4375 71.429688 105.679688 C 71.355469 106.324219 70.910156 106.867188 70.292969 107.066406 C 69.78125 107.230469 69.089844 107.410156 68.277344 107.503906 L 68.828125 114.316406 C 69.066406 117.300781 70.628906 120.015625 73.078125 121.734375 C 75.441406 123.394531 77.625 124.566406 77.625 124.566406 C 77.625 124.566406 65.074219 126.285156 50.640625 122.988281 C 50.640625 122.988281 53.429688 121.464844 55.945312 119.796875 " fill-opacity="1" fill-rule="nonzero"/><path fill="#000000" d="M 55.945312 119.796875 L 55.949219 119.796875 Z M 52.308594 122.734375 C 62.664062 124.871094 71.90625 124.46875 75.707031 124.15625 C 74.886719 123.664062 73.832031 123 72.734375 122.226562 C 70.125 120.394531 68.484375 117.53125 68.230469 114.367188 L 67.679688 107.550781 C 67.65625 107.230469 67.886719 106.945312 68.210938 106.90625 C 68.859375 106.832031 69.496094 106.691406 70.109375 106.496094 C 70.5 106.367188 70.785156 106.023438 70.832031 105.609375 C 71.058594 103.628906 70.949219 101.585938 70.5 99.53125 C 70.445312 99.269531 70.566406 99.003906 70.796875 98.875 L 71.921875 98.257812 L 68.886719 93.761719 C 68.859375 93.722656 68.839844 93.683594 68.824219 93.640625 C 67.636719 90.570312 66.546875 90.183594 66.339844 90.136719 C 64.925781 90.484375 64.101562 91.398438 63.300781 92.28125 C 62.519531 93.140625 61.785156 93.953125 60.640625 93.953125 C 60.59375 93.953125 60.546875 93.949219 60.5 93.949219 C 58.585938 93.949219 57.324219 94.402344 56.757812 95.292969 C 55.890625 96.648438 56.839844 98.738281 56.847656 98.757812 C 56.933594 98.929688 56.925781 99.132812 56.835938 99.300781 C 56.746094 99.46875 56.578125 99.585938 56.390625 99.609375 C 56.039062 99.660156 55.039062 99.914062 54.675781 100.476562 C 54.523438 100.714844 54.5 100.980469 54.597656 101.324219 C 54.972656 102.640625 57.714844 102.757812 58.648438 102.695312 C 58.8125 102.683594 58.980469 102.746094 59.101562 102.859375 L 59.300781 103.046875 C 59.421875 103.15625 59.492188 103.3125 59.496094 103.472656 L 59.726562 113.65625 C 59.789062 116.339844 58.5 118.824219 56.277344 120.296875 C 54.867188 121.230469 53.359375 122.128906 52.308594 122.734375 Z M 69.25 125.609375 C 64.28125 125.609375 57.597656 125.195312 50.507812 123.574219 C 50.265625 123.519531 50.082031 123.320312 50.046875 123.070312 C 50.011719 122.824219 50.136719 122.582031 50.351562 122.464844 C 50.382812 122.449219 53.148438 120.929688 55.613281 119.292969 C 57.488281 118.050781 58.578125 115.953125 58.527344 113.683594 L 58.304688 103.910156 C 57.125 103.925781 54.042969 103.761719 53.441406 101.65625 C 53.25 100.980469 53.328125 100.347656 53.671875 99.820312 C 54.121094 99.128906 54.917969 98.769531 55.503906 98.585938 C 55.210938 97.667969 54.882812 96 55.746094 94.648438 C 56.546875 93.386719 58.152344 92.75 60.503906 92.75 C 60.550781 92.75 60.59375 92.75 60.640625 92.75 C 61.222656 92.75 61.691406 92.261719 62.410156 91.472656 C 63.265625 90.53125 64.328125 89.359375 66.160156 88.941406 C 66.1875 88.9375 66.214844 88.933594 66.242188 88.929688 C 66.574219 88.902344 68.289062 88.972656 69.917969 93.144531 L 73.285156 98.132812 C 73.378906 98.273438 73.410156 98.445312 73.371094 98.609375 C 73.332031 98.773438 73.226562 98.914062 73.078125 98.996094 L 71.765625 99.714844 C 72.164062 101.75 72.253906 103.777344 72.023438 105.746094 C 71.925781 106.625 71.316406 107.367188 70.476562 107.640625 C 69.972656 107.800781 69.453125 107.929688 68.921875 108.019531 L 69.425781 114.269531 C 69.652344 117.074219 71.109375 119.621094 73.421875 121.242188 C 75.726562 122.863281 77.886719 124.027344 77.90625 124.039062 C 78.136719 124.160156 78.261719 124.417969 78.214844 124.675781 C 78.167969 124.929688 77.960938 125.128906 77.707031 125.164062 C 77.640625 125.171875 74.347656 125.609375 69.25 125.609375 " fill-opacity="1" fill-rule="nonzero"/><path fill="#ffffff" d="M 68.277344 107.503906 C 68.277344 107.503906 63.8125 107.660156 62.039062 105.226562 L 68.277344 107.503906 " fill-opacity="1" fill-rule="nonzero"/><path fill="#000000" d="M 68.09375 108.105469 C 67.148438 108.105469 63.285156 107.957031 61.554688 105.582031 C 61.359375 105.3125 61.417969 104.9375 61.683594 104.742188 C 61.953125 104.546875 62.328125 104.605469 62.523438 104.875 C 64.09375 107.023438 68.214844 106.902344 68.257812 106.902344 C 68.597656 106.894531 68.867188 107.148438 68.878906 107.480469 C 68.890625 107.8125 68.632812 108.09375 68.300781 108.101562 C 68.277344 108.101562 68.207031 108.105469 68.09375 108.105469 " fill-opacity="1" fill-rule="nonzero"/><path fill="#5236ff" d="M 323.890625 323.332031 L 299.867188 323.332031 C 298.539062 323.332031 297.558594 324.578125 297.875 325.867188 C 299.433594 332.121094 301.777344 337.285156 303.515625 340.582031 C 304.789062 343.007812 307.296875 344.523438 310.035156 344.523438 L 313.71875 344.523438 C 316.457031 344.523438 318.964844 343.007812 320.238281 340.582031 C 321.976562 337.285156 324.320312 332.121094 325.878906 325.867188 C 326.199219 324.578125 325.214844 323.332031 323.890625 323.332031 " fill-opacity="1" fill-rule="nonzero"/><path fill="#000000" d="M 299.863281 323.933594 C 299.414062 323.933594 298.996094 324.136719 298.722656 324.492188 C 298.445312 324.839844 298.351562 325.289062 298.457031 325.722656 C 300.011719 331.949219 302.351562 337.085938 304.046875 340.304688 C 305.222656 342.535156 307.515625 343.925781 310.035156 343.925781 L 313.714844 343.925781 C 316.234375 343.925781 318.53125 342.535156 319.707031 340.304688 C 321.402344 337.089844 323.742188 331.949219 325.292969 325.722656 C 325.402344 325.289062 325.304688 324.839844 325.03125 324.492188 C 324.753906 324.136719 324.339844 323.933594 323.890625 323.933594 Z M 313.714844 345.125 L 310.035156 345.125 C 307.070312 345.125 304.367188 343.492188 302.984375 340.863281 C 301.257812 337.589844 298.875 332.355469 297.292969 326.011719 C 297.09375 325.21875 297.273438 324.394531 297.777344 323.75 C 298.28125 323.101562 299.042969 322.730469 299.863281 322.730469 L 323.890625 322.730469 C 324.710938 322.730469 325.472656 323.101562 325.980469 323.75 C 326.484375 324.394531 326.65625 325.21875 326.460938 326.011719 C 324.878906 332.359375 322.492188 337.589844 320.769531 340.863281 C 319.386719 343.492188 316.683594 345.125 313.714844 345.125 " fill-opacity="1" fill-rule="nonzero"/><path fill="#5236ff" d="M 307.753906 262.8125 C 307.832031 258.71875 307.304688 252.378906 303.753906 246.058594 C 296.355469 232.902344 280.195312 227.582031 278.597656 229.699219 C 277.441406 231.238281 283.335938 237.5625 294.195312 249.207031 C 299.675781 255.082031 304.445312 259.707031 307.753906 262.8125 " fill-opacity="1" fill-rule="nonzero"/><path fill="#5236ff" d="M 309.445312 262.9375 C 308.945312 254.703125 309.613281 247.992188 310.3125 243.410156 C 312.96875 226.050781 319.507812 217.15625 320.988281 215.21875 C 322.070312 213.792969 327.363281 206.851562 329.640625 207.914062 C 331.601562 208.828125 330.460938 215.261719 328.703125 224.816406 C 327.074219 233.683594 326.257812 238.113281 324.574219 242.28125 C 322.703125 246.914062 318.601562 255.050781 309.445312 262.9375 " fill-opacity="1" fill-rule="nonzero"/><path fill="#5236ff" d="M 307.808594 264.667969 C 305.625 262.582031 300 257.808594 292.484375 258.058594 C 288.988281 258.179688 284.628906 259.394531 284.597656 260.707031 C 284.5625 262.453125 292.203125 264.078125 296.800781 264.632812 C 301.375 265.1875 305.207031 264.964844 307.808594 264.667969 " fill-opacity="1" fill-rule="nonzero"/><path fill="#5236ff" d="M 311.4375 268.390625 C 312.441406 269.96875 313.867188 272.066406 315.753906 274.398438 C 316.664062 275.527344 319.367188 278.839844 322.511719 281.535156 C 327.402344 285.734375 335.636719 290.398438 337.339844 288.617188 C 338.96875 286.910156 335.035156 278.78125 328.757812 274.703125 C 326.6875 273.359375 324.550781 272.574219 320.820312 271.207031 C 317.015625 269.808594 313.753906 268.933594 311.4375 268.390625 " fill-opacity="1" fill-rule="nonzero"/><path fill="#000000" d="M 312.054688 321.636719 C 312.046875 321.636719 312.039062 321.636719 312.03125 321.636719 C 311.699219 321.625 311.441406 321.347656 311.453125 321.015625 C 312.617188 291.613281 308.71875 265.777344 308.675781 265.523438 C 308.625 265.195312 308.851562 264.886719 309.179688 264.835938 C 309.503906 264.785156 309.8125 265.011719 309.863281 265.339844 C 309.902344 265.597656 313.820312 291.550781 312.652344 321.0625 C 312.640625 321.386719 312.375 321.636719 312.054688 321.636719 " fill-opacity="1" fill-rule="nonzero"/><path fill="#000000" d="M 309.894531 321.636719 C 309.585938 321.636719 309.320312 321.398438 309.296875 321.082031 C 309.273438 320.796875 307.039062 292.316406 298.351562 274.914062 C 298.203125 274.617188 298.324219 274.257812 298.617188 274.105469 C 298.914062 273.960938 299.277344 274.082031 299.425781 274.375 C 308.21875 291.992188 310.472656 320.707031 310.492188 320.992188 C 310.519531 321.324219 310.269531 321.613281 309.941406 321.636719 C 309.925781 321.636719 309.910156 321.636719 309.894531 321.636719 " fill-opacity="1" fill-rule="nonzero"/><path fill="#745ff6" d="M 298.042969 280.140625 C 298.703125 280.84375 301.664062 284.15625 301.652344 289.273438 C 301.640625 294.316406 298.746094 299.105469 297.550781 298.8125 C 296.546875 298.566406 296.140625 294.585938 298.042969 280.140625 " fill-opacity="1" fill-rule="nonzero"/><path fill="#745ff6" d="M 296.992188 276.089844 C 293.960938 279.710938 289.136719 284.617188 282.105469 288.679688 C 274.335938 293.171875 263.835938 296.640625 262.617188 294.589844 C 261.617188 292.914062 267.035156 287.867188 269.796875 285.621094 C 273.847656 282.324219 282.34375 276.792969 296.992188 276.089844 " fill-opacity="1" fill-rule="nonzero"/><path fill="#745ff6" d="M 296.1875 273.054688 C 293.207031 269.546875 288.242188 264.71875 280.894531 261.464844 C 265.242188 254.527344 247.261719 258.488281 246.976562 261.480469 C 246.820312 263.089844 251.886719 263.121094 266.023438 269.632812 C 275.4375 273.964844 279.179688 276.710938 285.5625 276.386719 C 290.132812 276.152344 293.796875 274.457031 296.1875 273.054688 " fill-opacity="1" fill-rule="nonzero"/><path fill="#745ff6" d="M 299.140625 272.730469 C 302.839844 269.058594 309.210938 263.84375 318.355469 261.351562 C 324.105469 259.785156 333.226562 258.667969 334.144531 261.0625 C 335.128906 263.636719 326.714844 270.394531 317.675781 272.9375 C 309.96875 275.105469 303.109375 273.84375 299.140625 272.730469 " fill-opacity="1" fill-rule="nonzero"/><path fill="#5236ff" d="M 184.863281 289.191406 C 175.113281 294.835938 162.632812 291.503906 156.992188 281.746094 C 151.347656 271.988281 154.675781 259.5 164.425781 253.851562 C 174.179688 248.203125 186.660156 251.535156 192.300781 261.292969 C 197.945312 271.050781 194.613281 283.539062 184.863281 289.191406 Z M 212.109375 254.402344 L 208.140625 247.535156 L 199.878906 250.121094 C 198.675781 248.695312 197.371094 247.386719 195.976562 246.210938 L 198.539062 237.949219 L 191.671875 233.988281 L 185.804688 240.363281 C 184.070312 239.738281 182.289062 239.265625 180.476562 238.9375 L 178.5625 230.488281 L 170.640625 230.5 L 168.746094 238.9375 C 166.953125 239.265625 165.171875 239.75 163.417969 240.382812 L 157.539062 234.023438 L 150.683594 238 L 153.261719 246.265625 C 151.839844 247.472656 150.53125 248.777344 149.355469 250.171875 L 141.101562 247.609375 L 137.144531 254.480469 L 143.511719 260.351562 C 142.890625 262.085938 142.417969 263.867188 142.089844 265.683594 L 133.648438 267.597656 L 133.65625 275.53125 L 142.089844 277.425781 C 142.417969 279.21875 142.902344 281.003906 143.535156 282.757812 L 137.183594 288.640625 L 141.152344 295.503906 L 149.410156 292.921875 C 150.617188 294.34375 151.917969 295.652344 153.3125 296.828125 L 150.753906 305.09375 L 157.621094 309.050781 L 163.488281 302.679688 C 165.21875 303.300781 167.003906 303.777344 168.8125 304.101562 L 170.726562 312.550781 L 178.652344 312.542969 L 180.542969 304.101562 C 182.339844 303.777344 184.121094 303.289062 185.875 302.65625 L 191.75 309.015625 L 198.609375 305.039062 L 196.027344 296.773438 C 197.453125 295.570312 198.757812 294.265625 199.933594 292.867188 L 208.191406 295.429688 L 212.144531 288.558594 L 205.777344 282.691406 C 206.398438 280.953125 206.875 279.171875 207.199219 277.355469 L 215.644531 275.441406 L 215.636719 267.507812 L 207.199219 265.617188 C 206.875 263.820312 206.390625 262.035156 205.757812 260.28125 L 212.109375 254.402344 " fill-opacity="1" fill-rule="nonzero"/><path fill="#000000" d="M 170.847656 250.691406 C 167.410156 250.691406 164.015625 251.59375 160.960938 253.363281 C 156.382812 256.015625 153.113281 260.292969 151.75 265.40625 C 150.386719 270.519531 151.09375 275.859375 153.742188 280.441406 C 156.390625 285.019531 160.664062 288.296875 165.773438 289.660156 C 170.882812 291.023438 176.21875 290.316406 180.796875 287.664062 C 185.375 285.011719 188.644531 280.734375 190.007812 275.621094 C 191.371094 270.507812 190.664062 265.167969 188.015625 260.585938 C 185.363281 256.007812 181.09375 252.734375 175.980469 251.367188 C 174.285156 250.914062 172.558594 250.691406 170.847656 250.691406 Z M 170.914062 291.539062 C 169.097656 291.539062 167.265625 291.300781 165.464844 290.820312 C 160.046875 289.375 155.515625 285.898438 152.703125 281.039062 C 149.894531 276.183594 149.144531 270.519531 150.589844 265.097656 C 152.035156 259.671875 155.503906 255.136719 160.359375 252.324219 C 165.214844 249.511719 170.871094 248.761719 176.292969 250.207031 C 181.710938 251.65625 186.242188 255.128906 189.054688 259.988281 C 191.863281 264.84375 192.613281 270.507812 191.167969 275.929688 C 189.722656 281.355469 186.253906 285.890625 181.398438 288.703125 C 178.15625 290.582031 174.558594 291.539062 170.914062 291.539062 Z M 159.71875 301.074219 C 159.789062 301.074219 159.855469 301.082031 159.921875 301.105469 C 161.617188 301.714844 163.378906 302.183594 165.152344 302.503906 C 165.390625 302.546875 165.578125 302.726562 165.632812 302.964844 L 167.441406 310.941406 L 174.402344 310.9375 L 176.191406 302.964844 C 176.246094 302.726562 176.433594 302.546875 176.671875 302.503906 C 178.417969 302.1875 180.179688 301.707031 181.902344 301.085938 C 182.128906 301 182.382812 301.066406 182.546875 301.242188 L 188.097656 307.246094 L 194.128906 303.753906 L 191.6875 295.945312 C 191.617188 295.714844 191.6875 295.464844 191.875 295.308594 C 193.269531 294.125 194.5625 292.835938 195.710938 291.472656 C 195.863281 291.292969 196.117188 291.21875 196.347656 291.289062 L 204.144531 293.710938 L 207.621094 287.667969 L 201.605469 282.125 C 201.429688 281.960938 201.367188 281.707031 201.445312 281.480469 C 202.054688 279.78125 202.523438 278.023438 202.84375 276.242188 C 202.886719 276.007812 203.066406 275.820312 203.300781 275.765625 L 211.277344 273.957031 L 211.269531 266.984375 L 203.300781 265.195312 C 203.066406 265.144531 202.886719 264.953125 202.84375 264.71875 C 202.527344 262.96875 202.050781 261.207031 201.425781 259.480469 C 201.34375 259.253906 201.40625 259 201.582031 258.835938 L 207.582031 253.28125 L 204.09375 247.246094 L 196.292969 249.6875 C 196.0625 249.757812 195.8125 249.6875 195.65625 249.5 C 194.472656 248.101562 193.183594 246.8125 191.824219 245.664062 C 191.640625 245.507812 191.566406 245.257812 191.640625 245.027344 L 194.054688 237.222656 L 188.019531 233.742188 L 182.480469 239.765625 C 182.316406 239.941406 182.0625 240 181.835938 239.921875 C 180.140625 239.3125 178.378906 238.84375 176.605469 238.523438 C 176.367188 238.480469 176.179688 238.300781 176.125 238.066406 L 174.316406 230.085938 L 167.351562 230.089844 L 165.566406 238.066406 C 165.511719 238.300781 165.324219 238.480469 165.085938 238.523438 C 163.335938 238.84375 161.578125 239.320312 159.855469 239.945312 C 159.628906 240.023438 159.375 239.964844 159.210938 239.785156 L 153.65625 233.78125 L 147.632812 237.273438 L 150.070312 245.082031 C 150.140625 245.3125 150.066406 245.5625 149.882812 245.71875 C 148.488281 246.902344 147.195312 248.191406 146.046875 249.550781 C 145.894531 249.738281 145.644531 249.8125 145.414062 249.738281 L 137.613281 247.316406 L 134.140625 253.359375 L 140.152344 258.902344 C 140.328125 259.066406 140.390625 259.320312 140.3125 259.546875 C 139.703125 261.25 139.234375 263.011719 138.914062 264.78125 C 138.871094 265.019531 138.691406 265.210938 138.457031 265.261719 L 130.484375 267.074219 L 130.492188 274.042969 L 138.457031 275.832031 C 138.691406 275.882812 138.871094 276.074219 138.914062 276.3125 C 139.230469 278.0625 139.710938 279.824219 140.332031 281.546875 C 140.414062 281.773438 140.355469 282.027344 140.175781 282.191406 L 134.175781 287.75 L 137.664062 293.78125 L 145.46875 291.339844 C 145.699219 291.269531 145.949219 291.34375 146.105469 291.527344 C 147.285156 292.925781 148.574219 294.214844 149.933594 295.363281 C 150.117188 295.519531 150.191406 295.773438 150.121094 296 L 147.703125 303.804688 L 153.738281 307.285156 L 159.277344 301.265625 C 159.394531 301.140625 159.554688 301.074219 159.71875 301.074219 Z M 166.960938 312.144531 C 166.679688 312.144531 166.4375 311.953125 166.375 311.675781 L 164.546875 303.613281 C 162.972656 303.308594 161.410156 302.894531 159.894531 302.371094 L 154.296875 308.449219 C 154.105469 308.65625 153.796875 308.707031 153.554688 308.566406 L 146.6875 304.609375 C 146.445312 304.46875 146.332031 304.175781 146.414062 303.910156 L 148.855469 296.023438 C 147.65625 294.984375 146.511719 293.835938 145.449219 292.605469 L 137.5625 295.070312 C 137.296875 295.15625 137.007812 295.042969 136.867188 294.796875 L 132.898438 287.933594 C 132.753906 287.691406 132.800781 287.382812 133.007812 287.191406 L 139.070312 281.578125 C 138.535156 280.042969 138.109375 278.476562 137.808594 276.917969 L 129.757812 275.109375 C 129.484375 275.046875 129.289062 274.804688 129.289062 274.523438 L 129.28125 266.59375 C 129.28125 266.3125 129.476562 266.066406 129.75 266.007812 L 137.804688 264.179688 C 138.109375 262.605469 138.527344 261.039062 139.050781 259.519531 L 132.972656 253.917969 C 132.765625 253.726562 132.71875 253.417969 132.859375 253.175781 L 136.8125 246.304688 C 136.953125 246.058594 137.242188 245.945312 137.511719 246.03125 L 145.390625 248.472656 C 146.429688 247.269531 147.578125 246.125 148.804688 245.058594 L 146.34375 237.171875 C 146.257812 236.90625 146.371094 236.613281 146.613281 236.472656 L 153.472656 232.5 C 153.714844 232.359375 154.023438 232.40625 154.214844 232.613281 L 159.824219 238.679688 C 161.359375 238.140625 162.921875 237.71875 164.480469 237.414062 L 166.285156 229.359375 C 166.347656 229.085938 166.59375 228.890625 166.871094 228.890625 L 174.796875 228.882812 C 175.078125 228.882812 175.320312 229.078125 175.382812 229.351562 L 177.207031 237.414062 C 178.785156 237.71875 180.347656 238.136719 181.863281 238.660156 L 187.460938 232.574219 C 187.652344 232.367188 187.960938 232.320312 188.203125 232.460938 L 195.070312 236.421875 C 195.316406 236.5625 195.425781 236.851562 195.34375 237.117188 L 192.902344 245.003906 C 194.101562 246.042969 195.246094 247.191406 196.3125 248.421875 L 204.195312 245.957031 C 204.464844 245.875 204.753906 245.988281 204.894531 246.230469 L 208.863281 253.09375 C 209.003906 253.335938 208.957031 253.644531 208.75 253.835938 L 202.6875 259.449219 C 203.226562 260.988281 203.648438 262.550781 203.949219 264.109375 L 212 265.917969 C 212.273438 265.980469 212.46875 266.222656 212.46875 266.503906 L 212.476562 274.433594 C 212.476562 274.714844 212.28125 274.957031 212.011719 275.019531 L 203.949219 276.847656 C 203.648438 278.425781 203.230469 279.992188 202.707031 281.507812 L 208.785156 287.109375 C 208.992188 287.300781 209.039062 287.609375 208.902344 287.851562 L 204.945312 294.726562 C 204.804688 294.96875 204.519531 295.082031 204.246094 295 L 196.367188 292.554688 C 195.328125 293.757812 194.183594 294.902344 192.953125 295.964844 L 195.417969 303.855469 C 195.5 304.125 195.386719 304.414062 195.144531 304.554688 L 188.285156 308.527344 C 188.042969 308.667969 187.734375 308.621094 187.542969 308.417969 L 181.9375 302.347656 C 180.398438 302.886719 178.835938 303.308594 177.277344 303.613281 L 175.472656 311.667969 C 175.410156 311.941406 175.167969 312.136719 174.886719 312.136719 L 166.960938 312.144531 " fill-opacity="1" fill-rule="nonzero"/><path fill="#000000" d="M 169.671875 324.058594 C 156.542969 324.058594 144.203125 318.941406 134.921875 309.652344 C 115.757812 290.476562 115.757812 259.269531 134.921875 240.09375 L 142.695312 232.316406 C 142.929688 232.078125 143.308594 232.078125 143.542969 232.316406 C 143.777344 232.550781 143.777344 232.929688 143.542969 233.164062 L 135.769531 240.945312 C 117.078125 259.652344 117.078125 290.09375 135.769531 308.800781 C 154.460938 327.511719 184.878906 327.511719 203.574219 308.800781 L 235.09375 277.257812 C 235.328125 277.023438 235.707031 277.023438 235.941406 277.257812 C 236.175781 277.492188 236.175781 277.871094 235.941406 278.105469 L 204.421875 309.652344 C 195.140625 318.941406 182.796875 324.058594 169.671875 324.058594 " fill-opacity="1" fill-rule="nonzero"/><path fill="#000000" d="M 262.304688 251.476562 C 262.148438 251.476562 261.992188 251.417969 261.878906 251.300781 C 261.644531 251.066406 261.644531 250.683594 261.878906 250.449219 L 271.777344 240.542969 C 272.011719 240.308594 272.390625 240.308594 272.625 240.542969 C 272.859375 240.777344 272.859375 241.160156 272.625 241.394531 L 262.726562 251.300781 C 262.609375 251.417969 262.453125 251.476562 262.304688 251.476562 " fill-opacity="1" fill-rule="nonzero"/><path fill="#000000" d="M 291.585938 222.167969 C 291.433594 222.167969 291.277344 222.109375 291.160156 221.992188 C 290.929688 221.757812 290.929688 221.378906 291.160156 221.144531 L 299.332031 212.964844 C 299.566406 212.730469 299.945312 212.730469 300.183594 212.964844 C 300.414062 213.199219 300.414062 213.578125 300.183594 213.8125 L 292.011719 221.992188 C 291.894531 222.109375 291.738281 222.167969 291.585938 222.167969 " fill-opacity="1" fill-rule="nonzero"/><path fill="#000000" d="M 314.015625 199.71875 C 313.863281 199.71875 313.707031 199.660156 313.59375 199.542969 C 313.355469 199.308594 313.355469 198.929688 313.59375 198.695312 L 340.085938 172.183594 C 340.316406 171.945312 340.699219 171.945312 340.933594 172.183594 C 341.167969 172.414062 341.167969 172.796875 340.933594 173.03125 L 314.441406 199.542969 C 314.324219 199.660156 314.171875 199.71875 314.015625 199.71875 " fill-opacity="1" fill-rule="nonzero"/><path fill="#000000" d="M 147.460938 230 C 147.308594 230 147.15625 229.941406 147.039062 229.824219 C 146.800781 229.589844 146.800781 229.210938 147.039062 228.976562 L 212.308594 163.652344 C 212.542969 163.417969 212.921875 163.417969 213.15625 163.652344 C 213.390625 163.886719 213.390625 164.265625 213.15625 164.5 L 147.886719 229.824219 C 147.769531 229.941406 147.617188 230 147.460938 230 " fill-opacity="1" fill-rule="nonzero"/><path fill="#5236ff" d="M 248.324219 235.214844 C 241 239.453125 231.632812 236.953125 227.390625 229.625 C 223.15625 222.296875 225.652344 212.917969 232.976562 208.675781 C 240.296875 204.433594 249.671875 206.9375 253.910156 214.265625 C 258.148438 221.59375 255.644531 230.972656 248.324219 235.214844 Z M 268.785156 209.089844 L 265.804688 203.933594 L 259.601562 205.875 C 258.695312 204.804688 257.714844 203.824219 256.671875 202.9375 L 258.589844 196.734375 L 253.433594 193.761719 L 249.03125 198.546875 C 247.730469 198.078125 246.390625 197.722656 245.027344 197.476562 L 243.59375 191.132812 L 237.644531 191.140625 L 236.21875 197.476562 C 234.871094 197.722656 233.535156 198.085938 232.21875 198.5625 L 227.804688 193.789062 L 222.65625 196.773438 L 224.59375 202.980469 C 223.523438 203.886719 222.542969 204.863281 221.660156 205.914062 L 215.457031 203.988281 L 212.488281 209.148438 L 217.273438 213.558594 C 216.804688 214.859375 216.449219 216.199219 216.203125 217.5625 L 209.863281 219 L 209.871094 224.957031 L 216.203125 226.378906 C 216.449219 227.726562 216.808594 229.066406 217.289062 230.382812 L 212.515625 234.800781 L 215.496094 239.953125 L 221.703125 238.015625 C 222.605469 239.085938 223.585938 240.066406 224.628906 240.949219 L 222.710938 247.15625 L 227.867188 250.128906 L 232.269531 245.34375 C 233.570312 245.808594 234.910156 246.167969 236.273438 246.410156 L 237.707031 252.757812 L 243.65625 252.75 L 245.082031 246.410156 C 246.429688 246.167969 247.765625 245.804688 249.082031 245.324219 L 253.496094 250.101562 L 258.648438 247.117188 L 256.707031 240.910156 C 257.777344 240.003906 258.757812 239.027344 259.640625 237.976562 L 265.84375 239.898438 L 268.8125 234.738281 L 264.03125 230.332031 C 264.496094 229.03125 264.851562 227.691406 265.097656 226.328125 L 271.4375 224.890625 L 271.429688 218.933594 L 265.097656 217.511719 C 264.851562 216.164062 264.488281 214.824219 264.011719 213.507812 L 268.785156 209.089844 " fill-opacity="1" fill-rule="nonzero"/><path fill="#000000" d="M 237.796875 206.464844 C 235.292969 206.464844 232.765625 207.101562 230.449219 208.441406 C 227.046875 210.410156 224.613281 213.589844 223.601562 217.390625 C 222.585938 221.191406 223.113281 225.164062 225.082031 228.570312 C 229.148438 235.597656 238.171875 238.007812 245.195312 233.9375 C 252.21875 229.871094 254.625 220.839844 250.5625 213.8125 C 247.835938 209.097656 242.882812 206.464844 237.796875 206.464844 Z M 237.847656 237.117188 C 232.347656 237.117188 226.992188 234.265625 224.042969 229.171875 C 221.914062 225.488281 221.34375 221.191406 222.441406 217.082031 C 223.539062 212.96875 226.167969 209.53125 229.847656 207.402344 C 237.445312 203 247.203125 205.605469 251.597656 213.207031 C 255.996094 220.8125 253.394531 230.578125 245.796875 234.976562 C 243.292969 236.429688 240.550781 237.117188 237.847656 237.117188 Z M 229.441406 243.988281 C 229.507812 243.988281 229.578125 244 229.644531 244.023438 C 230.910156 244.476562 232.222656 244.828125 233.550781 245.066406 C 233.785156 245.109375 233.972656 245.289062 234.027344 245.523438 L 235.355469 251.402344 L 240.347656 251.394531 L 241.664062 245.523438 C 241.71875 245.289062 241.90625 245.109375 242.144531 245.066406 C 243.449219 244.828125 244.761719 244.472656 246.050781 244.007812 C 246.277344 243.921875 246.527344 243.988281 246.691406 244.164062 L 250.78125 248.585938 L 255.101562 246.085938 L 253.304688 240.332031 C 253.234375 240.101562 253.308594 239.851562 253.492188 239.695312 C 254.535156 238.8125 255.496094 237.851562 256.351562 236.835938 C 256.507812 236.652344 256.761719 236.574219 256.992188 236.648438 L 262.730469 238.429688 L 265.222656 234.101562 L 260.792969 230.019531 C 260.617188 229.855469 260.554688 229.601562 260.636719 229.375 C 261.089844 228.105469 261.4375 226.792969 261.675781 225.46875 C 261.722656 225.230469 261.902344 225.039062 262.136719 224.988281 L 268.007812 223.65625 L 268.003906 218.660156 L 262.136719 217.34375 C 261.902344 217.289062 261.722656 217.101562 261.675781 216.863281 C 261.441406 215.554688 261.085938 214.242188 260.617188 212.957031 C 260.535156 212.730469 260.597656 212.472656 260.777344 212.308594 L 265.195312 208.21875 L 262.695312 203.894531 L 256.949219 205.691406 C 256.722656 205.765625 256.46875 205.691406 256.3125 205.507812 C 255.429688 204.460938 254.464844 203.496094 253.453125 202.640625 C 253.269531 202.488281 253.195312 202.234375 253.269531 202.007812 L 255.046875 196.257812 L 250.722656 193.765625 L 246.644531 198.199219 C 246.480469 198.375 246.226562 198.4375 246 198.355469 C 244.730469 197.902344 243.417969 197.550781 242.09375 197.316406 C 241.855469 197.273438 241.667969 197.09375 241.613281 196.855469 L 240.285156 190.980469 L 235.292969 190.984375 L 233.976562 196.855469 C 233.925781 197.09375 233.734375 197.273438 233.5 197.316406 C 232.191406 197.550781 230.878906 197.90625 229.59375 198.371094 C 229.367188 198.457031 229.113281 198.394531 228.949219 198.214844 L 224.859375 193.792969 L 220.542969 196.296875 L 222.335938 202.046875 C 222.40625 202.277344 222.335938 202.527344 222.152344 202.683594 C 221.109375 203.566406 220.148438 204.527344 219.289062 205.542969 C 219.132812 205.726562 218.882812 205.804688 218.652344 205.730469 L 212.910156 203.949219 L 210.417969 208.277344 L 214.847656 212.363281 C 215.027344 212.523438 215.089844 212.777344 215.007812 213.007812 C 214.550781 214.273438 214.203125 215.589844 213.964844 216.914062 C 213.921875 217.148438 213.742188 217.339844 213.507812 217.390625 L 207.636719 218.726562 L 207.640625 223.71875 L 213.503906 225.035156 C 213.742188 225.089844 213.921875 225.277344 213.964844 225.515625 C 214.203125 226.820312 214.558594 228.136719 215.023438 229.421875 C 215.105469 229.648438 215.042969 229.90625 214.867188 230.070312 L 210.449219 234.160156 L 212.949219 238.480469 L 218.691406 236.6875 C 218.925781 236.617188 219.171875 236.6875 219.332031 236.871094 C 220.214844 237.917969 221.175781 238.878906 222.191406 239.738281 C 222.375 239.894531 222.449219 240.144531 222.375 240.375 L 220.59375 246.121094 L 224.917969 248.613281 L 228.996094 244.179688 C 229.113281 244.054688 229.277344 243.988281 229.441406 243.988281 Z M 234.878906 252.601562 C 234.597656 252.601562 234.355469 252.40625 234.292969 252.132812 L 232.945312 246.175781 C 231.816406 245.953125 230.699219 245.65625 229.617188 245.285156 L 225.476562 249.78125 C 225.289062 249.988281 224.980469 250.035156 224.734375 249.894531 L 219.578125 246.921875 C 219.335938 246.78125 219.222656 246.492188 219.304688 246.222656 L 221.113281 240.394531 C 220.253906 239.648438 219.4375 238.828125 218.675781 237.953125 L 212.847656 239.773438 C 212.578125 239.859375 212.289062 239.746094 212.148438 239.5 L 209.167969 234.347656 C 209.027344 234.101562 209.074219 233.792969 209.28125 233.605469 L 213.761719 229.457031 C 213.382812 228.355469 213.078125 227.238281 212.859375 226.125 L 206.910156 224.785156 C 206.632812 224.726562 206.4375 224.484375 206.4375 224.199219 L 206.433594 218.246094 C 206.433594 217.964844 206.628906 217.722656 206.902344 217.65625 L 212.859375 216.308594 C 213.078125 215.183594 213.375 214.066406 213.742188 212.976562 L 209.253906 208.835938 C 209.046875 208.644531 209 208.335938 209.140625 208.09375 L 212.109375 202.933594 C 212.25 202.691406 212.539062 202.578125 212.808594 202.660156 L 218.632812 204.46875 C 219.378906 203.609375 220.195312 202.792969 221.074219 202.027344 L 219.253906 196.195312 C 219.167969 195.929688 219.28125 195.636719 219.523438 195.496094 L 224.675781 192.515625 C 224.917969 192.375 225.226562 192.417969 225.417969 192.625 L 229.5625 197.109375 C 230.660156 196.730469 231.777344 196.425781 232.890625 196.203125 L 234.226562 190.253906 C 234.289062 189.976562 234.53125 189.785156 234.8125 189.785156 L 240.761719 189.777344 C 240.761719 189.777344 240.761719 189.777344 240.765625 189.777344 C 241.046875 189.777344 241.285156 189.972656 241.347656 190.246094 L 242.699219 196.203125 C 243.820312 196.425781 244.9375 196.722656 246.027344 197.09375 L 250.164062 192.597656 C 250.355469 192.394531 250.664062 192.34375 250.90625 192.484375 L 256.0625 195.457031 C 256.308594 195.597656 256.417969 195.886719 256.335938 196.15625 L 254.53125 201.984375 C 255.386719 202.730469 256.203125 203.550781 256.96875 204.425781 L 262.796875 202.605469 C 263.0625 202.523438 263.351562 202.636719 263.492188 202.878906 L 266.472656 208.035156 C 266.617188 208.273438 266.566406 208.582031 266.363281 208.773438 L 261.882812 212.921875 C 262.261719 214.023438 262.5625 215.140625 262.785156 216.257812 L 268.734375 217.59375 C 269.007812 217.65625 269.203125 217.894531 269.203125 218.179688 L 269.207031 224.132812 C 269.207031 224.414062 269.015625 224.660156 268.738281 224.71875 L 262.785156 226.070312 C 262.566406 227.199219 262.265625 228.316406 261.898438 229.402344 L 266.390625 233.542969 C 266.597656 233.734375 266.640625 234.042969 266.503906 234.285156 L 263.53125 239.445312 C 263.394531 239.691406 263.105469 239.800781 262.835938 239.722656 L 257.011719 237.914062 C 256.265625 238.769531 255.445312 239.589844 254.570312 240.351562 L 256.390625 246.183594 C 256.472656 246.453125 256.359375 246.742188 256.117188 246.882812 L 250.964844 249.867188 C 250.726562 250.007812 250.417969 249.960938 250.226562 249.753906 L 246.082031 245.269531 C 244.980469 245.648438 243.867188 245.953125 242.75 246.171875 L 241.414062 252.125 C 241.355469 252.402344 241.109375 252.59375 240.828125 252.59375 L 234.878906 252.601562 " fill-opacity="1" fill-rule="nonzero"/><path fill="#000000" d="M 121.492188 99.652344 C 121.335938 99.652344 121.183594 99.59375 121.066406 99.476562 C 120.832031 99.242188 120.832031 98.863281 121.066406 98.628906 L 150.046875 69.625 C 150.28125 69.390625 150.664062 69.390625 150.898438 69.625 C 151.132812 69.859375 151.132812 70.238281 150.898438 70.472656 L 121.914062 99.476562 C 121.796875 99.59375 121.644531 99.652344 121.492188 99.652344 " fill-opacity="1" fill-rule="nonzero"/><path fill="#000000" d="M 91.941406 110.769531 C 91.789062 110.769531 91.632812 110.710938 91.515625 110.59375 C 91.28125 110.359375 91.28125 109.980469 91.515625 109.746094 L 132.058594 69.167969 C 132.296875 68.933594 132.675781 68.933594 132.910156 69.167969 C 133.144531 69.402344 133.144531 69.785156 132.910156 70.015625 L 92.367188 110.59375 C 92.25 110.710938 92.09375 110.769531 91.941406 110.769531 " fill-opacity="1" fill-rule="nonzero"/></svg>