<svg width="48" height="48" viewBox="0 0 48 48" fill="none" xmlns="http://www.w3.org/2000/svg">
<rect width="48" height="48" rx="16" fill="url(#paint0_linear_488_2903)"/>
<path d="M10.2905 16.8571C10.2905 15.7205 10.7421 14.6304 11.5458 13.8267C12.3495 13.0229 13.4396 12.5714 14.5762 12.5714H33.4288C34.5655 12.5714 35.6555 13.0229 36.4593 13.8267C37.263 14.6304 37.7145 15.7205 37.7145 16.8571V16.8686L24.0002 23.8937L10.2905 16.8731V16.8571ZM10.2905 18.7988V30C10.2905 31.1366 10.7421 32.2267 11.5458 33.0304C12.3495 33.8342 13.4396 34.2857 14.5762 34.2857H33.4288C34.5655 34.2857 35.6555 33.8342 36.4593 33.0304C37.263 32.2267 37.7145 31.1366 37.7145 30V18.7954L24.3911 25.6206C24.2701 25.6825 24.1362 25.7149 24.0002 25.7149C23.8643 25.7149 23.7303 25.6825 23.6094 25.6206L10.2905 18.7988Z" fill="white"/>
<defs>
<linearGradient id="paint0_linear_488_2903" x1="0" y1="24" x2="48" y2="24" gradientUnits="userSpaceOnUse">
<stop stop-color="#5236FF"/>
<stop offset="1" stop-color="#A574FF"/>
</linearGradient>
</defs>
</svg>
