<svg width="32" height="33" viewBox="0 0 32 33" fill="none" xmlns="http://www.w3.org/2000/svg">
<path d="M32 16.0228C32 24.1038 26.0099 30.7845 18.2282 31.8686C17.5006 31.9695 16.7562 32.0222 16.0006 32.0222C15.1283 32.0222 14.2718 31.9527 13.4377 31.8182C5.81859 30.5917 0 23.9861 0 16.0228C0 7.18615 7.16393 0.0222168 15.9994 0.0222168C24.835 0.0222168 32 7.18615 32 16.0228Z" fill="#1877F2"/>
<path d="M18.2285 12.8694V16.355H22.5404L21.8576 21.0502H18.2285V31.8678C17.5009 31.9687 16.7565 32.0214 16.0009 32.0214C15.1287 32.0214 14.2721 31.9519 13.438 31.8174V21.0502H9.46143V16.355H13.438V12.0902C13.438 9.4444 15.5827 7.29858 18.2297 7.29858V7.30083C18.2375 7.30083 18.2442 7.29858 18.2521 7.29858H22.5415V11.3593H19.7387C18.9057 11.3593 18.2297 12.0353 18.2297 12.8683L18.2285 12.8694Z" fill="white"/>
</svg>
