<svg width="32" height="33" viewBox="0 0 32 33" fill="none" xmlns="http://www.w3.org/2000/svg">
<path d="M16.0364 0.0222168H15.9636C7.14713 0.0222168 0 7.16935 0 15.9858V16.0587C0 24.8751 7.14713 32.0222 15.9636 32.0222H16.0364C24.8529 32.0222 32 24.8751 32 16.0587V15.9858C32 7.16935 24.8529 0.0222168 16.0364 0.0222168Z" fill="url(#paint0_linear_84_3878)"/>
<path d="M20.9515 6.53198H11.0498C8.31428 6.53198 6.08887 8.7574 6.08887 11.4929V20.5515C6.08887 23.2871 8.31428 25.5125 11.0498 25.5125H20.9515C23.687 25.5125 25.9124 23.2871 25.9124 20.5515V11.4929C25.9124 8.7574 23.687 6.53198 20.9515 6.53198ZM7.83893 11.4929C7.83893 9.72268 9.27956 8.28204 11.0498 8.28204H20.9515C22.7217 8.28204 24.1624 9.72268 24.1624 11.4929V20.5515C24.1624 22.3218 22.7217 23.7624 20.9515 23.7624H11.0498C9.27956 23.7624 7.83893 22.3218 7.83893 20.5515V11.4929Z" fill="white"/>
<path d="M16.0007 20.636C18.5446 20.636 20.6153 18.5664 20.6153 16.0215C20.6153 13.4766 18.5457 11.407 16.0007 11.407C13.4558 11.407 11.3862 13.4766 11.3862 16.0215C11.3862 18.5664 13.4558 20.636 16.0007 20.636ZM16.0007 13.1582C17.5804 13.1582 18.8652 14.443 18.8652 16.0226C18.8652 17.6023 17.5804 18.8871 16.0007 18.8871C14.4211 18.8871 13.1363 17.6023 13.1363 16.0226C13.1363 14.443 14.4211 13.1582 16.0007 13.1582Z" fill="white"/>
<path d="M21.0421 12.1524C21.7271 12.1524 22.2855 11.5952 22.2855 10.9091C22.2855 10.223 21.7283 9.66577 21.0421 9.66577C20.356 9.66577 19.7988 10.223 19.7988 10.9091C19.7988 11.5952 20.356 12.1524 21.0421 12.1524Z" fill="white"/>
<defs>
<linearGradient id="paint0_linear_84_3878" x1="4.67505" y1="27.3472" x2="27.3249" y2="4.69839" gradientUnits="userSpaceOnUse">
<stop stop-color="#FAAD4F"/>
<stop offset="0.35" stop-color="#DD2A7B"/>
<stop offset="0.62" stop-color="#9537B0"/>
<stop offset="1" stop-color="#515BD4"/>
</linearGradient>
</defs>
</svg>
