<svg width="32" height="33" viewBox="0 0 32 33" fill="none" xmlns="http://www.w3.org/2000/svg">
<path d="M16.0364 0.0222168H15.9636C7.14714 0.0222168 0 7.16935 0 15.9858V16.0587C0 24.8751 7.14714 32.0222 15.9636 32.0222H16.0364C24.8529 32.0222 32 24.8751 32 16.0587V15.9858C32 7.16935 24.8529 0.0222168 16.0364 0.0222168Z" fill="#007EBB"/>
<path d="M7.63166 10.6597C7.21012 10.2684 7.00049 9.7841 7.00049 9.20785C7.00049 8.63159 7.21124 8.12597 7.63166 7.73358C8.0532 7.34231 8.59582 7.14612 9.26065 7.14612C9.92547 7.14612 10.4468 7.34231 10.8672 7.73358C11.2888 8.12485 11.4984 8.61702 11.4984 9.20785C11.4984 9.79868 11.2876 10.2684 10.8672 10.6597C10.4457 11.051 9.91089 11.2472 9.26065 11.2472C8.6104 11.2472 8.0532 11.051 7.63166 10.6597ZM11.1441 12.9042V24.9001H7.35363V12.9042H11.1441Z" fill="#FEFFFC"/>
<path d="M23.7623 14.0892C24.5886 14.9861 25.0012 16.2171 25.0012 17.7844V24.6883H21.4013V18.271C21.4013 17.4806 21.1961 16.8662 20.7869 16.429C20.3777 15.9918 19.8261 15.772 19.1355 15.772C18.4449 15.772 17.8933 15.9906 17.4841 16.429C17.0749 16.8662 16.8697 17.4806 16.8697 18.271V24.6883H13.2485V12.8706H16.8697V14.4379C17.2363 13.9155 17.7308 13.5029 18.3519 13.1991C18.973 12.8952 19.6714 12.7439 20.4483 12.7439C21.8318 12.7439 22.9372 13.1923 23.7623 14.0892Z" fill="#FEFFFC"/>
</svg>
