<svg xmlns="http://www.w3.org/2000/svg" xmlns:xlink="http://www.w3.org/1999/xlink" width="340" zoomAndPan="magnify" viewBox="0 0 255 249.749992" height="332" preserveAspectRatio="xMidYMid meet" version="1.0"><defs><clipPath id="218780b74c"><path d="M 0.128906 46.976562 L 254.871094 46.976562 L 254.871094 193.972656 L 0.128906 193.972656 Z M 0.128906 46.976562 " clip-rule="nonzero"/></clipPath></defs><g clip-path="url(#218780b74c)"><path fill="#f0a308" d="M 232.402344 46.976562 L 56.828125 46.976562 C 44.367188 46.976562 34.171875 57.152344 34.171875 69.589844 L 34.171875 78.070312 C 34.171875 81.179688 36.722656 83.722656 39.835938 83.722656 C 42.953125 83.722656 45.5 81.179688 45.5 78.070312 L 45.5 69.589844 C 45.5 68.457031 45.785156 67.328125 46.066406 66.199219 L 109.5 120.472656 L 46.066406 174.75 C 45.785156 173.617188 45.5 172.488281 45.5 171.355469 L 45.5 162.875 C 45.5 159.765625 42.953125 157.222656 39.835938 157.222656 C 36.722656 157.222656 34.171875 159.765625 34.171875 162.875 L 34.171875 171.355469 C 34.171875 183.792969 44.367188 193.972656 56.828125 193.972656 L 232.402344 193.972656 C 244.863281 193.972656 255.058594 183.792969 255.058594 171.355469 L 255.058594 69.589844 C 255.058594 57.152344 244.863281 46.976562 232.402344 46.976562 Z M 54.5625 58.566406 C 55.128906 58.28125 55.976562 58.28125 56.828125 58.28125 L 232.402344 58.28125 C 233.253906 58.28125 234.101562 58.28125 234.667969 58.566406 L 148.296875 132.347656 C 146.03125 134.042969 143.199219 134.042969 140.933594 132.347656 Z M 232.402344 182.664062 L 56.828125 182.664062 C 55.976562 182.664062 55.128906 182.664062 54.5625 182.382812 L 118.28125 127.824219 L 133.570312 141.109375 C 136.6875 143.9375 140.652344 145.347656 144.617188 145.347656 C 148.582031 145.347656 152.542969 143.9375 155.660156 141.109375 L 170.953125 127.824219 L 234.667969 182.382812 C 234.101562 182.664062 233.253906 182.664062 232.402344 182.664062 Z M 243.730469 171.355469 C 243.730469 172.488281 243.449219 173.617188 243.164062 174.75 L 179.730469 120.472656 L 243.164062 66.199219 C 243.449219 67.328125 243.730469 68.457031 243.730469 69.589844 Z M 17.183594 106.339844 C 17.183594 103.230469 19.730469 100.683594 22.84375 100.683594 L 56.828125 100.683594 C 59.941406 100.683594 62.492188 103.230469 62.492188 106.339844 C 62.492188 109.449219 59.941406 111.992188 56.828125 111.992188 L 22.84375 111.992188 C 19.730469 111.992188 17.183594 109.449219 17.183594 106.339844 Z M 56.828125 140.261719 L 5.855469 140.261719 C 2.738281 140.261719 0.191406 137.714844 0.191406 134.605469 C 0.191406 131.496094 2.738281 128.953125 5.855469 128.953125 L 56.828125 128.953125 C 59.941406 128.953125 62.492188 131.496094 62.492188 134.605469 C 62.492188 137.714844 59.941406 140.261719 56.828125 140.261719 Z M 56.828125 140.261719 " fill-opacity="1" fill-rule="nonzero"/></g></svg>