<svg width="83" height="83" viewBox="0 0 83 83" fill="none" xmlns="http://www.w3.org/2000/svg">
<rect width="83" height="83" rx="20" fill="#F563D3"/>
<path d="M21.0699 31.0158C21.0839 31.0944 21.0952 31.173 21.0999 31.2523C21.1592 32.2695 21.9282 40.3854 31.5962 50.2673C31.5962 50.2673 39.9477 58.7782 48.7374 60.5676C48.7754 60.5755 48.8128 60.584 48.8508 60.5945C49.383 60.7392 53.9075 61.8828 56.2398 59.5439L59.5626 56.2807C59.5926 56.2512 59.6239 56.2224 59.6559 56.1949C59.9874 55.91 62.295 53.778 59.9867 51.5111C57.6504 49.2167 54.7052 46.4192 54.3717 46.1022C54.3557 46.0871 54.3404 46.0721 54.3251 46.0563C54.1443 45.8716 52.4276 44.2106 50.4168 45.7282C50.3587 45.7721 50.304 45.8212 50.252 45.8723L46.9987 49.0758C46.2697 49.7668 45.1119 49.7577 44.3936 49.0555L33.2789 38.1821C32.5326 37.4517 32.552 36.259 33.3216 35.5523L35.9227 33.1655C35.9227 33.1655 38.7726 30.5744 35.712 27.7756L31.1687 23.3138C31.1407 23.2863 31.114 23.2581 31.0874 23.2287C30.7939 22.9038 28.6163 20.6794 26.0613 23.1553C25.9832 23.2306 25.8985 23.2987 25.8085 23.359C24.9415 23.9433 20.3849 27.2077 21.0699 31.0158Z" fill="white"/>
<path d="M51.6928 38.9647C52.3964 38.9643 52.9758 38.3908 52.8762 37.6942C52.7531 36.834 52.5058 35.994 52.1402 35.2009C51.5962 34.0209 50.8032 32.9726 49.8156 32.1282C48.828 31.2838 47.6693 30.6633 46.4191 30.3092C45.5788 30.0713 44.7105 29.9575 43.8417 29.9696C43.1381 29.9794 42.6615 30.6408 42.7705 31.336C42.8795 32.0312 43.5348 32.4931 44.2378 32.5227C44.7397 32.5438 45.2387 32.6234 45.7248 32.7611C46.621 33.0149 47.4516 33.4597 48.1596 34.065C48.8676 34.6704 49.4361 35.4218 49.826 36.2677C50.0375 36.7265 50.1938 37.2071 50.2926 37.6996C50.431 38.3895 50.9891 38.9651 51.6928 38.9647Z" fill="#F9A1E5"/>
<path d="M56.9542 39.1092C57.8018 39.1755 58.552 38.5406 58.5203 37.691C58.4627 36.1458 58.1367 34.6182 57.5531 33.1778C56.7762 31.2605 55.5642 29.55 54.0128 28.1816C52.4613 26.8132 50.6129 25.8242 48.6136 25.2929C47.1116 24.8937 45.5553 24.761 44.0149 24.8968C43.168 24.9715 42.6318 25.7951 42.8034 26.6278C42.9751 27.4604 43.7906 27.984 44.6396 27.9387C45.7082 27.8816 46.7824 27.9919 47.8228 28.2684C49.3608 28.6772 50.7827 29.4379 51.9762 30.4906C53.1696 31.5433 54.102 32.859 54.6996 34.334C55.1038 35.3317 55.3474 36.3837 55.4242 37.4511C55.4853 38.2991 56.1066 39.0429 56.9542 39.1092Z" fill="#F9A1E5"/>
</svg>
