<svg width="48" height="48" viewBox="0 0 48 48" fill="none" xmlns="http://www.w3.org/2000/svg">
<rect width="48" height="48" rx="16" fill="url(#paint0_linear_488_2896)"/>
<path d="M36.4401 33.38C36.2726 34.1307 35.8575 34.8032 35.2614 35.2893C34.6102 35.9497 33.8343 36.4741 32.9787 36.8321C32.1231 37.1901 31.2049 37.3745 30.2774 37.3747H29.8441C27.8973 37.2699 25.9911 36.7772 24.2374 35.9253H24.2241C23.8174 35.736 23.3974 35.5467 22.9908 35.316C20.9445 34.1662 19.0668 32.7394 17.4108 31.076C15.2634 29.0593 13.5013 26.6683 12.2108 24.02C11.5247 22.5688 11.0668 21.0203 10.8534 19.4293C10.5378 17.7641 10.7267 16.0425 11.3961 14.4853C11.8181 13.7829 12.3329 13.1407 12.9268 12.576C13.1938 12.2733 13.5206 12.0291 13.8866 11.8589C14.2526 11.6886 14.6499 11.5959 15.0534 11.5867C15.4921 11.6359 15.9166 11.7714 16.3026 11.9853C16.6887 12.1993 17.0286 12.4875 17.3028 12.8333C17.9121 13.496 18.6561 14.1867 19.2668 14.824L20.1068 15.6507C20.6001 16.088 20.9054 16.6987 20.9601 17.3573C20.9601 17.9613 20.7374 18.544 20.3361 18.996C20.076 19.3119 19.8001 19.6145 19.5094 19.9027L19.2388 20.1867C19.0814 20.3333 18.9614 20.5147 18.8868 20.716C18.8201 20.912 18.7934 21.1187 18.8068 21.3253C19.0214 21.9 19.3588 22.4227 19.7934 22.856C20.4721 23.776 21.1494 24.576 21.8401 25.4427C23.0894 26.893 24.572 28.1246 26.2268 29.0867C26.3961 29.2107 26.5908 29.2933 26.7974 29.3293C26.9761 29.3427 27.1574 29.316 27.3254 29.2493C27.7988 28.9707 28.2188 28.6133 28.5708 28.192C29.0445 27.6127 29.7239 27.2391 30.4668 27.1493C31.1818 27.1594 31.8638 27.4518 32.3641 27.9627C32.6348 28.192 32.9321 28.504 33.2174 28.8027L33.6228 29.2213L34.0428 29.628L34.7614 30.3587C35.1894 30.7387 35.5921 31.1453 35.9668 31.5787C36.3428 32.0987 36.5121 32.7427 36.4401 33.38ZM31.5788 24.1013C31.3104 24.0979 31.054 23.9897 30.8642 23.7999C30.6744 23.6101 30.5662 23.3537 30.5628 23.0853C30.5642 22.3184 30.4142 21.5587 30.1213 20.8498C29.8284 20.141 29.3985 19.4969 28.8562 18.9546C28.3139 18.4123 27.6698 17.9823 26.961 17.6895C26.2521 17.3966 25.4924 17.2466 24.7254 17.248C24.456 17.248 24.1976 17.141 24.007 16.9504C23.8165 16.7599 23.7094 16.5015 23.7094 16.232C23.7094 15.9625 23.8165 15.7041 24.007 15.5136C24.1976 15.323 24.456 15.216 24.7254 15.216C25.7593 15.2144 26.7833 15.4169 27.7388 15.8118C28.6942 16.2067 29.5624 16.7863 30.2934 17.5174C31.0245 18.2484 31.6041 19.1165 31.999 20.072C32.3939 21.0275 32.5964 22.0515 32.5948 23.0853C32.5948 23.2188 32.5685 23.3509 32.5174 23.4741C32.4664 23.5974 32.3915 23.7094 32.2972 23.8038C32.2029 23.8981 32.0909 23.9729 31.9676 24.024C31.8443 24.0751 31.7122 24.1013 31.5788 24.1013Z" fill="white"/>
<path d="M36.2787 23.6266C36.0105 23.6232 35.7543 23.5152 35.5645 23.3257C35.3748 23.1362 35.2665 22.8801 35.2627 22.612C35.2648 21.3052 35.0092 20.0108 34.5105 18.8029C34.0118 17.595 33.2799 16.4972 32.3565 15.5725C31.4332 14.6478 30.3365 13.9142 29.1293 13.4137C27.9222 12.9133 26.6282 12.6558 25.3214 12.656C25.1849 12.6609 25.0489 12.6383 24.9214 12.5895C24.7939 12.5407 24.6775 12.4667 24.5793 12.3719C24.481 12.2772 24.4028 12.1636 24.3495 12.0379C24.2961 11.9123 24.2686 11.7772 24.2686 11.6406C24.2686 11.5041 24.2961 11.369 24.3495 11.2433C24.4028 11.1177 24.481 11.0041 24.5793 10.9093C24.6775 10.8145 24.7939 10.7406 24.9214 10.6918C25.0489 10.643 25.1849 10.6204 25.3214 10.6253C26.8948 10.6253 28.4529 10.9354 29.9064 11.538C31.36 12.1405 32.6805 13.0237 33.7925 14.1369C34.9045 15.2502 35.7862 16.5717 36.3871 18.0259C36.988 19.4801 37.2964 21.0385 37.2947 22.612C37.2947 22.7454 37.2684 22.8775 37.2174 23.0008C37.1663 23.124 37.0915 23.236 36.9971 23.3304C36.9028 23.4247 36.7908 23.4996 36.6675 23.5506C36.5442 23.6017 36.4121 23.6266 36.2787 23.6266Z" fill="white"/>
<defs>
<linearGradient id="paint0_linear_488_2896" x1="0" y1="24" x2="48" y2="24" gradientUnits="userSpaceOnUse">
<stop stop-color="#5236FF"/>
<stop offset="1" stop-color="#A574FF"/>
</linearGradient>
</defs>
</svg>
