<svg width="42" height="42" viewBox="0 0 42 42" fill="none" xmlns="http://www.w3.org/2000/svg">
<path d="M30.6949 15.4175C33.5557 15.4175 35.8749 13.0983 35.8749 10.2375C35.8749 7.37666 33.5557 5.0575 30.6949 5.0575C27.8341 5.0575 25.5149 7.37666 25.5149 10.2375C25.5149 13.0983 27.8341 15.4175 30.6949 15.4175Z" fill="#242331"/>
<path d="M11.305 15.4175C14.1658 15.4175 16.485 13.0983 16.485 10.2375C16.485 7.37666 14.1658 5.0575 11.305 5.0575C8.44417 5.0575 6.125 7.37666 6.125 10.2375C6.125 13.0983 8.44417 15.4175 11.305 15.4175Z" fill="#242331"/>
<path d="M30.6949 36.9425C33.5557 36.9425 35.8749 34.6233 35.8749 31.7625C35.8749 28.9017 33.5557 26.5825 30.6949 26.5825C27.8341 26.5825 25.5149 28.9017 25.5149 31.7625C25.5149 34.6233 27.8341 36.9425 30.6949 36.9425Z" fill="#242331"/>
<path d="M11.305 36.9425C14.1658 36.9425 16.485 34.6233 16.485 31.7625C16.485 28.9017 14.1658 26.5825 11.305 26.5825C8.44417 26.5825 6.125 28.9017 6.125 31.7625C6.125 34.6233 8.44417 36.9425 11.305 36.9425Z" fill="#242331"/>
</svg>
