<svg xmlns="http://www.w3.org/2000/svg" xmlns:xlink="http://www.w3.org/1999/xlink" width="500" zoomAndPan="magnify" viewBox="0 0 375 374.999991" height="500" preserveAspectRatio="xMidYMid meet" version="1.0"><defs><clipPath id="986f46bedc"><path d="M 0 17.8125 L 375 17.8125 L 375 357.5625 L 0 357.5625 Z M 0 17.8125 " clip-rule="nonzero"/></clipPath></defs><g clip-path="url(#986f46bedc)"><path fill="#ffffff" d="M 276.785156 53.609375 L 196.429688 53.609375 L 196.429688 26.796875 C 196.429688 26.207031 196.371094 25.628906 196.257812 25.050781 C 196.144531 24.476562 195.972656 23.917969 195.75 23.375 C 195.523438 22.832031 195.25 22.316406 194.921875 21.828125 C 194.597656 21.339844 194.226562 20.890625 193.8125 20.476562 C 193.398438 20.058594 192.949219 19.691406 192.460938 19.363281 C 191.972656 19.039062 191.457031 18.761719 190.917969 18.539062 C 190.375 18.3125 189.816406 18.144531 189.242188 18.027344 C 188.667969 17.914062 188.085938 17.855469 187.5 17.855469 C 186.914062 17.855469 186.332031 17.914062 185.757812 18.027344 C 185.183594 18.144531 184.625 18.3125 184.082031 18.539062 C 183.542969 18.761719 183.027344 19.039062 182.539062 19.363281 C 182.050781 19.691406 181.601562 20.058594 181.1875 20.476562 C 180.773438 20.890625 180.402344 21.339844 180.074219 21.828125 C 179.75 22.316406 179.476562 22.832031 179.25 23.375 C 179.027344 23.917969 178.855469 24.476562 178.742188 25.050781 C 178.628906 25.628906 178.570312 26.207031 178.570312 26.796875 L 178.570312 53.609375 L 98.214844 53.609375 C 96.753906 53.613281 95.292969 53.683594 93.839844 53.828125 C 92.386719 53.972656 90.941406 54.191406 89.507812 54.476562 C 88.074219 54.761719 86.660156 55.117188 85.257812 55.542969 C 83.859375 55.96875 82.488281 56.464844 81.136719 57.023438 C 79.785156 57.585938 78.46875 58.210938 77.179688 58.898438 C 75.890625 59.589844 74.636719 60.34375 73.421875 61.15625 C 72.207031 61.96875 71.035156 62.839844 69.902344 63.769531 C 68.773438 64.695312 67.691406 65.679688 66.660156 66.714844 C 65.625 67.746094 64.644531 68.832031 63.71875 69.960938 C 62.789062 71.09375 61.921875 72.265625 61.109375 73.484375 C 60.296875 74.699219 59.542969 75.953125 58.855469 77.242188 C 58.164062 78.535156 57.539062 79.855469 56.980469 81.207031 C 56.421875 82.558594 55.929688 83.933594 55.503906 85.335938 C 55.078125 86.734375 54.722656 88.152344 54.4375 89.585938 C 54.148438 91.023438 53.933594 92.46875 53.789062 93.921875 C 53.644531 95.378906 53.574219 96.839844 53.570312 98.304688 L 53.570312 259.195312 C 53.574219 260.660156 53.644531 262.117188 53.789062 263.574219 C 53.933594 265.03125 54.148438 266.476562 54.4375 267.910156 C 54.722656 269.347656 55.078125 270.765625 55.503906 272.164062 C 55.929688 273.5625 56.421875 274.941406 56.980469 276.292969 C 57.539062 277.644531 58.164062 278.964844 58.855469 280.253906 C 59.542969 281.542969 60.296875 282.796875 61.109375 284.015625 C 61.921875 285.230469 62.789062 286.40625 63.71875 287.535156 C 64.644531 288.667969 65.625 289.75 66.660156 290.785156 C 67.691406 291.820312 68.773438 292.800781 69.902344 293.730469 C 71.035156 294.660156 72.207031 295.527344 73.421875 296.34375 C 74.636719 297.15625 75.890625 297.90625 77.179688 298.597656 C 78.46875 299.289062 79.785156 299.914062 81.136719 300.472656 C 82.488281 301.035156 83.859375 301.527344 85.257812 301.953125 C 86.660156 302.378906 88.074219 302.734375 89.507812 303.023438 C 90.941406 303.308594 92.386719 303.523438 93.839844 303.667969 C 95.292969 303.8125 96.753906 303.886719 98.214844 303.886719 L 147.007812 303.886719 L 180.070312 353.539062 C 180.273438 353.84375 180.496094 354.132812 180.734375 354.410156 C 180.972656 354.6875 181.226562 354.949219 181.5 355.195312 C 181.769531 355.445312 182.054688 355.671875 182.355469 355.882812 C 182.652344 356.09375 182.964844 356.285156 183.289062 356.460938 C 183.609375 356.632812 183.941406 356.785156 184.285156 356.917969 C 184.625 357.046875 184.972656 357.160156 185.328125 357.25 C 185.683594 357.335938 186.042969 357.40625 186.40625 357.449219 C 186.769531 357.496094 187.132812 357.515625 187.5 357.515625 C 187.867188 357.515625 188.230469 357.496094 188.59375 357.449219 C 188.957031 357.40625 189.316406 357.335938 189.671875 357.25 C 190.027344 357.160156 190.375 357.046875 190.714844 356.917969 C 191.058594 356.785156 191.390625 356.632812 191.710938 356.460938 C 192.035156 356.285156 192.347656 356.09375 192.644531 355.882812 C 192.945312 355.671875 193.230469 355.445312 193.5 355.195312 C 193.773438 354.949219 194.027344 354.6875 194.265625 354.410156 C 194.503906 354.132812 194.726562 353.84375 194.929688 353.539062 L 227.992188 303.886719 L 276.785156 303.886719 C 278.246094 303.886719 279.707031 303.8125 281.160156 303.667969 C 282.613281 303.523438 284.058594 303.308594 285.492188 303.023438 C 286.925781 302.734375 288.339844 302.378906 289.742188 301.953125 C 291.140625 301.527344 292.511719 301.035156 293.863281 300.472656 C 295.214844 299.914062 296.53125 299.289062 297.820312 298.597656 C 299.109375 297.90625 300.363281 297.15625 301.578125 296.34375 C 302.792969 295.527344 303.964844 294.660156 305.097656 293.730469 C 306.226562 292.800781 307.308594 291.820312 308.339844 290.785156 C 309.375 289.75 310.355469 288.667969 311.28125 287.535156 C 312.210938 286.40625 313.078125 285.230469 313.890625 284.015625 C 314.703125 282.796875 315.457031 281.546875 316.144531 280.253906 C 316.835938 278.964844 317.460938 277.644531 318.019531 276.292969 C 318.578125 274.941406 319.070312 273.5625 319.496094 272.164062 C 319.921875 270.765625 320.277344 269.347656 320.5625 267.910156 C 320.851562 266.476562 321.066406 265.03125 321.210938 263.574219 C 321.355469 262.117188 321.425781 260.660156 321.429688 259.195312 L 321.429688 98.304688 C 321.425781 96.839844 321.355469 95.378906 321.210938 93.921875 C 321.066406 92.46875 320.851562 91.023438 320.5625 89.585938 C 320.277344 88.152344 319.921875 86.734375 319.496094 85.335938 C 319.070312 83.933594 318.578125 82.558594 318.019531 81.207031 C 317.460938 79.855469 316.835938 78.535156 316.144531 77.242188 C 315.457031 75.953125 314.703125 74.699219 313.890625 73.484375 C 313.078125 72.265625 312.210938 71.09375 311.28125 69.960938 C 310.355469 68.832031 309.375 67.746094 308.339844 66.714844 C 307.308594 65.679688 306.226562 64.695312 305.09375 63.769531 C 303.964844 62.839844 302.792969 61.96875 301.578125 61.15625 C 300.363281 60.34375 299.109375 59.589844 297.820312 58.898438 C 296.53125 58.210938 295.214844 57.585938 293.863281 57.023438 C 292.511719 56.464844 291.140625 55.96875 289.738281 55.542969 C 288.339844 55.117188 286.925781 54.761719 285.492188 54.476562 C 284.058594 54.191406 282.613281 53.972656 281.160156 53.828125 C 279.707031 53.683594 278.246094 53.613281 276.785156 53.609375 Z M 303.570312 259.195312 C 303.570312 260.074219 303.527344 260.949219 303.441406 261.824219 C 303.351562 262.695312 303.222656 263.5625 303.050781 264.425781 C 302.878906 265.285156 302.667969 266.136719 302.410156 266.976562 C 302.15625 267.816406 301.859375 268.640625 301.523438 269.453125 C 301.1875 270.261719 300.8125 271.054688 300.398438 271.828125 C 299.984375 272.605469 299.535156 273.355469 299.046875 274.085938 C 298.5625 274.816406 298.039062 275.519531 297.480469 276.199219 C 296.925781 276.878906 296.335938 277.527344 295.71875 278.148438 C 295.097656 278.769531 294.449219 279.359375 293.769531 279.914062 C 293.09375 280.472656 292.390625 280.996094 291.660156 281.480469 C 290.929688 281.96875 290.179688 282.421875 289.40625 282.835938 C 288.632812 283.25 287.839844 283.625 287.03125 283.960938 C 286.222656 284.296875 285.398438 284.59375 284.558594 284.847656 C 283.71875 285.105469 282.871094 285.316406 282.007812 285.488281 C 281.148438 285.664062 280.28125 285.792969 279.410156 285.878906 C 278.539062 285.964844 277.664062 286.007812 276.785156 286.011719 L 223.214844 286.011719 C 222.480469 286.011719 221.757812 286.101562 221.042969 286.28125 C 220.332031 286.460938 219.652344 286.722656 219.003906 287.070312 C 218.355469 287.417969 217.757812 287.839844 217.214844 288.332031 C 216.671875 288.828125 216.195312 289.378906 215.785156 289.992188 L 187.5 332.464844 L 159.214844 289.992188 C 158.804688 289.378906 158.328125 288.828125 157.785156 288.332031 C 157.242188 287.839844 156.644531 287.417969 155.996094 287.070312 C 155.347656 286.722656 154.667969 286.460938 153.957031 286.28125 C 153.242188 286.101562 152.519531 286.011719 151.785156 286.011719 L 98.214844 286.011719 C 97.335938 286.007812 96.460938 285.964844 95.589844 285.878906 C 94.71875 285.792969 93.851562 285.664062 92.992188 285.488281 C 92.128906 285.316406 91.28125 285.105469 90.441406 284.847656 C 89.601562 284.59375 88.777344 284.296875 87.96875 283.960938 C 87.160156 283.625 86.367188 283.25 85.59375 282.835938 C 84.820312 282.421875 84.070312 281.96875 83.339844 281.480469 C 82.609375 280.992188 81.90625 280.472656 81.230469 279.914062 C 80.550781 279.359375 79.902344 278.769531 79.28125 278.148438 C 78.664062 277.527344 78.074219 276.878906 77.519531 276.199219 C 76.960938 275.519531 76.4375 274.816406 75.953125 274.085938 C 75.464844 273.355469 75.015625 272.605469 74.601562 271.828125 C 74.1875 271.054688 73.8125 270.261719 73.476562 269.453125 C 73.140625 268.640625 72.84375 267.816406 72.589844 266.976562 C 72.332031 266.136719 72.121094 265.285156 71.949219 264.425781 C 71.777344 263.5625 71.648438 262.695312 71.558594 261.824219 C 71.472656 260.949219 71.429688 260.074219 71.429688 259.195312 L 71.429688 232.378906 L 303.570312 232.378906 Z M 303.570312 214.503906 L 71.429688 214.503906 L 71.429688 98.304688 C 71.429688 97.425781 71.472656 96.550781 71.558594 95.675781 C 71.648438 94.800781 71.777344 93.933594 71.949219 93.074219 C 72.121094 92.210938 72.332031 91.363281 72.589844 90.523438 C 72.84375 89.683594 73.140625 88.855469 73.476562 88.046875 C 73.8125 87.234375 74.1875 86.441406 74.601562 85.667969 C 75.015625 84.894531 75.464844 84.140625 75.953125 83.414062 C 76.4375 82.683594 76.960938 81.976562 77.519531 81.300781 C 78.074219 80.621094 78.664062 79.972656 79.28125 79.351562 C 79.902344 78.730469 80.550781 78.140625 81.230469 77.582031 C 81.90625 77.027344 82.609375 76.503906 83.339844 76.015625 C 84.070312 75.527344 84.820312 75.078125 85.59375 74.664062 C 86.367188 74.25 87.160156 73.875 87.96875 73.535156 C 88.777344 73.199219 89.601562 72.90625 90.441406 72.648438 C 91.28125 72.394531 92.128906 72.179688 92.992188 72.007812 C 93.851562 71.835938 94.71875 71.707031 95.589844 71.621094 C 96.460938 71.53125 97.335938 71.488281 98.214844 71.488281 L 276.785156 71.488281 C 277.664062 71.488281 278.539062 71.53125 279.410156 71.621094 C 280.28125 71.707031 281.148438 71.835938 282.007812 72.007812 C 282.871094 72.179688 283.71875 72.394531 284.558594 72.648438 C 285.398438 72.90625 286.222656 73.199219 287.03125 73.535156 C 287.839844 73.875 288.632812 74.25 289.40625 74.664062 C 290.179688 75.078125 290.929688 75.527344 291.660156 76.015625 C 292.390625 76.503906 293.09375 77.027344 293.769531 77.582031 C 294.449219 78.140625 295.097656 78.730469 295.71875 79.351562 C 296.335938 79.972656 296.925781 80.621094 297.480469 81.300781 C 298.039062 81.976562 298.5625 82.683594 299.046875 83.414062 C 299.535156 84.140625 299.984375 84.894531 300.398438 85.667969 C 300.8125 86.441406 301.1875 87.234375 301.523438 88.046875 C 301.859375 88.855469 302.15625 89.683594 302.410156 90.523438 C 302.667969 91.363281 302.878906 92.210938 303.050781 93.074219 C 303.222656 93.933594 303.351562 94.800781 303.441406 95.675781 C 303.527344 96.550781 303.570312 97.425781 303.570312 98.304688 Z M 151.785156 151.933594 C 151.785156 152.519531 151.757812 153.101562 151.699219 153.6875 C 151.640625 154.269531 151.558594 154.847656 151.441406 155.421875 C 151.328125 155.996094 151.1875 156.5625 151.015625 157.125 C 150.847656 157.683594 150.648438 158.234375 150.425781 158.773438 C 150.203125 159.316406 149.953125 159.84375 149.675781 160.359375 C 149.402344 160.878906 149.101562 161.378906 148.777344 161.867188 C 148.453125 162.351562 148.101562 162.820312 147.730469 163.273438 C 147.359375 163.726562 146.96875 164.160156 146.554688 164.574219 C 146.140625 164.988281 145.710938 165.382812 145.257812 165.753906 C 144.804688 166.125 144.335938 166.472656 143.847656 166.796875 C 143.363281 167.125 142.863281 167.421875 142.347656 167.699219 C 141.832031 167.976562 141.300781 168.226562 140.761719 168.449219 C 140.222656 168.675781 139.671875 168.871094 139.113281 169.039062 C 138.550781 169.210938 137.984375 169.351562 137.414062 169.46875 C 136.839844 169.582031 136.261719 169.667969 135.679688 169.722656 C 135.097656 169.78125 134.511719 169.8125 133.929688 169.8125 C 133.34375 169.8125 132.761719 169.78125 132.179688 169.722656 C 131.597656 169.667969 131.019531 169.582031 130.445312 169.46875 C 129.871094 169.351562 129.304688 169.210938 128.746094 169.039062 C 128.183594 168.871094 127.636719 168.675781 127.09375 168.449219 C 126.554688 168.226562 126.027344 167.976562 125.511719 167.699219 C 124.996094 167.421875 124.492188 167.125 124.007812 166.796875 C 123.519531 166.472656 123.050781 166.125 122.601562 165.753906 C 122.148438 165.382812 121.714844 164.988281 121.300781 164.574219 C 120.886719 164.160156 120.496094 163.726562 120.125 163.273438 C 119.753906 162.820312 119.40625 162.351562 119.082031 161.867188 C 118.757812 161.378906 118.457031 160.878906 118.179688 160.359375 C 117.902344 159.84375 117.65625 159.316406 117.429688 158.773438 C 117.207031 158.234375 117.011719 157.683594 116.839844 157.125 C 116.671875 156.5625 116.527344 155.996094 116.414062 155.421875 C 116.300781 154.847656 116.214844 154.269531 116.15625 153.6875 C 116.101562 153.101562 116.070312 152.519531 116.070312 151.933594 C 116.070312 151.347656 116.101562 150.765625 116.15625 150.179688 C 116.214844 149.597656 116.300781 149.019531 116.414062 148.445312 C 116.527344 147.871094 116.671875 147.304688 116.839844 146.746094 C 117.011719 146.183594 117.207031 145.632812 117.429688 145.09375 C 117.65625 144.550781 117.902344 144.023438 118.179688 143.507812 C 118.457031 142.992188 118.757812 142.488281 119.082031 142 C 119.40625 141.515625 119.753906 141.046875 120.125 140.59375 C 120.496094 140.140625 120.886719 139.707031 121.300781 139.292969 C 121.714844 138.878906 122.148438 138.484375 122.601562 138.113281 C 123.050781 137.742188 123.519531 137.394531 124.007812 137.070312 C 124.492188 136.746094 124.996094 136.445312 125.511719 136.167969 C 126.027344 135.890625 126.554688 135.640625 127.09375 135.417969 C 127.636719 135.195312 128.183594 134.996094 128.746094 134.828125 C 129.304688 134.65625 129.871094 134.515625 130.445312 134.398438 C 131.019531 134.285156 131.597656 134.199219 132.179688 134.144531 C 132.761719 134.085938 133.34375 134.058594 133.929688 134.058594 C 134.511719 134.058594 135.097656 134.085938 135.679688 134.144531 C 136.261719 134.199219 136.839844 134.285156 137.414062 134.398438 C 137.984375 134.515625 138.550781 134.65625 139.113281 134.828125 C 139.671875 134.996094 140.222656 135.195312 140.761719 135.417969 C 141.300781 135.640625 141.832031 135.890625 142.347656 136.167969 C 142.863281 136.445312 143.363281 136.746094 143.847656 137.070312 C 144.335938 137.394531 144.804688 137.742188 145.257812 138.113281 C 145.710938 138.484375 146.140625 138.878906 146.554688 139.292969 C 146.96875 139.707031 147.359375 140.140625 147.730469 140.59375 C 148.101562 141.046875 148.453125 141.515625 148.777344 142 C 149.101562 142.488281 149.402344 142.992188 149.675781 143.507812 C 149.953125 144.023438 150.203125 144.550781 150.425781 145.09375 C 150.648438 145.632812 150.847656 146.183594 151.015625 146.746094 C 151.1875 147.304688 151.328125 147.871094 151.441406 148.445312 C 151.558594 149.019531 151.640625 149.597656 151.699219 150.179688 C 151.757812 150.765625 151.785156 151.347656 151.785156 151.933594 Z M 258.929688 151.933594 C 258.929688 152.519531 258.898438 153.101562 258.84375 153.6875 C 258.785156 154.269531 258.699219 154.847656 258.585938 155.421875 C 258.472656 155.996094 258.328125 156.5625 258.160156 157.125 C 257.988281 157.683594 257.792969 158.234375 257.570312 158.773438 C 257.34375 159.316406 257.09375 159.84375 256.820312 160.359375 C 256.542969 160.878906 256.242188 161.378906 255.917969 161.867188 C 255.59375 162.351562 255.246094 162.820312 254.875 163.273438 C 254.503906 163.726562 254.113281 164.160156 253.699219 164.574219 C 253.285156 164.988281 252.851562 165.382812 252.398438 165.753906 C 251.949219 166.125 251.480469 166.472656 250.992188 166.796875 C 250.507812 167.125 250.003906 167.421875 249.488281 167.699219 C 248.972656 167.976562 248.445312 168.226562 247.90625 168.449219 C 247.363281 168.675781 246.816406 168.871094 246.253906 169.039062 C 245.695312 169.210938 245.128906 169.351562 244.554688 169.46875 C 243.980469 169.582031 243.402344 169.667969 242.820312 169.722656 C 242.238281 169.78125 241.65625 169.8125 241.070312 169.8125 C 240.488281 169.8125 239.902344 169.78125 239.320312 169.722656 C 238.738281 169.667969 238.160156 169.582031 237.585938 169.46875 C 237.015625 169.351562 236.449219 169.210938 235.886719 169.039062 C 235.328125 168.871094 234.777344 168.675781 234.238281 168.449219 C 233.699219 168.226562 233.167969 167.976562 232.652344 167.699219 C 232.136719 167.421875 231.636719 167.125 231.152344 166.796875 C 230.664062 166.472656 230.195312 166.125 229.742188 165.753906 C 229.289062 165.382812 228.859375 164.988281 228.445312 164.574219 C 228.03125 164.160156 227.636719 163.726562 227.269531 163.273438 C 226.898438 162.820312 226.546875 162.351562 226.222656 161.867188 C 225.898438 161.378906 225.597656 160.878906 225.324219 160.359375 C 225.046875 159.84375 224.796875 159.316406 224.574219 158.773438 C 224.351562 158.234375 224.152344 157.683594 223.984375 157.125 C 223.8125 156.5625 223.671875 155.996094 223.558594 155.421875 C 223.441406 154.847656 223.359375 154.269531 223.300781 153.6875 C 223.242188 153.101562 223.214844 152.519531 223.214844 151.933594 C 223.214844 151.347656 223.242188 150.765625 223.300781 150.179688 C 223.359375 149.597656 223.441406 149.019531 223.558594 148.445312 C 223.671875 147.871094 223.8125 147.304688 223.984375 146.746094 C 224.152344 146.183594 224.351562 145.632812 224.574219 145.09375 C 224.796875 144.550781 225.046875 144.023438 225.324219 143.507812 C 225.597656 142.992188 225.898438 142.488281 226.222656 142 C 226.546875 141.515625 226.898438 141.046875 227.269531 140.59375 C 227.636719 140.140625 228.03125 139.707031 228.445312 139.292969 C 228.859375 138.878906 229.289062 138.484375 229.742188 138.113281 C 230.195312 137.742188 230.664062 137.394531 231.152344 137.070312 C 231.636719 136.746094 232.136719 136.445312 232.652344 136.167969 C 233.167969 135.890625 233.699219 135.640625 234.238281 135.417969 C 234.777344 135.195312 235.328125 134.996094 235.886719 134.828125 C 236.449219 134.65625 237.015625 134.515625 237.585938 134.398438 C 238.160156 134.285156 238.738281 134.199219 239.320312 134.144531 C 239.902344 134.085938 240.488281 134.058594 241.070312 134.058594 C 241.65625 134.058594 242.238281 134.085938 242.820312 134.144531 C 243.402344 134.199219 243.980469 134.285156 244.554688 134.398438 C 245.128906 134.515625 245.695312 134.65625 246.253906 134.828125 C 246.816406 134.996094 247.363281 135.195312 247.90625 135.417969 C 248.445312 135.640625 248.972656 135.890625 249.488281 136.167969 C 250.003906 136.445312 250.507812 136.746094 250.992188 137.070312 C 251.480469 137.394531 251.949219 137.742188 252.398438 138.113281 C 252.851562 138.484375 253.285156 138.878906 253.699219 139.292969 C 254.113281 139.707031 254.503906 140.140625 254.875 140.59375 C 255.246094 141.046875 255.59375 141.515625 255.917969 142 C 256.242188 142.488281 256.542969 142.992188 256.820312 143.507812 C 257.09375 144.023438 257.34375 144.550781 257.570312 145.09375 C 257.792969 145.632812 257.988281 146.183594 258.160156 146.746094 C 258.328125 147.304688 258.472656 147.871094 258.585938 148.445312 C 258.699219 149.019531 258.785156 149.597656 258.84375 150.179688 C 258.898438 150.765625 258.929688 151.347656 258.929688 151.933594 Z M 17.855469 116.179688 L 17.855469 187.6875 C 17.855469 188.273438 17.800781 188.855469 17.6875 189.429688 C 17.570312 190.007812 17.402344 190.566406 17.175781 191.109375 C 16.953125 191.648438 16.679688 192.164062 16.351562 192.652344 C 16.027344 193.140625 15.65625 193.59375 15.242188 194.007812 C 14.828125 194.421875 14.375 194.792969 13.890625 195.121094 C 13.402344 195.445312 12.886719 195.722656 12.34375 195.945312 C 11.804688 196.171875 11.246094 196.339844 10.671875 196.453125 C 10.09375 196.570312 9.515625 196.625 8.929688 196.625 C 8.34375 196.625 7.761719 196.570312 7.1875 196.453125 C 6.613281 196.339844 6.054688 196.171875 5.511719 195.945312 C 4.96875 195.722656 4.457031 195.445312 3.96875 195.121094 C 3.480469 194.792969 3.03125 194.421875 2.613281 194.007812 C 2.199219 193.59375 1.832031 193.140625 1.503906 192.652344 C 1.179688 192.164062 0.902344 191.648438 0.679688 191.109375 C 0.457031 190.566406 0.285156 190.007812 0.171875 189.429688 C 0.0585938 188.855469 0 188.273438 0 187.6875 L 0 116.179688 C 0 115.59375 0.0585938 115.011719 0.171875 114.4375 C 0.285156 113.859375 0.457031 113.300781 0.679688 112.757812 C 0.902344 112.21875 1.179688 111.703125 1.503906 111.214844 C 1.832031 110.726562 2.199219 110.273438 2.613281 109.859375 C 3.03125 109.445312 3.480469 109.074219 3.96875 108.746094 C 4.457031 108.421875 4.96875 108.148438 5.511719 107.921875 C 6.054688 107.699219 6.613281 107.527344 7.1875 107.414062 C 7.761719 107.296875 8.34375 107.242188 8.929688 107.242188 C 9.515625 107.242188 10.09375 107.296875 10.671875 107.414062 C 11.246094 107.527344 11.804688 107.699219 12.34375 107.921875 C 12.886719 108.148438 13.402344 108.421875 13.890625 108.746094 C 14.375 109.074219 14.828125 109.445312 15.242188 109.859375 C 15.65625 110.273438 16.027344 110.726562 16.351562 111.214844 C 16.679688 111.703125 16.953125 112.21875 17.175781 112.757812 C 17.402344 113.300781 17.570312 113.859375 17.6875 114.4375 C 17.800781 115.011719 17.855469 115.59375 17.855469 116.179688 Z M 375 116.179688 L 375 187.6875 C 375 188.273438 374.941406 188.855469 374.828125 189.429688 C 374.714844 190.007812 374.542969 190.566406 374.320312 191.109375 C 374.097656 191.648438 373.820312 192.164062 373.496094 192.652344 C 373.167969 193.140625 372.800781 193.59375 372.386719 194.007812 C 371.96875 194.421875 371.519531 194.792969 371.03125 195.121094 C 370.542969 195.445312 370.03125 195.722656 369.488281 195.945312 C 368.945312 196.171875 368.386719 196.339844 367.8125 196.453125 C 367.238281 196.570312 366.65625 196.625 366.070312 196.625 C 365.484375 196.625 364.90625 196.570312 364.328125 196.453125 C 363.753906 196.339844 363.195312 196.171875 362.65625 195.945312 C 362.113281 195.722656 361.597656 195.445312 361.109375 195.121094 C 360.625 194.792969 360.171875 194.421875 359.757812 194.007812 C 359.34375 193.59375 358.972656 193.140625 358.648438 192.652344 C 358.320312 192.164062 358.046875 191.648438 357.824219 191.109375 C 357.597656 190.566406 357.429688 190.007812 357.3125 189.429688 C 357.199219 188.855469 357.144531 188.273438 357.144531 187.6875 L 357.144531 116.179688 C 357.144531 115.59375 357.199219 115.011719 357.3125 114.4375 C 357.429688 113.859375 357.597656 113.300781 357.824219 112.757812 C 358.046875 112.21875 358.320312 111.703125 358.648438 111.214844 C 358.972656 110.726562 359.34375 110.273438 359.757812 109.859375 C 360.171875 109.445312 360.625 109.074219 361.109375 108.746094 C 361.597656 108.421875 362.113281 108.148438 362.65625 107.921875 C 363.195312 107.699219 363.753906 107.527344 364.328125 107.414062 C 364.90625 107.296875 365.484375 107.242188 366.070312 107.242188 C 366.65625 107.242188 367.238281 107.296875 367.8125 107.414062 C 368.386719 107.527344 368.945312 107.699219 369.488281 107.921875 C 370.03125 108.148438 370.542969 108.421875 371.03125 108.746094 C 371.519531 109.074219 371.96875 109.445312 372.386719 109.859375 C 372.800781 110.273438 373.167969 110.726562 373.496094 111.214844 C 373.820312 111.703125 374.097656 112.21875 374.320312 112.757812 C 374.542969 113.300781 374.714844 113.859375 374.828125 114.4375 C 374.941406 115.011719 375 115.59375 375 116.179688 Z M 375 116.179688 " fill-opacity="1" fill-rule="nonzero"/></g></svg>