<svg xmlns="http://www.w3.org/2000/svg" xmlns:xlink="http://www.w3.org/1999/xlink" width="1894" zoomAndPan="magnify" viewBox="0 0 1420.5 764.249981" height="1019" preserveAspectRatio="xMidYMid meet" version="1.0"><defs><g/><clipPath id="7e8670d7d5"><path d="M 502.609375 83.144531 L 917.535156 83.144531 L 917.535156 459.34375 L 502.609375 459.34375 Z M 502.609375 83.144531 " clip-rule="nonzero"/></clipPath></defs><g clip-path="url(#7e8670d7d5)"><path fill="#41048f" d="M 808.863281 122.785156 L 719.949219 122.785156 L 719.949219 93.09375 C 719.949219 92.441406 719.886719 91.800781 719.761719 91.164062 C 719.632812 90.523438 719.445312 89.90625 719.199219 89.304688 C 718.949219 88.707031 718.644531 88.136719 718.285156 87.59375 C 717.925781 87.054688 717.515625 86.554688 717.058594 86.09375 C 716.597656 85.636719 716.097656 85.226562 715.558594 84.863281 C 715.019531 84.503906 714.453125 84.199219 713.851562 83.949219 C 713.253906 83.699219 712.636719 83.511719 712 83.386719 C 711.363281 83.257812 710.71875 83.195312 710.070312 83.195312 C 709.421875 83.195312 708.78125 83.257812 708.144531 83.386719 C 707.507812 83.511719 706.890625 83.699219 706.292969 83.949219 C 705.691406 84.199219 705.121094 84.503906 704.582031 84.863281 C 704.042969 85.226562 703.542969 85.636719 703.085938 86.09375 C 702.628906 86.554688 702.21875 87.054688 701.859375 87.59375 C 701.496094 88.136719 701.191406 88.707031 700.945312 89.304688 C 700.695312 89.90625 700.507812 90.523438 700.382812 91.164062 C 700.253906 91.800781 700.191406 92.441406 700.191406 93.09375 L 700.191406 122.785156 L 611.28125 122.785156 C 609.664062 122.785156 608.050781 122.867188 606.441406 123.027344 C 604.832031 123.1875 603.234375 123.425781 601.648438 123.742188 C 600.0625 124.058594 598.492188 124.453125 596.945312 124.925781 C 595.398438 125.398438 593.878906 125.941406 592.382812 126.5625 C 590.890625 127.183594 589.429688 127.878906 588.003906 128.640625 C 586.578125 129.40625 585.191406 130.238281 583.847656 131.140625 C 582.503906 132.039062 581.207031 133.003906 579.957031 134.03125 C 578.707031 135.058594 577.507812 136.148438 576.367188 137.292969 C 575.222656 138.4375 574.136719 139.636719 573.109375 140.890625 C 572.085938 142.140625 571.121094 143.441406 570.222656 144.789062 C 569.324219 146.136719 568.492188 147.523438 567.730469 148.953125 C 566.96875 150.382812 566.277344 151.84375 565.65625 153.339844 C 565.035156 154.835938 564.492188 156.359375 564.023438 157.910156 C 563.550781 159.460938 563.15625 161.03125 562.839844 162.621094 C 562.523438 164.207031 562.285156 165.808594 562.125 167.421875 C 561.964844 169.035156 561.886719 170.652344 561.882812 172.269531 L 561.882812 350.421875 C 561.886719 352.042969 561.964844 353.65625 562.125 355.269531 C 562.285156 356.882812 562.523438 358.484375 562.839844 360.074219 C 563.15625 361.660156 563.550781 363.230469 564.023438 364.78125 C 564.492188 366.332031 565.035156 367.855469 565.65625 369.351562 C 566.277344 370.847656 566.96875 372.3125 567.730469 373.738281 C 568.492188 375.167969 569.324219 376.554688 570.222656 377.902344 C 571.121094 379.25 572.085938 380.550781 573.109375 381.800781 C 574.136719 383.054688 575.222656 384.253906 576.367188 385.398438 C 577.507812 386.546875 578.707031 387.632812 579.957031 388.660156 C 581.207031 389.6875 582.503906 390.652344 583.847656 391.554688 C 585.191406 392.453125 586.578125 393.285156 588.003906 394.050781 C 589.429688 394.816406 590.890625 395.507812 592.382812 396.128906 C 593.878906 396.75 595.398438 397.296875 596.945312 397.765625 C 598.492188 398.238281 600.0625 398.632812 601.648438 398.949219 C 603.234375 399.265625 604.832031 399.503906 606.441406 399.664062 C 608.050781 399.824219 609.664062 399.90625 611.28125 399.90625 L 665.269531 399.90625 L 701.851562 454.882812 C 702.078125 455.222656 702.320312 455.542969 702.585938 455.851562 C 702.851562 456.160156 703.132812 456.449219 703.433594 456.722656 C 703.730469 456.992188 704.046875 457.246094 704.378906 457.480469 C 704.710938 457.714844 705.054688 457.925781 705.410156 458.117188 C 705.769531 458.308594 706.136719 458.480469 706.511719 458.625 C 706.890625 458.773438 707.277344 458.894531 707.667969 458.992188 C 708.0625 459.089844 708.460938 459.164062 708.859375 459.214844 C 709.261719 459.265625 709.667969 459.289062 710.070312 459.289062 C 710.476562 459.289062 710.878906 459.265625 711.28125 459.214844 C 711.683594 459.164062 712.082031 459.089844 712.472656 458.992188 C 712.867188 458.894531 713.253906 458.773438 713.628906 458.625 C 714.007812 458.480469 714.375 458.308594 714.734375 458.117188 C 715.089844 457.925781 715.433594 457.714844 715.765625 457.480469 C 716.097656 457.246094 716.410156 456.992188 716.710938 456.722656 C 717.011719 456.449219 717.292969 456.160156 717.558594 455.851562 C 717.820312 455.542969 718.066406 455.222656 718.292969 454.882812 L 754.875 399.90625 L 808.863281 399.90625 C 810.480469 399.90625 812.09375 399.824219 813.703125 399.664062 C 815.3125 399.503906 816.910156 399.265625 818.496094 398.949219 C 820.082031 398.632812 821.648438 398.238281 823.195312 397.765625 C 824.746094 397.296875 826.265625 396.75 827.757812 396.128906 C 829.253906 395.507812 830.714844 394.816406 832.140625 394.050781 C 833.566406 393.285156 834.949219 392.453125 836.296875 391.554688 C 837.640625 390.652344 838.9375 389.6875 840.1875 388.660156 C 841.4375 387.632812 842.632812 386.546875 843.777344 385.398438 C 844.921875 384.253906 846.007812 383.054688 847.03125 381.800781 C 848.058594 380.550781 849.019531 379.25 849.921875 377.902344 C 850.820312 376.554688 851.648438 375.167969 852.414062 373.738281 C 853.175781 372.3125 853.867188 370.847656 854.488281 369.351562 C 855.105469 367.855469 855.652344 366.332031 856.121094 364.78125 C 856.59375 363.230469 856.984375 361.660156 857.300781 360.074219 C 857.617188 358.484375 857.855469 356.882812 858.015625 355.269531 C 858.175781 353.65625 858.257812 352.042969 858.257812 350.421875 L 858.257812 172.269531 C 858.257812 170.652344 858.175781 169.035156 858.015625 167.421875 C 857.855469 165.808594 857.617188 164.207031 857.300781 162.621094 C 856.984375 161.03125 856.59375 159.460938 856.121094 157.910156 C 855.652344 156.359375 855.105469 154.835938 854.488281 153.339844 C 853.867188 151.84375 853.175781 150.382812 852.414062 148.953125 C 851.648438 147.523438 850.820312 146.136719 849.921875 144.789062 C 849.019531 143.441406 848.058594 142.140625 847.03125 140.890625 C 846.007812 139.636719 844.921875 138.4375 843.777344 137.292969 C 842.632812 136.148438 841.4375 135.058594 840.1875 134.03125 C 838.9375 133.003906 837.640625 132.039062 836.296875 131.140625 C 834.949219 130.238281 833.566406 129.40625 832.140625 128.640625 C 830.714844 127.878906 829.253906 127.183594 827.757812 126.5625 C 826.265625 125.941406 824.746094 125.398438 823.195312 124.925781 C 821.648438 124.453125 820.082031 124.058594 818.496094 123.742188 C 816.910156 123.425781 815.3125 123.1875 813.703125 123.027344 C 812.09375 122.867188 810.480469 122.785156 808.863281 122.785156 Z M 838.5 350.421875 C 838.5 351.394531 838.449219 352.363281 838.355469 353.332031 C 838.257812 354.296875 838.117188 355.257812 837.925781 356.210938 C 837.734375 357.164062 837.5 358.105469 837.21875 359.035156 C 836.933594 359.964844 836.609375 360.878906 836.234375 361.777344 C 835.863281 362.675781 835.449219 363.554688 834.992188 364.410156 C 834.535156 365.269531 834.035156 366.101562 833.496094 366.910156 C 832.957031 367.71875 832.378906 368.496094 831.761719 369.25 C 831.148438 370 830.496094 370.71875 829.8125 371.40625 C 829.125 372.09375 828.40625 372.746094 827.65625 373.363281 C 826.90625 373.980469 826.128906 374.558594 825.320312 375.097656 C 824.515625 375.640625 823.683594 376.140625 822.828125 376.597656 C 821.972656 377.054688 821.097656 377.472656 820.199219 377.84375 C 819.304688 378.214844 818.390625 378.542969 817.460938 378.828125 C 816.535156 379.109375 815.59375 379.347656 814.644531 379.535156 C 813.691406 379.726562 812.734375 379.871094 811.765625 379.96875 C 810.800781 380.0625 809.832031 380.113281 808.863281 380.113281 L 749.589844 380.113281 C 748.773438 380.113281 747.976562 380.214844 747.1875 380.414062 C 746.398438 380.613281 745.644531 380.902344 744.929688 381.289062 C 744.210938 381.671875 743.550781 382.136719 742.949219 382.683594 C 742.347656 383.230469 741.820312 383.84375 741.367188 384.519531 L 710.070312 431.550781 L 678.773438 384.519531 C 678.324219 383.84375 677.796875 383.230469 677.191406 382.683594 C 676.589844 382.136719 675.929688 381.671875 675.214844 381.289062 C 674.496094 380.902344 673.746094 380.613281 672.957031 380.414062 C 672.167969 380.214844 671.367188 380.113281 670.554688 380.113281 L 611.28125 380.113281 C 610.308594 380.113281 609.34375 380.0625 608.375 379.96875 C 607.410156 379.871094 606.453125 379.726562 605.5 379.535156 C 604.550781 379.347656 603.609375 379.109375 602.679688 378.828125 C 601.753906 378.542969 600.839844 378.214844 599.945312 377.84375 C 599.046875 377.472656 598.171875 377.054688 597.316406 376.597656 C 596.460938 376.140625 595.628906 375.640625 594.820312 375.097656 C 594.015625 374.558594 593.238281 373.980469 592.488281 373.363281 C 591.738281 372.746094 591.019531 372.09375 590.332031 371.40625 C 589.648438 370.71875 588.996094 370 588.378906 369.25 C 587.765625 368.496094 587.1875 367.71875 586.648438 366.910156 C 586.109375 366.101562 585.609375 365.269531 585.152344 364.410156 C 584.695312 363.554688 584.277344 362.675781 583.90625 361.777344 C 583.535156 360.878906 583.207031 359.964844 582.925781 359.035156 C 582.644531 358.105469 582.40625 357.164062 582.21875 356.210938 C 582.027344 355.257812 581.882812 354.296875 581.789062 353.332031 C 581.691406 352.363281 581.644531 351.394531 581.644531 350.421875 L 581.644531 320.730469 L 838.5 320.730469 Z M 838.5 300.933594 L 581.644531 300.933594 L 581.644531 172.269531 C 581.644531 171.300781 581.691406 170.328125 581.789062 169.363281 C 581.882812 168.394531 582.027344 167.433594 582.21875 166.480469 C 582.40625 165.527344 582.644531 164.585938 582.925781 163.65625 C 583.207031 162.726562 583.535156 161.8125 583.90625 160.914062 C 584.277344 160.015625 584.695312 159.136719 585.152344 158.28125 C 585.609375 157.421875 586.109375 156.589844 586.648438 155.78125 C 587.1875 154.976562 587.765625 154.195312 588.378906 153.445312 C 588.996094 152.691406 589.648438 151.972656 590.332031 151.285156 C 591.019531 150.597656 591.738281 149.945312 592.488281 149.328125 C 593.238281 148.710938 594.015625 148.132812 594.820312 147.59375 C 595.628906 147.054688 596.460938 146.554688 597.316406 146.09375 C 598.171875 145.636719 599.046875 145.21875 599.945312 144.847656 C 600.839844 144.476562 601.753906 144.148438 602.679688 143.863281 C 603.609375 143.582031 604.550781 143.34375 605.5 143.15625 C 606.453125 142.964844 607.410156 142.820312 608.375 142.726562 C 609.34375 142.628906 610.308594 142.582031 611.28125 142.578125 L 808.863281 142.578125 C 809.832031 142.582031 810.800781 142.628906 811.765625 142.726562 C 812.734375 142.820312 813.691406 142.964844 814.644531 143.15625 C 815.59375 143.34375 816.535156 143.582031 817.460938 143.863281 C 818.390625 144.148438 819.304688 144.476562 820.199219 144.847656 C 821.097656 145.21875 821.972656 145.636719 822.828125 146.09375 C 823.683594 146.554688 824.515625 147.054688 825.320312 147.59375 C 826.128906 148.132812 826.90625 148.710938 827.65625 149.328125 C 828.40625 149.945312 829.125 150.597656 829.808594 151.285156 C 830.496094 151.972656 831.148438 152.691406 831.761719 153.445312 C 832.378906 154.195312 832.957031 154.976562 833.496094 155.78125 C 834.035156 156.589844 834.535156 157.421875 834.992188 158.28125 C 835.449219 159.136719 835.863281 160.015625 836.234375 160.914062 C 836.609375 161.8125 836.933594 162.726562 837.21875 163.65625 C 837.5 164.585938 837.734375 165.527344 837.925781 166.480469 C 838.117188 167.433594 838.257812 168.394531 838.355469 169.363281 C 838.449219 170.328125 838.5 171.300781 838.5 172.269531 Z M 670.554688 231.65625 C 670.554688 232.304688 670.523438 232.949219 670.460938 233.59375 C 670.398438 234.238281 670.300781 234.878906 670.175781 235.515625 C 670.050781 236.152344 669.890625 236.78125 669.703125 237.402344 C 669.515625 238.019531 669.296875 238.628906 669.050781 239.230469 C 668.804688 239.828125 668.527344 240.414062 668.222656 240.984375 C 667.917969 241.558594 667.585938 242.113281 667.226562 242.652344 C 666.867188 243.191406 666.480469 243.710938 666.070312 244.210938 C 665.660156 244.714844 665.226562 245.191406 664.769531 245.652344 C 664.308594 246.109375 663.832031 246.542969 663.332031 246.957031 C 662.832031 247.367188 662.3125 247.753906 661.773438 248.113281 C 661.234375 248.472656 660.679688 248.804688 660.109375 249.113281 C 659.539062 249.417969 658.957031 249.695312 658.359375 249.941406 C 657.761719 250.191406 657.152344 250.410156 656.53125 250.597656 C 655.914062 250.785156 655.285156 250.941406 654.652344 251.070312 C 654.015625 251.195312 653.378906 251.289062 652.734375 251.355469 C 652.089844 251.417969 651.445312 251.449219 650.796875 251.449219 C 650.148438 251.449219 649.503906 251.417969 648.859375 251.355469 C 648.214844 251.289062 647.578125 251.195312 646.941406 251.070312 C 646.308594 250.941406 645.679688 250.785156 645.0625 250.597656 C 644.441406 250.410156 643.832031 250.191406 643.234375 249.941406 C 642.636719 249.695312 642.054688 249.417969 641.484375 249.113281 C 640.910156 248.804688 640.359375 248.472656 639.820312 248.113281 C 639.28125 247.753906 638.761719 247.367188 638.261719 246.957031 C 637.761719 246.542969 637.28125 246.109375 636.824219 245.652344 C 636.367188 245.191406 635.933594 244.714844 635.523438 244.210938 C 635.113281 243.710938 634.726562 243.191406 634.367188 242.652344 C 634.007812 242.113281 633.675781 241.558594 633.371094 240.984375 C 633.066406 240.414062 632.789062 239.828125 632.542969 239.230469 C 632.292969 238.628906 632.078125 238.019531 631.890625 237.402344 C 631.703125 236.78125 631.542969 236.152344 631.417969 235.515625 C 631.292969 234.878906 631.195312 234.238281 631.132812 233.59375 C 631.070312 232.949219 631.039062 232.304688 631.039062 231.65625 C 631.039062 231.007812 631.070312 230.359375 631.132812 229.714844 C 631.195312 229.070312 631.292969 228.429688 631.417969 227.792969 C 631.542969 227.15625 631.703125 226.527344 631.890625 225.910156 C 632.078125 225.289062 632.292969 224.679688 632.542969 224.078125 C 632.789062 223.480469 633.066406 222.894531 633.371094 222.324219 C 633.675781 221.75 634.007812 221.195312 634.367188 220.65625 C 634.726562 220.117188 635.113281 219.597656 635.523438 219.097656 C 635.933594 218.597656 636.367188 218.117188 636.824219 217.65625 C 637.28125 217.199219 637.761719 216.765625 638.261719 216.351562 C 638.761719 215.941406 639.28125 215.554688 639.820312 215.195312 C 640.359375 214.835938 640.910156 214.503906 641.484375 214.195312 C 642.054688 213.890625 642.636719 213.613281 643.234375 213.367188 C 643.832031 213.117188 644.441406 212.902344 645.0625 212.710938 C 645.679688 212.523438 646.308594 212.367188 646.941406 212.242188 C 647.578125 212.113281 648.214844 212.019531 648.859375 211.957031 C 649.503906 211.890625 650.148438 211.859375 650.796875 211.859375 C 651.445312 211.859375 652.089844 211.890625 652.734375 211.957031 C 653.378906 212.019531 654.015625 212.113281 654.652344 212.242188 C 655.285156 212.367188 655.914062 212.523438 656.53125 212.710938 C 657.152344 212.902344 657.761719 213.117188 658.359375 213.367188 C 658.957031 213.613281 659.539062 213.890625 660.109375 214.195312 C 660.679688 214.503906 661.234375 214.835938 661.773438 215.195312 C 662.3125 215.554688 662.832031 215.941406 663.332031 216.351562 C 663.832031 216.765625 664.308594 217.199219 664.769531 217.65625 C 665.226562 218.117188 665.660156 218.597656 666.070312 219.097656 C 666.480469 219.597656 666.867188 220.117188 667.226562 220.65625 C 667.585938 221.195312 667.917969 221.75 668.222656 222.324219 C 668.527344 222.894531 668.804688 223.480469 669.050781 224.078125 C 669.296875 224.679688 669.515625 225.289062 669.703125 225.910156 C 669.890625 226.527344 670.050781 227.15625 670.175781 227.792969 C 670.300781 228.429688 670.398438 229.070312 670.460938 229.714844 C 670.523438 230.359375 670.554688 231.007812 670.554688 231.65625 Z M 789.105469 231.65625 C 789.105469 232.304688 789.074219 232.949219 789.007812 233.59375 C 788.945312 234.238281 788.851562 234.878906 788.726562 235.515625 C 788.597656 236.152344 788.441406 236.78125 788.253906 237.402344 C 788.066406 238.019531 787.847656 238.628906 787.601562 239.230469 C 787.351562 239.828125 787.078125 240.414062 786.773438 240.984375 C 786.464844 241.558594 786.132812 242.113281 785.773438 242.652344 C 785.414062 243.191406 785.03125 243.710938 784.621094 244.210938 C 784.210938 244.714844 783.773438 245.191406 783.316406 245.652344 C 782.859375 246.109375 782.382812 246.542969 781.882812 246.957031 C 781.382812 247.367188 780.863281 247.753906 780.324219 248.113281 C 779.785156 248.472656 779.230469 248.804688 778.660156 249.113281 C 778.089844 249.417969 777.503906 249.695312 776.90625 249.941406 C 776.308594 250.191406 775.703125 250.410156 775.082031 250.597656 C 774.460938 250.785156 773.835938 250.941406 773.203125 251.070312 C 772.566406 251.195312 771.925781 251.289062 771.285156 251.355469 C 770.640625 251.417969 769.992188 251.449219 769.347656 251.449219 C 768.699219 251.449219 768.054688 251.417969 767.410156 251.355469 C 766.765625 251.289062 766.125 251.195312 765.492188 251.070312 C 764.855469 250.941406 764.230469 250.785156 763.609375 250.597656 C 762.992188 250.410156 762.382812 250.191406 761.785156 249.941406 C 761.1875 249.695312 760.601562 249.417969 760.03125 249.113281 C 759.460938 248.804688 758.90625 248.472656 758.371094 248.113281 C 757.832031 247.753906 757.3125 247.367188 756.8125 246.957031 C 756.3125 246.542969 755.832031 246.109375 755.375 245.652344 C 754.917969 245.191406 754.484375 244.714844 754.074219 244.210938 C 753.664062 243.710938 753.277344 243.191406 752.917969 242.652344 C 752.558594 242.113281 752.226562 241.558594 751.921875 240.984375 C 751.617188 240.414062 751.339844 239.828125 751.09375 239.230469 C 750.84375 238.628906 750.625 238.019531 750.4375 237.402344 C 750.25 236.78125 750.09375 236.152344 749.96875 235.515625 C 749.839844 234.878906 749.746094 234.238281 749.683594 233.59375 C 749.621094 232.949219 749.589844 232.304688 749.589844 231.65625 C 749.589844 231.007812 749.621094 230.359375 749.683594 229.714844 C 749.746094 229.070312 749.839844 228.429688 749.96875 227.792969 C 750.09375 227.15625 750.25 226.527344 750.4375 225.910156 C 750.625 225.289062 750.84375 224.679688 751.09375 224.078125 C 751.339844 223.480469 751.617188 222.894531 751.921875 222.324219 C 752.226562 221.75 752.558594 221.195312 752.917969 220.65625 C 753.277344 220.117188 753.664062 219.597656 754.074219 219.097656 C 754.484375 218.597656 754.917969 218.117188 755.375 217.65625 C 755.832031 217.199219 756.3125 216.765625 756.8125 216.351562 C 757.3125 215.941406 757.832031 215.554688 758.371094 215.195312 C 758.90625 214.835938 759.460938 214.503906 760.03125 214.195312 C 760.601562 213.890625 761.1875 213.613281 761.785156 213.367188 C 762.382812 213.117188 762.992188 212.902344 763.609375 212.710938 C 764.230469 212.523438 764.855469 212.367188 765.492188 212.242188 C 766.125 212.113281 766.765625 212.019531 767.410156 211.957031 C 768.054688 211.890625 768.699219 211.859375 769.347656 211.859375 C 769.992188 211.859375 770.640625 211.890625 771.285156 211.957031 C 771.925781 212.019531 772.566406 212.113281 773.203125 212.242188 C 773.835938 212.367188 774.460938 212.523438 775.082031 212.710938 C 775.703125 212.902344 776.308594 213.117188 776.90625 213.367188 C 777.503906 213.613281 778.089844 213.890625 778.660156 214.195312 C 779.230469 214.503906 779.785156 214.835938 780.324219 215.195312 C 780.863281 215.554688 781.382812 215.941406 781.882812 216.351562 C 782.382812 216.765625 782.859375 217.199219 783.316406 217.65625 C 783.773438 218.117188 784.210938 218.597656 784.621094 219.097656 C 785.03125 219.597656 785.414062 220.117188 785.773438 220.65625 C 786.132812 221.195312 786.464844 221.75 786.773438 222.324219 C 787.078125 222.894531 787.351562 223.480469 787.601562 224.078125 C 787.847656 224.679688 788.066406 225.289062 788.253906 225.910156 C 788.441406 226.527344 788.597656 227.15625 788.726562 227.792969 C 788.851562 228.429688 788.945312 229.070312 789.007812 229.714844 C 789.074219 230.359375 789.105469 231.007812 789.105469 231.65625 Z M 522.367188 192.066406 L 522.367188 271.242188 C 522.367188 271.894531 522.304688 272.535156 522.179688 273.175781 C 522.050781 273.8125 521.863281 274.429688 521.617188 275.03125 C 521.367188 275.632812 521.0625 276.203125 520.703125 276.742188 C 520.34375 277.28125 519.933594 277.78125 519.472656 278.242188 C 519.015625 278.703125 518.515625 279.113281 517.976562 279.472656 C 517.4375 279.832031 516.867188 280.136719 516.269531 280.386719 C 515.671875 280.636719 515.050781 280.824219 514.417969 280.949219 C 513.78125 281.078125 513.136719 281.140625 512.488281 281.140625 C 511.839844 281.140625 511.199219 281.078125 510.5625 280.949219 C 509.925781 280.824219 509.308594 280.636719 508.707031 280.386719 C 508.109375 280.136719 507.539062 279.832031 507 279.472656 C 506.460938 279.113281 505.960938 278.703125 505.503906 278.242188 C 505.042969 277.78125 504.636719 277.28125 504.273438 276.742188 C 503.914062 276.203125 503.609375 275.632812 503.363281 275.03125 C 503.113281 274.429688 502.925781 273.8125 502.800781 273.175781 C 502.671875 272.535156 502.609375 271.894531 502.609375 271.242188 L 502.609375 192.066406 C 502.609375 191.414062 502.671875 190.773438 502.800781 190.132812 C 502.925781 189.496094 503.113281 188.878906 503.363281 188.277344 C 503.609375 187.675781 503.914062 187.105469 504.273438 186.566406 C 504.636719 186.027344 505.042969 185.527344 505.503906 185.066406 C 505.960938 184.609375 506.460938 184.195312 507 183.835938 C 507.539062 183.476562 508.109375 183.171875 508.707031 182.921875 C 509.308594 182.671875 509.925781 182.484375 510.5625 182.359375 C 511.199219 182.230469 511.839844 182.167969 512.488281 182.167969 C 513.136719 182.167969 513.78125 182.230469 514.417969 182.359375 C 515.050781 182.484375 515.671875 182.671875 516.269531 182.921875 C 516.867188 183.171875 517.4375 183.476562 517.976562 183.835938 C 518.515625 184.195312 519.015625 184.609375 519.472656 185.066406 C 519.933594 185.527344 520.34375 186.027344 520.703125 186.566406 C 521.0625 187.105469 521.367188 187.675781 521.617188 188.277344 C 521.863281 188.878906 522.050781 189.496094 522.179688 190.132812 C 522.304688 190.773438 522.367188 191.414062 522.367188 192.066406 Z M 917.535156 192.066406 L 917.535156 271.242188 C 917.535156 271.894531 917.46875 272.535156 917.34375 273.175781 C 917.21875 273.8125 917.03125 274.429688 916.78125 275.03125 C 916.535156 275.632812 916.230469 276.203125 915.867188 276.742188 C 915.507812 277.28125 915.097656 277.78125 914.640625 278.242188 C 914.179688 278.703125 913.683594 279.113281 913.144531 279.472656 C 912.605469 279.832031 912.035156 280.136719 911.433594 280.386719 C 910.835938 280.636719 910.21875 280.824219 909.582031 280.949219 C 908.945312 281.078125 908.304688 281.140625 907.65625 281.140625 C 907.007812 281.140625 906.363281 281.078125 905.726562 280.949219 C 905.089844 280.824219 904.472656 280.636719 903.875 280.386719 C 903.273438 280.136719 902.707031 279.832031 902.167969 279.472656 C 901.625 279.113281 901.128906 278.703125 900.667969 278.242188 C 900.210938 277.78125 899.800781 277.28125 899.441406 276.742188 C 899.078125 276.203125 898.777344 275.632812 898.527344 275.03125 C 898.277344 274.429688 898.09375 273.8125 897.964844 273.175781 C 897.839844 272.535156 897.777344 271.894531 897.777344 271.242188 L 897.777344 192.066406 C 897.777344 191.414062 897.839844 190.773438 897.964844 190.132812 C 898.09375 189.496094 898.277344 188.878906 898.527344 188.277344 C 898.777344 187.675781 899.078125 187.105469 899.441406 186.566406 C 899.800781 186.027344 900.210938 185.527344 900.667969 185.066406 C 901.128906 184.609375 901.625 184.195312 902.167969 183.835938 C 902.707031 183.476562 903.273438 183.171875 903.875 182.921875 C 904.472656 182.671875 905.089844 182.484375 905.726562 182.359375 C 906.363281 182.230469 907.007812 182.167969 907.65625 182.167969 C 908.304688 182.167969 908.945312 182.230469 909.582031 182.359375 C 910.21875 182.484375 910.835938 182.671875 911.433594 182.921875 C 912.035156 183.171875 912.605469 183.476562 913.144531 183.835938 C 913.683594 184.195312 914.179688 184.609375 914.640625 185.066406 C 915.097656 185.527344 915.507812 186.027344 915.867188 186.566406 C 916.230469 187.105469 916.535156 187.675781 916.78125 188.277344 C 917.03125 188.878906 917.21875 189.496094 917.34375 190.132812 C 917.46875 190.773438 917.535156 191.414062 917.535156 192.066406 Z M 917.535156 192.066406 " fill-opacity="1" fill-rule="nonzero"/></g><g fill="#41048f" fill-opacity="1"><g transform="translate(417.16296, 594.100795)"><g><path d="M 41.65625 1.390625 C 35.175781 1.390625 29.34375 0.582031 24.15625 -1.03125 C 18.976562 -2.65625 14.023438 -5.503906 9.296875 -9.578125 C 8.097656 -10.597656 7.175781 -11.753906 6.53125 -13.046875 C 5.882812 -14.347656 5.5625 -15.644531 5.5625 -16.9375 C 5.5625 -19.070312 6.320312 -20.945312 7.84375 -22.5625 C 9.375 -24.1875 11.296875 -25 13.609375 -25 C 15.367188 -25 16.941406 -24.441406 18.328125 -23.328125 C 21.847656 -20.460938 25.34375 -18.285156 28.8125 -16.796875 C 32.289062 -15.316406 36.570312 -14.578125 41.65625 -14.578125 C 45.082031 -14.578125 48.226562 -15.109375 51.09375 -16.171875 C 53.96875 -17.242188 56.285156 -18.679688 58.046875 -20.484375 C 59.804688 -22.285156 60.6875 -24.34375 60.6875 -26.65625 C 60.6875 -29.4375 59.851562 -31.796875 58.1875 -33.734375 C 56.519531 -35.679688 53.972656 -37.328125 50.546875 -38.671875 C 47.117188 -40.015625 42.769531 -41.054688 37.5 -41.796875 C 32.5 -42.535156 28.097656 -43.671875 24.296875 -45.203125 C 20.503906 -46.734375 17.332031 -48.675781 14.78125 -51.03125 C 12.238281 -53.394531 10.316406 -56.171875 9.015625 -59.359375 C 7.722656 -62.554688 7.078125 -66.144531 7.078125 -70.125 C 7.078125 -76.144531 8.628906 -81.285156 11.734375 -85.546875 C 14.835938 -89.804688 19.023438 -93.046875 24.296875 -95.265625 C 29.578125 -97.484375 35.410156 -98.59375 41.796875 -98.59375 C 47.816406 -98.59375 53.394531 -97.691406 58.53125 -95.890625 C 63.675781 -94.085938 67.867188 -91.796875 71.109375 -89.015625 C 73.785156 -86.890625 75.125 -84.4375 75.125 -81.65625 C 75.125 -79.625 74.335938 -77.773438 72.765625 -76.109375 C 71.191406 -74.441406 69.34375 -73.609375 67.21875 -73.609375 C 65.820312 -73.609375 64.570312 -74.023438 63.46875 -74.859375 C 61.988281 -76.148438 60 -77.375 57.5 -78.53125 C 55 -79.6875 52.359375 -80.65625 49.578125 -81.4375 C 46.796875 -82.226562 44.203125 -82.625 41.796875 -82.625 C 37.816406 -82.625 34.460938 -82.113281 31.734375 -81.09375 C 29.003906 -80.082031 26.941406 -78.695312 25.546875 -76.9375 C 24.160156 -75.175781 23.46875 -73.140625 23.46875 -70.828125 C 23.46875 -68.046875 24.273438 -65.753906 25.890625 -63.953125 C 27.515625 -62.148438 29.851562 -60.710938 32.90625 -59.640625 C 35.96875 -58.578125 39.628906 -57.628906 43.890625 -56.796875 C 49.441406 -55.773438 54.320312 -54.570312 58.53125 -53.1875 C 62.75 -51.800781 66.242188 -50.019531 69.015625 -47.84375 C 71.796875 -45.664062 73.878906 -42.929688 75.265625 -39.640625 C 76.660156 -36.359375 77.359375 -32.359375 77.359375 -27.640625 C 77.359375 -21.617188 75.691406 -16.429688 72.359375 -12.078125 C 69.023438 -7.734375 64.648438 -4.398438 59.234375 -2.078125 C 53.816406 0.234375 47.957031 1.390625 41.65625 1.390625 Z M 41.65625 1.390625 "/></g></g></g><g fill="#41048f" fill-opacity="1"><g transform="translate(500.066065, 594.100795)"><g><path d="M 24.71875 -8.46875 C 24.71875 -6.0625 23.929688 -4.046875 22.359375 -2.421875 C 20.785156 -0.804688 18.796875 0 16.390625 0 C 13.984375 0 11.992188 -0.804688 10.421875 -2.421875 C 8.847656 -4.046875 8.0625 -6.0625 8.0625 -8.46875 L 8.0625 -65.828125 C 8.0625 -68.234375 8.847656 -70.242188 10.421875 -71.859375 C 11.992188 -73.484375 13.984375 -74.296875 16.390625 -74.296875 C 18.796875 -74.296875 20.785156 -73.484375 22.359375 -71.859375 C 23.929688 -70.242188 24.71875 -68.234375 24.71875 -65.828125 Z M 16.234375 -83.328125 C 13.085938 -83.328125 10.863281 -83.832031 9.5625 -84.84375 C 8.269531 -85.863281 7.625 -87.671875 7.625 -90.265625 L 7.625 -92.90625 C 7.625 -95.59375 8.34375 -97.421875 9.78125 -98.390625 C 11.21875 -99.359375 13.414062 -99.84375 16.375 -99.84375 C 19.613281 -99.84375 21.878906 -99.332031 23.171875 -98.3125 C 24.472656 -97.300781 25.125 -95.5 25.125 -92.90625 L 25.125 -90.265625 C 25.125 -87.578125 24.429688 -85.75 23.046875 -84.78125 C 21.660156 -83.8125 19.390625 -83.328125 16.234375 -83.328125 Z M 16.234375 -83.328125 "/></g></g></g><g fill="#41048f" fill-opacity="1"><g transform="translate(532.838478, 594.100795)"><g><path d="M 48.75 -75.6875 C 55.59375 -75.6875 60.796875 -74.25 64.359375 -71.375 C 67.929688 -68.507812 70.390625 -64.691406 71.734375 -59.921875 C 73.078125 -55.148438 73.75 -49.847656 73.75 -44.015625 L 73.75 -8.46875 C 73.75 -6.0625 72.957031 -4.046875 71.375 -2.421875 C 69.800781 -0.804688 67.8125 0 65.40625 0 C 63 0 61.007812 -0.804688 59.4375 -2.421875 C 57.863281 -4.046875 57.078125 -6.0625 57.078125 -8.46875 L 57.078125 -44.015625 C 57.078125 -47.078125 56.679688 -49.832031 55.890625 -52.28125 C 55.109375 -54.738281 53.695312 -56.707031 51.65625 -58.1875 C 49.625 -59.664062 46.707031 -60.40625 42.90625 -60.40625 C 39.207031 -60.40625 36.082031 -59.664062 33.53125 -58.1875 C 30.988281 -56.707031 29.046875 -54.738281 27.703125 -52.28125 C 26.359375 -49.832031 25.6875 -47.078125 25.6875 -44.015625 L 25.6875 -8.46875 C 25.6875 -6.0625 24.898438 -4.046875 23.328125 -2.421875 C 21.753906 -0.804688 19.765625 0 17.359375 0 C 14.953125 0 12.960938 -0.804688 11.390625 -2.421875 C 9.816406 -4.046875 9.03125 -6.0625 9.03125 -8.46875 L 9.03125 -65.828125 C 9.03125 -68.234375 9.816406 -70.242188 11.390625 -71.859375 C 12.960938 -73.484375 14.953125 -74.296875 17.359375 -74.296875 C 19.765625 -74.296875 21.753906 -73.484375 23.328125 -71.859375 C 24.898438 -70.242188 25.6875 -68.234375 25.6875 -65.828125 L 25.6875 -59.859375 L 23.609375 -60.265625 C 24.441406 -61.835938 25.644531 -63.523438 27.21875 -65.328125 C 28.789062 -67.140625 30.640625 -68.832031 32.765625 -70.40625 C 34.898438 -71.976562 37.304688 -73.25 39.984375 -74.21875 C 42.671875 -75.195312 45.59375 -75.6875 48.75 -75.6875 Z M 48.75 -75.6875 "/></g></g></g><g fill="#41048f" fill-opacity="1"><g transform="translate(615.602726, 594.100795)"><g><path d="M 9.859375 -72.90625 L 42.78125 -72.90625 C 45 -72.90625 46.847656 -72.164062 48.328125 -70.6875 C 49.804688 -69.207031 50.546875 -67.351562 50.546875 -65.125 C 50.546875 -63 49.804688 -61.21875 48.328125 -59.78125 C 46.847656 -58.351562 45 -57.640625 42.78125 -57.640625 L 9.859375 -57.640625 C 7.640625 -57.640625 5.785156 -58.378906 4.296875 -59.859375 C 2.816406 -61.335938 2.078125 -63.1875 2.078125 -65.40625 C 2.078125 -67.539062 2.816406 -69.320312 4.296875 -70.75 C 5.785156 -72.1875 7.640625 -72.90625 9.859375 -72.90625 Z M 24.71875 -90.265625 C 27.125 -90.265625 29.085938 -89.453125 30.609375 -87.828125 C 32.140625 -86.210938 32.90625 -84.203125 32.90625 -81.796875 L 32.90625 -20 C 32.90625 -18.695312 33.160156 -17.628906 33.671875 -16.796875 C 34.179688 -15.960938 34.875 -15.359375 35.75 -14.984375 C 36.632812 -14.617188 37.585938 -14.4375 38.609375 -14.4375 C 39.722656 -14.4375 40.738281 -14.644531 41.65625 -15.0625 C 42.582031 -15.476562 43.648438 -15.6875 44.859375 -15.6875 C 46.148438 -15.6875 47.328125 -15.082031 48.390625 -13.875 C 49.460938 -12.675781 50 -11.015625 50 -8.890625 C 50 -6.296875 48.585938 -4.164062 45.765625 -2.5 C 42.941406 -0.832031 39.90625 0 36.65625 0 C 34.71875 0 32.566406 -0.160156 30.203125 -0.484375 C 27.835938 -0.804688 25.613281 -1.59375 23.53125 -2.84375 C 21.457031 -4.09375 19.722656 -6.015625 18.328125 -8.609375 C 16.941406 -11.203125 16.25 -14.765625 16.25 -19.296875 L 16.25 -81.796875 C 16.25 -84.203125 17.054688 -86.210938 18.671875 -87.828125 C 20.296875 -89.453125 22.3125 -90.265625 24.71875 -90.265625 Z M 24.71875 -90.265625 "/></g></g></g><g fill="#41048f" fill-opacity="1"><g transform="translate(672.398996, 594.100795)"><g><path d="M 44.015625 1.390625 C 36.148438 1.390625 29.320312 -0.25 23.53125 -3.53125 C 17.75 -6.820312 13.304688 -11.289062 10.203125 -16.9375 C 7.109375 -22.59375 5.5625 -28.984375 5.5625 -36.109375 C 5.5625 -44.441406 7.25 -51.546875 10.625 -57.421875 C 14 -63.304688 18.414062 -67.820312 23.875 -70.96875 C 29.34375 -74.113281 35.132812 -75.6875 41.25 -75.6875 C 45.96875 -75.6875 50.429688 -74.710938 54.640625 -72.765625 C 58.859375 -70.828125 62.585938 -68.164062 65.828125 -64.78125 C 69.066406 -61.40625 71.632812 -57.492188 73.53125 -53.046875 C 75.425781 -48.609375 76.375 -43.890625 76.375 -38.890625 C 76.289062 -36.660156 75.414062 -34.851562 73.75 -33.46875 C 72.082031 -32.082031 70.132812 -31.390625 67.90625 -31.390625 L 14.859375 -31.390625 L 10.6875 -45.265625 L 61.65625 -45.265625 L 58.609375 -42.5 L 58.609375 -46.25 C 58.421875 -48.925781 57.46875 -51.328125 55.75 -53.453125 C 54.039062 -55.585938 51.910156 -57.28125 49.359375 -58.53125 C 46.816406 -59.78125 44.113281 -60.40625 41.25 -60.40625 C 38.46875 -60.40625 35.875 -60.035156 33.46875 -59.296875 C 31.0625 -58.554688 28.976562 -57.304688 27.21875 -55.546875 C 25.457031 -53.785156 24.066406 -51.421875 23.046875 -48.453125 C 22.035156 -45.492188 21.53125 -41.75 21.53125 -37.21875 C 21.53125 -32.21875 22.570312 -27.976562 24.65625 -24.5 C 26.738281 -21.03125 29.421875 -18.394531 32.703125 -16.59375 C 35.992188 -14.789062 39.488281 -13.890625 43.1875 -13.890625 C 46.613281 -13.890625 49.34375 -14.164062 51.375 -14.71875 C 53.414062 -15.269531 55.0625 -15.941406 56.3125 -16.734375 C 57.5625 -17.523438 58.695312 -18.195312 59.71875 -18.75 C 61.382812 -19.582031 62.957031 -20 64.4375 -20 C 66.476562 -20 68.164062 -19.300781 69.5 -17.90625 C 70.84375 -16.519531 71.515625 -14.898438 71.515625 -13.046875 C 71.515625 -10.546875 70.21875 -8.28125 67.625 -6.25 C 65.21875 -4.207031 61.835938 -2.421875 57.484375 -0.890625 C 53.140625 0.628906 48.648438 1.390625 44.015625 1.390625 Z M 41.375 -79.015625 C 40.632812 -79.015625 39.6875 -79.40625 38.53125 -80.1875 C 37.375 -80.976562 36.84375 -82.113281 36.9375 -83.59375 C 36.9375 -84.425781 37.210938 -85.304688 37.765625 -86.234375 L 45.828125 -100.40625 C 46.660156 -101.882812 47.722656 -103.175781 49.015625 -104.28125 C 50.316406 -105.394531 51.800781 -105.953125 53.46875 -105.953125 C 56.0625 -105.953125 57.957031 -105.28125 59.15625 -103.9375 C 60.363281 -102.59375 60.921875 -100.953125 60.828125 -99.015625 C 60.734375 -98.085938 60.476562 -97.113281 60.0625 -96.09375 C 59.644531 -95.070312 59.019531 -94.054688 58.1875 -93.046875 L 47.625 -81.375 C 46.707031 -80.351562 45.691406 -79.703125 44.578125 -79.421875 C 43.460938 -79.148438 42.394531 -79.015625 41.375 -79.015625 Z M 41.375 -79.015625 "/></g></g></g><g fill="#41048f" fill-opacity="1"><g transform="translate(754.33004, 594.100795)"><g><path d="M 9.859375 -72.90625 L 42.78125 -72.90625 C 45 -72.90625 46.847656 -72.164062 48.328125 -70.6875 C 49.804688 -69.207031 50.546875 -67.351562 50.546875 -65.125 C 50.546875 -63 49.804688 -61.21875 48.328125 -59.78125 C 46.847656 -58.351562 45 -57.640625 42.78125 -57.640625 L 9.859375 -57.640625 C 7.640625 -57.640625 5.785156 -58.378906 4.296875 -59.859375 C 2.816406 -61.335938 2.078125 -63.1875 2.078125 -65.40625 C 2.078125 -67.539062 2.816406 -69.320312 4.296875 -70.75 C 5.785156 -72.1875 7.640625 -72.90625 9.859375 -72.90625 Z M 24.71875 -90.265625 C 27.125 -90.265625 29.085938 -89.453125 30.609375 -87.828125 C 32.140625 -86.210938 32.90625 -84.203125 32.90625 -81.796875 L 32.90625 -20 C 32.90625 -18.695312 33.160156 -17.628906 33.671875 -16.796875 C 34.179688 -15.960938 34.875 -15.359375 35.75 -14.984375 C 36.632812 -14.617188 37.585938 -14.4375 38.609375 -14.4375 C 39.722656 -14.4375 40.738281 -14.644531 41.65625 -15.0625 C 42.582031 -15.476562 43.648438 -15.6875 44.859375 -15.6875 C 46.148438 -15.6875 47.328125 -15.082031 48.390625 -13.875 C 49.460938 -12.675781 50 -11.015625 50 -8.890625 C 50 -6.296875 48.585938 -4.164062 45.765625 -2.5 C 42.941406 -0.832031 39.90625 0 36.65625 0 C 34.71875 0 32.566406 -0.160156 30.203125 -0.484375 C 27.835938 -0.804688 25.613281 -1.59375 23.53125 -2.84375 C 21.457031 -4.09375 19.722656 -6.015625 18.328125 -8.609375 C 16.941406 -11.203125 16.25 -14.765625 16.25 -19.296875 L 16.25 -81.796875 C 16.25 -84.203125 17.054688 -86.210938 18.671875 -87.828125 C 20.296875 -89.453125 22.3125 -90.265625 24.71875 -90.265625 Z M 24.71875 -90.265625 "/></g></g></g><g fill="#41048f" fill-opacity="1"><g transform="translate(811.126331, 594.100795)"><g><path d="M 24.71875 -8.46875 C 24.71875 -6.0625 23.929688 -4.046875 22.359375 -2.421875 C 20.785156 -0.804688 18.796875 0 16.390625 0 C 13.984375 0 11.992188 -0.804688 10.421875 -2.421875 C 8.847656 -4.046875 8.0625 -6.0625 8.0625 -8.46875 L 8.0625 -65.828125 C 8.0625 -68.234375 8.847656 -70.242188 10.421875 -71.859375 C 11.992188 -73.484375 13.984375 -74.296875 16.390625 -74.296875 C 18.796875 -74.296875 20.785156 -73.484375 22.359375 -71.859375 C 23.929688 -70.242188 24.71875 -68.234375 24.71875 -65.828125 Z M 16.234375 -83.328125 C 13.085938 -83.328125 10.863281 -83.832031 9.5625 -84.84375 C 8.269531 -85.863281 7.625 -87.671875 7.625 -90.265625 L 7.625 -92.90625 C 7.625 -95.59375 8.34375 -97.421875 9.78125 -98.390625 C 11.21875 -99.359375 13.414062 -99.84375 16.375 -99.84375 C 19.613281 -99.84375 21.878906 -99.332031 23.171875 -98.3125 C 24.472656 -97.300781 25.125 -95.5 25.125 -92.90625 L 25.125 -90.265625 C 25.125 -87.578125 24.429688 -85.75 23.046875 -84.78125 C 21.660156 -83.8125 19.390625 -83.328125 16.234375 -83.328125 Z M 16.234375 -83.328125 "/></g></g></g><g fill="#41048f" fill-opacity="1"><g transform="translate(843.898767, 594.100795)"><g><path d="M 42.078125 -75.6875 C 47.359375 -75.6875 51.960938 -75.128906 55.890625 -74.015625 C 59.828125 -72.910156 62.882812 -71.359375 65.0625 -69.359375 C 67.238281 -67.367188 68.328125 -64.988281 68.328125 -62.21875 C 68.328125 -60.363281 67.769531 -58.625 66.65625 -57 C 65.550781 -55.382812 63.929688 -54.578125 61.796875 -54.578125 C 60.316406 -54.578125 59.085938 -54.785156 58.109375 -55.203125 C 57.140625 -55.617188 56.285156 -56.148438 55.546875 -56.796875 C 54.804688 -57.441406 53.925781 -58.046875 52.90625 -58.609375 C 51.976562 -59.160156 50.566406 -59.597656 48.671875 -59.921875 C 46.773438 -60.242188 45.363281 -60.40625 44.4375 -60.40625 C 39.71875 -60.40625 35.710938 -59.382812 32.421875 -57.34375 C 29.140625 -55.3125 26.617188 -52.5625 24.859375 -49.09375 C 23.097656 -45.625 22.21875 -41.617188 22.21875 -37.078125 C 22.21875 -32.628906 23.117188 -28.671875 24.921875 -25.203125 C 26.734375 -21.734375 29.234375 -18.976562 32.421875 -16.9375 C 35.617188 -14.90625 39.300781 -13.890625 43.46875 -13.890625 C 45.78125 -13.890625 47.769531 -14.023438 49.4375 -14.296875 C 51.101562 -14.578125 52.492188 -14.992188 53.609375 -15.546875 C 54.898438 -16.296875 56.054688 -17.085938 57.078125 -17.921875 C 58.097656 -18.753906 59.625 -19.171875 61.65625 -19.171875 C 64.0625 -19.171875 65.910156 -18.40625 67.203125 -16.875 C 68.503906 -15.34375 69.15625 -13.46875 69.15625 -11.25 C 69.15625 -8.9375 67.859375 -6.828125 65.265625 -4.921875 C 62.671875 -3.023438 59.269531 -1.5 55.0625 -0.34375 C 50.851562 0.8125 46.296875 1.390625 41.390625 1.390625 C 34.066406 1.390625 27.71875 -0.296875 22.34375 -3.671875 C 16.976562 -7.054688 12.835938 -11.664062 9.921875 -17.5 C 7.015625 -23.332031 5.5625 -29.859375 5.5625 -37.078125 C 5.5625 -44.671875 7.109375 -51.359375 10.203125 -57.140625 C 13.304688 -62.929688 17.613281 -67.46875 23.125 -70.75 C 28.632812 -74.039062 34.953125 -75.6875 42.078125 -75.6875 Z M 42.078125 -75.6875 "/></g></g></g><g fill="#41048f" fill-opacity="1"><g transform="translate(916.109191, 594.100795)"><g><path d="M 69.859375 -75.6875 C 72.265625 -75.6875 74.253906 -74.898438 75.828125 -73.328125 C 77.398438 -71.753906 78.1875 -69.71875 78.1875 -67.21875 L 78.1875 -8.46875 C 78.1875 -6.0625 77.398438 -4.046875 75.828125 -2.421875 C 74.253906 -0.804688 72.265625 0 69.859375 0 C 67.453125 0 65.457031 -0.804688 63.875 -2.421875 C 62.300781 -4.046875 61.515625 -6.0625 61.515625 -8.46875 L 61.515625 -15.28125 L 64.578125 -14.03125 C 64.578125 -12.820312 63.925781 -11.359375 62.625 -9.640625 C 61.332031 -7.929688 59.570312 -6.242188 57.34375 -4.578125 C 55.125 -2.910156 52.507812 -1.5 49.5 -0.34375 C 46.5 0.8125 43.238281 1.390625 39.71875 1.390625 C 33.332031 1.390625 27.546875 -0.25 22.359375 -3.53125 C 17.171875 -6.820312 13.070312 -11.359375 10.0625 -17.140625 C 7.0625 -22.929688 5.5625 -29.578125 5.5625 -37.078125 C 5.5625 -44.671875 7.0625 -51.359375 10.0625 -57.140625 C 13.070312 -62.929688 17.125 -67.46875 22.21875 -70.75 C 27.3125 -74.039062 32.957031 -75.6875 39.15625 -75.6875 C 43.144531 -75.6875 46.804688 -75.082031 50.140625 -73.875 C 53.472656 -72.675781 56.363281 -71.148438 58.8125 -69.296875 C 61.269531 -67.441406 63.164062 -65.566406 64.5 -63.671875 C 65.84375 -61.773438 66.515625 -60.179688 66.515625 -58.890625 L 61.515625 -57.078125 L 61.515625 -67.21875 C 61.515625 -69.625 62.300781 -71.632812 63.875 -73.25 C 65.457031 -74.875 67.453125 -75.6875 69.859375 -75.6875 Z M 41.796875 -13.890625 C 45.867188 -13.890625 49.429688 -14.90625 52.484375 -16.9375 C 55.546875 -18.976562 57.929688 -21.753906 59.640625 -25.265625 C 61.359375 -28.785156 62.21875 -32.722656 62.21875 -37.078125 C 62.21875 -41.523438 61.359375 -45.503906 59.640625 -49.015625 C 57.929688 -52.535156 55.546875 -55.3125 52.484375 -57.34375 C 49.429688 -59.382812 45.867188 -60.40625 41.796875 -60.40625 C 37.816406 -60.40625 34.296875 -59.382812 31.234375 -57.34375 C 28.179688 -55.3125 25.800781 -52.535156 24.09375 -49.015625 C 22.382812 -45.503906 21.53125 -41.523438 21.53125 -37.078125 C 21.53125 -32.722656 22.382812 -28.785156 24.09375 -25.265625 C 25.800781 -21.753906 28.179688 -18.976562 31.234375 -16.9375 C 34.296875 -14.90625 37.816406 -13.890625 41.796875 -13.890625 Z M 41.796875 -13.890625 "/></g></g></g><g fill="#efa92a" fill-opacity="1"><g transform="translate(447.994066, 678.356335)"><g><path d="M 3.21875 -27.109375 L 9.484375 -27.109375 L 9.484375 -5.109375 L 23.078125 -5.109375 L 23.078125 0 L 3.21875 0 Z M 3.21875 -27.109375 "/></g></g></g><g fill="#efa92a" fill-opacity="1"><g transform="translate(471.384752, 678.356335)"><g><path d="M 21.0625 -5.8125 L 8.484375 -5.8125 L 6.078125 0 L -0.34375 0 L 11.734375 -27.109375 L 17.921875 -27.109375 L 30.046875 0 L 23.46875 0 Z M 19.09375 -10.5625 L 14.796875 -20.953125 L 10.5 -10.5625 Z M 19.09375 -10.5625 "/></g></g></g><g fill="#efa92a" fill-opacity="1"><g transform="translate(501.049107, 678.356335)"><g><path d="M 23.109375 -14.09375 C 24.660156 -13.601562 25.875 -12.78125 26.75 -11.625 C 27.632812 -10.476562 28.078125 -9.066406 28.078125 -7.390625 C 28.078125 -5.015625 27.148438 -3.1875 25.296875 -1.90625 C 23.453125 -0.632812 20.765625 0 17.234375 0 L 3.21875 0 L 3.21875 -27.109375 L 16.453125 -27.109375 C 19.753906 -27.109375 22.289062 -26.472656 24.0625 -25.203125 C 25.832031 -23.941406 26.71875 -22.226562 26.71875 -20.0625 C 26.71875 -18.738281 26.398438 -17.5625 25.765625 -16.53125 C 25.128906 -15.5 24.242188 -14.6875 23.109375 -14.09375 Z M 9.453125 -22.375 L 9.453125 -15.984375 L 15.6875 -15.984375 C 17.226562 -15.984375 18.398438 -16.253906 19.203125 -16.796875 C 20.003906 -17.335938 20.40625 -18.140625 20.40625 -19.203125 C 20.40625 -20.265625 20.003906 -21.054688 19.203125 -21.578125 C 18.398438 -22.109375 17.226562 -22.375 15.6875 -22.375 Z M 16.765625 -4.71875 C 18.421875 -4.71875 19.664062 -4.988281 20.5 -5.53125 C 21.34375 -6.070312 21.765625 -6.910156 21.765625 -8.046875 C 21.765625 -10.296875 20.097656 -11.421875 16.765625 -11.421875 L 9.453125 -11.421875 L 9.453125 -4.71875 Z M 16.765625 -4.71875 "/></g></g></g><g fill="#efa92a" fill-opacity="1"><g transform="translate(530.674728, 678.356335)"><g><path d="M 16.34375 0.46875 C 13.53125 0.46875 10.992188 -0.132812 8.734375 -1.34375 C 6.472656 -2.5625 4.703125 -4.234375 3.421875 -6.359375 C 2.148438 -8.492188 1.515625 -10.890625 1.515625 -13.546875 C 1.515625 -16.210938 2.148438 -18.609375 3.421875 -20.734375 C 4.703125 -22.859375 6.472656 -24.523438 8.734375 -25.734375 C 10.992188 -26.953125 13.53125 -27.5625 16.34375 -27.5625 C 19.15625 -27.5625 21.679688 -26.953125 23.921875 -25.734375 C 26.171875 -24.523438 27.941406 -22.859375 29.234375 -20.734375 C 30.523438 -18.609375 31.171875 -16.210938 31.171875 -13.546875 C 31.171875 -10.890625 30.523438 -8.492188 29.234375 -6.359375 C 27.941406 -4.234375 26.171875 -2.5625 23.921875 -1.34375 C 21.679688 -0.132812 19.15625 0.46875 16.34375 0.46875 Z M 16.34375 -4.875 C 17.9375 -4.875 19.378906 -5.238281 20.671875 -5.96875 C 21.960938 -6.707031 22.972656 -7.734375 23.703125 -9.046875 C 24.441406 -10.367188 24.8125 -11.867188 24.8125 -13.546875 C 24.8125 -15.222656 24.441406 -16.71875 23.703125 -18.03125 C 22.972656 -19.351562 21.960938 -20.378906 20.671875 -21.109375 C 19.378906 -21.847656 17.9375 -22.21875 16.34375 -22.21875 C 14.738281 -22.21875 13.289062 -21.847656 12 -21.109375 C 10.707031 -20.378906 9.691406 -19.351562 8.953125 -18.03125 C 8.222656 -16.71875 7.859375 -15.222656 7.859375 -13.546875 C 7.859375 -11.867188 8.222656 -10.367188 8.953125 -9.046875 C 9.691406 -7.734375 10.707031 -6.707031 12 -5.96875 C 13.289062 -5.238281 14.738281 -4.875 16.34375 -4.875 Z M 16.34375 -4.875 "/></g></g></g><g fill="#efa92a" fill-opacity="1"><g transform="translate(563.359732, 678.356335)"><g><path d="M 20.484375 0 L 15.25 -7.546875 L 9.484375 -7.546875 L 9.484375 0 L 3.21875 0 L 3.21875 -27.109375 L 14.953125 -27.109375 C 17.347656 -27.109375 19.425781 -26.707031 21.1875 -25.90625 C 22.957031 -25.101562 24.320312 -23.960938 25.28125 -22.484375 C 26.238281 -21.015625 26.71875 -19.273438 26.71875 -17.265625 C 26.71875 -15.253906 26.234375 -13.519531 25.265625 -12.0625 C 24.296875 -10.601562 22.921875 -9.488281 21.140625 -8.71875 L 27.21875 0 Z M 20.359375 -17.265625 C 20.359375 -18.785156 19.867188 -19.953125 18.890625 -20.765625 C 17.910156 -21.585938 16.476562 -22 14.59375 -22 L 9.484375 -22 L 9.484375 -12.546875 L 14.59375 -12.546875 C 16.476562 -12.546875 17.910156 -12.957031 18.890625 -13.78125 C 19.867188 -14.601562 20.359375 -15.765625 20.359375 -17.265625 Z M 20.359375 -17.265625 "/></g></g></g><g fill="#efa92a" fill-opacity="1"><g transform="translate(591.823571, 678.356335)"><g><path d="M 21.0625 -5.8125 L 8.484375 -5.8125 L 6.078125 0 L -0.34375 0 L 11.734375 -27.109375 L 17.921875 -27.109375 L 30.046875 0 L 23.46875 0 Z M 19.09375 -10.5625 L 14.796875 -20.953125 L 10.5 -10.5625 Z M 19.09375 -10.5625 "/></g></g></g><g fill="#efa92a" fill-opacity="1"><g transform="translate(621.487926, 678.356335)"><g><path d="M 8.828125 -22 L 0.15625 -22 L 0.15625 -27.109375 L 23.765625 -27.109375 L 23.765625 -22 L 15.09375 -22 L 15.09375 0 L 8.828125 0 Z M 8.828125 -22 "/></g></g></g><g fill="#efa92a" fill-opacity="1"><g transform="translate(645.420791, 678.356335)"><g><path d="M 16.34375 0.46875 C 13.53125 0.46875 10.992188 -0.132812 8.734375 -1.34375 C 6.472656 -2.5625 4.703125 -4.234375 3.421875 -6.359375 C 2.148438 -8.492188 1.515625 -10.890625 1.515625 -13.546875 C 1.515625 -16.210938 2.148438 -18.609375 3.421875 -20.734375 C 4.703125 -22.859375 6.472656 -24.523438 8.734375 -25.734375 C 10.992188 -26.953125 13.53125 -27.5625 16.34375 -27.5625 C 19.15625 -27.5625 21.679688 -26.953125 23.921875 -25.734375 C 26.171875 -24.523438 27.941406 -22.859375 29.234375 -20.734375 C 30.523438 -18.609375 31.171875 -16.210938 31.171875 -13.546875 C 31.171875 -10.890625 30.523438 -8.492188 29.234375 -6.359375 C 27.941406 -4.234375 26.171875 -2.5625 23.921875 -1.34375 C 21.679688 -0.132812 19.15625 0.46875 16.34375 0.46875 Z M 16.34375 -4.875 C 17.9375 -4.875 19.378906 -5.238281 20.671875 -5.96875 C 21.960938 -6.707031 22.972656 -7.734375 23.703125 -9.046875 C 24.441406 -10.367188 24.8125 -11.867188 24.8125 -13.546875 C 24.8125 -15.222656 24.441406 -16.71875 23.703125 -18.03125 C 22.972656 -19.351562 21.960938 -20.378906 20.671875 -21.109375 C 19.378906 -21.847656 17.9375 -22.21875 16.34375 -22.21875 C 14.738281 -22.21875 13.289062 -21.847656 12 -21.109375 C 10.707031 -20.378906 9.691406 -19.351562 8.953125 -18.03125 C 8.222656 -16.71875 7.859375 -15.222656 7.859375 -13.546875 C 7.859375 -11.867188 8.222656 -10.367188 8.953125 -9.046875 C 9.691406 -7.734375 10.707031 -6.707031 12 -5.96875 C 13.289062 -5.238281 14.738281 -4.875 16.34375 -4.875 Z M 16.34375 -4.875 "/></g></g></g><g fill="#efa92a" fill-opacity="1"><g transform="translate(678.105795, 678.356335)"><g><path d="M 20.484375 0 L 15.25 -7.546875 L 9.484375 -7.546875 L 9.484375 0 L 3.21875 0 L 3.21875 -27.109375 L 14.953125 -27.109375 C 17.347656 -27.109375 19.425781 -26.707031 21.1875 -25.90625 C 22.957031 -25.101562 24.320312 -23.960938 25.28125 -22.484375 C 26.238281 -21.015625 26.71875 -19.273438 26.71875 -17.265625 C 26.71875 -15.253906 26.234375 -13.519531 25.265625 -12.0625 C 24.296875 -10.601562 22.921875 -9.488281 21.140625 -8.71875 L 27.21875 0 Z M 20.359375 -17.265625 C 20.359375 -18.785156 19.867188 -19.953125 18.890625 -20.765625 C 17.910156 -21.585938 16.476562 -22 14.59375 -22 L 9.484375 -22 L 9.484375 -12.546875 L 14.59375 -12.546875 C 16.476562 -12.546875 17.910156 -12.957031 18.890625 -13.78125 C 19.867188 -14.601562 20.359375 -15.765625 20.359375 -17.265625 Z M 20.359375 -17.265625 "/></g></g></g><g fill="#efa92a" fill-opacity="1"><g transform="translate(706.569634, 678.356335)"><g><path d="M 3.21875 -27.109375 L 9.484375 -27.109375 L 9.484375 0 L 3.21875 0 Z M 3.21875 -27.109375 "/></g></g></g><g fill="#efa92a" fill-opacity="1"><g transform="translate(719.271876, 678.356335)"><g><path d="M 16.34375 0.46875 C 13.53125 0.46875 10.992188 -0.132812 8.734375 -1.34375 C 6.472656 -2.5625 4.703125 -4.234375 3.421875 -6.359375 C 2.148438 -8.492188 1.515625 -10.890625 1.515625 -13.546875 C 1.515625 -16.210938 2.148438 -18.609375 3.421875 -20.734375 C 4.703125 -22.859375 6.472656 -24.523438 8.734375 -25.734375 C 10.992188 -26.953125 13.53125 -27.5625 16.34375 -27.5625 C 19.15625 -27.5625 21.679688 -26.953125 23.921875 -25.734375 C 26.171875 -24.523438 27.941406 -22.859375 29.234375 -20.734375 C 30.523438 -18.609375 31.171875 -16.210938 31.171875 -13.546875 C 31.171875 -10.890625 30.523438 -8.492188 29.234375 -6.359375 C 27.941406 -4.234375 26.171875 -2.5625 23.921875 -1.34375 C 21.679688 -0.132812 19.15625 0.46875 16.34375 0.46875 Z M 16.34375 -4.875 C 17.9375 -4.875 19.378906 -5.238281 20.671875 -5.96875 C 21.960938 -6.707031 22.972656 -7.734375 23.703125 -9.046875 C 24.441406 -10.367188 24.8125 -11.867188 24.8125 -13.546875 C 24.8125 -15.222656 24.441406 -16.71875 23.703125 -18.03125 C 22.972656 -19.351562 21.960938 -20.378906 20.671875 -21.109375 C 19.378906 -21.847656 17.9375 -22.21875 16.34375 -22.21875 C 14.738281 -22.21875 13.289062 -21.847656 12 -21.109375 C 10.707031 -20.378906 9.691406 -19.351562 8.953125 -18.03125 C 8.222656 -16.71875 7.859375 -15.222656 7.859375 -13.546875 C 7.859375 -11.867188 8.222656 -10.367188 8.953125 -9.046875 C 9.691406 -7.734375 10.707031 -6.707031 12 -5.96875 C 13.289062 -5.238281 14.738281 -4.875 16.34375 -4.875 Z M 16.34375 -4.875 "/></g></g></g><g fill="#efa92a" fill-opacity="1"><g transform="translate(751.956894, 678.356335)"><g/></g></g><g fill="#efa92a" fill-opacity="1"><g transform="translate(762.916442, 678.356335)"><g><path d="M 3.21875 -27.109375 L 15.53125 -27.109375 C 18.46875 -27.109375 21.066406 -26.546875 23.328125 -25.421875 C 25.585938 -24.296875 27.34375 -22.710938 28.59375 -20.671875 C 29.84375 -18.628906 30.46875 -16.253906 30.46875 -13.546875 C 30.46875 -10.835938 29.84375 -8.460938 28.59375 -6.421875 C 27.34375 -4.390625 25.585938 -2.8125 23.328125 -1.6875 C 21.066406 -0.5625 18.46875 0 15.53125 0 L 3.21875 0 Z M 15.21875 -5.15625 C 17.925781 -5.15625 20.085938 -5.90625 21.703125 -7.40625 C 23.316406 -8.914062 24.125 -10.960938 24.125 -13.546875 C 24.125 -16.128906 23.316406 -18.175781 21.703125 -19.6875 C 20.085938 -21.195312 17.925781 -21.953125 15.21875 -21.953125 L 9.484375 -21.953125 L 9.484375 -5.15625 Z M 15.21875 -5.15625 "/></g></g></g><g fill="#efa92a" fill-opacity="1"><g transform="translate(794.904376, 678.356335)"><g><path d="M 24.203125 -5.03125 L 24.203125 0 L 3.21875 0 L 3.21875 -27.109375 L 23.703125 -27.109375 L 23.703125 -22.0625 L 9.453125 -22.0625 L 9.453125 -16.1875 L 22.03125 -16.1875 L 22.03125 -11.3125 L 9.453125 -11.3125 L 9.453125 -5.03125 Z M 24.203125 -5.03125 "/></g></g></g><g fill="#efa92a" fill-opacity="1"><g transform="translate(820.88973, 678.356335)"><g/></g></g><g fill="#efa92a" fill-opacity="1"><g transform="translate(831.849278, 678.356335)"><g><path d="M 29.265625 -27.109375 L 17.546875 0 L 11.34375 0 L -0.34375 -27.109375 L 6.421875 -27.109375 L 14.671875 -7.75 L 23.03125 -27.109375 Z M 29.265625 -27.109375 "/></g></g></g><g fill="#efa92a" fill-opacity="1"><g transform="translate(860.739096, 678.356335)"><g><path d="M 16.34375 0.46875 C 13.53125 0.46875 10.992188 -0.132812 8.734375 -1.34375 C 6.472656 -2.5625 4.703125 -4.234375 3.421875 -6.359375 C 2.148438 -8.492188 1.515625 -10.890625 1.515625 -13.546875 C 1.515625 -16.210938 2.148438 -18.609375 3.421875 -20.734375 C 4.703125 -22.859375 6.472656 -24.523438 8.734375 -25.734375 C 10.992188 -26.953125 13.53125 -27.5625 16.34375 -27.5625 C 19.15625 -27.5625 21.679688 -26.953125 23.921875 -25.734375 C 26.171875 -24.523438 27.941406 -22.859375 29.234375 -20.734375 C 30.523438 -18.609375 31.171875 -16.210938 31.171875 -13.546875 C 31.171875 -10.890625 30.523438 -8.492188 29.234375 -6.359375 C 27.941406 -4.234375 26.171875 -2.5625 23.921875 -1.34375 C 21.679688 -0.132812 19.15625 0.46875 16.34375 0.46875 Z M 16.34375 -4.875 C 17.9375 -4.875 19.378906 -5.238281 20.671875 -5.96875 C 21.960938 -6.707031 22.972656 -7.734375 23.703125 -9.046875 C 24.441406 -10.367188 24.8125 -11.867188 24.8125 -13.546875 C 24.8125 -15.222656 24.441406 -16.71875 23.703125 -18.03125 C 22.972656 -19.351562 21.960938 -20.378906 20.671875 -21.109375 C 19.378906 -21.847656 17.9375 -22.21875 16.34375 -22.21875 C 14.738281 -22.21875 13.289062 -21.847656 12 -21.109375 C 10.707031 -20.378906 9.691406 -19.351562 8.953125 -18.03125 C 8.222656 -16.71875 7.859375 -15.222656 7.859375 -13.546875 C 7.859375 -11.867188 8.222656 -10.367188 8.953125 -9.046875 C 9.691406 -7.734375 10.707031 -6.707031 12 -5.96875 C 13.289062 -5.238281 14.738281 -4.875 16.34375 -4.875 Z M 16.34375 -4.875 "/></g></g></g><g fill="#efa92a" fill-opacity="1"><g transform="translate(893.424114, 678.356335)"><g><path d="M 16.1875 0.46875 C 13.425781 0.46875 10.925781 -0.128906 8.6875 -1.328125 C 6.457031 -2.535156 4.703125 -4.203125 3.421875 -6.328125 C 2.148438 -8.460938 1.515625 -10.867188 1.515625 -13.546875 C 1.515625 -16.234375 2.148438 -18.640625 3.421875 -20.765625 C 4.703125 -22.898438 6.457031 -24.566406 8.6875 -25.765625 C 10.925781 -26.960938 13.4375 -27.5625 16.21875 -27.5625 C 18.570312 -27.5625 20.695312 -27.148438 22.59375 -26.328125 C 24.488281 -25.503906 26.082031 -24.316406 27.375 -22.765625 L 23.34375 -19.046875 C 21.507812 -21.160156 19.238281 -22.21875 16.53125 -22.21875 C 14.851562 -22.21875 13.351562 -21.847656 12.03125 -21.109375 C 10.71875 -20.378906 9.691406 -19.351562 8.953125 -18.03125 C 8.222656 -16.71875 7.859375 -15.222656 7.859375 -13.546875 C 7.859375 -11.867188 8.222656 -10.367188 8.953125 -9.046875 C 9.691406 -7.734375 10.71875 -6.707031 12.03125 -5.96875 C 13.351562 -5.238281 14.851562 -4.875 16.53125 -4.875 C 19.238281 -4.875 21.507812 -5.945312 23.34375 -8.09375 L 27.375 -4.375 C 26.082031 -2.800781 24.476562 -1.597656 22.5625 -0.765625 C 20.65625 0.0546875 18.53125 0.46875 16.1875 0.46875 Z M 16.1875 0.46875 "/></g></g></g><g fill="#efa92a" fill-opacity="1"><g transform="translate(921.810529, 678.356335)"><g><path d="M 24.203125 -5.03125 L 24.203125 0 L 3.21875 0 L 3.21875 -27.109375 L 23.703125 -27.109375 L 23.703125 -22.0625 L 9.453125 -22.0625 L 9.453125 -16.1875 L 22.03125 -16.1875 L 22.03125 -11.3125 L 9.453125 -11.3125 L 9.453125 -5.03125 Z M 24.203125 -5.03125 "/></g></g></g><g fill="#efa92a" fill-opacity="1"><g transform="translate(947.795856, 678.356335)"><g><path d="M 12.125 0.46875 C 9.976562 0.46875 7.90625 0.175781 5.90625 -0.40625 C 3.90625 -0.988281 2.296875 -1.742188 1.078125 -2.671875 L 3.21875 -7.390625 C 4.375 -6.546875 5.75 -5.863281 7.34375 -5.34375 C 8.945312 -4.820312 10.550781 -4.5625 12.15625 -4.5625 C 13.9375 -4.5625 15.253906 -4.828125 16.109375 -5.359375 C 16.960938 -5.890625 17.390625 -6.59375 17.390625 -7.46875 C 17.390625 -8.113281 17.132812 -8.648438 16.625 -9.078125 C 16.125 -9.503906 15.476562 -9.847656 14.6875 -10.109375 C 13.90625 -10.367188 12.84375 -10.648438 11.5 -10.953125 C 9.4375 -11.441406 7.742188 -11.929688 6.421875 -12.421875 C 5.109375 -12.921875 3.976562 -13.710938 3.03125 -14.796875 C 2.09375 -15.878906 1.625 -17.320312 1.625 -19.125 C 1.625 -20.695312 2.050781 -22.125 2.90625 -23.40625 C 3.757812 -24.6875 5.039062 -25.695312 6.75 -26.4375 C 8.46875 -27.1875 10.566406 -27.5625 13.046875 -27.5625 C 14.773438 -27.5625 16.460938 -27.351562 18.109375 -26.9375 C 19.765625 -26.53125 21.210938 -25.941406 22.453125 -25.171875 L 20.515625 -20.40625 C 18.015625 -21.820312 15.515625 -22.53125 13.015625 -22.53125 C 11.253906 -22.53125 9.953125 -22.242188 9.109375 -21.671875 C 8.273438 -21.109375 7.859375 -20.363281 7.859375 -19.4375 C 7.859375 -18.507812 8.34375 -17.816406 9.3125 -17.359375 C 10.28125 -16.910156 11.757812 -16.46875 13.75 -16.03125 C 15.8125 -15.539062 17.5 -15.050781 18.8125 -14.5625 C 20.132812 -14.070312 21.265625 -13.296875 22.203125 -12.234375 C 23.148438 -11.171875 23.625 -9.738281 23.625 -7.9375 C 23.625 -6.382812 23.191406 -4.96875 22.328125 -3.6875 C 21.460938 -2.414062 20.164062 -1.40625 18.4375 -0.65625 C 16.707031 0.09375 14.601562 0.46875 12.125 0.46875 Z M 12.125 0.46875 "/></g></g></g></svg>